<?xml version="1.0" encoding="utf-8"?>
<!-- Generator: Adobe Illustrator 19.0.0, SVG Export Plug-In . SVG Version: 6.00 Build 0)  -->
<svg version="1.1" id="Слой_1" xmlns="http://www.w3.org/2000/svg" xmlns:xlink="http://www.w3.org/1999/xlink" x="0px" y="0px"
	 viewBox="0 0 303.8 176.9" style="enable-background:new 0 0 303.8 176.9;" xml:space="preserve">
<style type="text/css">
	.st0{fill:#FCE7E8;stroke:#7F8080;stroke-miterlimit:10;}
</style>
<path id="XMLID_53_" class="st0" d="M295.3,165.3c0-2.5,2-4.5,4.5-4.5v-4.1c-2.5,0-4.5-2-4.5-4.5c0-2.5,2-4.5,4.5-4.5v-4.1
	c-2.5,0-4.5-2-4.5-4.5c0-2.5,2-4.5,4.5-4.5v-4.1c-2.5,0-4.5-2-4.5-4.5c0-2.5,2-4.5,4.5-4.5v-5.4c-15.4,0-27.8-12.5-27.8-27.8
	c0-15.4,12.5-27.8,27.8-27.8v-5.5c-2.5,0-4.5-2-4.5-4.5c0-2.5,2-4.5,4.5-4.5V42c-2.5,0-4.5-2-4.5-4.5c0-2.5,2-4.5,4.5-4.5V29
	c-2.5,0-4.5-2-4.5-4.5c0-2.5,2-4.5,4.5-4.5v-4.1c-2.5,0-4.5-2-4.5-4.5s2-4.5,4.5-4.5V2.3H4v4.5c2.5,0,4.5,2,4.5,4.5s-2,4.5-4.5,4.5
	v4.1c2.5,0,4.5,2,4.5,4.5c0,2.5-2,4.5-4.5,4.5V33c2.5,0,4.5,2,4.5,4.5C8.5,40,6.5,42,4,42v4.1c2.5,0,4.5,2,4.5,4.5
	c0,2.5-2,4.5-4.5,4.5v5.5c15.4,0,27.8,12.5,27.8,27.8c0,15.4-12.5,27.8-27.8,27.8v5.4c2.5,0,4.5,2,4.5,4.5c0,2.5-2,4.5-4.5,4.5v4.1
	c2.5,0,4.5,2,4.5,4.5c0,2.5-2,4.5-4.5,4.5v4.1c2.5,0,4.5,2,4.5,4.5c0,2.5-2,4.5-4.5,4.5v4.1c2.5,0,4.5,2,4.5,4.5
	c0,2.5-2,4.5-4.5,4.5v4.7h295.8v-4.7C297.3,169.8,295.3,167.8,295.3,165.3z"/>
</svg>
