<?xml version="1.0" standalone="no"?>
<!DOCTYPE svg PUBLIC "-//W3C//DTD SVG 1.1//EN" "http://www.w3.org/Graphics/SVG/1.1/DTD/svg11.dtd" >
<svg xmlns="http://www.w3.org/2000/svg" xmlns:xlink="http://www.w3.org/1999/xlink" version="1.1">
<metadata>
Created by FontForge 20160407 at Thu Sep 15 12:21:35 2016
 By Jimmy Wärting
(c)2009 Christian Schwartz, under exclusive license to Schwartzco Inc./Commercial Type. All rights reserved.
</metadata>
<defs>
<font id="TWCRound-Medium" horiz-adv-x="400" >
  <font-face 
    font-family="TWC Round Medium"
    font-weight="500"
    font-stretch="normal"
    units-per-em="1000"
    panose-1="2 11 6 3 4 0 0 2 0 4"
    ascent="838"
    descent="-162"
    x-height="525"
    cap-height="705"
    bbox="-153.858 -214.209 1203 930"
    underline-thickness="50"
    underline-position="-100"
    stemh="108"
    stemv="146"
    unicode-range="U+0020-FB02"
  />
<missing-glyph horiz-adv-x="500" 
 />
    <glyph glyph-name="f_f" unicode="ff" horiz-adv-x="647" 
d="M379 427h-156v-360c0 -47 -29 -72 -72 -72h-2c-43 0 -72 25 -72 72v360h-18c-26 0 -48 12 -48 48v2c0 36 22 48 48 48h18v35c0 100 65 145 168 145c18 0 35 -1 52 -5c26 -6 37 -22 37 -49v-2c0 -25 -15 -43 -52 -45c-44 -2 -59 -17 -59 -49v-30h156v40
c0 100 65 145 168 145c18 0 35 -1 52 -5c26 -6 37 -22 37 -49v-2c0 -25 -15 -43 -52 -45c-44 -2 -59 -17 -59 -49v-35h55c26 0 48 -12 48 -48v-2c0 -36 -22 -48 -48 -48h-55v-360c0 -47 -29 -72 -72 -72h-2c-43 0 -72 25 -72 72v360z" />
    <glyph glyph-name=".notdef" horiz-adv-x="500" 
 />
    <glyph glyph-name="Eth" unicode="&#xd0;" horiz-adv-x="687" 
d="M286 0h-134c-51 0 -83 32 -83 83v212h-10c-39 0 -53 24 -53 53v2c0 28 14 52 53 52h10v215c0 51 32 83 83 83h138c235 0 368 -107 368 -347c0 -238 -134 -353 -372 -353zM324 295h-99v-185h61c145 0 212 68 212 241c0 172 -66 237 -212 237h-61v-186h99
c38 0 52 -24 52 -52v-2c0 -29 -14 -53 -52 -53z" />
    <glyph glyph-name="eth" unicode="&#xf0;" horiz-adv-x="588" 
d="M399 642l-6 -5c109 -69 169 -189 169 -356c0 -201 -120 -288 -273 -288s-263 98 -263 258s99 254 238 254c63 0 98 -22 129 -54c-21 48 -52 82 -94 107l-6 -5c-24 -20 -41 -30 -56 -30h-1c-39 0 -51 44 -20 68l2 2l-8 3c-34 10 -50 24 -50 56v4c0 37 26 52 84 40
c25 -6 50 -12 72 -21l6 5c24 20 41 30 56 30h1c39 0 51 -44 20 -68zM174 250c0 -102 52 -153 125 -153s115 51 115 153c0 103 -42 155 -115 155s-125 -52 -125 -155z" />
    <glyph glyph-name="Lslash" unicode="&#x141;" horiz-adv-x="537" 
d="M454 0h-309c-51 0 -83 32 -83 83v149l-3 -1c-30 -12 -55 5 -63 27c-10 27 -1 54 28 65l38 15v290c0 43 25 77 77 77h2c52 0 77 -34 77 -77v-230l115 45c32 12 58 -1 68 -24c12 -27 2 -55 -27 -66l-156 -61v-182h236c36 0 58 -23 58 -54v-2c0 -31 -22 -54 -58 -54z" />
    <glyph glyph-name="lslash" unicode="&#x142;" horiz-adv-x="260" 
d="M129 705c50 0 74 -31 74 -104v-117l3 2c26 15 52 7 64 -15s9 -51 -18 -66l-49 -27v-311c0 -47 -29 -72 -72 -72h-2c-43 0 -72 25 -72 72v232c-22 -7 -42 1 -52 20c-12 22 -9 51 18 66l34 19v227c0 48 20 74 69 74h3z" />
    <glyph glyph-name="Scaron" unicode="&#x160;" horiz-adv-x="533" 
d="M507 205c0 -136 -92 -213 -264 -213c-74 0 -138 14 -173 32s-51 43 -51 78v5c0 34 18 58 51 58c51 0 55 -62 168 -62c85 0 128 32 128 86c0 72 -71 80 -151 105c-128 40 -187 92 -187 210c0 136 102 204 245 204c56 0 109 -9 144 -24c39 -17 53 -39 53 -73v-3
c0 -35 -19 -55 -47 -55c-41 0 -57 43 -149 43c-71 0 -112 -24 -112 -81c0 -53 47 -71 129 -93c152 -41 216 -88 216 -217zM253 829l16 -15l17 15c28 25 47 35 63 35h2c44 0 61 -46 20 -87l-12 -12c-34 -34 -59 -43 -85 -43h-9c-26 0 -51 9 -85 43l-12 12
c-41 41 -24 87 20 87h2c16 0 36 -9 63 -35z" />
    <glyph glyph-name="scaron" unicode="&#x161;" horiz-adv-x="455" 
d="M431 164c0 -103 -67 -170 -219 -170c-55 0 -97 6 -130 19c-40 16 -56 38 -56 74v2c0 33 17 54 47 54c35 0 51 -42 132 -42c59 0 90 16 90 49c0 32 -19 47 -93 56c-115 14 -174 57 -174 160c0 106 79 165 208 165c49 0 86 -5 116 -16c41 -15 53 -37 53 -67v-4
c0 -35 -18 -53 -45 -53c-34 0 -58 33 -123 33c-58 0 -79 -17 -79 -47c0 -27 24 -41 96 -50c125 -16 177 -57 177 -163zM149 595l-9 9c-54 54 -30 104 11 104h3c20 0 38 -9 62 -35l16 -18l16 18c24 26 42 35 62 35h3c41 0 65 -50 11 -104l-9 -9c-30 -30 -51 -38 -80 -38h-6
c-29 0 -50 8 -80 38z" />
    <glyph glyph-name="Yacute" unicode="&#xdd;" horiz-adv-x="608" 
d="M521 705h4c57 0 74 -49 48 -96l-184 -334v-202c0 -53 -34 -78 -77 -78h-2c-43 0 -77 25 -77 78v198l-190 326c-30 53 3 108 66 108h3c34 0 53 -23 81 -73l126 -226h2l127 237c23 42 43 62 73 62zM274 778l11 32c14 40 39 50 79 50h30c51 0 64 -44 27 -75l-38 -33
c-23 -20 -47 -31 -65 -31h-6c-29 0 -50 23 -38 57z" />
    <glyph glyph-name="yacute" unicode="&#xfd;" horiz-adv-x="545" 
d="M511 428l-228 -538c-18 -44 -37 -61 -70 -61h-1c-46 0 -77 42 -49 102l48 101l-172 389c-26 59 -1 109 56 109h2c36 0 58 -23 78 -72l108 -257h2l103 264c17 45 35 65 68 65h1c55 0 77 -44 54 -102zM252 614l10 35c12 40 36 56 76 56h39c43 0 59 -45 27 -75l-46 -44
c-21 -20 -40 -30 -63 -30h-4c-29 0 -49 23 -39 58z" />
    <glyph glyph-name="Thorn" unicode="&#xde;" horiz-adv-x="596" 
d="M141 -5h-2c-43 0 -77 25 -77 78v555c0 43 25 77 77 77h2c52 0 77 -34 77 -77v-57h76c177 0 278 -68 278 -216c0 -147 -102 -217 -282 -217h-72v-65c0 -53 -34 -78 -77 -78zM290 459h-72v-216h72c95 0 125 38 125 110c0 73 -26 106 -125 106z" />
    <glyph glyph-name="thorn" unicode="&#xfe;" horiz-adv-x="588" 
d="M127 705c51 0 74 -31 74 -104v-124c39 32 88 56 159 56c101 0 202 -70 202 -257c0 -198 -113 -270 -230 -270c-57 0 -98 14 -131 38v-139c0 -47 -29 -72 -72 -72h-2c-43 0 -72 25 -72 72v726c0 48 20 74 69 74h3zM300 421c-29 0 -69 -12 -99 -26v-259
c25 -20 56 -29 94 -29c64 0 119 28 119 156c0 127 -52 158 -114 158z" />
    <glyph glyph-name="Zcaron" unicode="&#x17d;" horiz-adv-x="553" 
d="M65 175l294 410v4h-254c-35 0 -55 20 -55 55v2c0 33 20 54 55 54h356c38 0 63 -21 63 -59v-13c0 -39 -6 -58 -35 -98l-300 -418v-4h280c35 0 55 -20 55 -52v-2c0 -33 -20 -54 -55 -54h-383c-32 0 -62 26 -62 61v9c0 37 8 59 41 105zM275 829l16 -15l17 15
c28 25 47 35 63 35h2c44 0 61 -46 20 -87l-12 -12c-34 -34 -59 -43 -85 -43h-9c-26 0 -51 9 -85 43l-12 12c-41 41 -24 87 20 87h2c16 0 36 -9 63 -35z" />
    <glyph glyph-name="zcaron" unicode="&#x17e;" horiz-adv-x="483" 
d="M58 142l234 280h-203c-31 0 -51 20 -51 50v2c0 31 20 51 51 51h307c41 0 63 -21 63 -56v-2c0 -28 -10 -49 -37 -82l-237 -282h213c31 0 51 -20 51 -50v-2c0 -31 -20 -51 -51 -51h-315c-41 0 -63 23 -63 59v2c0 23 8 45 38 81zM166 595l-9 9c-54 54 -30 104 11 104h3
c20 0 38 -9 62 -35l16 -18l16 18c24 26 42 35 62 35h3c41 0 65 -50 11 -104l-9 -9c-30 -30 -51 -38 -80 -38h-6c-29 0 -50 8 -80 38z" />
    <glyph glyph-name="onehalf" unicode="&#xbd;" horiz-adv-x="773" 
d="M609 659l-422 -655c-20 -31 -34 -43 -53 -43h-1c-34 0 -57 34 -30 75l422 655c20 31 34 43 53 43h1c34 0 57 -34 30 -75zM589 84h117c32 0 42 -19 42 -41v-2c0 -22 -10 -41 -42 -41h-203c-22 0 -41 14 -41 46v2c0 25 5 39 38 71l69 64c40 37 60 61 60 86
c0 22 -17 37 -47 37c-39 0 -48 -27 -78 -27c-20 0 -33 14 -33 36v3c0 28 11 43 38 56c26 12 60 17 90 17c92 0 145 -36 145 -113c0 -56 -34 -90 -92 -140zM214 652v-285c0 -42 -25 -57 -55 -57h-6c-31 0 -56 15 -56 57v222l-11 -9c-16 -13 -27 -19 -38 -19
c-14 0 -25 9 -25 34v7c0 30 10 48 46 67l23 12c19 10 46 19 67 19h3c34 0 52 -15 52 -48z" />
    <glyph glyph-name="onequarter" unicode="&#xbc;" horiz-adv-x="726" 
d="M666 79v-31c0 -39 -24 -53 -53 -53h-2c-29 0 -53 14 -53 53v31h-132c-25 0 -43 17 -43 48v2c0 26 8 43 36 77l108 136c28 35 48 48 83 48h2c32 0 54 -14 54 -56v-182h13c27 0 35 -16 35 -35v-2c0 -20 -8 -36 -35 -36h-13zM556 268l-91 -114v-2h94v116h-3zM609 659
l-422 -655c-20 -31 -34 -43 -53 -43h-1c-34 0 -57 34 -30 75l422 655c20 31 34 43 53 43h1c34 0 57 -34 30 -75zM214 652v-285c0 -42 -25 -57 -55 -57h-6c-31 0 -56 15 -56 57v222l-11 -9c-16 -13 -27 -19 -38 -19c-14 0 -25 9 -25 34v7c0 30 10 48 46 67l23 12
c19 10 46 19 67 19h3c34 0 52 -15 52 -48z" />
    <glyph glyph-name="threequarters" unicode="&#xbe;" horiz-adv-x="772" 
d="M712 79v-31c0 -39 -24 -53 -53 -53h-2c-29 0 -53 14 -53 53v31h-132c-25 0 -43 17 -43 48v2c0 26 8 43 36 77l108 136c28 35 48 48 83 48h2c32 0 54 -14 54 -56v-182h13c27 0 35 -16 35 -35v-2c0 -20 -8 -36 -35 -36h-13zM602 268l-91 -114v-2h94v116h-3zM661 659
l-422 -655c-20 -31 -34 -43 -53 -43h-1c-34 0 -57 34 -30 75l422 655c20 31 34 43 53 43h1c34 0 57 -34 30 -75zM199 429c0 24 -17 36 -49 39l-10 1c-29 3 -41 14 -41 36v6c0 23 12 33 41 36l10 1c30 3 47 14 47 38c0 25 -17 38 -50 38c-37 0 -50 -24 -75 -24
c-19 0 -32 13 -32 36v4c0 22 8 35 31 47c21 11 55 19 92 19c81 0 141 -33 141 -107c0 -47 -32 -73 -78 -86v-2c53 -9 84 -37 84 -88c0 -74 -63 -114 -163 -114c-29 0 -60 4 -83 14c-25 11 -36 27 -36 51v3c0 21 12 35 32 35c27 0 34 -26 76 -26c39 0 63 13 63 43z" />
    <glyph glyph-name="brokenbar" unicode="&#xa6;" horiz-adv-x="176" 
d="M30 8v248c0 41 26 57 57 57h2c31 0 57 -16 57 -57v-250c0 -41 -26 -55 -57 -55h-2c-32 0 -57 15 -57 57zM146 690v-245c0 -41 -26 -57 -57 -57h-2c-31 0 -57 16 -57 57v245c0 41 25 56 57 56h2c31 0 57 -15 57 -56z" />
    <glyph glyph-name="minus" unicode="&#x2212;" horiz-adv-x="529" 
d="M508 347v-2c0 -32 -15 -57 -56 -57h-374c-42 0 -57 25 -57 57v2c0 31 15 56 57 56h374c41 0 56 -25 56 -56z" />
    <glyph glyph-name="multiply" unicode="&#xd7;" horiz-adv-x="513" 
d="M257 261l-112 -112c-26 -26 -55 -21 -76 0l-2 2c-21 21 -26 50 0 76l112 112l-112 112c-26 26 -21 55 0 76l2 2c21 21 50 26 76 0l112 -112l112 112c26 26 55 21 76 0l1 -2c21 -21 26 -50 0 -76l-112 -112l112 -112c26 -26 21 -55 0 -76l-1 -2c-21 -21 -50 -26 -76 0z
" />
    <glyph glyph-name="space" unicode=" " horiz-adv-x="169" 
 />
    <glyph glyph-name="exclam" unicode="!" horiz-adv-x="284" 
d="M143 206h-2c-26 0 -49 17 -51 52c0 0 -26 335 -26 370c0 47 25 77 76 77h4c51 0 76 -30 76 -77c0 -35 -26 -370 -26 -370c-2 -35 -25 -52 -51 -52zM224 74c0 -45 -37 -80 -82 -80c-46 0 -82 35 -82 80s36 81 82 81c45 0 82 -36 82 -81z" />
    <glyph glyph-name="quotedbl" unicode="&#x22;" horiz-adv-x="369" 
d="M95 471h-2c-23 0 -44 13 -49 48c0 0 -18 93 -18 130c0 36 14 51 50 51h37c36 0 49 -15 49 -51c0 -37 -18 -130 -18 -130c-6 -35 -26 -48 -49 -48zM276 471h-2c-23 0 -44 13 -49 48c0 0 -18 93 -18 130c0 36 14 51 50 51h37c36 0 49 -15 49 -51c0 -37 -18 -130 -18 -130
c-6 -35 -26 -48 -49 -48z" />
    <glyph glyph-name="numbersign" unicode="#" horiz-adv-x="547" 
d="M329 415h-96l-15 -106h96zM79 54l21 146h-27c-40 0 -54 24 -54 54v2c0 29 14 53 54 53h43l15 106h-26c-40 0 -54 24 -54 54v2c0 29 14 53 54 53h42l19 128c5 34 22 53 51 53h2c33 0 53 -22 48 -59l-18 -122h96l19 128c5 34 22 53 51 53h2c33 0 53 -22 48 -59l-18 -122h28
c39 0 53 -24 53 -53v-2c0 -30 -14 -54 -53 -54h-44l-15 -106h27c39 0 53 -24 53 -53v-2c0 -30 -14 -54 -53 -54h-43l-22 -152c-5 -34 -22 -53 -51 -53h-2c-33 0 -53 22 -48 59l21 146h-96l-22 -152c-5 -34 -22 -53 -51 -53h-2c-33 0 -53 22 -48 59z" />
    <glyph glyph-name="dollar" unicode="$" horiz-adv-x="540" 
d="M212 -64v57c-53 3 -96 11 -134 30c-33 16 -51 36 -51 73v16c0 32 15 52 46 52c44 0 67 -52 139 -65v203c-123 38 -193 88 -193 202c0 121 83 188 203 201v21c0 33 20 43 44 43h2c23 0 43 -10 43 -43v-20c39 -2 73 -9 104 -20c36 -13 53 -36 53 -74v-14
c0 -30 -17 -46 -42 -46c-35 0 -54 38 -115 50v-188c142 -39 203 -85 203 -209c0 -122 -74 -197 -213 -210v-59c0 -33 -20 -43 -43 -43h-2c-24 0 -44 10 -44 43zM380 187c0 53 -27 72 -79 89v-175c56 12 79 44 79 86zM146 519c0 -41 23 -61 76 -80v162
c-52 -10 -76 -38 -76 -82z" />
    <glyph glyph-name="percent" unicode="%" horiz-adv-x="829" 
d="M372 523c0 -127 -85 -189 -177 -189s-177 62 -177 189s85 185 177 185s177 -58 177 -185zM133 521c0 -73 24 -105 62 -105s62 32 62 105c0 74 -24 105 -62 105s-62 -31 -62 -105zM811 181c0 -127 -85 -189 -177 -189s-177 62 -177 189s85 185 177 185s177 -58 177 -185z
M572 179c0 -73 24 -105 62 -105s62 32 62 105c0 74 -24 105 -62 105s-62 -31 -62 -105zM668 657l-425 -657c-19 -30 -33 -39 -51 -39h-2c-37 0 -58 37 -32 77l425 657c19 30 33 39 51 39h2c37 0 58 -37 32 -77z" />
    <glyph glyph-name="ampersand" unicode="&#x26;" horiz-adv-x="681" 
d="M570 -5h-5c-35 0 -51 8 -92 53l-9 10c-52 -42 -116 -66 -193 -66c-164 0 -249 80 -249 205c0 95 67 161 145 197c-24 38 -37 76 -37 127c0 110 83 187 228 187c38 0 76 -6 104 -18c36 -15 50 -35 50 -76v-6c0 -31 -19 -51 -48 -51c-34 0 -53 37 -106 37
c-48 0 -82 -27 -82 -74c0 -35 16 -58 52 -98l145 -163c13 35 22 68 32 105c12 45 31 64 67 64h4c50 0 64 -27 52 -79c-15 -64 -45 -132 -73 -181l59 -66c42 -46 7 -107 -44 -107zM175 212c0 -62 37 -111 122 -111c37 0 69 13 96 35l-167 187c-30 -26 -51 -59 -51 -111z" />
    <glyph glyph-name="quotesingle" unicode="'" horiz-adv-x="188" 
d="M95 471h-2c-23 0 -44 13 -49 48c0 0 -18 93 -18 130c0 36 14 51 50 51h37c36 0 49 -15 49 -51c0 -37 -18 -130 -18 -130c-6 -35 -26 -48 -49 -48z" />
    <glyph glyph-name="parenleft" unicode="(" horiz-adv-x="337" 
d="M328 -3c0 -28 -17 -48 -51 -48c-25 0 -49 9 -75 26c-105 69 -171 195 -171 376c0 171 65 297 170 366c26 17 52 26 75 26c34 0 52 -20 52 -48c0 -18 -8 -32 -20 -46c-43 -49 -138 -98 -138 -298c0 -208 95 -259 138 -308c12 -14 20 -28 20 -46z" />
    <glyph glyph-name="parenright" unicode=")" horiz-adv-x="337" 
d="M9 -3c0 18 8 32 20 46c43 49 138 100 138 308c0 200 -95 249 -138 298c-12 14 -20 28 -20 46c0 28 18 48 52 48c23 0 49 -9 75 -26c105 -69 170 -195 170 -366c0 -181 -66 -307 -171 -376c-26 -17 -50 -26 -75 -26c-34 0 -51 20 -51 48z" />
    <glyph glyph-name="asterisk" unicode="*" horiz-adv-x="382" 
d="M144 518c-37 -4 -65 -3 -85 3c-27 8 -40 31 -31 61l2 6c10 30 34 40 61 32c19 -7 43 -22 72 -47c-14 34 -22 62 -22 83c0 28 17 48 48 48h7c31 0 48 -20 48 -48c0 -21 -7 -49 -22 -83c29 25 53 40 72 47c26 8 51 -2 61 -32l2 -6c9 -30 -4 -53 -31 -61
c-20 -6 -46 -8 -85 -4c31 -18 55 -36 67 -52c16 -22 13 -50 -11 -68l-6 -4c-25 -18 -50 -12 -67 11c-12 17 -22 41 -31 78c-9 -37 -20 -61 -32 -78c-17 -23 -42 -29 -67 -11l-6 4c-25 18 -27 46 -11 68c12 16 36 34 67 53z" />
    <glyph glyph-name="plus" unicode="+" horiz-adv-x="529" 
d="M508 347v-2c0 -32 -15 -57 -56 -57h-126v-133c0 -43 -27 -60 -60 -60h-2c-33 0 -60 17 -60 60v133h-126c-42 0 -57 25 -57 57v2c0 31 15 56 57 56h126v133c0 43 27 60 60 60h2c33 0 60 -17 60 -60v-133h126c41 0 56 -25 56 -56z" />
    <glyph glyph-name="comma" unicode="," horiz-adv-x="224" 
d="M25 -76v1c0 18 6 26 32 36c27 10 35 20 35 32c0 10 -6 18 -26 30c-21 13 -36 30 -36 62c0 40 34 70 79 70c46 0 87 -31 87 -96c0 -96 -51 -152 -131 -162c-25 -3 -40 5 -40 27z" />
    <glyph glyph-name="hyphen" unicode="-" horiz-adv-x="303" 
d="M213 238h-123c-35 0 -59 26 -59 59v2c0 32 24 58 59 58h123c35 0 59 -26 59 -58v-2c0 -33 -24 -59 -59 -59z" />
    <glyph glyph-name="period" unicode="." horiz-adv-x="224" 
d="M194 74c0 -45 -37 -80 -82 -80c-46 0 -82 35 -82 80s36 81 82 81c45 0 82 -36 82 -81z" />
    <glyph glyph-name="slash" unicode="/" horiz-adv-x="352" 
d="M17 27l203 662c11 37 31 57 59 57h3c43 0 64 -35 50 -81l-203 -662c-11 -37 -31 -57 -59 -57h-3c-43 0 -64 35 -50 81z" />
    <glyph glyph-name="zero" unicode="0" horiz-adv-x="668" 
d="M334 -8c-160 0 -303 115 -303 358s143 358 303 358s303 -115 303 -358s-143 -358 -303 -358zM334 100c89 0 144 65 144 247c0 183 -55 251 -144 251c-90 0 -144 -68 -144 -251c0 -182 54 -247 144 -247z" />
    <glyph glyph-name="one" unicode="1" horiz-adv-x="380" 
d="M297 647v-575c0 -52 -35 -77 -77 -77h-2c-42 0 -77 25 -77 77v460l-30 -18c-32 -20 -45 -27 -61 -27c-20 1 -32 16 -32 44v24c0 36 17 51 44 67l99 58c29 17 46 25 72 25h12c33 0 52 -17 52 -58z" />
    <glyph glyph-name="two" unicode="2" horiz-adv-x="535" 
d="M447 122c43 0 60 -27 60 -60v-2c0 -33 -17 -60 -60 -60h-366c-44 0 -61 28 -61 65v2c0 46 12 67 54 108l142 137c92 88 126 137 126 193c0 53 -35 86 -98 86c-88 0 -106 -55 -154 -55c-29 0 -51 23 -51 56v5c0 31 12 56 61 79c37 17 96 32 152 32c154 0 246 -62 246 -197
c0 -100 -64 -171 -173 -271l-129 -118h251z" />
    <glyph glyph-name="three" unicode="3" horiz-adv-x="522" 
d="M494 201c0 -136 -117 -209 -275 -209c-64 0 -110 9 -148 25c-36 15 -54 39 -54 74v6c0 33 19 60 54 60c47 -1 53 -52 137 -52c74 0 131 34 131 101c0 56 -31 87 -112 93l-12 1c-41 3 -60 20 -60 52v9c0 31 17 49 52 52l11 1c73 7 118 28 118 91c0 58 -33 89 -98 89
c-84 0 -101 -50 -146 -50c-27 0 -49 18 -49 53v5c0 33 15 55 50 73c42 21 98 33 157 33c142 0 233 -57 233 -189c0 -89 -53 -133 -127 -156v-4c86 -15 138 -66 138 -158z" />
    <glyph glyph-name="four" unicode="4" horiz-adv-x="588" 
d="M486 148v-77c0 -52 -32 -76 -75 -76h-2c-44 0 -76 24 -76 76v77h-251c-45 0 -65 29 -65 64v10c0 36 10 64 53 121l221 291c38 50 64 71 119 71h2c41 0 74 -23 74 -72v-376h36c39 0 53 -24 53 -53v-2c0 -30 -14 -54 -53 -54h-36zM134 261v-4h199v260h-4z" />
    <glyph glyph-name="five" unicode="5" horiz-adv-x="535" 
d="M218 -8c-49 0 -92 7 -124 19c-52 19 -70 46 -70 82v3c0 36 20 59 53 59c42 0 62 -51 139 -51s136 42 136 120c0 80 -45 114 -102 114c-64 0 -89 -45 -147 -45c-36 0 -56 19 -56 56v268c0 56 37 83 83 83h284c43 0 60 -27 60 -60v-2c0 -33 -17 -60 -60 -60h-255v-164h3
c23 17 66 35 127 35c122 0 218 -68 218 -220c0 -148 -119 -237 -289 -237z" />
    <glyph glyph-name="six" unicode="6" horiz-adv-x="603" 
d="M351 444c132 0 225 -79 225 -216c0 -138 -106 -236 -266 -236s-279 112 -279 343c0 239 130 373 346 373c51 0 90 -8 116 -20c28 -13 41 -32 41 -62v-5c0 -40 -21 -58 -48 -58c-35 0 -53 33 -116 33c-119 0 -168 -76 -180 -204c39 35 98 52 161 52zM313 339
c-48 0 -97 -18 -126 -39c4 -146 47 -206 123 -206c82 0 112 54 112 129c0 74 -40 116 -109 116z" />
    <glyph glyph-name="seven" unicode="7" horiz-adv-x="522" 
d="M188 -5h-8c-55 0 -87 46 -54 107l253 472v4h-302c-43 0 -60 27 -60 60v2c0 33 17 60 60 60h352c36 0 65 -19 65 -65v-6c0 -49 -10 -83 -29 -130l-178 -419c-27 -62 -56 -85 -99 -85z" />
    <glyph glyph-name="eight" unicode="8" horiz-adv-x="596" 
d="M298 -8c-176 0 -273 78 -273 207c0 89 52 146 137 174v4c-68 24 -107 70 -107 145c0 117 99 186 243 186s243 -69 243 -186c0 -75 -38 -121 -107 -145v-4c85 -28 137 -85 137 -174c0 -129 -97 -207 -273 -207zM298 94c82 0 123 49 123 113s-41 115 -123 115
c-83 0 -123 -51 -123 -115s40 -113 123 -113zM298 424c59 0 97 31 97 89s-38 90 -97 90c-60 0 -97 -32 -97 -90s37 -89 97 -89z" />
    <glyph glyph-name="nine" unicode="9" horiz-adv-x="603" 
d="M255 256c-135 0 -228 75 -228 212c0 138 106 240 266 240s279 -112 279 -343c0 -239 -125 -373 -351 -373c-37 0 -69 4 -92 10c-48 13 -67 41 -67 76v2c0 36 23 55 53 55c32 0 53 -33 113 -33c132 0 174 74 185 199c-42 -31 -102 -45 -158 -45zM290 361
c48 0 97 17 126 38c-4 149 -47 207 -123 207c-82 0 -112 -58 -112 -133c0 -74 40 -112 109 -112z" />
    <glyph glyph-name="colon" unicode=":" horiz-adv-x="224" 
d="M194 74c0 -45 -37 -80 -82 -80c-46 0 -82 35 -82 80s36 81 82 81c45 0 82 -36 82 -81zM194 364c0 -45 -37 -80 -82 -80c-46 0 -82 35 -82 80s36 81 82 81c45 0 82 -36 82 -81z" />
    <glyph glyph-name="semicolon" unicode=";" horiz-adv-x="224" 
d="M194 364c0 -45 -37 -80 -82 -80c-46 0 -82 35 -82 80s36 81 82 81c45 0 82 -36 82 -81zM23 -76v1c0 18 6 26 32 36c27 10 35 20 35 32c0 10 -6 18 -26 30c-21 13 -36 30 -36 62c0 40 34 70 79 70c46 0 87 -31 87 -96c0 -96 -51 -152 -131 -162c-25 -3 -40 5 -40 27z" />
    <glyph glyph-name="less" unicode="&#x3c;" horiz-adv-x="476" 
d="M366 112l-296 147c-37 18 -50 40 -50 70v3c0 29 12 49 50 68l296 147c43 21 85 4 85 -43v-2c0 -24 -13 -44 -55 -64l-222 -105v-3l222 -107c42 -20 55 -40 55 -64v-4c0 -47 -42 -64 -85 -43z" />
    <glyph glyph-name="equal" unicode="=" horiz-adv-x="507" 
d="M482 421v-2c0 -32 -15 -57 -56 -57h-344c-42 0 -57 25 -57 57v2c0 31 15 56 57 56h344c41 0 56 -25 56 -56zM482 211v-2c0 -32 -15 -57 -56 -57h-344c-42 0 -57 25 -57 57v2c0 31 15 56 57 56h344c41 0 56 -25 56 -56z" />
    <glyph glyph-name="greater" unicode="&#x3e;" horiz-adv-x="476" 
d="M406 255l-296 -147c-43 -21 -85 -4 -85 43v4c0 24 13 44 55 64l222 107v3l-222 105c-42 20 -55 40 -55 64v2c0 47 42 64 85 43l296 -147c38 -19 50 -39 50 -68v-3c0 -30 -13 -52 -50 -70z" />
    <glyph glyph-name="question" unicode="?" horiz-adv-x="449" 
d="M180 202h-5c-37 0 -58 22 -58 59s20 83 71 134c44 44 78 77 78 131c0 45 -32 68 -75 68c-64 0 -83 -47 -131 -47c-25 0 -41 17 -41 53v11c0 34 11 55 50 71c36 16 78 26 131 26c137 0 220 -61 220 -181c0 -145 -141 -171 -174 -271c-12 -36 -34 -54 -66 -54zM260 74
c0 -45 -37 -80 -82 -80c-46 0 -82 35 -82 80s36 81 82 81c45 0 82 -36 82 -81z" />
    <glyph glyph-name="at" unicode="@" horiz-adv-x="880" 
d="M466 367c-68 0 -113 -75 -113 -158c0 -35 16 -52 42 -52c28 0 58 14 81 39l38 163c-11 4 -22 8 -48 8zM446 -134c-209 0 -421 112 -421 374c0 277 230 427 438 427c211 0 392 -119 392 -331c0 -187 -116 -270 -243 -270c-81 0 -118 25 -132 63c-28 -33 -69 -63 -130 -63
c-76 0 -126 48 -126 143c0 117 82 250 224 250c52 0 79 -17 102 -40c18 27 37 38 67 38h3c32 0 45 -16 38 -48l-45 -199c-7 -32 -4 -57 30 -57c63 0 108 55 108 183c0 151 -115 242 -288 242c-167 0 -327 -108 -327 -338c0 -203 139 -285 310 -285c177 0 204 65 252 65
c24 0 38 -13 38 -40v-3c0 -27 -14 -45 -42 -60c-64 -34 -158 -51 -248 -51z" />
    <glyph glyph-name="A" unicode="A" horiz-adv-x="669" 
d="M93 -5h-4c-44 0 -72 33 -52 88l191 543c19 53 54 79 106 79h6c51 0 83 -28 102 -81l189 -535c21 -59 -14 -94 -58 -94h-8c-47 0 -72 18 -88 67l-38 116h-236l-37 -118c-14 -44 -37 -65 -73 -65zM318 543l-82 -258h168l-84 258h-2z" />
    <glyph glyph-name="B" unicode="B" horiz-adv-x="603" 
d="M215 312v-202h91c75 0 109 39 109 101c0 63 -36 101 -109 101h-91zM215 590v-173h83c67 0 97 28 97 88c0 56 -30 85 -97 85h-83zM310 0h-165c-51 0 -83 32 -83 83v534c0 51 32 83 83 83h157c165 0 247 -57 247 -184c0 -84 -50 -129 -124 -145v-4c89 -17 150 -64 150 -163
c0 -131 -94 -204 -265 -204z" />
    <glyph glyph-name="C" unicode="C" horiz-adv-x="615" 
d="M527 25c-39 -20 -102 -33 -163 -33c-202 0 -334 132 -334 356s143 360 346 360c62 0 110 -8 151 -26c38 -17 56 -40 56 -76v-3c0 -37 -22 -60 -52 -60c-44 0 -69 52 -158 52c-115 0 -183 -85 -183 -241c0 -170 61 -250 181 -250c111 0 121 69 170 69c32 0 52 -22 52 -55
v-5c0 -37 -19 -64 -66 -88z" />
    <glyph glyph-name="D" unicode="D" horiz-adv-x="680" 
d="M279 0h-134c-51 0 -83 32 -83 83v534c0 51 32 83 83 83h138c235 0 368 -107 368 -347c0 -238 -134 -353 -372 -353zM218 588v-478h61c145 0 212 68 212 241c0 172 -66 237 -212 237h-61z" />
    <glyph glyph-name="E" unicode="E" horiz-adv-x="567" 
d="M480 0h-335c-51 0 -83 32 -83 83v534c0 51 32 83 83 83h323c36 0 55 -21 55 -55v-2c0 -34 -19 -56 -55 -56h-252v-177h176c35 0 54 -19 54 -53v-2c0 -36 -19 -54 -54 -54h-176v-191h264c35 0 54 -19 54 -54v-2c0 -35 -19 -54 -54 -54z" />
    <glyph glyph-name="F" unicode="F" horiz-adv-x="556" 
d="M218 287v-215c0 -47 -30 -77 -77 -77h-2c-47 0 -77 30 -77 77v545c0 51 32 83 83 83h328c36 0 55 -21 55 -55v-2c0 -34 -19 -56 -55 -56h-255v-189h185c35 0 54 -20 54 -54v-2c0 -36 -19 -55 -54 -55h-185z" />
    <glyph glyph-name="G" unicode="G" horiz-adv-x="666" 
d="M526 13c-37 -12 -100 -21 -165 -21c-208 0 -332 127 -332 356s131 360 350 360c65 0 117 -8 156 -25c31 -14 48 -35 48 -70v-10c0 -40 -21 -57 -49 -57c-43 0 -56 47 -157 47c-116 0 -184 -67 -184 -239c0 -173 55 -255 168 -255c45 0 72 5 97 13v141h-57
c-36 0 -55 21 -55 55v2c0 33 19 55 55 55h132c52 0 78 -33 78 -83v-165c0 -55 -25 -85 -85 -104z" />
    <glyph glyph-name="H" unicode="H" horiz-adv-x="693" 
d="M218 303v-231c0 -49 -28 -77 -77 -77h-2c-48 0 -77 28 -77 77v556c0 46 29 77 77 77h2c49 0 77 -31 77 -77v-216h257v216c0 46 28 77 77 77h2c48 0 77 -31 77 -77v-556c0 -49 -29 -77 -77 -77h-2c-49 0 -77 28 -77 77v231h-257z" />
    <glyph glyph-name="I" unicode="I" horiz-adv-x="287" 
d="M222 628v-555c0 -53 -34 -78 -77 -78h-2c-43 0 -78 25 -78 78v555c0 43 26 77 78 77h2c52 0 77 -34 77 -77z" />
    <glyph glyph-name="J" unicode="J" horiz-adv-x="465" 
d="M407 184c0 -123 -76 -192 -231 -192c-38 0 -70 3 -97 11c-42 12 -62 32 -62 73v13c0 31 17 53 48 53c32 0 47 -38 104 -38c52 0 81 28 81 83v441c0 45 26 77 78 77h2c52 0 77 -32 77 -77v-444z" />
    <glyph glyph-name="K" unicode="K" horiz-adv-x="668" 
d="M218 628v-239l241 275c30 34 48 41 67 41h2c48 0 82 -57 38 -105l-162 -179l191 -305c39 -62 4 -121 -58 -121h-1c-31 0 -50 13 -78 58l-160 256l-80 -90v-146c0 -53 -34 -78 -77 -78h-2c-43 0 -77 25 -77 78v555c0 43 25 77 77 77h2c52 0 77 -34 77 -77z" />
    <glyph glyph-name="L" unicode="L" horiz-adv-x="537" 
d="M454 0h-309c-51 0 -83 32 -83 83v545c0 43 25 77 77 77h2c52 0 77 -34 77 -77v-518h236c36 0 58 -23 58 -54v-2c0 -31 -22 -54 -58 -54z" />
    <glyph glyph-name="M" unicode="M" horiz-adv-x="855" 
d="M126 -5h-2c-38 0 -62 22 -62 62v560c0 50 31 83 83 83h56c47 0 78 -21 97 -78l130 -388h3l129 388c19 57 50 78 97 78h53c52 0 83 -33 83 -83v-546c0 -49 -30 -76 -76 -76h-2c-46 0 -76 27 -76 76v451h-3l-162 -478c-13 -37 -34 -49 -61 -49h-2c-27 0 -48 12 -61 50
l-159 477h-3v-465c0 -40 -24 -62 -62 -62z" />
    <glyph glyph-name="N" unicode="N" horiz-adv-x="693" 
d="M128 -5h-2c-38 0 -64 22 -64 64v558c0 50 31 83 83 83h26c50 0 80 -22 110 -73l216 -376h3v390c0 45 29 64 65 64h2c36 0 64 -19 64 -64v-571c0 -42 -30 -70 -75 -70h-7c-44 0 -69 16 -94 59l-260 452h-3v-452c0 -42 -26 -64 -64 -64z" />
    <glyph glyph-name="O" unicode="O" horiz-adv-x="730" 
d="M701 350c0 -231 -157 -358 -336 -358s-336 127 -336 358s157 358 336 358s336 -127 336 -358zM189 347c0 -171 73 -247 176 -247c102 0 176 76 176 247c0 172 -74 251 -176 251c-103 0 -176 -79 -176 -251z" />
    <glyph glyph-name="P" unicode="P" horiz-adv-x="596" 
d="M141 -5h-2c-43 0 -77 25 -77 78v544c0 51 32 83 83 83h149c177 0 278 -70 278 -223c0 -151 -102 -224 -282 -224h-72v-180c0 -53 -34 -78 -77 -78zM290 588h-72v-230h72c95 0 125 43 125 117c0 75 -26 113 -125 113z" />
    <glyph glyph-name="Q" unicode="Q" horiz-adv-x="730" 
d="M682 -124c-12 0 -24 2 -45 8l-291 89c-192 56 -317 159 -317 377c0 231 157 358 336 358c180 0 336 -127 336 -358c0 -156 -73 -266 -197 -313v-2l163 -26c46 -6 61 -24 61 -68v-17c0 -34 -21 -48 -46 -48zM189 347c0 -171 73 -248 176 -248c102 0 176 77 176 248
c0 172 -74 251 -176 251c-103 0 -176 -79 -176 -251z" />
    <glyph glyph-name="R" unicode="R" horiz-adv-x="632" 
d="M515 -5h-6c-35 0 -60 17 -85 64l-117 215h-89v-202c0 -52 -34 -77 -77 -77h-2c-43 0 -77 25 -77 77v545c0 51 32 83 83 83h152c172 0 269 -70 269 -205c0 -93 -41 -156 -112 -191l114 -204c31 -56 6 -105 -53 -105zM293 589h-75v-208h75c82 0 116 36 116 105
c0 68 -34 103 -116 103z" />
    <glyph glyph-name="S" unicode="S" horiz-adv-x="533" 
d="M507 205c0 -136 -92 -213 -264 -213c-74 0 -138 14 -173 32s-51 43 -51 78v5c0 34 18 58 51 58c51 0 55 -62 168 -62c85 0 128 32 128 86c0 72 -71 80 -151 105c-128 40 -187 92 -187 210c0 136 102 204 245 204c56 0 109 -9 144 -24c39 -17 53 -39 53 -73v-3
c0 -35 -19 -55 -47 -55c-41 0 -57 43 -149 43c-71 0 -112 -24 -112 -81c0 -53 47 -71 129 -93c152 -41 216 -88 216 -217z" />
    <glyph glyph-name="T" unicode="T" horiz-adv-x="587" 
d="M511 590h-140v-517c0 -53 -34 -78 -77 -78h-2c-43 0 -77 25 -77 78v517h-140c-36 0 -55 19 -55 54v2c0 35 19 54 55 54h436c36 0 55 -19 55 -54v-2c0 -35 -19 -54 -55 -54z" />
    <glyph glyph-name="U" unicode="U" horiz-adv-x="678" 
d="M215 270c0 -131 52 -163 142 -163c85 0 132 32 132 163v371c0 41 24 64 64 64h2c40 0 64 -23 64 -64v-367c0 -180 -73 -282 -271 -282c-190 0 -289 102 -289 282v354c0 44 26 77 77 77h2c51 0 77 -33 77 -77v-358z" />
    <glyph glyph-name="V" unicode="V" horiz-adv-x="661" 
d="M341 184l152 461c13 38 38 60 71 60h3c50 0 75 -40 58 -89l-188 -539c-23 -65 -54 -82 -104 -82h-6c-50 0 -81 17 -104 82l-183 527c-19 56 11 101 69 101h4c38 0 63 -25 78 -69l148 -452h2z" />
    <glyph glyph-name="W" unicode="W" horiz-adv-x="917" 
d="M659 193l92 448c9 43 34 64 68 64h3c52 0 73 -39 62 -88l-127 -533c-16 -67 -50 -89 -103 -89h-6c-54 0 -88 23 -104 91l-85 372h-2l-85 -374c-15 -67 -50 -89 -103 -89h-6c-54 0 -88 22 -104 90l-123 519c-13 57 11 101 68 101h4c37 0 67 -25 77 -70l94 -442h2l103 435
c13 54 39 77 83 77h2c43 0 69 -23 82 -78l106 -434h2z" />
    <glyph glyph-name="X" unicode="X" horiz-adv-x="651" 
d="M306 266l-135 -217c-26 -41 -45 -54 -71 -54h-1c-52 0 -80 53 -49 102l172 268l-154 217c-39 56 -11 123 54 123h1c23 0 47 -11 75 -52l138 -199l123 197c26 41 44 54 70 54h1c52 0 80 -53 49 -102l-158 -249l165 -236c39 -56 11 -123 -54 -123h-1c-23 0 -47 11 -75 52z
" />
    <glyph glyph-name="Y" unicode="Y" horiz-adv-x="608" 
d="M521 705h4c57 0 74 -49 48 -96l-184 -334v-202c0 -53 -34 -78 -77 -78h-2c-43 0 -77 25 -77 78v198l-190 326c-30 53 3 108 66 108h3c34 0 53 -23 81 -73l126 -226h2l127 237c23 42 43 62 73 62z" />
    <glyph glyph-name="Z" unicode="Z" horiz-adv-x="553" 
d="M65 175l294 410v4h-254c-35 0 -55 20 -55 55v2c0 33 20 54 55 54h356c38 0 63 -21 63 -59v-13c0 -39 -6 -58 -35 -98l-300 -418v-4h280c35 0 55 -20 55 -52v-2c0 -33 -20 -54 -55 -54h-383c-32 0 -62 26 -62 61v9c0 37 8 59 41 105z" />
    <glyph glyph-name="bracketleft" unicode="[" horiz-adv-x="338" 
d="M265 -49h-112c-46 0 -83 27 -83 83v624c0 56 37 83 83 83h112c36 0 47 -21 47 -47v-2c0 -26 -11 -47 -47 -47h-59v-598h59c36 0 47 -21 47 -47v-2c0 -26 -11 -47 -47 -47z" />
    <glyph glyph-name="backslash" unicode="\" horiz-adv-x="352" 
d="M132 689l203 -662c14 -46 -7 -81 -50 -81h-3c-28 0 -48 20 -59 57l-203 662c-14 46 7 81 50 81h3c28 0 48 -20 59 -57z" />
    <glyph glyph-name="bracketright" unicode="]" horiz-adv-x="338" 
d="M185 -49h-112c-36 0 -47 21 -47 47v2c0 26 11 47 47 47h59v598h-59c-36 0 -47 21 -47 47v2c0 26 11 47 47 47h112c46 0 83 -27 83 -83v-624c0 -56 -37 -83 -83 -83z" />
    <glyph glyph-name="asciicircum" unicode="^" horiz-adv-x="907" 
d="M495 219c64 0 123 59 123 125c0 86 -77 157 -172 157c-119 0 -214 -93 -214 -207c0 -152 130 -276 298 -294c13 -1 22 -10 22 -24c0 -17 -14 -27 -28 -25c-193 21 -342 166 -342 343c0 141 118 256 264 256c122 0 221 -93 221 -206c0 -30 -10 -62 -31 -90
c65 39 121 93 166 156c-87 125 -223 205 -356 205c-154 0 -286 -91 -366 -229c-6 -11 -21 -17 -34 -9c-13 7 -16 21 -9 33c86 154 236 254 409 254c161 0 321 -102 415 -254c-94 -145 -239 -239 -366 -239c-90 0 -165 66 -165 149c0 63 52 114 116 114c53 0 97 -38 105 -88
c3 -13 -3 -30 -25 -30c-12 0 -21 8 -23 21c-5 28 -29 48 -57 48c-37 0 -66 -29 -66 -65c0 -55 52 -101 115 -101z" />
    <glyph glyph-name="underscore" unicode="_" horiz-adv-x="373" 
d="M380 -115v-2c0 -24 -11 -45 -45 -45h-296c-35 0 -46 21 -46 45v2c0 25 11 46 46 46h296c34 0 45 -21 45 -46z" />
    <glyph glyph-name="grave" unicode="`" 
d="M230 649l10 -35c10 -35 -10 -58 -39 -58h-4c-23 0 -42 10 -63 30l-46 44c-32 30 -16 75 27 75h39c40 0 64 -16 76 -56z" />
    <glyph glyph-name="a" unicode="a" horiz-adv-x="538" 
d="M419 -5c-35 0 -59 19 -71 57c-38 -42 -88 -58 -152 -58c-98 0 -170 54 -170 158c0 110 88 164 209 164c43 0 73 -4 105 -12v50c0 48 -26 73 -96 73c-82 0 -97 -41 -136 -41c-27 0 -44 22 -44 50v3c0 32 13 53 51 68c39 15 89 26 152 26c145 0 219 -48 219 -169v-295
c0 -50 -17 -74 -64 -74h-3zM250 86c36 0 66 18 90 40v100c-23 4 -48 6 -75 6c-59 0 -97 -21 -97 -72s33 -74 82 -74z" />
    <glyph glyph-name="b" unicode="b" horiz-adv-x="591" 
d="M127 705c51 0 74 -31 74 -104v-126c39 33 91 58 159 58c101 0 202 -66 202 -263c0 -203 -111 -277 -224 -277c-68 0 -116 20 -152 50c-15 -31 -40 -48 -65 -48h-3c-40 0 -63 21 -63 74v562c0 48 20 74 69 74h3zM298 421c-29 0 -67 -12 -97 -26v-270c25 -20 53 -31 95 -31
c60 0 118 26 118 163c0 136 -52 164 -116 164z" />
    <glyph glyph-name="c" unicode="c" horiz-adv-x="499" 
d="M416 11c-31 -12 -75 -18 -118 -18c-171 0 -272 100 -272 268c0 169 120 272 279 272c49 0 84 -5 115 -16c38 -13 53 -35 53 -69v-3c0 -37 -19 -55 -45 -55c-35 0 -53 36 -123 36c-76 0 -131 -56 -131 -166c0 -113 52 -161 127 -161c76 0 93 39 126 39c29 0 45 -18 45 -53
v-1c0 -33 -17 -58 -56 -73z" />
    <glyph glyph-name="d" unicode="d" horiz-adv-x="591" 
d="M536 601v-532c0 -50 -19 -74 -68 -74h-3c-37 0 -59 22 -69 64c-34 -38 -88 -67 -157 -67c-118 0 -210 87 -210 261c0 206 112 280 224 280c67 0 105 -17 137 -45v143c0 48 20 74 69 74h3c51 0 74 -31 74 -104zM298 421c-60 0 -121 -30 -121 -161c0 -120 34 -166 104 -166
c43 0 72 15 109 46v255c-23 17 -52 26 -92 26z" />
    <glyph glyph-name="e" unicode="e" horiz-adv-x="543" 
d="M447 230h-271c7 -105 57 -134 138 -134c88 0 109 43 143 43c27 0 44 -18 44 -50v-3c0 -28 -15 -48 -45 -63c-38 -19 -90 -30 -164 -30c-172 0 -266 102 -266 267c0 169 110 273 256 273c162 0 235 -100 235 -237c0 -42 -23 -66 -70 -66zM282 441c-51 0 -93 -25 -104 -123
h195c-3 93 -34 123 -91 123z" />
    <glyph glyph-name="f" unicode="f" horiz-adv-x="345" 
d="M223 67c0 -47 -29 -72 -72 -72h-2c-43 0 -72 25 -72 72v360h-18c-26 0 -48 12 -48 48v2c0 36 22 48 48 48h18v40c0 100 65 145 168 145c18 0 35 -1 52 -5c26 -6 37 -22 37 -49v-2c0 -25 -15 -43 -52 -45c-44 -2 -59 -17 -59 -49v-35h55c26 0 48 -12 48 -48v-2
c0 -36 -22 -48 -48 -48h-55v-360z" />
    <glyph glyph-name="g" unicode="g" horiz-adv-x="591" 
d="M536 28c0 -129 -98 -198 -270 -198c-66 0 -133 10 -171 29c-29 15 -43 33 -43 64v1c0 30 17 52 47 52c36 0 51 -42 149 -42c95 0 142 31 142 103v33c-35 -30 -86 -51 -145 -51c-116 0 -216 73 -216 243c0 195 112 271 230 271c65 0 109 -20 144 -51c14 30 36 48 65 48h3
c43 0 65 -24 65 -74v-428zM287 121c36 0 74 16 103 37v233c-26 20 -52 30 -94 30c-60 0 -119 -30 -119 -146c0 -117 35 -154 110 -154z" />
    <glyph glyph-name="h" unicode="h" horiz-adv-x="583" 
d="M320 416c-45 0 -86 -12 -119 -24v-325c0 -47 -29 -72 -72 -72h-2c-43 0 -72 25 -72 72v564c0 48 20 74 69 74h3c51 0 74 -31 74 -104v-131c49 36 120 63 189 63c76 0 141 -29 141 -147v-319c0 -47 -29 -72 -72 -72h-2c-43 0 -72 25 -72 72v282c0 52 -20 67 -65 67z" />
    <glyph glyph-name="i" unicode="i" horiz-adv-x="259" 
d="M209 643c0 -43 -35 -77 -79 -77s-80 34 -80 77s36 78 80 78s79 -35 79 -78zM202 426v-359c0 -47 -29 -72 -72 -72h-2c-43 0 -72 25 -72 72v389c0 50 20 74 69 74h3c49 0 74 -31 74 -104z" />
    <glyph glyph-name="j" unicode="j" horiz-adv-x="259" 
d="M209 643c0 -43 -35 -77 -79 -77s-80 34 -80 77s36 78 80 78s79 -35 79 -78zM202 426v-437c0 -110 -56 -157 -160 -157c-18 0 -32 1 -49 5c-27 7 -37 20 -37 46v4c0 23 11 36 35 40c55 9 65 22 65 71v458c0 50 20 74 69 74h3c51 0 74 -31 74 -104z" />
    <glyph glyph-name="k" unicode="k" horiz-adv-x="551" 
d="M365 52l-108 169l-56 -58v-96c0 -47 -29 -72 -72 -72h-2c-43 0 -72 25 -72 72v564c0 48 20 74 69 74h3c51 0 74 -31 74 -104v-290l163 182c25 28 42 37 62 37h1c44 0 78 -53 32 -101l-104 -110l140 -218c31 -48 3 -106 -53 -106h-1c-26 0 -47 11 -76 57z" />
    <glyph glyph-name="l" unicode="l" horiz-adv-x="260" 
d="M129 705c50 0 74 -31 74 -104v-534c0 -47 -29 -72 -72 -72h-2c-43 0 -72 25 -72 72v564c0 48 20 74 69 74h3z" />
    <glyph glyph-name="m" unicode="m" horiz-adv-x="891" 
d="M313 416c-42 0 -80 -13 -112 -24v-325c0 -47 -29 -72 -72 -72h-2c-43 0 -72 25 -72 72v389c0 50 21 74 69 74h3c36 0 60 -17 69 -62c47 36 116 65 187 65c54 0 103 -16 125 -67c53 41 125 67 194 67c74 0 137 -34 137 -147v-319c0 -47 -29 -72 -72 -72h-2
c-43 0 -72 25 -72 72v282c0 50 -17 67 -61 67c-42 0 -81 -13 -112 -25v-324c0 -47 -29 -72 -72 -72h-2c-43 0 -72 25 -72 72v282c0 50 -17 67 -61 67z" />
    <glyph glyph-name="n" unicode="n" horiz-adv-x="583" 
d="M320 416c-45 0 -86 -12 -119 -24v-325c0 -47 -29 -72 -72 -72h-2c-43 0 -72 25 -72 72v389c0 50 21 74 69 74h3c36 0 60 -17 69 -63c49 37 123 66 194 66c76 0 141 -29 141 -147v-319c0 -47 -29 -72 -72 -72h-2c-43 0 -72 25 -72 72v282c0 52 -20 67 -65 67z" />
    <glyph glyph-name="o" unicode="o" horiz-adv-x="588" 
d="M562 260c0 -168 -120 -267 -268 -267s-268 99 -268 267c0 169 120 273 268 273s268 -104 268 -273zM174 259c0 -113 49 -162 120 -162s120 49 120 162c0 114 -49 170 -120 170s-120 -56 -120 -170z" />
    <glyph glyph-name="p" unicode="p" horiz-adv-x="591" 
d="M201 -95c0 -47 -29 -72 -72 -72h-2c-43 0 -72 25 -72 72v551c0 50 21 74 69 74h3c35 0 58 -15 68 -57c40 34 91 60 165 60c101 0 202 -70 202 -257c0 -198 -113 -270 -230 -270c-57 0 -98 14 -131 38v-139zM300 421c-29 0 -69 -12 -99 -26v-259c25 -20 56 -29 94 -29
c64 0 119 28 119 156c0 127 -52 158 -114 158z" />
    <glyph glyph-name="q" unicode="q" horiz-adv-x="591" 
d="M464 -167h-2c-43 0 -72 25 -72 72v152c-34 -30 -85 -51 -145 -51c-117 0 -216 77 -216 250c0 203 112 277 230 277c66 0 109 -20 144 -53c14 31 35 50 64 50h3c44 0 66 -24 66 -74v-551c0 -47 -29 -72 -72 -72zM287 108c36 0 74 16 103 37v246c-26 20 -52 30 -94 30
c-60 0 -119 -32 -119 -152c0 -121 31 -161 110 -161z" />
    <glyph glyph-name="r" unicode="r" horiz-adv-x="395" 
d="M127 530c35 0 60 -23 70 -69c34 38 91 70 132 70c32 0 52 -16 52 -59v-3c0 -43 -19 -62 -62 -66c-53 -4 -90 -13 -118 -24v-312c0 -47 -29 -72 -72 -72h-2c-43 0 -72 25 -72 72v389c0 50 21 74 69 74h3z" />
    <glyph glyph-name="s" unicode="s" horiz-adv-x="455" 
d="M431 164c0 -103 -67 -170 -219 -170c-55 0 -97 6 -130 19c-40 16 -56 38 -56 74v2c0 33 17 54 47 54c35 0 51 -42 132 -42c59 0 90 16 90 49c0 32 -19 47 -93 56c-115 14 -174 57 -174 160c0 106 79 165 208 165c49 0 86 -5 116 -16c41 -15 53 -37 53 -67v-4
c0 -35 -18 -53 -45 -53c-34 0 -58 33 -123 33c-58 0 -79 -17 -79 -47c0 -27 24 -41 96 -50c125 -16 177 -57 177 -163z" />
    <glyph glyph-name="t" unicode="t" horiz-adv-x="352" 
d="M77 427h-18c-32 0 -48 18 -48 48v2c0 30 16 48 48 48h18v73c0 44 27 72 73 72h2c46 0 71 -28 71 -72v-73h63c32 0 48 -18 48 -48v-2c0 -30 -16 -48 -48 -48h-63v-269c0 -48 14 -62 58 -64c39 -2 53 -15 53 -42v-4c0 -29 -12 -46 -45 -52c-16 -3 -31 -4 -53 -4
c-98 0 -159 40 -159 149v286z" />
    <glyph glyph-name="u" unicode="u" horiz-adv-x="595" 
d="M463 -5c-35 0 -57 19 -68 57c-49 -35 -118 -59 -184 -59c-88 0 -153 34 -153 142v323c0 44 26 72 72 72h2c46 0 72 -28 72 -72v-286c0 -52 22 -70 74 -70c37 0 78 13 110 26v330c0 44 26 72 72 72h2c46 0 72 -28 72 -72v-389c0 -50 -19 -74 -68 -74h-3z" />
    <glyph glyph-name="v" unicode="v" horiz-adv-x="556" 
d="M108 530h1c33 0 55 -23 73 -73l108 -294h2l101 302c14 42 32 65 67 65h1c54 0 76 -44 57 -94l-138 -367c-19 -52 -54 -74 -96 -74h-4c-42 0 -77 22 -97 74l-140 357c-25 64 14 104 65 104z" />
    <glyph glyph-name="w" unicode="w" horiz-adv-x="794" 
d="M475 67l-78 259h-2l-81 -259c-18 -58 -42 -72 -82 -72h-4c-40 0 -65 14 -82 72l-110 370c-17 56 11 93 58 93h5c36 0 66 -25 79 -73l70 -263h2l84 269c15 49 37 67 74 67h4c36 0 57 -19 71 -68l78 -268h2l78 275c11 38 34 61 66 61h5c39 0 64 -34 50 -79l-117 -384
c-18 -58 -43 -72 -83 -72h-4c-40 0 -66 14 -83 72z" />
    <glyph glyph-name="x" unicode="x" horiz-adv-x="536" 
d="M47 92l127 174l-111 154c-38 53 -6 110 48 110h2c26 0 47 -13 75 -54l90 -129l85 133c24 37 41 50 67 50h1c53 0 75 -52 44 -97l-110 -159l118 -169c38 -53 6 -110 -48 -110h-2c-26 0 -47 13 -75 54l-98 146l-101 -150c-25 -37 -41 -50 -67 -50h-1c-53 0 -76 53 -44 97z
" />
    <glyph glyph-name="y" unicode="y" horiz-adv-x="545" 
d="M511 428l-228 -538c-18 -44 -37 -61 -70 -61h-1c-46 0 -77 42 -49 102l48 101l-172 389c-26 59 -1 109 56 109h2c36 0 58 -23 78 -72l108 -257h2l103 264c17 45 35 65 68 65h1c55 0 77 -44 54 -102z" />
    <glyph glyph-name="z" unicode="z" horiz-adv-x="483" 
d="M58 142l234 280h-203c-31 0 -51 20 -51 50v2c0 31 20 51 51 51h307c41 0 63 -21 63 -56v-2c0 -28 -10 -49 -37 -82l-237 -282h213c31 0 51 -20 51 -50v-2c0 -31 -20 -51 -51 -51h-315c-41 0 -63 23 -63 59v2c0 23 8 45 38 81z" />
    <glyph glyph-name="braceleft" unicode="{" horiz-adv-x="367" 
d="M235 243v-141c0 -30 13 -47 45 -47h27c34 0 45 -21 45 -45v-14c0 -24 -11 -45 -45 -45h-64c-98 0 -144 36 -144 128v157c0 41 -16 54 -50 63l-4 1c-23 6 -35 14 -35 44v14c0 30 12 38 35 44l4 1c36 9 50 24 50 63v147c0 92 46 128 144 128h64c34 0 45 -21 45 -45v-14
c0 -24 -11 -45 -45 -45h-27c-32 0 -45 -17 -45 -47v-130c0 -54 -22 -89 -89 -108c67 -20 89 -55 89 -109z" />
    <glyph glyph-name="bar" unicode="|" horiz-adv-x="175" 
d="M88 746h2c31 0 55 -19 55 -56v-687c0 -38 -26 -57 -57 -57h-2c-32 0 -56 19 -56 57v687c0 37 26 56 58 56z" />
    <glyph glyph-name="braceright" unicode="}" horiz-adv-x="367" 
d="M132 102v141c0 54 22 89 89 109c-67 19 -89 54 -89 108v130c0 30 -13 47 -45 47h-27c-34 0 -45 21 -45 45v14c0 24 11 45 45 45h64c98 0 144 -36 144 -128v-147c0 -39 14 -54 50 -63l4 -1c23 -6 35 -14 35 -44v-14c0 -30 -12 -38 -35 -44l-4 -1c-34 -9 -50 -22 -50 -63
v-157c0 -92 -46 -128 -144 -128h-64c-34 0 -45 21 -45 45v14c0 24 11 45 45 45h27c32 0 45 17 45 47z" />
    <glyph glyph-name="asciitilde" unicode="~" horiz-adv-x="394" 
d="M263 217c-50 0 -91 35 -121 35c-41 0 -45 -41 -80 -41h-2c-32 0 -51 28 -37 78c13 45 51 78 108 78c50 0 91 -35 121 -35c41 0 45 41 80 41h2c32 0 51 -28 37 -78c-13 -45 -51 -78 -108 -78z" />
    <glyph glyph-name="Adieresis" unicode="&#xc4;" horiz-adv-x="669" 
d="M93 -5h-4c-44 0 -72 33 -52 88l191 543c19 53 54 79 106 79h6c51 0 83 -28 102 -81l189 -535c21 -59 -14 -94 -58 -94h-8c-47 0 -72 18 -88 67l-38 116h-236l-37 -118c-14 -44 -37 -65 -73 -65zM318 543l-82 -258h168l-84 258h-2zM313 801c0 -41 -33 -73 -75 -73
s-75 32 -75 73c0 40 33 73 75 73s75 -33 75 -73zM505 801c0 -41 -33 -73 -75 -73s-75 32 -75 73c0 40 33 73 75 73s75 -33 75 -73z" />
    <glyph glyph-name="Aring" unicode="&#xc5;" horiz-adv-x="669" 
d="M93 -5h-4c-44 0 -72 33 -52 88l191 543c19 53 54 79 106 79h6c51 0 83 -28 102 -81l189 -535c21 -59 -14 -94 -58 -94h-8c-47 0 -72 18 -88 67l-38 116h-236l-37 -118c-14 -44 -37 -65 -73 -65zM437 829c0 -62 -48 -100 -105 -100s-105 38 -105 100s48 101 105 101
s105 -39 105 -101zM318 543l-82 -258h168l-84 258h-2zM296 829c0 -23 14 -38 36 -38s37 15 37 38c0 24 -15 39 -37 39s-36 -15 -36 -39z" />
    <glyph glyph-name="Ccedilla" unicode="&#xc7;" horiz-adv-x="615" 
d="M527 25c-38 -20 -99 -32 -158 -33v-16c57 -2 81 -30 81 -74c0 -48 -41 -77 -105 -77c-16 0 -36 3 -49 8c-19 7 -28 17 -28 36v3c0 16 7 29 23 29c17 0 26 -14 46 -14c16 0 24 7 24 19c0 11 -9 18 -33 18h-2c-17 0 -26 7 -26 25v48c-166 25 -270 151 -270 351
c0 224 143 360 346 360c62 0 110 -8 151 -26c38 -17 56 -40 56 -76v-3c0 -37 -22 -60 -52 -60c-44 0 -69 52 -158 52c-115 0 -183 -85 -183 -241c0 -170 61 -250 181 -250c111 0 121 69 170 69c32 0 52 -22 52 -55v-5c0 -37 -19 -64 -66 -88z" />
    <glyph glyph-name="Eacute" unicode="&#xc9;" horiz-adv-x="567" 
d="M480 0h-335c-51 0 -83 32 -83 83v534c0 51 32 83 83 83h323c36 0 55 -21 55 -55v-2c0 -34 -19 -56 -55 -56h-252v-177h176c35 0 54 -19 54 -53v-2c0 -36 -19 -54 -54 -54h-176v-191h264c35 0 54 -19 54 -54v-2c0 -35 -19 -54 -54 -54zM259 778l11 32c14 40 39 50 79 50
h30c51 0 64 -44 27 -75l-38 -33c-23 -20 -47 -31 -65 -31h-6c-29 0 -50 23 -38 57z" />
    <glyph glyph-name="Ntilde" unicode="&#xd1;" horiz-adv-x="693" 
d="M128 -5h-2c-38 0 -64 22 -64 64v558c0 50 31 83 83 83h26c50 0 80 -22 110 -73l216 -376h3v390c0 45 29 64 65 64h2c36 0 64 -19 64 -64v-571c0 -42 -30 -70 -75 -70h-7c-44 0 -69 16 -94 59l-260 452h-3v-452c0 -42 -26 -64 -64 -64zM518 795c-12 -40 -46 -68 -96 -68
c-44 0 -82 31 -108 31c-37 0 -40 -36 -71 -36h-2c-28 0 -46 24 -33 69c11 39 46 68 96 68c44 0 82 -31 108 -31c37 0 40 36 71 36h2c28 0 45 -25 33 -69z" />
    <glyph glyph-name="Odieresis" unicode="&#xd6;" horiz-adv-x="730" 
d="M701 350c0 -231 -157 -358 -336 -358s-336 127 -336 358s157 358 336 358s336 -127 336 -358zM189 347c0 -171 73 -247 176 -247c102 0 176 76 176 247c0 172 -74 251 -176 251c-103 0 -176 -79 -176 -251zM344 801c0 -41 -33 -73 -75 -73s-75 32 -75 73
c0 40 33 73 75 73s75 -33 75 -73zM536 801c0 -41 -33 -73 -75 -73s-75 32 -75 73c0 40 33 73 75 73s75 -33 75 -73z" />
    <glyph glyph-name="Udieresis" unicode="&#xdc;" horiz-adv-x="678" 
d="M215 270c0 -131 52 -163 142 -163c85 0 132 32 132 163v371c0 41 24 64 64 64h2c40 0 64 -23 64 -64v-367c0 -180 -73 -282 -271 -282c-190 0 -289 102 -289 282v354c0 44 26 77 77 77h2c51 0 77 -33 77 -77v-358zM332 801c0 -41 -33 -73 -75 -73s-75 32 -75 73
c0 40 33 73 75 73s75 -33 75 -73zM524 801c0 -41 -33 -73 -75 -73s-75 32 -75 73c0 40 33 73 75 73s75 -33 75 -73z" />
    <glyph glyph-name="aacute" unicode="&#xe1;" horiz-adv-x="538" 
d="M419 -5c-35 0 -59 19 -71 57c-38 -42 -88 -58 -152 -58c-98 0 -170 54 -170 158c0 110 88 164 209 164c43 0 73 -4 105 -12v50c0 48 -26 73 -96 73c-82 0 -97 -41 -136 -41c-27 0 -44 22 -44 50v3c0 32 13 53 51 68c39 15 89 26 152 26c145 0 219 -48 219 -169v-295
c0 -50 -17 -74 -64 -74h-3zM250 86c36 0 66 18 90 40v100c-23 4 -48 6 -75 6c-59 0 -97 -21 -97 -72s33 -74 82 -74zM232 614l10 35c12 40 36 56 76 56h39c43 0 59 -45 27 -75l-46 -44c-21 -20 -40 -30 -63 -30h-4c-29 0 -49 23 -39 58z" />
    <glyph glyph-name="agrave" unicode="&#xe0;" horiz-adv-x="538" 
d="M419 -5c-35 0 -59 19 -71 57c-38 -42 -88 -58 -152 -58c-98 0 -170 54 -170 158c0 110 88 164 209 164c43 0 73 -4 105 -12v50c0 48 -26 73 -96 73c-82 0 -97 -41 -136 -41c-27 0 -44 22 -44 50v3c0 32 13 53 51 68c39 15 89 26 152 26c145 0 219 -48 219 -169v-295
c0 -50 -17 -74 -64 -74h-3zM250 86c36 0 66 18 90 40v100c-23 4 -48 6 -75 6c-59 0 -97 -21 -97 -72s33 -74 82 -74zM292 649l10 -35c10 -35 -10 -58 -39 -58h-4c-23 0 -42 10 -63 30l-46 44c-32 30 -16 75 27 75h39c40 0 64 -16 76 -56z" />
    <glyph glyph-name="acircumflex" unicode="&#xe2;" horiz-adv-x="538" 
d="M419 -5c-35 0 -59 19 -71 57c-38 -42 -88 -58 -152 -58c-98 0 -170 54 -170 158c0 110 88 164 209 164c43 0 73 -4 105 -12v50c0 48 -26 73 -96 73c-82 0 -97 -41 -136 -41c-27 0 -44 22 -44 50v3c0 32 13 53 51 68c39 15 89 26 152 26c145 0 219 -48 219 -169v-295
c0 -50 -17 -74 -64 -74h-3zM185 661l9 9c30 30 51 38 80 38h6c29 0 50 -8 80 -38l9 -9c54 -54 30 -104 -11 -104h-3c-20 0 -38 9 -62 35l-16 18l-16 -18c-24 -26 -42 -35 -62 -35h-3c-41 0 -65 50 -11 104zM250 86c36 0 66 18 90 40v100c-23 4 -48 6 -75 6
c-59 0 -97 -21 -97 -72s33 -74 82 -74z" />
    <glyph glyph-name="adieresis" unicode="&#xe4;" horiz-adv-x="538" 
d="M419 -5c-35 0 -59 19 -71 57c-38 -42 -88 -58 -152 -58c-98 0 -170 54 -170 158c0 110 88 164 209 164c43 0 73 -4 105 -12v50c0 48 -26 73 -96 73c-82 0 -97 -41 -136 -41c-27 0 -44 22 -44 50v3c0 32 13 53 51 68c39 15 89 26 152 26c145 0 219 -48 219 -169v-295
c0 -50 -17 -74 -64 -74h-3zM250 86c36 0 66 18 90 40v100c-23 4 -48 6 -75 6c-59 0 -97 -21 -97 -72s33 -74 82 -74zM245 639c0 -41 -33 -73 -75 -73s-75 32 -75 73c0 40 33 73 75 73s75 -33 75 -73zM437 639c0 -41 -33 -73 -75 -73s-75 32 -75 73c0 40 33 73 75 73
s75 -33 75 -73z" />
    <glyph glyph-name="atilde" unicode="&#xe3;" horiz-adv-x="538" 
d="M419 -5c-35 0 -59 19 -71 57c-38 -42 -88 -58 -152 -58c-98 0 -170 54 -170 158c0 110 88 164 209 164c43 0 73 -4 105 -12v50c0 48 -26 73 -96 73c-82 0 -97 -41 -136 -41c-27 0 -44 22 -44 50v3c0 32 13 53 51 68c39 15 89 26 152 26c145 0 219 -48 219 -169v-295
c0 -50 -17 -74 -64 -74h-3zM422 633c-12 -40 -46 -69 -96 -69c-44 0 -82 31 -108 31c-37 0 -40 -36 -71 -36h-2c-28 0 -45 24 -33 69c12 39 46 69 96 69c44 0 82 -31 108 -31c37 0 40 36 71 36h2c28 0 45 -25 33 -69zM250 86c36 0 66 18 90 40v100c-23 4 -48 6 -75 6
c-59 0 -97 -21 -97 -72s33 -74 82 -74z" />
    <glyph glyph-name="aring" unicode="&#xe5;" horiz-adv-x="538" 
d="M419 -5c-35 0 -59 19 -71 57c-38 -42 -88 -58 -152 -58c-98 0 -170 54 -170 158c0 110 88 164 209 164c43 0 73 -4 105 -12v50c0 48 -26 73 -96 73c-82 0 -97 -41 -136 -41c-27 0 -44 22 -44 50v3c0 32 13 53 51 68c39 15 89 26 152 26c145 0 219 -48 219 -169v-295
c0 -50 -17 -74 -64 -74h-3zM371 666c0 -62 -48 -100 -105 -100s-105 38 -105 100s48 101 105 101s105 -39 105 -101zM250 86c36 0 66 18 90 40v100c-23 4 -48 6 -75 6c-59 0 -97 -21 -97 -72s33 -74 82 -74zM230 666c0 -23 14 -38 36 -38s37 15 37 38c0 24 -15 39 -37 39
s-36 -15 -36 -39z" />
    <glyph glyph-name="ccedilla" unicode="&#xe7;" horiz-adv-x="499" 
d="M416 11c-31 -12 -75 -18 -118 -18h-6v-17c57 -2 81 -30 81 -74c0 -48 -41 -77 -105 -77c-16 0 -36 3 -49 8c-19 7 -28 17 -28 36v3c0 16 7 29 23 29c17 0 26 -14 46 -14c16 0 24 7 24 19c0 11 -9 18 -33 18h-2c-17 0 -26 7 -26 25v51c-125 26 -197 119 -197 261
c0 169 120 272 279 272c49 0 84 -5 115 -16c38 -13 53 -35 53 -69v-3c0 -37 -19 -55 -45 -55c-35 0 -53 36 -123 36c-76 0 -131 -56 -131 -166c0 -113 52 -161 127 -161c76 0 93 39 126 39c29 0 45 -18 45 -53v-1c0 -33 -17 -58 -56 -73z" />
    <glyph glyph-name="eacute" unicode="&#xe9;" horiz-adv-x="543" 
d="M447 230h-271c7 -105 57 -134 138 -134c88 0 109 43 143 43c27 0 44 -18 44 -50v-3c0 -28 -15 -48 -45 -63c-38 -19 -90 -30 -164 -30c-172 0 -266 102 -266 267c0 169 110 273 256 273c162 0 235 -100 235 -237c0 -42 -23 -66 -70 -66zM282 441c-51 0 -93 -25 -104 -123
h195c-3 93 -34 123 -91 123zM245 614l10 35c12 40 36 56 76 56h39c43 0 59 -45 27 -75l-46 -44c-21 -20 -40 -30 -63 -30h-4c-29 0 -49 23 -39 58z" />
    <glyph glyph-name="egrave" unicode="&#xe8;" horiz-adv-x="543" 
d="M447 230h-271c7 -105 57 -134 138 -134c88 0 109 43 143 43c27 0 44 -18 44 -50v-3c0 -28 -15 -48 -45 -63c-38 -19 -90 -30 -164 -30c-172 0 -266 102 -266 267c0 169 110 273 256 273c162 0 235 -100 235 -237c0 -42 -23 -66 -70 -66zM282 441c-51 0 -93 -25 -104 -123
h195c-3 93 -34 123 -91 123zM305 649l10 -35c10 -35 -10 -58 -39 -58h-4c-23 0 -42 10 -63 30l-46 44c-32 30 -16 75 27 75h39c40 0 64 -16 76 -56z" />
    <glyph glyph-name="ecircumflex" unicode="&#xea;" horiz-adv-x="543" 
d="M447 230h-271c7 -105 57 -134 138 -134c88 0 109 43 143 43c27 0 44 -18 44 -50v-3c0 -28 -15 -48 -45 -63c-38 -19 -90 -30 -164 -30c-172 0 -266 102 -266 267c0 169 110 273 256 273c162 0 235 -100 235 -237c0 -42 -23 -66 -70 -66zM186 661l9 9c30 30 51 38 80 38h6
c29 0 50 -8 80 -38l9 -9c54 -54 30 -104 -11 -104h-3c-20 0 -38 9 -62 35l-16 18l-16 -18c-24 -26 -42 -35 -62 -35h-3c-41 0 -65 50 -11 104zM282 441c-51 0 -93 -25 -104 -123h195c-3 93 -34 123 -91 123z" />
    <glyph glyph-name="edieresis" unicode="&#xeb;" horiz-adv-x="543" 
d="M447 230h-271c7 -105 57 -134 138 -134c88 0 109 43 143 43c27 0 44 -18 44 -50v-3c0 -28 -15 -48 -45 -63c-38 -19 -90 -30 -164 -30c-172 0 -266 102 -266 267c0 169 110 273 256 273c162 0 235 -100 235 -237c0 -42 -23 -66 -70 -66zM282 441c-51 0 -93 -25 -104 -123
h195c-3 93 -34 123 -91 123zM258 639c0 -41 -33 -73 -75 -73s-75 32 -75 73c0 40 33 73 75 73s75 -33 75 -73zM450 639c0 -41 -33 -73 -75 -73s-75 32 -75 73c0 40 33 73 75 73s75 -33 75 -73z" />
    <glyph glyph-name="iacute" unicode="&#xed;" horiz-adv-x="259" 
d="M202 426v-359c0 -47 -29 -72 -72 -72h-2c-43 0 -72 25 -72 72v389c0 50 20 74 69 74h3c49 0 74 -31 74 -104zM79 614l10 35c12 40 36 56 76 56h39c43 0 59 -45 27 -75l-46 -44c-21 -20 -40 -30 -63 -30h-4c-29 0 -49 23 -39 58z" />
    <glyph glyph-name="igrave" unicode="&#xec;" horiz-adv-x="259" 
d="M202 426v-359c0 -47 -29 -72 -72 -72h-2c-43 0 -72 25 -72 72v389c0 50 20 74 69 74h3c49 0 74 -31 74 -104zM165 649l10 -35c10 -35 -10 -58 -39 -58h-4c-23 0 -42 10 -63 30l-46 44c-32 30 -16 75 27 75h39c40 0 64 -16 76 -56z" />
    <glyph glyph-name="icircumflex" unicode="&#xee;" horiz-adv-x="259" 
d="M202 426v-359c0 -47 -29 -72 -72 -72h-2c-43 0 -72 25 -72 72v389c0 50 20 74 69 74h3c49 0 74 -31 74 -104zM38 661l9 9c30 30 51 38 80 38h6c29 0 50 -8 80 -38l9 -9c54 -54 30 -104 -11 -104h-3c-20 0 -38 9 -62 35l-16 18l-16 -18c-24 -26 -42 -35 -62 -35h-3
c-41 0 -65 50 -11 104z" />
    <glyph glyph-name="idieresis" unicode="&#xef;" horiz-adv-x="259" 
d="M113 639c0 -41 -33 -73 -75 -73s-75 32 -75 73c0 40 33 73 75 73s75 -33 75 -73zM295 639c0 -41 -33 -73 -75 -73s-75 32 -75 73c0 40 33 73 75 73s75 -33 75 -73zM202 426v-359c0 -47 -29 -72 -72 -72h-2c-43 0 -72 25 -72 72v389c0 50 20 74 69 74h3
c49 0 74 -31 74 -104z" />
    <glyph glyph-name="ntilde" unicode="&#xf1;" horiz-adv-x="583" 
d="M320 416c-45 0 -86 -12 -119 -24v-325c0 -47 -29 -72 -72 -72h-2c-43 0 -72 25 -72 72v389c0 50 21 74 69 74h3c36 0 60 -17 69 -63c49 37 123 66 194 66c76 0 141 -29 141 -147v-319c0 -47 -29 -72 -72 -72h-2c-43 0 -72 25 -72 72v282c0 52 -20 67 -65 67zM452 633
c-12 -40 -46 -69 -96 -69c-44 0 -82 31 -108 31c-37 0 -40 -36 -71 -36h-2c-28 0 -45 24 -33 69c12 39 46 69 96 69c44 0 82 -31 108 -31c37 0 40 36 71 36h2c28 0 45 -25 33 -69z" />
    <glyph glyph-name="oacute" unicode="&#xf3;" horiz-adv-x="588" 
d="M562 260c0 -168 -120 -267 -268 -267s-268 99 -268 267c0 169 120 273 268 273s268 -104 268 -273zM174 259c0 -113 49 -162 120 -162s120 49 120 162c0 114 -49 170 -120 170s-120 -56 -120 -170zM260 614l10 35c12 40 36 56 76 56h39c43 0 59 -45 27 -75l-46 -44
c-21 -20 -40 -30 -63 -30h-4c-29 0 -49 23 -39 58z" />
    <glyph glyph-name="ograve" unicode="&#xf2;" horiz-adv-x="588" 
d="M562 260c0 -168 -120 -267 -268 -267s-268 99 -268 267c0 169 120 273 268 273s268 -104 268 -273zM174 259c0 -113 49 -162 120 -162s120 49 120 162c0 114 -49 170 -120 170s-120 -56 -120 -170zM320 649l10 -35c10 -35 -10 -58 -39 -58h-4c-23 0 -42 10 -63 30l-46 44
c-32 30 -16 75 27 75h39c40 0 64 -16 76 -56z" />
    <glyph glyph-name="ocircumflex" unicode="&#xf4;" horiz-adv-x="588" 
d="M562 260c0 -168 -120 -267 -268 -267s-268 99 -268 267c0 169 120 273 268 273s268 -104 268 -273zM174 259c0 -113 49 -162 120 -162s120 49 120 162c0 114 -49 170 -120 170s-120 -56 -120 -170zM202 661l9 9c30 30 51 38 80 38h6c29 0 50 -8 80 -38l9 -9
c54 -54 30 -104 -11 -104h-3c-20 0 -38 9 -62 35l-16 18l-16 -18c-24 -26 -42 -35 -62 -35h-3c-41 0 -65 50 -11 104z" />
    <glyph glyph-name="odieresis" unicode="&#xf6;" horiz-adv-x="588" 
d="M562 260c0 -168 -120 -267 -268 -267s-268 99 -268 267c0 169 120 273 268 273s268 -104 268 -273zM174 259c0 -113 49 -162 120 -162s120 49 120 162c0 114 -49 170 -120 170s-120 -56 -120 -170zM273 639c0 -41 -33 -73 -75 -73s-75 32 -75 73c0 40 33 73 75 73
s75 -33 75 -73zM465 639c0 -41 -33 -73 -75 -73s-75 32 -75 73c0 40 33 73 75 73s75 -33 75 -73z" />
    <glyph glyph-name="otilde" unicode="&#xf5;" horiz-adv-x="588" 
d="M562 260c0 -168 -120 -267 -268 -267s-268 99 -268 267c0 169 120 273 268 273s268 -104 268 -273zM174 259c0 -113 49 -162 120 -162s120 49 120 162c0 114 -49 170 -120 170s-120 -56 -120 -170zM449 633c-12 -40 -46 -69 -96 -69c-44 0 -82 31 -108 31
c-37 0 -40 -36 -71 -36h-2c-28 0 -45 24 -33 69c12 39 46 69 96 69c44 0 82 -31 108 -31c37 0 40 36 71 36h2c28 0 45 -25 33 -69z" />
    <glyph glyph-name="uacute" unicode="&#xfa;" horiz-adv-x="595" 
d="M463 -5c-35 0 -57 19 -68 57c-49 -35 -118 -59 -184 -59c-88 0 -153 34 -153 142v323c0 44 26 72 72 72h2c46 0 72 -28 72 -72v-286c0 -52 22 -70 74 -70c37 0 78 13 110 26v330c0 44 26 72 72 72h2c46 0 72 -28 72 -72v-389c0 -50 -19 -74 -68 -74h-3zM263 614l10 35
c12 40 36 56 76 56h39c43 0 59 -45 27 -75l-46 -44c-21 -20 -40 -30 -63 -30h-4c-29 0 -49 23 -39 58z" />
    <glyph glyph-name="ugrave" unicode="&#xf9;" horiz-adv-x="595" 
d="M463 -5c-35 0 -57 19 -68 57c-49 -35 -118 -59 -184 -59c-88 0 -153 34 -153 142v323c0 44 26 72 72 72h2c46 0 72 -28 72 -72v-286c0 -52 22 -70 74 -70c37 0 78 13 110 26v330c0 44 26 72 72 72h2c46 0 72 -28 72 -72v-389c0 -50 -19 -74 -68 -74h-3zM323 649l10 -35
c10 -35 -10 -58 -39 -58h-4c-23 0 -42 10 -63 30l-46 44c-32 30 -16 75 27 75h39c40 0 64 -16 76 -56z" />
    <glyph glyph-name="ucircumflex" unicode="&#xfb;" horiz-adv-x="595" 
d="M463 -5c-35 0 -57 19 -68 57c-49 -35 -118 -59 -184 -59c-88 0 -153 34 -153 142v323c0 44 26 72 72 72h2c46 0 72 -28 72 -72v-286c0 -52 22 -70 74 -70c37 0 78 13 110 26v330c0 44 26 72 72 72h2c46 0 72 -28 72 -72v-389c0 -50 -19 -74 -68 -74h-3zM203 661l9 9
c30 30 51 38 80 38h6c29 0 50 -8 80 -38l9 -9c54 -54 30 -104 -11 -104h-3c-20 0 -38 9 -62 35l-16 18l-16 -18c-24 -26 -42 -35 -62 -35h-3c-41 0 -65 50 -11 104z" />
    <glyph glyph-name="udieresis" unicode="&#xfc;" horiz-adv-x="595" 
d="M463 -5c-35 0 -57 19 -68 57c-49 -35 -118 -59 -184 -59c-88 0 -153 34 -153 142v323c0 44 26 72 72 72h2c46 0 72 -28 72 -72v-286c0 -52 22 -70 74 -70c37 0 78 13 110 26v330c0 44 26 72 72 72h2c46 0 72 -28 72 -72v-389c0 -50 -19 -74 -68 -74h-3zM468 639
c0 -41 -33 -73 -75 -73s-75 32 -75 73c0 40 33 73 75 73s75 -33 75 -73zM276 639c0 -41 -33 -73 -75 -73s-75 32 -75 73c0 40 33 73 75 73s75 -33 75 -73z" />
    <glyph glyph-name="dagger" unicode="&#x2020;" horiz-adv-x="469" 
d="M236 -54h-2c-32 0 -53 18 -56 55c0 0 -18 182 -18 260c0 64 6 95 32 171c-49 -24 -83 -34 -109 -34c-43 0 -64 22 -64 64v14c0 42 21 64 64 64c26 0 60 -10 109 -34c-21 59 -30 99 -30 131c0 45 25 68 70 68h6c45 0 69 -23 69 -68c0 -32 -9 -72 -30 -131
c49 24 83 34 109 34c43 0 64 -22 64 -64v-14c0 -42 -21 -64 -64 -64c-26 0 -60 10 -109 34c27 -76 32 -106 32 -170c0 -78 -18 -260 -18 -260c-3 -37 -23 -56 -55 -56z" />
    <glyph glyph-name="degree" unicode="&#xb0;" horiz-adv-x="348" 
d="M321 565c0 -85 -67 -141 -147 -141s-147 56 -147 141s67 141 147 141s147 -56 147 -141zM106 565c0 -44 28 -74 68 -74c41 0 70 30 70 74c0 45 -29 74 -70 74c-40 0 -68 -29 -68 -74z" />
    <glyph glyph-name="cent" unicode="&#xa2;" horiz-adv-x="517" 
d="M354 551v-20c27 -2 50 -7 71 -14c41 -15 53 -36 53 -71v-2c0 -35 -17 -54 -44 -54s-46 20 -80 31v-319c41 11 56 33 80 33c30 0 44 -23 44 -52v-2c0 -32 -14 -55 -56 -71c-19 -8 -43 -12 -68 -14v-61c0 -31 -20 -43 -43 -43h-2c-24 0 -44 12 -44 43v60
c-149 13 -240 111 -240 266c0 152 103 251 240 269v21c0 31 20 43 44 43h2c23 0 43 -12 43 -43zM172 260c0 -93 33 -144 93 -159v320c-59 -17 -93 -72 -93 -161z" />
    <glyph glyph-name="sterling" unicode="&#xa3;" horiz-adv-x="520" 
d="M391 351v-2c0 -27 -13 -50 -50 -50h-107c3 -23 5 -46 5 -69c0 -45 -17 -83 -37 -108h241c43 0 60 -27 60 -60v-2c0 -33 -17 -60 -60 -60h-370c-33 0 -52 21 -52 52v3c0 62 78 60 78 172c0 24 -4 48 -9 72h-21c-37 0 -50 23 -50 50v2c0 26 12 49 47 50
c-7 31 -12 62 -12 96c0 139 115 211 254 211c50 0 92 -7 127 -20c38 -14 52 -36 52 -75v-7c0 -38 -20 -57 -49 -57c-43 0 -56 42 -126 42c-52 0 -104 -25 -104 -89c0 -33 4 -67 10 -101h123c37 0 50 -23 50 -50z" />
    <glyph glyph-name="section" unicode="&#xa7;" horiz-adv-x="524" 
d="M465 39c0 -98 -73 -172 -229 -172c-47 0 -100 6 -137 21c-38 15 -54 34 -54 71v6c0 30 18 50 48 50c38 0 56 -43 141 -43c58 0 90 18 90 54c0 37 -30 51 -125 78c-124 35 -178 81 -178 173c0 72 39 112 94 134c-40 30 -55 68 -55 128c0 101 79 169 211 169
c42 0 82 -4 116 -15c48 -16 59 -39 59 -68v-12c0 -31 -20 -45 -43 -45c-35 0 -54 33 -127 33c-54 0 -89 -17 -89 -54c0 -31 25 -53 113 -74c135 -34 199 -76 199 -181c0 -49 -19 -101 -92 -132c38 -27 58 -64 58 -121zM266 351c-20 5 -37 10 -54 15c-45 -10 -63 -35 -63 -65
c0 -34 22 -57 94 -77c24 -7 46 -13 67 -20c38 14 58 39 58 68c0 40 -31 60 -102 79z" />
    <glyph glyph-name="bullet" unicode="&#x2022;" horiz-adv-x="340" 
d="M308 279c0 -84 -61 -134 -138 -134c-76 0 -138 50 -138 134s62 136 138 136c77 0 138 -52 138 -136z" />
    <glyph glyph-name="paragraph" unicode="&#xb6;" horiz-adv-x="592" 
d="M304 -96h-2c-28 0 -51 13 -51 51v348c-133 0 -227 59 -227 198c0 153 110 199 254 199h169c46 0 83 -27 83 -83v-662c0 -38 -23 -51 -51 -51h-2c-28 0 -51 13 -51 51v643h-71v-643c0 -38 -23 -51 -51 -51z" />
    <glyph glyph-name="germandbls" unicode="&#xdf;" horiz-adv-x="618" 
d="M402 100c42 0 59 16 59 37c0 26 -19 35 -89 63c-68 26 -110 69 -110 137c0 64 33 94 75 136c31 31 51 48 51 78c0 33 -25 55 -77 55c-80 0 -110 -41 -110 -104v-435c0 -50 -30 -72 -73 -72h-2c-43 0 -71 22 -71 72v440c0 123 89 203 258 203c132 0 219 -48 219 -154
c0 -52 -39 -93 -85 -128c-45 -34 -55 -46 -55 -64c0 -16 10 -27 66 -50c91 -37 137 -75 137 -165c0 -89 -68 -156 -203 -156c-35 0 -63 4 -88 13c-41 15 -51 35 -51 73v7c0 30 16 47 43 47c32 0 59 -33 106 -33z" />
    <glyph glyph-name="registered" unicode="&#xae;" horiz-adv-x="386" 
d="M377 529c0 -113 -89 -179 -184 -179c-96 0 -184 66 -184 179c0 114 88 179 184 179c95 0 184 -65 184 -179zM51 529c0 -95 63 -143 142 -143s142 48 142 143s-63 143 -142 143s-142 -48 -142 -143zM246 516l24 -41c12 -21 0 -39 -21 -39h-2c-14 0 -26 9 -36 30l-19 38
h-16v-40c0 -21 -12 -28 -27 -28h-2c-16 0 -28 7 -28 28v123c0 31 18 39 39 39h41c51 0 76 -21 76 -61c0 -22 -11 -39 -29 -49zM176 589v-48h18c18 0 24 9 24 25c0 14 -6 23 -24 23h-18z" />
    <glyph glyph-name="copyright" unicode="&#xa9;" horiz-adv-x="780" 
d="M496 174c-24 -13 -61 -20 -95 -20c-125 0 -199 73 -199 197c0 123 88 199 204 199c26 0 53 -3 77 -11c32 -11 43 -28 43 -55v-8c0 -23 -16 -36 -34 -36c-28 0 -40 28 -86 28c-55 0 -90 -41 -90 -118c0 -80 33 -114 88 -114s68 27 92 27c19 0 31 -12 31 -35v-3
c0 -25 -9 -39 -31 -51zM749 350c0 -231 -168 -358 -359 -358s-359 127 -359 358s168 358 359 358s359 -127 359 -358zM93 350c0 -196 132 -307 297 -307s297 111 297 307s-132 307 -297 307s-297 -111 -297 -307z" />
    <glyph glyph-name="trademark" unicode="&#x2122;" horiz-adv-x="684" 
d="M188 640v-184c0 -31 -18 -41 -40 -41h-2c-23 0 -41 10 -41 41v184h-55c-21 0 -29 13 -29 29v2c0 16 8 29 29 29h194c21 0 29 -13 29 -29v-2c0 -16 -8 -29 -29 -29h-56zM649 643v-189c0 -29 -19 -39 -40 -39h-2c-22 0 -39 11 -39 39v179h-1l-56 -183
c-8 -27 -20 -35 -37 -35h-2c-17 0 -30 8 -38 35l-55 183h-1v-185c0 -24 -15 -33 -33 -33h-2c-19 0 -34 9 -34 34v194c0 44 22 60 65 60h2c38 0 62 -14 75 -58l28 -97h1l29 98c12 44 35 57 73 57h2c43 0 65 -16 65 -60z" />
    <glyph glyph-name="acute" unicode="&#xb4;" 
d="M160 614l10 35c12 40 36 56 76 56h39c43 0 59 -45 27 -75l-46 -44c-21 -20 -40 -30 -63 -30h-4c-29 0 -49 23 -39 58z" />
    <glyph glyph-name="dieresis" unicode="&#xa8;" 
d="M179 639c0 -41 -33 -73 -75 -73s-75 32 -75 73c0 40 33 73 75 73s75 -33 75 -73zM371 639c0 -41 -33 -73 -75 -73s-75 32 -75 73c0 40 33 73 75 73s75 -33 75 -73z" />
    <glyph glyph-name="AE" unicode="&#xc6;" horiz-adv-x="949" 
d="M527 0c-46 0 -83 27 -83 83v104h-217l-61 -129c-24 -50 -46 -63 -84 -63h-4c-49 0 -69 41 -42 95l272 536c22 44 60 74 120 74h422c40 0 55 -25 55 -55v-2c0 -31 -15 -56 -55 -56h-250v-178h171c38 0 52 -24 52 -52v-2c0 -29 -14 -53 -52 -53h-171v-192h262
c40 0 54 -24 54 -54v-2c0 -30 -14 -54 -54 -54h-335zM419 587l-141 -293h166v293h-25z" />
    <glyph glyph-name="Oslash" unicode="&#xd8;" horiz-adv-x="730" 
d="M678 638l-48 -56c44 -59 71 -137 71 -232c0 -231 -157 -358 -336 -358c-71 0 -138 20 -194 58l-34 -40c-20 -23 -37 -31 -50 -31h-3c-40 0 -62 38 -30 75l50 58c-47 59 -75 139 -75 238c0 231 157 358 336 358c73 0 142 -21 199 -62l31 36c20 23 37 31 50 31h3
c40 0 62 -38 30 -75zM187 347c0 -48 5 -88 15 -121l280 325c-30 31 -70 47 -117 47c-103 0 -178 -79 -178 -251zM543 347c0 46 -5 85 -14 118l-279 -323c30 -29 69 -42 115 -42c102 0 178 76 178 247z" />
    <glyph glyph-name="yen" unicode="&#xa5;" horiz-adv-x="582" 
d="M117 705h3c33 0 53 -22 78 -71l107 -209h2l107 220c21 42 42 60 72 60h4c54 0 69 -49 45 -95l-118 -224h83c32 0 43 -19 43 -42v-2c0 -24 -11 -43 -43 -43h-125v-55h125c32 0 43 -19 43 -42v-2c0 -24 -11 -43 -43 -43h-125v-84c0 -53 -33 -78 -76 -78h-2
c-43 0 -76 25 -76 78v84h-129c-32 0 -43 19 -43 43v2c0 23 11 42 43 42h129v55h-129c-32 0 -43 19 -43 43v2c0 23 11 42 43 42h82l-120 215c-29 51 4 104 63 104z" />
    <glyph glyph-name="ordfeminine" unicode="&#xaa;" horiz-adv-x="447" 
d="M355 258c-39 0 -57 10 -65 44c-32 -35 -74 -49 -128 -49c-80 0 -142 45 -142 133c0 93 73 139 175 139c35 0 61 -3 88 -10v35c0 39 -22 59 -79 59c-59 0 -80 -35 -111 -35c-24 0 -39 18 -39 43v3c0 33 11 51 46 66c32 14 78 22 127 22c127 0 190 -41 190 -147v-259
c0 -32 -15 -44 -45 -44h-17zM213 337c27 0 51 13 70 30v79c-18 2 -38 4 -58 4c-46 0 -76 -16 -76 -57s27 -56 64 -56z" />
    <glyph glyph-name="ordmasculine" unicode="&#xba;" horiz-adv-x="512" 
d="M486 478c0 -142 -101 -226 -230 -226s-230 84 -230 226s101 230 230 230s230 -88 230 -230zM162 477c0 -93 38 -132 94 -132s94 39 94 132s-38 136 -94 136s-94 -43 -94 -136z" />
    <glyph glyph-name="ae" unicode="&#xe6;" horiz-adv-x="854" 
d="M603 -7c-93 0 -163 29 -208 82c-41 -49 -101 -81 -184 -81c-113 0 -185 52 -185 160c0 106 88 164 218 164h96v36c0 48 -26 73 -96 73c-82 0 -97 -41 -136 -41c-27 0 -44 22 -44 50v3c0 32 13 53 51 68c39 15 89 26 152 26c83 0 136 -16 166 -52c43 34 98 52 160 52
c162 0 235 -100 235 -237c0 -42 -23 -66 -70 -66h-271c7 -105 57 -134 138 -134c88 0 109 43 143 43c27 0 44 -18 44 -50v-3c0 -28 -15 -48 -45 -63c-38 -19 -90 -30 -164 -30zM246 86c56 0 89 25 112 51c-11 27 -18 59 -20 93h-75c-57 0 -95 -19 -95 -70s33 -74 78 -74z
M593 441c-51 0 -93 -25 -104 -123h195c-3 93 -34 123 -91 123z" />
    <glyph glyph-name="oslash" unicode="&#xf8;" horiz-adv-x="588" 
d="M537 480l-35 -41c37 -45 60 -106 60 -179c0 -168 -120 -267 -268 -267c-53 0 -103 12 -144 36l-24 -27c-19 -22 -34 -31 -48 -31h-2c-38 0 -53 34 -26 66l38 44c-39 44 -62 105 -62 179c0 169 120 273 268 273c54 0 105 -15 147 -41l20 23c19 22 34 31 48 31h1
c38 0 54 -34 27 -66zM171 259c0 -29 2 -53 7 -73l190 220c-20 17 -46 24 -74 24c-71 0 -123 -57 -123 -171zM417 259c0 28 -3 52 -8 73l-188 -219c20 -15 45 -21 73 -21c71 0 123 54 123 167z" />
    <glyph glyph-name="questiondown" unicode="&#xbf;" horiz-adv-x="449" 
d="M269 426h5c37 0 58 -22 58 -59s-20 -83 -71 -134c-44 -44 -78 -77 -78 -131c0 -45 32 -68 75 -68c64 0 83 47 131 47c25 0 41 -17 41 -53v-11c0 -34 -11 -55 -50 -71c-36 -16 -78 -26 -131 -26c-137 0 -220 61 -220 181c0 145 141 171 174 271c12 36 34 54 66 54z
M189 554c0 45 37 80 82 80c46 0 82 -35 82 -80s-36 -81 -82 -81c-45 0 -82 36 -82 81z" />
    <glyph glyph-name="exclamdown" unicode="&#xa1;" horiz-adv-x="284" 
d="M141 422h2c26 0 49 -17 51 -52c0 0 26 -335 26 -370c0 -47 -25 -77 -76 -77h-4c-51 0 -76 30 -76 77c0 35 26 370 26 370c2 35 25 52 51 52zM224 554c0 -45 -37 -81 -82 -81c-46 0 -82 36 -82 81s36 80 82 80c45 0 82 -35 82 -80z" />
    <glyph glyph-name="florin" unicode="&#x192;" horiz-adv-x="377" 
d="M265 560l-14 -116h42c36 0 48 -22 48 -48v-2c0 -26 -12 -48 -48 -48h-54l-45 -372c-6 -52 -40 -74 -82 -74h-2c-41 0 -73 25 -67 74l44 372h-14c-36 0 -48 22 -48 48v2c0 26 12 48 48 48h26l15 121c12 99 68 145 170 145c18 0 36 -1 53 -5c26 -6 39 -20 39 -47v-4
c0 -25 -15 -43 -52 -45c-44 -2 -55 -17 -59 -49z" />
    <glyph glyph-name="guillemotleft" unicode="&#xab;" horiz-adv-x="507" 
d="M330 90l-68 107c-18 28 -24 45 -24 63s6 35 24 63l68 107c23 37 47 55 74 55h3c46 0 66 -43 43 -80l-87 -142v-3l87 -144c22 -37 3 -80 -43 -80h-3c-27 0 -51 17 -74 54zM119 90l-68 107c-18 28 -24 45 -24 63s6 35 24 63l68 107c23 37 47 55 74 55h3c46 0 66 -43 43 -80
l-87 -142v-3l87 -144c22 -37 3 -80 -43 -80h-3c-27 0 -51 17 -74 54z" />
    <glyph glyph-name="guillemotright" unicode="&#xbb;" horiz-adv-x="507" 
d="M177 430l68 -107c18 -28 24 -45 24 -63s-6 -35 -24 -63l-68 -107c-23 -37 -47 -54 -74 -54h-3c-46 0 -65 43 -43 80l87 144v3l-87 142c-23 37 -3 80 43 80h3c27 0 51 -18 74 -55zM388 430l68 -107c18 -28 24 -45 24 -63s-6 -35 -24 -63l-68 -107c-23 -37 -47 -54 -74 -54
h-3c-46 0 -65 43 -43 80l87 144v3l-87 142c-23 37 -3 80 43 80h3c27 0 51 -18 74 -55z" />
    <glyph glyph-name="ellipsis" unicode="&#x2026;" horiz-adv-x="680" 
d="M194 74c0 -45 -37 -80 -82 -80c-46 0 -82 35 -82 80s36 81 82 81c45 0 82 -36 82 -81zM422 74c0 -45 -37 -80 -82 -80c-46 0 -82 35 -82 80s36 81 82 81c45 0 82 -36 82 -81zM650 74c0 -45 -37 -80 -82 -80c-46 0 -82 35 -82 80s36 81 82 81c45 0 82 -36 82 -81z" />
    <glyph glyph-name="Agrave" unicode="&#xc0;" horiz-adv-x="669" 
d="M93 -5h-4c-44 0 -72 33 -52 88l191 543c19 53 54 79 106 79h6c51 0 83 -28 102 -81l189 -535c21 -59 -14 -94 -58 -94h-8c-47 0 -72 18 -88 67l-38 116h-236l-37 -118c-14 -44 -37 -65 -73 -65zM318 543l-82 -258h168l-84 258h-2zM366 810l11 -32c12 -34 -9 -57 -38 -57
h-6c-18 0 -42 11 -65 31l-38 33c-37 31 -24 75 27 75h30c40 0 65 -10 79 -50z" />
    <glyph glyph-name="Atilde" unicode="&#xc3;" horiz-adv-x="669" 
d="M93 -5h-4c-44 0 -72 33 -52 88l191 543c19 53 54 79 106 79h6c51 0 83 -28 102 -81l189 -535c21 -59 -14 -94 -58 -94h-8c-47 0 -72 18 -88 67l-38 116h-236l-37 -118c-14 -44 -37 -65 -73 -65zM483 795c-12 -40 -46 -68 -96 -68c-44 0 -82 31 -108 31
c-37 0 -40 -36 -71 -36h-2c-28 0 -46 24 -33 69c11 39 46 68 96 68c44 0 82 -31 108 -31c37 0 40 36 71 36h2c28 0 45 -25 33 -69zM318 543l-82 -258h168l-84 258h-2z" />
    <glyph glyph-name="Otilde" unicode="&#xd5;" horiz-adv-x="730" 
d="M701 350c0 -231 -157 -358 -336 -358s-336 127 -336 358s157 358 336 358s336 -127 336 -358zM189 347c0 -171 73 -247 176 -247c102 0 176 76 176 247c0 172 -74 251 -176 251c-103 0 -176 -79 -176 -251zM520 795c-12 -40 -46 -68 -96 -68c-44 0 -82 31 -108 31
c-37 0 -40 -36 -71 -36h-2c-28 0 -46 24 -33 69c11 39 46 68 96 68c44 0 82 -31 108 -31c37 0 40 36 71 36h2c28 0 45 -25 33 -69z" />
    <glyph glyph-name="OE" unicode="&#x152;" horiz-adv-x="953" 
d="M866 0h-469c-235 0 -368 107 -368 347c0 238 134 353 372 353h453c40 0 55 -25 55 -55v-2c0 -31 -15 -56 -55 -56h-243v-178h164c38 0 52 -24 52 -52v-2c0 -29 -14 -53 -52 -53h-164v-192h255c40 0 54 -24 54 -54v-2c0 -30 -14 -54 -54 -54zM455 110v477h-54
c-145 0 -212 -65 -212 -238c0 -172 66 -239 212 -239h54z" />
    <glyph glyph-name="oe" unicode="&#x153;" horiz-adv-x="931" 
d="M294 533c79 0 146 -30 191 -84c42 54 106 84 185 84c162 0 235 -100 235 -237c0 -42 -23 -66 -70 -66h-271c7 -105 57 -134 138 -134c88 0 109 43 143 43c27 0 44 -18 44 -50v-3c0 -28 -15 -48 -45 -63c-38 -19 -90 -30 -164 -30c-91 0 -156 28 -197 79
c-45 -51 -111 -79 -189 -79c-148 0 -268 99 -268 267c0 169 120 273 268 273zM174 259c0 -113 49 -164 120 -164s120 51 120 164c0 114 -49 168 -120 168s-120 -54 -120 -168zM670 441c-51 0 -93 -25 -104 -123h195c-3 93 -34 123 -91 123z" />
    <glyph glyph-name="endash" unicode="&#x2013;" horiz-adv-x="457" 
d="M358 226h-258c-37 0 -57 25 -57 56v2c0 30 20 55 57 55h258c36 0 56 -25 56 -55v-2c0 -31 -20 -56 -56 -56z" />
    <glyph glyph-name="emdash" unicode="&#x2014;" horiz-adv-x="767" 
d="M668 226h-568c-37 0 -57 25 -57 56v2c0 30 20 55 57 55h568c36 0 56 -25 56 -55v-2c0 -31 -20 -56 -56 -56z" />
    <glyph glyph-name="quotedblleft" unicode="&#x201c;" horiz-adv-x="411" 
d="M192 673v-1c0 -18 -7 -26 -32 -37c-23 -10 -32 -17 -32 -29s9 -20 26 -31c20 -13 33 -26 33 -56c0 -38 -32 -66 -75 -66c-44 0 -83 29 -83 93c0 81 46 133 120 151c24 6 43 -6 43 -24zM387 673v-1c0 -18 -7 -26 -32 -37c-23 -10 -32 -17 -32 -29s9 -20 26 -31
c20 -13 33 -26 33 -56c0 -38 -32 -66 -75 -66c-44 0 -83 29 -83 93c0 81 46 133 120 151c24 6 43 -6 43 -24z" />
    <glyph glyph-name="quotedblright" unicode="&#x201d;" horiz-adv-x="411" 
d="M219 484v1c0 18 7 26 32 37c23 10 32 17 32 29s-9 20 -26 31c-20 13 -33 26 -33 56c0 38 32 66 75 66c44 0 83 -29 83 -93c0 -81 -46 -133 -120 -151c-24 -6 -43 6 -43 24zM24 484v1c0 18 7 26 32 37c23 10 32 17 32 29s-9 20 -26 31c-20 13 -33 26 -33 56
c0 38 32 66 75 66c44 0 83 -29 83 -93c0 -81 -46 -133 -120 -151c-24 -6 -43 6 -43 24z" />
    <glyph glyph-name="quoteleft" unicode="&#x2018;" horiz-adv-x="216" 
d="M192 673v-1c0 -18 -7 -26 -32 -37c-23 -10 -32 -17 -32 -29s9 -20 26 -31c20 -13 33 -26 33 -56c0 -38 -32 -66 -75 -66c-44 0 -83 29 -83 93c0 81 46 133 120 151c24 6 43 -6 43 -24z" />
    <glyph glyph-name="quoteright" unicode="&#x2019;" horiz-adv-x="216" 
d="M24 484v1c0 18 7 26 32 37c23 10 32 17 32 29s-9 20 -26 31c-20 13 -33 26 -33 56c0 38 32 66 75 66c44 0 83 -29 83 -93c0 -81 -46 -133 -120 -151c-24 -6 -43 6 -43 24z" />
    <glyph glyph-name="divide" unicode="&#xf7;" horiz-adv-x="529" 
d="M508 345c0 -32 -15 -57 -56 -57h-374c-42 0 -57 25 -57 57v2c0 31 15 56 57 56h374c41 0 56 -25 56 -56v-2zM347 166c0 -45 -37 -80 -82 -80c-46 0 -82 35 -82 80s36 81 82 81c45 0 82 -36 82 -81zM347 524c0 -45 -37 -80 -82 -80c-46 0 -82 35 -82 80s36 81 82 81
c45 0 82 -36 82 -81z" />
    <glyph glyph-name="ydieresis" unicode="&#xff;" horiz-adv-x="545" 
d="M511 428l-228 -538c-18 -44 -37 -61 -70 -61h-1c-46 0 -77 42 -49 102l48 101l-172 389c-26 59 -1 109 56 109h2c36 0 58 -23 78 -72l108 -257h2l103 264c17 45 35 65 68 65h1c55 0 77 -44 54 -102zM265 639c0 -41 -33 -73 -75 -73s-75 32 -75 73c0 40 33 73 75 73
s75 -33 75 -73zM457 639c0 -41 -33 -73 -75 -73s-75 32 -75 73c0 40 33 73 75 73s75 -33 75 -73z" />
    <glyph glyph-name="Ydieresis" unicode="&#x178;" horiz-adv-x="608" 
d="M521 705h4c57 0 74 -49 48 -96l-184 -334v-202c0 -53 -34 -78 -77 -78h-2c-43 0 -77 25 -77 78v198l-190 326c-30 53 3 108 66 108h3c34 0 53 -23 81 -73l126 -226h2l127 237c23 42 43 62 73 62zM300 801c0 -41 -33 -73 -75 -73s-75 32 -75 73c0 40 33 73 75 73
s75 -33 75 -73zM492 801c0 -41 -33 -73 -75 -73s-75 32 -75 73c0 40 33 73 75 73s75 -33 75 -73z" />
    <glyph glyph-name="fraction" unicode="&#x2044;" horiz-adv-x="222" 
d="M364 659l-422 -655c-20 -31 -34 -43 -53 -43h-1c-34 0 -57 34 -30 75l422 655c20 31 34 43 53 43h1c34 0 57 -34 30 -75z" />
    <glyph glyph-name="Euro" unicode="&#x20ac;" horiz-adv-x="597" 
d="M358 236h-119c17 -90 59 -132 143 -132c91 0 104 51 145 51c29 0 45 -19 45 -46v-6c0 -40 -18 -65 -61 -85c-36 -17 -86 -26 -136 -26c-157 0 -262 88 -294 244h-21c-30 0 -43 19 -43 43v2c0 23 13 42 43 42h10v25c0 10 0 20 1 30h-11c-30 0 -43 19 -43 43v2
c0 23 13 42 43 42h23c36 153 147 243 304 243c49 0 89 -6 123 -18c39 -14 55 -36 55 -74v-6c0 -33 -21 -54 -49 -54c-35 0 -56 39 -124 39c-85 0 -132 -45 -152 -130h147c30 0 43 -19 43 -42v-2c0 -24 -13 -43 -43 -43h-157v-55h128c30 0 43 -19 43 -42v-2
c0 -24 -13 -43 -43 -43z" />
    <glyph glyph-name="guilsinglleft" unicode="&#x2039;" horiz-adv-x="296" 
d="M152 260l87 -144c22 -37 3 -80 -43 -80h-3c-27 0 -51 17 -74 54l-68 107c-18 28 -24 45 -24 63s6 35 24 63l68 107c23 37 47 55 74 55h3c46 0 66 -43 43 -80l-87 -142v-3z" />
    <glyph glyph-name="guilsinglright" unicode="&#x203a;" horiz-adv-x="296" 
d="M57 116l87 144v3l-87 142c-23 37 -3 80 43 80h3c27 0 51 -18 74 -55l68 -107c18 -28 24 -45 24 -63s-6 -35 -24 -63l-68 -107c-23 -37 -47 -54 -74 -54h-3c-46 0 -65 43 -43 80z" />
    <glyph glyph-name="fi" unicode="&#xfb01;" horiz-adv-x="582" 
d="M532 643c0 -43 -35 -77 -79 -77s-80 34 -80 77s36 78 80 78s79 -35 79 -78zM525 426v-359c0 -47 -29 -72 -72 -72h-2c-43 0 -72 25 -72 72v389c0 50 20 74 69 74h3c49 0 74 -31 74 -104zM223 427v-360c0 -47 -29 -72 -72 -72h-2c-43 0 -72 25 -72 72v360h-18
c-26 0 -48 12 -48 48v2c0 36 22 48 48 48h18v40c0 99 63 145 164 145c16 0 29 -1 43 -4c28 -6 40 -21 40 -48v-2c0 -25 -11 -44 -49 -47c-41 -3 -52 -20 -52 -49v-35h53c26 0 48 -12 48 -48v-2c0 -36 -22 -48 -48 -48h-53z" />
    <glyph glyph-name="fl" unicode="&#xfb02;" horiz-adv-x="580" 
d="M379 67v564c0 48 20 74 69 74h3c50 0 74 -31 74 -104v-534c0 -47 -29 -72 -72 -72h-2c-43 0 -72 25 -72 72zM223 427v-360c0 -47 -29 -72 -72 -72h-2c-43 0 -72 25 -72 72v360h-18c-26 0 -48 12 -48 48v2c0 36 22 48 48 48h18v40c0 99 63 145 164 145c16 0 29 -1 43 -4
c28 -6 40 -21 40 -48v-2c0 -25 -11 -44 -49 -47c-41 -3 -52 -20 -52 -49v-35h53c26 0 48 -12 48 -48v-2c0 -36 -22 -48 -48 -48h-53z" />
    <glyph glyph-name="daggerdbl" unicode="&#x2021;" horiz-adv-x="469" 
d="M310 326c0 -30 -8 -59 -33 -106c49 24 83 34 109 34c43 0 64 -22 64 -64v-14c0 -42 -21 -64 -64 -64c-26 0 -60 10 -109 34c21 -59 30 -99 30 -131c0 -45 -24 -68 -69 -68h-6c-45 0 -70 23 -70 68c0 32 9 72 30 131c-49 -24 -83 -34 -109 -34c-43 0 -64 22 -64 64v14
c0 42 21 64 64 64c26 0 60 -10 109 -34c-25 47 -33 76 -33 106s8 59 33 106c-49 -24 -83 -34 -109 -34c-43 0 -64 22 -64 64v14c0 42 21 64 64 64c26 0 60 -10 109 -34c-21 59 -30 99 -30 131c0 45 25 68 70 68h6c45 0 69 -23 69 -68c0 -32 -9 -72 -30 -131
c49 24 83 34 109 34c43 0 64 -22 64 -64v-14c0 -42 -21 -64 -64 -64c-26 0 -60 10 -109 34c25 -47 33 -76 33 -106z" />
    <glyph glyph-name="periodcentered" unicode="&#xb7;" horiz-adv-x="224" 
d="M194 295c0 -45 -37 -80 -82 -80c-46 0 -82 35 -82 80s36 81 82 81c45 0 82 -36 82 -81z" />
    <glyph glyph-name="quotesinglbase" unicode="&#x201a;" horiz-adv-x="216" 
d="M88 -2c0 12 -9 20 -26 31c-20 13 -33 26 -33 56c0 38 32 66 75 66c44 0 83 -29 83 -93c0 -81 -46 -133 -120 -151c-24 -6 -43 6 -43 24v1c0 18 7 26 32 37c23 10 32 17 32 29z" />
    <glyph glyph-name="quotedblbase" unicode="&#x201e;" horiz-adv-x="411" 
d="M88 -2c0 12 -9 20 -26 31c-20 13 -33 26 -33 56c0 38 32 66 75 66c44 0 83 -29 83 -93c0 -81 -46 -133 -120 -151c-24 -6 -43 6 -43 24v1c0 18 7 26 32 37c23 10 32 17 32 29zM283 -2c0 12 -9 20 -26 31c-20 13 -33 26 -33 56c0 38 32 66 75 66c44 0 83 -29 83 -93
c0 -81 -46 -133 -120 -151c-24 -6 -43 6 -43 24v1c0 18 7 26 32 37c23 10 32 17 32 29z" />
    <glyph glyph-name="perthousand" unicode="&#x2030;" horiz-adv-x="1221" 
d="M133 521c0 -73 24 -105 62 -105s62 32 62 105c0 74 -24 105 -62 105s-62 -31 -62 -105zM372 523c0 -127 -85 -189 -177 -189s-177 62 -177 189s85 185 177 185s177 -58 177 -185zM572 179c0 -73 24 -105 62 -105s62 32 62 105c0 74 -24 105 -62 105s-62 -31 -62 -105z
M811 181c0 -127 -85 -189 -177 -189s-177 62 -177 189s85 185 177 185s177 -58 177 -185zM964 179c0 -73 24 -105 62 -105s62 32 62 105c0 74 -24 105 -62 105s-62 -31 -62 -105zM1203 181c0 -127 -85 -189 -177 -189s-177 62 -177 189s85 185 177 185s177 -58 177 -185z
M668 657l-425 -657c-19 -30 -33 -39 -51 -39h-2c-37 0 -58 37 -32 77l425 657c19 30 33 39 51 39h2c37 0 58 -37 32 -77z" />
    <glyph glyph-name="Acircumflex" unicode="&#xc2;" horiz-adv-x="669" 
d="M93 -5h-4c-44 0 -72 33 -52 88l191 543c19 53 54 79 106 79h6c51 0 83 -28 102 -81l189 -535c21 -59 -14 -94 -58 -94h-8c-47 0 -72 18 -88 67l-38 116h-236l-37 -118c-14 -44 -37 -65 -73 -65zM332 772l-16 -15c-27 -26 -47 -35 -63 -35h-2c-44 0 -61 46 -20 87l12 12
c34 34 59 43 85 43h9c26 0 51 -9 85 -43l12 -12c41 -41 24 -87 -20 -87h-2c-16 0 -35 10 -63 35zM318 543l-82 -258h168l-84 258h-2z" />
    <glyph glyph-name="Ecircumflex" unicode="&#xca;" horiz-adv-x="567" 
d="M480 0h-335c-51 0 -83 32 -83 83v534c0 51 32 83 83 83h323c36 0 55 -21 55 -55v-2c0 -34 -19 -56 -55 -56h-252v-177h176c35 0 54 -19 54 -53v-2c0 -36 -19 -54 -54 -54h-176v-191h264c35 0 54 -19 54 -54v-2c0 -35 -19 -54 -54 -54zM282 772l-16 -15
c-27 -26 -47 -35 -63 -35h-2c-44 0 -61 46 -20 87l12 12c34 34 59 43 85 43h9c26 0 51 -9 85 -43l12 -12c41 -41 24 -87 -20 -87h-2c-16 0 -35 10 -63 35z" />
    <glyph glyph-name="Aacute" unicode="&#xc1;" horiz-adv-x="669" 
d="M93 -5h-4c-44 0 -72 33 -52 88l191 543c19 53 54 79 106 79h6c51 0 83 -28 102 -81l189 -535c21 -59 -14 -94 -58 -94h-8c-47 0 -72 18 -88 67l-38 116h-236l-37 -118c-14 -44 -37 -65 -73 -65zM318 543l-82 -258h168l-84 258h-2zM287 778l11 32c14 40 39 50 79 50h30
c51 0 64 -44 27 -75l-38 -33c-23 -20 -47 -31 -65 -31h-6c-29 0 -50 23 -38 57z" />
    <glyph glyph-name="Edieresis" unicode="&#xcb;" horiz-adv-x="567" 
d="M480 0h-335c-51 0 -83 32 -83 83v534c0 51 32 83 83 83h323c36 0 55 -21 55 -55v-2c0 -34 -19 -56 -55 -56h-252v-177h176c35 0 54 -19 54 -53v-2c0 -36 -19 -54 -54 -54h-176v-191h264c35 0 54 -19 54 -54v-2c0 -35 -19 -54 -54 -54zM285 796c0 -41 -33 -73 -75 -73
s-75 32 -75 73c0 40 33 73 75 73s75 -33 75 -73zM477 796c0 -41 -33 -73 -75 -73s-75 32 -75 73c0 40 33 73 75 73s75 -33 75 -73z" />
    <glyph glyph-name="Egrave" unicode="&#xc8;" horiz-adv-x="567" 
d="M480 0h-335c-51 0 -83 32 -83 83v534c0 51 32 83 83 83h323c36 0 55 -21 55 -55v-2c0 -34 -19 -56 -55 -56h-252v-177h176c35 0 54 -19 54 -53v-2c0 -36 -19 -54 -54 -54h-176v-191h264c35 0 54 -19 54 -54v-2c0 -35 -19 -54 -54 -54zM340 810l11 -32
c12 -34 -9 -57 -38 -57h-6c-18 0 -42 11 -65 31l-38 33c-37 31 -24 75 27 75h30c40 0 65 -10 79 -50z" />
    <glyph glyph-name="Iacute" unicode="&#xcd;" horiz-adv-x="287" 
d="M222 628v-555c0 -53 -34 -78 -77 -78h-2c-43 0 -78 25 -78 78v555c0 43 26 77 78 77h2c52 0 77 -34 77 -77zM102 778l11 32c14 40 39 50 79 50h30c51 0 64 -44 27 -75l-38 -33c-23 -20 -47 -31 -65 -31h-6c-29 0 -50 23 -38 57z" />
    <glyph glyph-name="Icircumflex" unicode="&#xce;" horiz-adv-x="287" 
d="M222 628v-555c0 -53 -34 -78 -77 -78h-2c-43 0 -78 25 -78 78v555c0 43 26 77 78 77h2c52 0 77 -34 77 -77zM143 772l-16 -15c-27 -26 -47 -35 -63 -35h-2c-44 0 -61 46 -20 87l12 12c34 34 59 43 85 43h9c26 0 51 -9 85 -43l12 -12c41 -41 24 -87 -20 -87h-2
c-16 0 -35 10 -63 35z" />
    <glyph glyph-name="Idieresis" unicode="&#xcf;" horiz-adv-x="287" 
d="M222 628v-555c0 -53 -34 -78 -77 -78h-2c-43 0 -78 25 -78 78v555c0 43 26 77 78 77h2c52 0 77 -34 77 -77zM122 796c0 -41 -33 -73 -75 -73s-75 32 -75 73c0 40 33 73 75 73s75 -33 75 -73zM314 796c0 -41 -33 -73 -75 -73s-75 32 -75 73c0 40 33 73 75 73
s75 -33 75 -73z" />
    <glyph glyph-name="Igrave" unicode="&#xcc;" horiz-adv-x="287" 
d="M222 628v-555c0 -53 -34 -78 -77 -78h-2c-43 0 -78 25 -78 78v555c0 43 26 77 78 77h2c52 0 77 -34 77 -77zM177 810l11 -32c12 -34 -9 -57 -38 -57h-6c-18 0 -42 11 -65 31l-38 33c-37 31 -24 75 27 75h30c40 0 65 -10 79 -50z" />
    <glyph glyph-name="Oacute" unicode="&#xd3;" horiz-adv-x="730" 
d="M701 350c0 -231 -157 -358 -336 -358s-336 127 -336 358s157 358 336 358s336 -127 336 -358zM189 347c0 -171 73 -247 176 -247c102 0 176 76 176 247c0 172 -74 251 -176 251c-103 0 -176 -79 -176 -251zM324 778l11 32c14 40 39 50 79 50h30c51 0 64 -44 27 -75
l-38 -33c-23 -20 -47 -31 -65 -31h-6c-29 0 -50 23 -38 57z" />
    <glyph glyph-name="Ocircumflex" unicode="&#xd4;" horiz-adv-x="730" 
d="M701 350c0 -231 -157 -358 -336 -358s-336 127 -336 358s157 358 336 358s336 -127 336 -358zM189 347c0 -171 73 -247 176 -247c102 0 176 76 176 247c0 172 -74 251 -176 251c-103 0 -176 -79 -176 -251zM364 772l-16 -15c-27 -26 -47 -35 -63 -35h-2
c-44 0 -61 46 -20 87l12 12c34 34 59 43 85 43h9c26 0 51 -9 85 -43l12 -12c41 -41 24 -87 -20 -87h-2c-16 0 -35 10 -63 35z" />
    <glyph glyph-name="Ograve" unicode="&#xd2;" horiz-adv-x="730" 
d="M701 350c0 -231 -157 -358 -336 -358s-336 127 -336 358s157 358 336 358s336 -127 336 -358zM189 347c0 -171 73 -247 176 -247c102 0 176 76 176 247c0 172 -74 251 -176 251c-103 0 -176 -79 -176 -251zM399 810l11 -32c12 -34 -9 -57 -38 -57h-6c-18 0 -42 11 -65 31
l-38 33c-37 31 -24 75 27 75h30c40 0 65 -10 79 -50z" />
    <glyph glyph-name="Uacute" unicode="&#xda;" horiz-adv-x="678" 
d="M215 270c0 -131 52 -163 142 -163c85 0 132 32 132 163v371c0 41 24 64 64 64h2c40 0 64 -23 64 -64v-367c0 -180 -73 -282 -271 -282c-190 0 -289 102 -289 282v354c0 44 26 77 77 77h2c51 0 77 -33 77 -77v-358zM312 778l11 32c14 40 39 50 79 50h30
c51 0 64 -44 27 -75l-38 -33c-23 -20 -47 -31 -65 -31h-6c-29 0 -50 23 -38 57z" />
    <glyph glyph-name="Ucircumflex" unicode="&#xdb;" horiz-adv-x="678" 
d="M215 270c0 -131 52 -163 142 -163c85 0 132 32 132 163v371c0 41 24 64 64 64h2c40 0 64 -23 64 -64v-367c0 -180 -73 -282 -271 -282c-190 0 -289 102 -289 282v354c0 44 26 77 77 77h2c51 0 77 -33 77 -77v-358zM349 772l-16 -15c-27 -26 -47 -35 -63 -35h-2
c-44 0 -61 46 -20 87l12 12c34 34 59 43 85 43h9c26 0 51 -9 85 -43l12 -12c41 -41 24 -87 -20 -87h-2c-16 0 -35 10 -63 35z" />
    <glyph glyph-name="Ugrave" unicode="&#xd9;" horiz-adv-x="678" 
d="M215 270c0 -131 52 -163 142 -163c85 0 132 32 132 163v371c0 41 24 64 64 64h2c40 0 64 -23 64 -64v-367c0 -180 -73 -282 -271 -282c-190 0 -289 102 -289 282v354c0 44 26 77 77 77h2c51 0 77 -33 77 -77v-358zM387 810l11 -32c12 -34 -9 -57 -38 -57h-6
c-18 0 -42 11 -65 31l-38 33c-37 31 -24 75 27 75h30c40 0 65 -10 79 -50z" />
    <glyph glyph-name="dotlessi" unicode="&#x131;" horiz-adv-x="259" 
d="M202 426v-359c0 -47 -29 -72 -72 -72h-2c-43 0 -72 25 -72 72v389c0 50 20 74 69 74h3c49 0 74 -31 74 -104z" />
    <glyph glyph-name="circumflex" unicode="&#x2c6;" 
d="M108 661l9 9c30 30 51 38 80 38h6c29 0 50 -8 80 -38l9 -9c54 -54 30 -104 -11 -104h-3c-20 0 -38 9 -62 35l-16 18l-16 -18c-24 -26 -42 -35 -62 -35h-3c-41 0 -65 50 -11 104z" />
    <glyph glyph-name="tilde" unicode="&#x2dc;" 
d="M347 633c-12 -40 -46 -69 -96 -69c-44 0 -82 31 -108 31c-37 0 -40 -36 -71 -36h-2c-28 0 -45 24 -33 69c12 39 46 69 96 69c44 0 82 -31 108 -31c37 0 40 36 71 36h2c28 0 45 -25 33 -69z" />
    <glyph glyph-name="macron" unicode="&#xaf;" 
d="M114 682h172c36 0 48 -22 48 -48v-2c0 -26 -12 -48 -48 -48h-172c-36 0 -48 22 -48 48v2c0 26 12 48 48 48z" />
    <glyph glyph-name="breve" unicode="&#x2d8;" 
d="M200 563c-59 0 -107 27 -134 73c-20 39 -10 77 26 77h4c40 0 57 -51 104 -51c46 0 64 51 103 51h4c37 0 47 -38 26 -77c-27 -46 -74 -73 -133 -73z" />
    <glyph glyph-name="dotaccent" unicode="&#x2d9;" 
d="M279 643c0 -43 -35 -77 -79 -77s-79 34 -79 77s35 78 79 78s79 -35 79 -78z" />
    <glyph glyph-name="ring" unicode="&#x2da;" 
d="M305 666c0 -62 -48 -100 -105 -100s-105 38 -105 100s48 101 105 101s105 -39 105 -101zM164 666c0 -23 14 -38 36 -38s37 15 37 38c0 24 -15 39 -37 39s-36 -15 -36 -39z" />
    <glyph glyph-name="cedilla" unicode="&#xb8;" 
d="M156 -51v51h69v-24c57 -2 81 -30 81 -74c0 -48 -41 -77 -105 -77c-16 0 -36 3 -49 8c-19 7 -28 17 -28 36v3c0 16 7 29 23 29c17 0 26 -14 46 -14c16 0 24 7 24 19c0 11 -9 18 -33 18h-2c-17 0 -26 7 -26 25z" />
    <glyph glyph-name="hungarumlaut" unicode="&#x2dd;" 
d="M81 612l10 37c12 40 34 56 75 56h15c42 0 57 -35 26 -74l-31 -40c-22 -28 -41 -34 -58 -34h-3c-26 0 -44 20 -34 55zM245 612l10 37c12 40 34 56 75 56h15c42 0 57 -35 26 -74l-31 -40c-22 -28 -41 -34 -58 -34h-3c-26 0 -44 20 -34 55z" />
    <glyph glyph-name="ogonek" unicode="&#x2db;" 
d="M129 -89c0 40 27 69 59 89h87c-22 -18 -36 -34 -36 -50c0 -13 6 -21 31 -29c23 -7 34 -17 34 -37v-2c0 -30 -27 -47 -79 -47c-59 0 -96 28 -96 76z" />
    <glyph glyph-name="caron" unicode="&#x2c7;" 
d="M117 595l-9 9c-54 54 -30 104 11 104h3c20 0 38 -9 62 -35l16 -18l16 18c24 26 42 35 62 35h3c41 0 65 -50 11 -104l-9 -9c-30 -30 -51 -38 -80 -38h-6c-29 0 -50 8 -80 38z" />
    <glyph glyph-name="Dcroat" unicode="&#x110;" horiz-adv-x="687" 
d="M286 0h-134c-51 0 -83 32 -83 83v212h-10c-39 0 -53 24 -53 53v2c0 28 14 52 53 52h10v215c0 51 32 83 83 83h138c235 0 368 -107 368 -347c0 -238 -134 -353 -372 -353zM324 295h-99v-185h61c145 0 212 68 212 241c0 172 -66 237 -212 237h-61v-186h99
c38 0 52 -24 52 -52v-2c0 -29 -14 -53 -52 -53z" />
    <glyph glyph-name="uni0237" unicode="&#x237;" horiz-adv-x="259" 
d="M202 426v-437c0 -110 -56 -157 -160 -157c-21 0 -38 1 -55 5c-20 5 -31 18 -31 45v6c0 22 11 37 34 39c52 5 66 21 66 71v458c0 50 20 74 69 74h3c51 0 74 -31 74 -104z" />
    <glyph glyph-name="dcroat" unicode="&#x111;" horiz-adv-x="591" 
d="M536 561v-492c0 -50 -19 -74 -68 -74h-3c-37 0 -59 22 -69 64c-34 -38 -88 -67 -157 -67c-118 0 -210 87 -210 261c0 206 112 280 224 280c67 0 105 -17 137 -45v73h-96c-29 0 -42 19 -42 42v2c0 22 13 41 42 41h96c4 38 25 59 69 59h3c39 0 61 -18 70 -59h20
c28 0 41 -19 41 -41v-2c0 -23 -13 -42 -41 -42h-16zM298 421c-60 0 -121 -30 -121 -161c0 -120 34 -166 104 -166c43 0 72 15 109 46v255c-23 17 -52 26 -92 26z" />
    <glyph glyph-name="Abreve" unicode="&#x102;" horiz-adv-x="669" 
d="M93 -5h-4c-44 0 -72 33 -52 88l191 543c19 53 54 79 106 79h6c51 0 83 -28 102 -81l189 -535c21 -59 -14 -94 -58 -94h-8c-47 0 -72 18 -88 67l-38 116h-236l-37 -118c-14 -44 -37 -65 -73 -65zM331 728c-56 0 -104 24 -126 65c-19 36 -5 69 28 69h4c34 0 50 -41 94 -41
s60 41 94 41h4c33 0 47 -33 28 -69c-22 -41 -70 -65 -126 -65zM318 543l-82 -258h168l-84 258h-2z" />
    <glyph glyph-name="Amacron" unicode="&#x100;" horiz-adv-x="669" 
d="M93 -5h-4c-44 0 -72 33 -52 88l191 543c19 53 54 79 106 79h6c51 0 83 -28 102 -81l189 -535c21 -59 -14 -94 -58 -94h-8c-47 0 -72 18 -88 67l-38 116h-236l-37 -118c-14 -44 -37 -65 -73 -65zM240 832h180c36 0 48 -22 48 -48v-2c0 -26 -12 -48 -48 -48h-180
c-36 0 -48 22 -48 48v2c0 26 12 48 48 48zM318 543l-82 -258h168l-84 258h-2z" />
    <glyph glyph-name="Aogonek" unicode="&#x104;" horiz-adv-x="669" 
d="M93 -5h-4c-44 0 -72 33 -52 88l191 543c19 53 54 79 106 79h6c51 0 83 -28 102 -81l189 -535c15 -43 1 -73 -25 -87c-30 -23 -39 -37 -39 -52c0 -6 1 -11 5 -15c4 -5 12 -10 26 -14c23 -7 34 -17 34 -37v-2c0 -30 -27 -47 -79 -47c-32 0 -57 8 -74 23
c-14 13 -22 31 -22 53c0 39 26 69 64 92c-22 11 -36 32 -44 59l-38 116h-236l-37 -118c-14 -44 -37 -65 -73 -65zM318 543l-82 -258h168l-84 258h-2z" />
    <glyph glyph-name="Cacute" unicode="&#x106;" horiz-adv-x="615" 
d="M527 25c-39 -20 -102 -33 -163 -33c-202 0 -334 132 -334 356s143 360 346 360c62 0 110 -8 151 -26c38 -17 56 -40 56 -76v-3c0 -37 -22 -60 -52 -60c-44 0 -69 52 -158 52c-115 0 -183 -85 -183 -241c0 -170 61 -250 181 -250c111 0 121 69 170 69c32 0 52 -22 52 -55
v-5c0 -37 -19 -64 -66 -88zM311 778l11 32c14 40 39 50 79 50h30c51 0 64 -44 27 -75l-38 -33c-23 -20 -47 -31 -65 -31h-6c-29 0 -50 23 -38 57z" />
    <glyph glyph-name="Ccaron" unicode="&#x10c;" horiz-adv-x="615" 
d="M527 25c-39 -20 -102 -33 -163 -33c-202 0 -334 132 -334 356s143 360 346 360c62 0 110 -8 151 -26c38 -17 56 -40 56 -76v-3c0 -37 -22 -60 -52 -60c-44 0 -69 52 -158 52c-115 0 -183 -85 -183 -241c0 -170 61 -250 181 -250c111 0 121 69 170 69c32 0 52 -22 52 -55
v-5c0 -37 -19 -64 -66 -88zM337 829l16 -15l17 15c28 25 47 35 63 35h2c44 0 61 -46 20 -87l-12 -12c-34 -34 -59 -43 -85 -43h-9c-26 0 -51 9 -85 43l-12 12c-41 41 -24 87 20 87h2c16 0 36 -9 63 -35z" />
    <glyph glyph-name="Ccircumflex" unicode="&#x108;" horiz-adv-x="615" 
d="M527 25c-39 -20 -102 -33 -163 -33c-202 0 -334 132 -334 356s143 360 346 360c62 0 110 -8 151 -26c38 -17 56 -40 56 -76v-3c0 -37 -22 -60 -52 -60c-44 0 -69 52 -158 52c-115 0 -183 -85 -183 -241c0 -170 61 -250 181 -250c111 0 121 69 170 69c32 0 52 -22 52 -55
v-5c0 -37 -19 -64 -66 -88zM350 772l-16 -15c-27 -26 -47 -35 -63 -35h-2c-44 0 -61 46 -20 87l12 12c34 34 59 43 85 43h9c26 0 51 -9 85 -43l12 -12c41 -41 24 -87 -20 -87h-2c-16 0 -35 10 -63 35z" />
    <glyph glyph-name="Cdotaccent" unicode="&#x10a;" horiz-adv-x="615" 
d="M527 25c-39 -20 -102 -33 -163 -33c-202 0 -334 132 -334 356s143 360 346 360c62 0 110 -8 151 -26c38 -17 56 -40 56 -76v-3c0 -37 -22 -60 -52 -60c-44 0 -69 52 -158 52c-115 0 -183 -85 -183 -241c0 -170 61 -250 181 -250c111 0 121 69 170 69c32 0 52 -22 52 -55
v-5c0 -37 -19 -64 -66 -88zM431 805c0 -43 -35 -77 -79 -77s-79 34 -79 77s35 78 79 78s79 -35 79 -78z" />
    <glyph glyph-name="Dcaron" unicode="&#x10e;" horiz-adv-x="680" 
d="M279 0h-134c-51 0 -83 32 -83 83v534c0 51 32 83 83 83h138c235 0 368 -107 368 -347c0 -238 -134 -353 -372 -353zM218 588v-478h61c145 0 212 68 212 241c0 172 -66 237 -212 237h-61zM300 829l16 -15l17 15c28 25 47 35 63 35h2c44 0 61 -46 20 -87l-12 -12
c-34 -34 -59 -43 -85 -43h-9c-26 0 -51 9 -85 43l-12 12c-41 41 -24 87 20 87h2c16 0 36 -9 63 -35z" />
    <glyph glyph-name="Ebreve" unicode="&#x114;" horiz-adv-x="567" 
d="M480 0h-335c-51 0 -83 32 -83 83v534c0 51 32 83 83 83h323c36 0 55 -21 55 -55v-2c0 -34 -19 -56 -55 -56h-252v-177h176c35 0 54 -19 54 -53v-2c0 -36 -19 -54 -54 -54h-176v-191h264c35 0 54 -19 54 -54v-2c0 -35 -19 -54 -54 -54zM306 728c-56 0 -104 24 -126 65
c-19 36 -5 69 28 69h4c34 0 50 -41 94 -41s60 41 94 41h4c33 0 47 -33 28 -69c-22 -41 -70 -65 -126 -65z" />
    <glyph glyph-name="Ecaron" unicode="&#x11a;" horiz-adv-x="567" 
d="M480 0h-335c-51 0 -83 32 -83 83v534c0 51 32 83 83 83h323c36 0 55 -21 55 -55v-2c0 -34 -19 -56 -55 -56h-252v-177h176c35 0 54 -19 54 -53v-2c0 -36 -19 -54 -54 -54h-176v-191h264c35 0 54 -19 54 -54v-2c0 -35 -19 -54 -54 -54zM291 829l16 -15l17 15
c28 25 47 35 63 35h2c44 0 61 -46 20 -87l-12 -12c-34 -34 -59 -43 -85 -43h-9c-26 0 -51 9 -85 43l-12 12c-41 41 -24 87 20 87h2c16 0 36 -9 63 -35z" />
    <glyph glyph-name="Edotaccent" unicode="&#x116;" horiz-adv-x="567" 
d="M480 0h-335c-51 0 -83 32 -83 83v534c0 51 32 83 83 83h323c36 0 55 -21 55 -55v-2c0 -34 -19 -56 -55 -56h-252v-177h176c35 0 54 -19 54 -53v-2c0 -36 -19 -54 -54 -54h-176v-191h264c35 0 54 -19 54 -54v-2c0 -35 -19 -54 -54 -54zM385 805c0 -43 -35 -77 -79 -77
s-79 34 -79 77s35 78 79 78s79 -35 79 -78z" />
    <glyph glyph-name="Emacron" unicode="&#x112;" horiz-adv-x="567" 
d="M216 832h180c36 0 48 -22 48 -48v-2c0 -26 -12 -48 -48 -48h-180c-36 0 -48 22 -48 48v2c0 26 12 48 48 48zM480 0h-335c-51 0 -83 32 -83 83v534c0 51 32 83 83 83h323c36 0 55 -21 55 -55v-2c0 -34 -19 -56 -55 -56h-252v-177h176c35 0 54 -19 54 -53v-2
c0 -36 -19 -54 -54 -54h-176v-191h264c35 0 54 -19 54 -54v-2c0 -35 -19 -54 -54 -54z" />
    <glyph glyph-name="Eogonek" unicode="&#x118;" horiz-adv-x="567" 
d="M431 -165c-32 0 -57 8 -74 23c-14 13 -22 31 -22 53c0 40 27 69 59 89h-249c-51 0 -83 32 -83 83v534c0 51 32 83 83 83h323c36 0 55 -21 55 -55v-2c0 -34 -19 -56 -55 -56h-252v-177h176c35 0 54 -19 54 -53v-2c0 -36 -19 -54 -54 -54h-176v-191h264c35 0 54 -19 54 -54
v-2c0 -31 -15 -43 -39 -54l-9 -4c-27 -12 -41 -30 -41 -46c0 -6 1 -11 5 -15c4 -5 12 -10 26 -14c23 -7 34 -17 34 -37v-2c0 -30 -27 -47 -79 -47z" />
    <glyph glyph-name="Gbreve" unicode="&#x11e;" horiz-adv-x="666" 
d="M526 13c-37 -12 -100 -21 -165 -21c-208 0 -332 127 -332 356s131 360 350 360c65 0 117 -8 156 -25c31 -14 48 -35 48 -70v-10c0 -40 -21 -57 -49 -57c-43 0 -56 47 -157 47c-116 0 -184 -67 -184 -239c0 -173 55 -255 168 -255c45 0 72 5 97 13v141h-57
c-36 0 -55 21 -55 55v2c0 33 19 55 55 55h132c52 0 78 -33 78 -83v-165c0 -55 -25 -85 -85 -104zM352 728c-56 0 -104 24 -126 65c-19 36 -5 69 28 69h4c34 0 50 -41 94 -41s60 41 94 41h4c33 0 47 -33 28 -69c-22 -41 -70 -65 -126 -65z" />
    <glyph glyph-name="Gcircumflex" unicode="&#x11c;" horiz-adv-x="666" 
d="M526 13c-37 -12 -100 -21 -165 -21c-208 0 -332 127 -332 356s131 360 350 360c65 0 117 -8 156 -25c31 -14 48 -35 48 -70v-10c0 -40 -21 -57 -49 -57c-43 0 -56 47 -157 47c-116 0 -184 -67 -184 -239c0 -173 55 -255 168 -255c45 0 72 5 97 13v141h-57
c-36 0 -55 21 -55 55v2c0 33 19 55 55 55h132c52 0 78 -33 78 -83v-165c0 -55 -25 -85 -85 -104zM350 772l-16 -15c-27 -26 -47 -35 -63 -35h-2c-44 0 -61 46 -20 87l12 12c34 34 59 43 85 43h9c26 0 51 -9 85 -43l12 -12c41 -41 24 -87 -20 -87h-2c-16 0 -35 10 -63 35z
" />
    <glyph glyph-name="Gcommaaccent" unicode="&#x122;" horiz-adv-x="666" 
d="M526 13c-37 -12 -100 -21 -165 -21c-208 0 -332 127 -332 356s131 360 350 360c65 0 117 -8 156 -25c31 -14 48 -35 48 -70v-10c0 -40 -21 -57 -49 -57c-43 0 -56 47 -157 47c-116 0 -184 -67 -184 -239c0 -173 55 -255 168 -255c45 0 72 5 97 13v141h-57
c-36 0 -55 21 -55 55v2c0 33 19 55 55 55h132c52 0 78 -33 78 -83v-165c0 -55 -25 -85 -85 -104zM286 -189v1c0 11 6 20 24 27c19 7 26 13 26 21c0 7 -3 12 -20 23s-27 23 -27 46c0 30 26 53 60 53c39 0 67 -25 67 -75c0 -69 -36 -109 -92 -120c-24 -5 -38 6 -38 24z" />
    <glyph glyph-name="Gdotaccent" unicode="&#x120;" horiz-adv-x="666" 
d="M526 13c-37 -12 -100 -21 -165 -21c-208 0 -332 127 -332 356s131 360 350 360c65 0 117 -8 156 -25c31 -14 48 -35 48 -70v-10c0 -40 -21 -57 -49 -57c-43 0 -56 47 -157 47c-116 0 -184 -67 -184 -239c0 -173 55 -255 168 -255c45 0 72 5 97 13v141h-57
c-36 0 -55 21 -55 55v2c0 33 19 55 55 55h132c52 0 78 -33 78 -83v-165c0 -55 -25 -85 -85 -104zM431 805c0 -43 -35 -77 -79 -77s-79 34 -79 77s35 78 79 78s79 -35 79 -78z" />
    <glyph glyph-name="Hbar" unicode="&#x126;" horiz-adv-x="693" 
d="M643 498h-12v-426c0 -49 -29 -77 -77 -77h-2c-49 0 -77 28 -77 77v231h-257v-231c0 -49 -28 -77 -77 -77h-2c-48 0 -77 28 -77 77v426h-12c-34 0 -48 22 -48 48v2c0 26 14 48 48 48h12v32c0 46 29 77 77 77h2c49 0 77 -31 77 -77v-32h257v32c0 46 28 77 77 77h2
c48 0 77 -31 77 -77v-32h12c34 0 48 -22 48 -48v-2c0 -26 -14 -48 -48 -48zM218 412h257v86h-257v-86z" />
    <glyph glyph-name="Hcircumflex" unicode="&#x124;" horiz-adv-x="693" 
d="M218 303v-231c0 -49 -28 -77 -77 -77h-2c-48 0 -77 28 -77 77v556c0 46 29 77 77 77h2c49 0 77 -31 77 -77v-216h257v216c0 46 28 77 77 77h2c48 0 77 -31 77 -77v-556c0 -49 -29 -77 -77 -77h-2c-49 0 -77 28 -77 77v231h-257zM347 772l-16 -15c-27 -26 -47 -35 -63 -35
h-2c-44 0 -61 46 -20 87l12 12c34 34 59 43 85 43h9c26 0 51 -9 85 -43l12 -12c41 -41 24 -87 -20 -87h-2c-16 0 -35 10 -63 35z" />
    <glyph glyph-name="Idotaccent" unicode="&#x130;" horiz-adv-x="287" 
d="M222 628v-555c0 -53 -34 -78 -77 -78h-2c-43 0 -78 25 -78 78v555c0 43 26 77 78 77h2c52 0 77 -34 77 -77zM222 805c0 -43 -35 -77 -79 -77s-79 34 -79 77s35 78 79 78s79 -35 79 -78z" />
    <glyph glyph-name="Imacron" unicode="&#x12a;" horiz-adv-x="287" 
d="M54 832h180c36 0 48 -22 48 -48v-2c0 -26 -12 -48 -48 -48h-180c-36 0 -48 22 -48 48v2c0 26 12 48 48 48zM222 628v-555c0 -53 -34 -78 -77 -78h-2c-43 0 -78 25 -78 78v555c0 43 26 77 78 77h2c52 0 77 -34 77 -77z" />
    <glyph glyph-name="Iogonek" unicode="&#x12e;" horiz-adv-x="287" 
d="M222 628v-555c0 -30 -11 -51 -28 -64c-30 -22 -37 -39 -37 -55c0 -7 1 -13 5 -18c5 -6 13 -11 26 -15c23 -7 34 -17 34 -37v-2c0 -30 -27 -47 -79 -47c-31 0 -55 8 -72 23c-15 14 -24 33 -24 57c0 31 18 66 53 90c-25 11 -35 41 -35 68v555c0 43 26 77 78 77h2
c52 0 77 -34 77 -77z" />
    <glyph glyph-name="Jcircumflex" unicode="&#x134;" horiz-adv-x="465" 
d="M407 184c0 -123 -76 -192 -231 -192c-38 0 -70 3 -97 11c-42 12 -62 32 -62 73v13c0 31 17 53 48 53c32 0 47 -38 104 -38c52 0 81 28 81 83v441c0 45 26 77 78 77h2c52 0 77 -32 77 -77v-444zM326 772l-16 -15c-27 -26 -47 -35 -63 -35h-2c-44 0 -61 46 -20 87l12 12
c34 34 59 43 85 43h9c26 0 51 -9 85 -43l12 -12c41 -41 24 -87 -20 -87h-2c-16 0 -35 10 -63 35z" />
    <glyph glyph-name="Kcommaaccent" unicode="&#x136;" horiz-adv-x="668" 
d="M218 628v-239l241 275c30 34 48 41 67 41h2c48 0 82 -57 38 -105l-162 -179l191 -305c39 -62 4 -121 -58 -121h-1c-31 0 -50 13 -78 58l-160 256l-80 -90v-146c0 -53 -34 -78 -77 -78h-2c-43 0 -77 25 -77 78v555c0 43 25 77 77 77h2c52 0 77 -34 77 -77zM274 -189v1
c0 11 6 20 24 27c19 7 26 13 26 21c0 7 -3 12 -20 23s-27 23 -27 46c0 30 26 53 60 53c39 0 67 -25 67 -75c0 -69 -36 -109 -92 -120c-24 -5 -38 6 -38 24z" />
    <glyph glyph-name="Lacute" unicode="&#x139;" horiz-adv-x="537" 
d="M454 0h-309c-51 0 -83 32 -83 83v545c0 43 25 77 77 77h2c52 0 77 -34 77 -77v-518h236c36 0 58 -23 58 -54v-2c0 -31 -22 -54 -58 -54zM99 778l11 32c14 40 39 50 79 50h30c51 0 64 -44 27 -75l-38 -33c-23 -20 -47 -31 -65 -31h-6c-29 0 -50 23 -38 57z" />
    <glyph glyph-name="Lcaron" unicode="&#x13d;" horiz-adv-x="537" 
d="M416 634l-26 -45c-17 -30 -35 -41 -56 -41h-3c-20 0 -37 14 -37 40v57c0 35 22 60 67 60h12c46 0 63 -36 43 -71zM454 0h-309c-51 0 -83 32 -83 83v545c0 43 25 77 77 77h2c52 0 77 -34 77 -77v-518h236c36 0 58 -23 58 -54v-2c0 -31 -22 -54 -58 -54z" />
    <glyph glyph-name="Lcommaaccent" unicode="&#x13b;" horiz-adv-x="537" 
d="M454 0h-309c-51 0 -83 32 -83 83v545c0 43 25 77 77 77h2c52 0 77 -34 77 -77v-518h236c36 0 58 -23 58 -54v-2c0 -31 -22 -54 -58 -54zM230 -189v1c0 11 6 20 24 27c19 7 26 13 26 21c0 7 -3 12 -20 23s-27 23 -27 46c0 30 26 53 60 53c39 0 67 -25 67 -75
c0 -69 -36 -109 -92 -120c-24 -5 -38 6 -38 24z" />
    <glyph glyph-name="Nacute" unicode="&#x143;" horiz-adv-x="693" 
d="M128 -5h-2c-38 0 -64 22 -64 64v558c0 50 31 83 83 83h26c50 0 80 -22 110 -73l216 -376h3v390c0 45 29 64 65 64h2c36 0 64 -19 64 -64v-571c0 -42 -30 -70 -75 -70h-7c-44 0 -69 16 -94 59l-260 452h-3v-452c0 -42 -26 -64 -64 -64zM321 778l11 32c14 40 39 50 79 50
h30c51 0 64 -44 27 -75l-38 -33c-23 -20 -47 -31 -65 -31h-6c-29 0 -50 23 -38 57z" />
    <glyph glyph-name="Ncaron" unicode="&#x147;" horiz-adv-x="693" 
d="M128 -5h-2c-38 0 -64 22 -64 64v558c0 50 31 83 83 83h26c50 0 80 -22 110 -73l216 -376h3v390c0 45 29 64 65 64h2c36 0 64 -19 64 -64v-571c0 -42 -30 -70 -75 -70h-7c-44 0 -69 16 -94 59l-260 452h-3v-452c0 -42 -26 -64 -64 -64zM346 829l16 -15l17 15
c28 25 47 35 63 35h2c44 0 61 -46 20 -87l-12 -12c-34 -34 -59 -43 -85 -43h-9c-26 0 -51 9 -85 43l-12 12c-41 41 -24 87 20 87h2c16 0 36 -9 63 -35z" />
    <glyph glyph-name="Ncommaaccent" unicode="&#x145;" horiz-adv-x="693" 
d="M128 -5h-2c-38 0 -64 22 -64 64v558c0 50 31 83 83 83h26c50 0 80 -22 110 -73l216 -376h3v390c0 45 29 64 65 64h2c36 0 64 -19 64 -64v-571c0 -42 -30 -70 -75 -70h-7c-44 0 -69 16 -94 59l-260 452h-3v-452c0 -42 -26 -64 -64 -64zM274 -189v1c0 11 6 20 24 27
c19 7 26 13 26 21c0 7 -3 12 -20 23s-27 23 -27 46c0 30 26 53 60 53c39 0 67 -25 67 -75c0 -69 -36 -109 -92 -120c-24 -5 -38 6 -38 24z" />
    <glyph glyph-name="Ohungarumlaut" unicode="&#x150;" horiz-adv-x="730" 
d="M701 350c0 -231 -157 -358 -336 -358s-336 127 -336 358s157 358 336 358s336 -127 336 -358zM189 347c0 -171 73 -247 176 -247c102 0 176 76 176 247c0 172 -74 251 -176 251c-103 0 -176 -79 -176 -251zM409 774l9 33c12 40 33 53 74 53h17c42 0 56 -31 25 -70
l-30 -36c-18 -22 -36 -32 -59 -32h-3c-26 0 -43 17 -33 52zM246 774l9 33c12 40 33 53 74 53h17c42 0 56 -31 25 -70l-30 -36c-18 -22 -36 -32 -59 -32h-3c-26 0 -43 17 -33 52z" />
    <glyph glyph-name="Omacron" unicode="&#x14c;" horiz-adv-x="730" 
d="M275 832h180c36 0 48 -22 48 -48v-2c0 -26 -12 -48 -48 -48h-180c-36 0 -48 22 -48 48v2c0 26 12 48 48 48zM701 350c0 -231 -157 -358 -336 -358s-336 127 -336 358s157 358 336 358s336 -127 336 -358zM189 347c0 -171 73 -247 176 -247c102 0 176 76 176 247
c0 172 -74 251 -176 251c-103 0 -176 -79 -176 -251z" />
    <glyph glyph-name="Racute" unicode="&#x154;" horiz-adv-x="632" 
d="M515 -5h-6c-35 0 -60 17 -85 64l-117 215h-89v-202c0 -52 -34 -77 -77 -77h-2c-43 0 -77 25 -77 77v545c0 51 32 83 83 83h152c172 0 269 -70 269 -205c0 -93 -41 -156 -112 -191l114 -204c31 -56 6 -105 -53 -105zM293 589h-75v-208h75c82 0 116 36 116 105
c0 68 -34 103 -116 103zM259 778l11 32c14 40 39 50 79 50h30c51 0 64 -44 27 -75l-38 -33c-23 -20 -47 -31 -65 -31h-6c-29 0 -50 23 -38 57z" />
    <glyph glyph-name="Rcaron" unicode="&#x158;" horiz-adv-x="632" 
d="M515 -5h-6c-35 0 -60 17 -85 64l-117 215h-89v-202c0 -52 -34 -77 -77 -77h-2c-43 0 -77 25 -77 77v545c0 51 32 83 83 83h152c172 0 269 -70 269 -205c0 -93 -41 -156 -112 -191l114 -204c31 -56 6 -105 -53 -105zM293 589h-75v-208h75c82 0 116 36 116 105
c0 68 -34 103 -116 103zM283 829l16 -15l17 15c28 25 47 35 63 35h2c44 0 61 -46 20 -87l-12 -12c-34 -34 -59 -43 -85 -43h-9c-26 0 -51 9 -85 43l-12 12c-41 41 -24 87 20 87h2c16 0 36 -9 63 -35z" />
    <glyph glyph-name="Rcommaaccent" unicode="&#x156;" horiz-adv-x="632" 
d="M515 -5h-6c-35 0 -60 17 -85 64l-117 215h-89v-202c0 -52 -34 -77 -77 -77h-2c-43 0 -77 25 -77 77v545c0 51 32 83 83 83h152c172 0 269 -70 269 -205c0 -93 -41 -156 -112 -191l114 -204c31 -56 6 -105 -53 -105zM293 589h-75v-208h75c82 0 116 36 116 105
c0 68 -34 103 -116 103zM256 -189v1c0 11 6 20 24 27c19 7 26 13 26 21c0 7 -3 12 -20 23s-27 23 -27 46c0 30 26 53 60 53c39 0 67 -25 67 -75c0 -69 -36 -109 -92 -120c-24 -5 -38 6 -38 24z" />
    <glyph glyph-name="Sacute" unicode="&#x15a;" horiz-adv-x="533" 
d="M507 205c0 -136 -92 -213 -264 -213c-74 0 -138 14 -173 32s-51 43 -51 78v5c0 34 18 58 51 58c51 0 55 -62 168 -62c85 0 128 32 128 86c0 72 -71 80 -151 105c-128 40 -187 92 -187 210c0 136 102 204 245 204c56 0 109 -9 144 -24c39 -17 53 -39 53 -73v-3
c0 -35 -19 -55 -47 -55c-41 0 -57 43 -149 43c-71 0 -112 -24 -112 -81c0 -53 47 -71 129 -93c152 -41 216 -88 216 -217zM232 778l11 32c14 40 39 50 79 50h30c51 0 64 -44 27 -75l-38 -33c-23 -20 -47 -31 -65 -31h-6c-29 0 -50 23 -38 57z" />
    <glyph glyph-name="Scedilla" unicode="&#x15e;" horiz-adv-x="533" 
d="M507 205c0 -126 -79 -201 -226 -211v-18c57 -2 81 -30 81 -74c0 -48 -41 -77 -105 -77c-16 0 -36 3 -49 8c-19 7 -28 17 -28 36v3c0 16 7 29 23 29c17 0 26 -14 46 -14c16 0 24 7 24 19c0 11 -9 18 -33 18h-2c-17 0 -26 7 -26 25v44c-61 3 -112 15 -142 31
c-35 18 -51 43 -51 78v5c0 34 18 58 51 58c51 0 55 -62 168 -62c85 0 128 32 128 86c0 72 -71 80 -151 105c-128 40 -187 92 -187 210c0 136 102 204 245 204c56 0 109 -9 144 -24c39 -17 53 -39 53 -73v-3c0 -35 -19 -55 -47 -55c-41 0 -57 43 -149 43
c-71 0 -112 -24 -112 -81c0 -53 47 -71 129 -93c152 -41 216 -88 216 -217z" />
    <glyph glyph-name="Scircumflex" unicode="&#x15c;" horiz-adv-x="533" 
d="M507 205c0 -136 -92 -213 -264 -213c-74 0 -138 14 -173 32s-51 43 -51 78v5c0 34 18 58 51 58c51 0 55 -62 168 -62c85 0 128 32 128 86c0 72 -71 80 -151 105c-128 40 -187 92 -187 210c0 136 102 204 245 204c56 0 109 -9 144 -24c39 -17 53 -39 53 -73v-3
c0 -35 -19 -55 -47 -55c-41 0 -57 43 -149 43c-71 0 -112 -24 -112 -81c0 -53 47 -71 129 -93c152 -41 216 -88 216 -217zM270 772l-16 -15c-27 -26 -47 -35 -63 -35h-2c-44 0 -61 46 -20 87l12 12c34 34 59 43 85 43h9c26 0 51 -9 85 -43l12 -12c41 -41 24 -87 -20 -87h-2
c-16 0 -35 10 -63 35z" />
    <glyph glyph-name="Scommaaccent" unicode="&#x218;" horiz-adv-x="533" 
d="M507 205c0 -136 -92 -213 -264 -213c-74 0 -138 14 -173 32s-51 43 -51 78v5c0 34 18 58 51 58c51 0 55 -62 168 -62c85 0 128 32 128 86c0 72 -71 80 -151 105c-128 40 -187 92 -187 210c0 136 102 204 245 204c56 0 109 -9 144 -24c39 -17 53 -39 53 -73v-3
c0 -35 -19 -55 -47 -55c-41 0 -57 43 -149 43c-71 0 -112 -24 -112 -81c0 -53 47 -71 129 -93c152 -41 216 -88 216 -217zM196 -189v1c0 11 6 20 24 27c19 7 26 13 26 21c0 7 -3 12 -20 23s-27 23 -27 46c0 30 26 53 60 53c39 0 67 -25 67 -75c0 -69 -36 -109 -92 -120
c-24 -5 -38 6 -38 24z" />
    <glyph glyph-name="Tcaron" unicode="&#x164;" horiz-adv-x="587" 
d="M511 590h-140v-517c0 -53 -34 -78 -77 -78h-2c-43 0 -77 25 -77 78v517h-140c-36 0 -55 19 -55 54v2c0 35 19 54 55 54h436c36 0 55 -19 55 -54v-2c0 -35 -19 -54 -55 -54zM277 829l16 -15l17 15c28 25 47 35 63 35h2c44 0 61 -46 20 -87l-12 -12
c-34 -34 -59 -43 -85 -43h-9c-26 0 -51 9 -85 43l-12 12c-41 41 -24 87 20 87h2c16 0 36 -9 63 -35z" />
    <glyph glyph-name="Tcommaaccent" unicode="&#x162;" horiz-adv-x="587" 
d="M511 590h-140v-517c0 -53 -34 -78 -77 -78h-2c-43 0 -77 25 -77 78v517h-140c-36 0 -55 19 -55 54v2c0 35 19 54 55 54h436c36 0 55 -19 55 -54v-2c0 -35 -19 -54 -55 -54zM227 -189v1c0 11 6 20 24 27c19 7 26 13 26 21c0 7 -3 12 -20 23s-27 23 -27 46
c0 30 26 53 60 53c39 0 67 -25 67 -75c0 -69 -36 -109 -92 -120c-24 -5 -38 6 -38 24z" />
    <glyph glyph-name="Ubreve" unicode="&#x16c;" horiz-adv-x="678" 
d="M215 270c0 -131 52 -163 142 -163c85 0 132 32 132 163v371c0 41 24 64 64 64h2c40 0 64 -23 64 -64v-367c0 -180 -73 -282 -271 -282c-190 0 -289 102 -289 282v354c0 44 26 77 77 77h2c51 0 77 -33 77 -77v-358zM353 728c-56 0 -104 24 -126 65c-19 36 -5 69 28 69h4
c34 0 50 -41 94 -41s60 41 94 41h4c33 0 47 -33 28 -69c-22 -41 -70 -65 -126 -65z" />
    <glyph glyph-name="Uhungarumlaut" unicode="&#x170;" horiz-adv-x="678" 
d="M215 270c0 -131 52 -163 142 -163c85 0 132 32 132 163v371c0 41 24 64 64 64h2c40 0 64 -23 64 -64v-367c0 -180 -73 -282 -271 -282c-190 0 -289 102 -289 282v354c0 44 26 77 77 77h2c51 0 77 -33 77 -77v-358zM397 774l9 33c12 40 33 53 74 53h17c42 0 56 -31 25 -70
l-30 -36c-18 -22 -36 -32 -59 -32h-3c-26 0 -43 17 -33 52zM234 774l9 33c12 40 33 53 74 53h17c42 0 56 -31 25 -70l-30 -36c-18 -22 -36 -32 -59 -32h-3c-26 0 -43 17 -33 52z" />
    <glyph glyph-name="Umacron" unicode="&#x16a;" horiz-adv-x="678" 
d="M215 270c0 -131 52 -163 142 -163c85 0 132 32 132 163v371c0 41 24 64 64 64h2c40 0 64 -23 64 -64v-367c0 -180 -73 -282 -271 -282c-190 0 -289 102 -289 282v354c0 44 26 77 77 77h2c51 0 77 -33 77 -77v-358zM263 832h180c36 0 48 -22 48 -48v-2
c0 -26 -12 -48 -48 -48h-180c-36 0 -48 22 -48 48v2c0 26 12 48 48 48z" />
    <glyph glyph-name="Uogonek" unicode="&#x172;" horiz-adv-x="678" 
d="M288 -89c0 35 22 63 49 82c-19 0 -36 1 -57 4c-141 20 -221 120 -221 277v354c0 44 26 77 77 77h2c51 0 77 -33 77 -77v-358c0 -131 52 -163 142 -163c85 0 132 32 132 163v371c0 41 24 64 64 64h2c40 0 64 -23 64 -64v-367c0 -128 -35 -211 -122 -253
c-31 -15 -99 -29 -99 -69c0 -6 1 -11 5 -16c4 -6 12 -11 26 -15c23 -7 34 -17 34 -37v-2c0 -30 -27 -47 -79 -47c-33 0 -59 9 -76 25c-13 13 -20 30 -20 51z" />
    <glyph glyph-name="Uring" unicode="&#x16e;" horiz-adv-x="678" 
d="M215 270c0 -131 52 -163 142 -163c85 0 132 32 132 163v371c0 41 24 64 64 64h2c40 0 64 -23 64 -64v-367c0 -180 -73 -282 -271 -282c-190 0 -289 102 -289 282v354c0 44 26 77 77 77h2c51 0 77 -33 77 -77v-358zM458 799c0 -62 -48 -100 -105 -100s-105 38 -105 100
s48 101 105 101s105 -39 105 -101zM317 799c0 -23 14 -38 36 -38s37 15 37 38c0 24 -15 39 -37 39s-36 -15 -36 -39z" />
    <glyph glyph-name="Zacute" unicode="&#x179;" horiz-adv-x="553" 
d="M65 175l294 410v4h-254c-35 0 -55 20 -55 55v2c0 33 20 54 55 54h356c38 0 63 -21 63 -59v-13c0 -39 -6 -58 -35 -98l-300 -418v-4h280c35 0 55 -20 55 -52v-2c0 -33 -20 -54 -55 -54h-383c-32 0 -62 26 -62 61v9c0 37 8 59 41 105zM242 778l11 32c14 40 39 50 79 50h30
c51 0 64 -44 27 -75l-38 -33c-23 -20 -47 -31 -65 -31h-6c-29 0 -50 23 -38 57z" />
    <glyph glyph-name="Zdotaccent" unicode="&#x17b;" horiz-adv-x="553" 
d="M65 175l294 410v4h-254c-35 0 -55 20 -55 55v2c0 33 20 54 55 54h356c38 0 63 -21 63 -59v-13c0 -39 -6 -58 -35 -98l-300 -418v-4h280c35 0 55 -20 55 -52v-2c0 -33 -20 -54 -55 -54h-383c-32 0 -62 26 -62 61v9c0 37 8 59 41 105zM369 805c0 -43 -35 -77 -79 -77
s-79 34 -79 77s35 78 79 78s79 -35 79 -78z" />
    <glyph glyph-name="abreve" unicode="&#x103;" horiz-adv-x="538" 
d="M419 -5c-35 0 -59 19 -71 57c-38 -42 -88 -58 -152 -58c-98 0 -170 54 -170 158c0 110 88 164 209 164c43 0 73 -4 105 -12v50c0 48 -26 73 -96 73c-82 0 -97 -41 -136 -41c-27 0 -44 22 -44 50v3c0 32 13 53 51 68c39 15 89 26 152 26c145 0 219 -48 219 -169v-295
c0 -50 -17 -74 -64 -74h-3zM266 563c-59 0 -107 27 -134 73c-20 39 -10 77 26 77h4c40 0 57 -51 104 -51c46 0 64 51 103 51h4c37 0 47 -38 26 -77c-27 -46 -74 -73 -133 -73zM250 86c36 0 66 18 90 40v100c-23 4 -48 6 -75 6c-59 0 -97 -21 -97 -72s33 -74 82 -74z" />
    <glyph glyph-name="amacron" unicode="&#x101;" horiz-adv-x="538" 
d="M419 -5c-35 0 -59 19 -71 57c-38 -42 -88 -58 -152 -58c-98 0 -170 54 -170 158c0 110 88 164 209 164c43 0 73 -4 105 -12v50c0 48 -26 73 -96 73c-82 0 -97 -41 -136 -41c-27 0 -44 22 -44 50v3c0 32 13 53 51 68c39 15 89 26 152 26c145 0 219 -48 219 -169v-295
c0 -50 -17 -74 -64 -74h-3zM180 682h172c36 0 48 -22 48 -48v-2c0 -26 -12 -48 -48 -48h-172c-36 0 -48 22 -48 48v2c0 26 12 48 48 48zM250 86c36 0 66 18 90 40v100c-23 4 -48 6 -75 6c-59 0 -97 -21 -97 -72s33 -74 82 -74z" />
    <glyph glyph-name="aogonek" unicode="&#x105;" horiz-adv-x="538" 
d="M244 427c-82 0 -97 -41 -136 -41c-27 0 -44 22 -44 50v3c0 32 13 53 51 68c39 15 89 26 152 26c145 0 219 -48 219 -169v-295c0 -32 -7 -54 -25 -65c-29 -23 -35 -40 -35 -50c0 -7 2 -14 7 -20c5 -5 12 -9 24 -13c23 -7 34 -17 34 -37v-2c0 -30 -27 -47 -79 -47
c-30 0 -53 7 -70 21s-26 34 -26 59c0 35 20 68 62 92c-16 11 -25 27 -30 45c-38 -42 -88 -58 -152 -58c-98 0 -170 54 -170 158c0 110 88 164 209 164c43 0 73 -4 105 -12v50c0 48 -26 73 -96 73zM250 86c36 0 66 18 90 40v100c-23 4 -48 6 -75 6c-59 0 -97 -21 -97 -72
s33 -74 82 -74z" />
    <glyph glyph-name="cacute" unicode="&#x107;" horiz-adv-x="499" 
d="M416 11c-31 -12 -75 -18 -118 -18c-171 0 -272 100 -272 268c0 169 120 272 279 272c49 0 84 -5 115 -16c38 -13 53 -35 53 -69v-3c0 -37 -19 -55 -45 -55c-35 0 -53 36 -123 36c-76 0 -131 -56 -131 -166c0 -113 52 -161 127 -161c76 0 93 39 126 39c29 0 45 -18 45 -53
v-1c0 -33 -17 -58 -56 -73zM247 614l10 35c12 40 36 56 76 56h39c43 0 59 -45 27 -75l-46 -44c-21 -20 -40 -30 -63 -30h-4c-29 0 -49 23 -39 58z" />
    <glyph glyph-name="ccaron" unicode="&#x10d;" horiz-adv-x="499" 
d="M416 11c-31 -12 -75 -18 -118 -18c-171 0 -272 100 -272 268c0 169 120 272 279 272c49 0 84 -5 115 -16c38 -13 53 -35 53 -69v-3c0 -37 -19 -55 -45 -55c-35 0 -53 36 -123 36c-76 0 -131 -56 -131 -166c0 -113 52 -161 127 -161c76 0 93 39 126 39c29 0 45 -18 45 -53
v-1c0 -33 -17 -58 -56 -73zM200 595l-9 9c-54 54 -30 104 11 104h3c20 0 38 -9 62 -35l16 -18l16 18c24 26 42 35 62 35h3c41 0 65 -50 11 -104l-9 -9c-30 -30 -51 -38 -80 -38h-6c-29 0 -50 8 -80 38z" />
    <glyph glyph-name="ccircumflex" unicode="&#x109;" horiz-adv-x="499" 
d="M416 11c-31 -12 -75 -18 -118 -18c-171 0 -272 100 -272 268c0 169 120 272 279 272c49 0 84 -5 115 -16c38 -13 53 -35 53 -69v-3c0 -37 -19 -55 -45 -55c-35 0 -53 36 -123 36c-76 0 -131 -56 -131 -166c0 -113 52 -161 127 -161c76 0 93 39 126 39c29 0 45 -18 45 -53
v-1c0 -33 -17 -58 -56 -73zM187 661l9 9c30 30 51 38 80 38h6c29 0 50 -8 80 -38l9 -9c54 -54 30 -104 -11 -104h-3c-20 0 -38 9 -62 35l-16 18l-16 -18c-24 -26 -42 -35 -62 -35h-3c-41 0 -65 50 -11 104z" />
    <glyph glyph-name="cdotaccent" unicode="&#x10b;" horiz-adv-x="499" 
d="M416 11c-31 -12 -75 -18 -118 -18c-171 0 -272 100 -272 268c0 169 120 272 279 272c49 0 84 -5 115 -16c38 -13 53 -35 53 -69v-3c0 -37 -19 -55 -45 -55c-35 0 -53 36 -123 36c-76 0 -131 -56 -131 -166c0 -113 52 -161 127 -161c76 0 93 39 126 39c29 0 45 -18 45 -53
v-1c0 -33 -17 -58 -56 -73zM360 643c0 -43 -35 -77 -79 -77s-79 34 -79 77s35 78 79 78s79 -35 79 -78z" />
    <glyph glyph-name="dcaron" unicode="&#x10f;" horiz-adv-x="591" 
d="M536 601v-532c0 -50 -19 -74 -68 -74h-3c-37 0 -59 22 -69 64c-34 -38 -88 -67 -157 -67c-118 0 -210 87 -210 261c0 206 112 280 224 280c67 0 105 -17 137 -45v143c0 48 20 74 69 74h3c51 0 74 -31 74 -104zM298 421c-60 0 -121 -30 -121 -161c0 -120 34 -166 104 -166
c43 0 72 15 109 46v255c-23 17 -52 26 -92 26zM692 634l-26 -45c-17 -30 -35 -41 -56 -41h-3c-20 0 -37 14 -37 40v57c0 35 22 60 67 60h12c46 0 63 -36 43 -71z" />
    <glyph glyph-name="ebreve" unicode="&#x115;" horiz-adv-x="543" 
d="M447 230h-271c7 -105 57 -134 138 -134c88 0 109 43 143 43c27 0 44 -18 44 -50v-3c0 -28 -15 -48 -45 -63c-38 -19 -90 -30 -164 -30c-172 0 -266 102 -266 267c0 169 110 273 256 273c162 0 235 -100 235 -237c0 -42 -23 -66 -70 -66zM279 563c-59 0 -107 27 -134 73
c-20 39 -10 77 26 77h4c40 0 57 -51 104 -51c46 0 64 51 103 51h4c37 0 47 -38 26 -77c-27 -46 -74 -73 -133 -73zM282 441c-51 0 -93 -25 -104 -123h195c-3 93 -34 123 -91 123z" />
    <glyph glyph-name="ecaron" unicode="&#x11b;" horiz-adv-x="543" 
d="M447 230h-271c7 -105 57 -134 138 -134c88 0 109 43 143 43c27 0 44 -18 44 -50v-3c0 -28 -15 -48 -45 -63c-38 -19 -90 -30 -164 -30c-172 0 -266 102 -266 267c0 169 110 273 256 273c162 0 235 -100 235 -237c0 -42 -23 -66 -70 -66zM198 595l-9 9
c-54 54 -30 104 11 104h3c20 0 38 -9 62 -35l16 -18l16 18c24 26 42 35 62 35h3c41 0 65 -50 11 -104l-9 -9c-30 -30 -51 -38 -80 -38h-6c-29 0 -50 8 -80 38zM282 441c-51 0 -93 -25 -104 -123h195c-3 93 -34 123 -91 123z" />
    <glyph glyph-name="edotaccent" unicode="&#x117;" horiz-adv-x="543" 
d="M447 230h-271c7 -105 57 -134 138 -134c88 0 109 43 143 43c27 0 44 -18 44 -50v-3c0 -28 -15 -48 -45 -63c-38 -19 -90 -30 -164 -30c-172 0 -266 102 -266 267c0 169 110 273 256 273c162 0 235 -100 235 -237c0 -42 -23 -66 -70 -66zM282 441c-51 0 -93 -25 -104 -123
h195c-3 93 -34 123 -91 123zM358 643c0 -43 -35 -77 -79 -77s-79 34 -79 77s35 78 79 78s79 -35 79 -78z" />
    <glyph glyph-name="emacron" unicode="&#x113;" horiz-adv-x="543" 
d="M447 230h-271c7 -105 57 -134 138 -134c88 0 109 43 143 43c27 0 44 -18 44 -50v-3c0 -28 -15 -48 -45 -63c-38 -19 -90 -30 -164 -30c-172 0 -266 102 -266 267c0 169 110 273 256 273c162 0 235 -100 235 -237c0 -42 -23 -66 -70 -66zM193 682h172c36 0 48 -22 48 -48
v-2c0 -26 -12 -48 -48 -48h-172c-36 0 -48 22 -48 48v2c0 26 12 48 48 48zM282 441c-51 0 -93 -25 -104 -123h195c-3 93 -34 123 -91 123z" />
    <glyph glyph-name="eogonek" unicode="&#x119;" horiz-adv-x="543" 
d="M282 441c-51 0 -93 -25 -104 -123h195c-3 93 -34 123 -91 123zM501 89v-2c0 -39 -30 -60 -67 -86c-25 -18 -35 -33 -35 -49c0 -6 1 -11 5 -16c4 -6 13 -11 26 -15c23 -7 34 -17 34 -37v-2c0 -30 -27 -47 -79 -47c-34 0 -62 10 -78 27c-12 12 -18 29 -18 49
c0 37 22 64 51 84c-15 -1 -31 -2 -48 -2c-172 0 -266 102 -266 267c0 169 110 273 256 273c162 0 235 -100 235 -237c0 -42 -23 -66 -70 -66h-271c7 -105 57 -134 138 -134c88 0 109 43 143 43c27 0 44 -18 44 -50z" />
    <glyph glyph-name="gbreve" unicode="&#x11f;" horiz-adv-x="591" 
d="M536 28c0 -129 -98 -198 -270 -198c-66 0 -133 10 -171 29c-29 15 -43 33 -43 64v1c0 30 17 52 47 52c36 0 51 -42 149 -42c95 0 142 31 142 103v33c-35 -30 -86 -51 -145 -51c-116 0 -216 73 -216 243c0 195 112 271 230 271c65 0 109 -20 144 -51c14 30 36 48 65 48h3
c43 0 65 -24 65 -74v-428zM287 121c36 0 74 16 103 37v233c-26 20 -52 30 -94 30c-60 0 -119 -30 -119 -146c0 -117 35 -154 110 -154zM290 563c-59 0 -107 27 -134 73c-20 39 -10 77 26 77h4c40 0 57 -51 104 -51c46 0 64 51 103 51h4c37 0 47 -38 26 -77
c-27 -46 -74 -73 -133 -73z" />
    <glyph glyph-name="gcircumflex" unicode="&#x11d;" horiz-adv-x="591" 
d="M536 28c0 -129 -98 -198 -270 -198c-66 0 -133 10 -171 29c-29 15 -43 33 -43 64v1c0 30 17 52 47 52c36 0 51 -42 149 -42c95 0 142 31 142 103v33c-35 -30 -86 -51 -145 -51c-116 0 -216 73 -216 243c0 195 112 271 230 271c65 0 109 -20 144 -51c14 30 36 48 65 48h3
c43 0 65 -24 65 -74v-428zM287 121c36 0 74 16 103 37v233c-26 20 -52 30 -94 30c-60 0 -119 -30 -119 -146c0 -117 35 -154 110 -154zM196 661l9 9c30 30 51 38 80 38h6c29 0 50 -8 80 -38l9 -9c54 -54 30 -104 -11 -104h-3c-20 0 -38 9 -62 35l-16 18l-16 -18
c-24 -26 -42 -35 -62 -35h-3c-41 0 -65 50 -11 104z" />
    <glyph glyph-name="gcommaaccent" unicode="&#x123;" horiz-adv-x="591" 
d="M536 28c0 -129 -98 -198 -270 -198c-66 0 -133 10 -171 29c-29 15 -43 33 -43 64v1c0 30 17 52 47 52c36 0 51 -42 149 -42c95 0 142 31 142 103v33c-35 -30 -86 -51 -145 -51c-116 0 -216 73 -216 243c0 195 112 271 230 271c65 0 109 -20 144 -51c14 30 36 48 65 48h3
c43 0 65 -24 65 -74v-428zM287 121c36 0 74 16 103 37v233c-26 20 -52 30 -94 30c-60 0 -119 -30 -119 -146c0 -117 35 -154 110 -154zM356 743v-1c0 -11 -6 -20 -24 -27c-19 -7 -26 -13 -26 -21c0 -7 3 -12 20 -23s27 -23 27 -46c0 -30 -26 -53 -60 -53
c-39 0 -67 25 -67 75c0 69 36 109 92 120c24 5 38 -6 38 -24z" />
    <glyph glyph-name="gdotaccent" unicode="&#x121;" horiz-adv-x="591" 
d="M536 28c0 -129 -98 -198 -270 -198c-66 0 -133 10 -171 29c-29 15 -43 33 -43 64v1c0 30 17 52 47 52c36 0 51 -42 149 -42c95 0 142 31 142 103v33c-35 -30 -86 -51 -145 -51c-116 0 -216 73 -216 243c0 195 112 271 230 271c65 0 109 -20 144 -51c14 30 36 48 65 48h3
c43 0 65 -24 65 -74v-428zM287 121c36 0 74 16 103 37v233c-26 20 -52 30 -94 30c-60 0 -119 -30 -119 -146c0 -117 35 -154 110 -154zM369 643c0 -43 -35 -77 -79 -77s-79 34 -79 77s35 78 79 78s79 -35 79 -78z" />
    <glyph glyph-name="hbar" unicode="&#x127;" horiz-adv-x="583" 
d="M127 705c39 0 61 -18 70 -59h97c28 0 41 -19 41 -41v-2c0 -23 -13 -42 -41 -42h-93v-91c49 36 120 63 189 63c76 0 141 -29 141 -147v-319c0 -47 -29 -72 -72 -72h-2c-43 0 -72 25 -72 72v282c0 52 -20 67 -65 67s-86 -12 -119 -24v-325c0 -47 -29 -72 -72 -72h-2
c-43 0 -72 25 -72 72v494h-15c-29 0 -42 19 -42 42v2c0 22 13 41 42 41h15c4 38 25 59 69 59h3z" />
    <glyph glyph-name="hcircumflex" unicode="&#x125;" horiz-adv-x="583" 
d="M320 416c-45 0 -86 -12 -119 -24v-325c0 -47 -29 -72 -72 -72h-2c-43 0 -72 25 -72 72v564c0 48 20 74 69 74h3c51 0 74 -31 74 -104v-131c49 36 120 63 189 63c76 0 141 -29 141 -147v-319c0 -47 -29 -72 -72 -72h-2c-43 0 -72 25 -72 72v282c0 52 -20 67 -65 67z
M294 772l-16 -15c-27 -26 -47 -35 -63 -35h-2c-44 0 -61 46 -20 87l12 12c34 34 59 43 85 43h9c26 0 51 -9 85 -43l12 -12c41 -41 24 -87 -20 -87h-2c-16 0 -35 10 -63 35z" />
    <glyph glyph-name="idotaccent" horiz-adv-x="259" 
d="M209 643c0 -43 -35 -77 -79 -77s-80 34 -80 77s36 78 80 78s79 -35 79 -78zM202 426v-359c0 -47 -29 -72 -72 -72h-2c-43 0 -72 25 -72 72v389c0 50 20 74 69 74h3c49 0 74 -31 74 -104z" />
    <glyph glyph-name="imacron" unicode="&#x12b;" horiz-adv-x="259" 
d="M58 682h142c36 0 48 -22 48 -48v-2c0 -26 -12 -48 -48 -48h-142c-36 0 -48 22 -48 48v2c0 26 12 48 48 48zM202 426v-359c0 -47 -29 -72 -72 -72h-2c-43 0 -72 25 -72 72v389c0 50 20 74 69 74h3c49 0 74 -31 74 -104z" />
    <glyph glyph-name="iogonek" unicode="&#x12f;" horiz-adv-x="259" 
d="M209 643c0 -43 -35 -77 -79 -77s-80 34 -80 77s36 78 80 78s79 -35 79 -78zM56 67v389c0 50 20 74 69 74h3c49 0 74 -31 74 -104v-359c0 -19 -7 -36 -19 -49c-16 -19 -33 -35 -33 -64c0 -6 2 -11 6 -17c5 -6 13 -12 26 -16c23 -7 34 -17 34 -37v-2c0 -30 -27 -47 -79 -47
c-31 0 -55 8 -72 24c-15 14 -24 35 -24 62c0 35 17 65 42 90c-21 13 -27 36 -27 56z" />
    <glyph glyph-name="jcircumflex" unicode="&#x135;" horiz-adv-x="259" 
d="M202 426v-437c0 -110 -56 -157 -160 -157c-21 0 -38 1 -55 5c-20 5 -31 18 -31 45v6c0 22 11 37 34 39c52 5 66 21 66 71v458c0 50 20 74 69 74h3c51 0 74 -31 74 -104zM34 661l9 9c30 30 51 38 80 38h6c29 0 50 -8 80 -38l9 -9c54 -54 30 -104 -11 -104h-3
c-20 0 -38 9 -62 35l-16 18l-16 -18c-24 -26 -42 -35 -62 -35h-3c-41 0 -65 50 -11 104z" />
    <glyph glyph-name="kcommaaccent" unicode="&#x137;" horiz-adv-x="551" 
d="M365 52l-108 169l-56 -58v-96c0 -47 -29 -72 -72 -72h-2c-43 0 -72 25 -72 72v564c0 48 20 74 69 74h3c51 0 74 -31 74 -104v-290l163 182c25 28 42 37 62 37h1c44 0 78 -53 32 -101l-104 -110l140 -218c31 -48 3 -106 -53 -106h-1c-26 0 -47 11 -76 57zM226 -189v1
c0 11 6 20 24 27c19 7 26 13 26 21c0 7 -3 12 -20 23s-27 23 -27 46c0 30 26 53 60 53c39 0 67 -25 67 -75c0 -69 -36 -109 -92 -120c-24 -5 -38 6 -38 24z" />
    <glyph glyph-name="lacute" unicode="&#x13a;" horiz-adv-x="260" 
d="M129 705c50 0 74 -31 74 -104v-534c0 -47 -29 -72 -72 -72h-2c-43 0 -72 25 -72 72v564c0 48 20 74 69 74h3zM85 777l11 32c14 40 39 50 79 50h30c51 0 64 -44 27 -75l-38 -33c-23 -20 -47 -31 -65 -31h-6c-29 0 -50 23 -38 57z" />
    <glyph glyph-name="lcaron" unicode="&#x13e;" horiz-adv-x="260" 
d="M57 67v564c0 48 20 74 69 74h3c50 0 74 -31 74 -104v-534c0 -47 -29 -72 -72 -72h-2c-43 0 -72 25 -72 72zM359 634l-26 -45c-17 -30 -35 -41 -56 -41h-3c-20 0 -37 14 -37 40v57c0 35 22 60 67 60h12c46 0 63 -36 43 -71z" />
    <glyph glyph-name="lcommaaccent" unicode="&#x13c;" horiz-adv-x="260" 
d="M129 705c50 0 74 -31 74 -104v-534c0 -47 -29 -72 -72 -72h-2c-43 0 -72 25 -72 72v564c0 48 20 74 69 74h3zM64 -189v1c0 11 6 20 24 27c19 7 26 13 26 21c0 7 -3 12 -20 23s-27 23 -27 46c0 30 26 53 60 53c39 0 67 -25 67 -75c0 -69 -36 -109 -92 -120
c-24 -5 -38 6 -38 24z" />
    <glyph glyph-name="nacute" unicode="&#x144;" horiz-adv-x="583" 
d="M320 416c-45 0 -86 -12 -119 -24v-325c0 -47 -29 -72 -72 -72h-2c-43 0 -72 25 -72 72v389c0 50 21 74 69 74h3c36 0 60 -17 69 -63c49 37 123 66 194 66c76 0 141 -29 141 -147v-319c0 -47 -29 -72 -72 -72h-2c-43 0 -72 25 -72 72v282c0 52 -20 67 -65 67zM262 614
l10 35c12 40 36 56 76 56h39c43 0 59 -45 27 -75l-46 -44c-21 -20 -40 -30 -63 -30h-4c-29 0 -49 23 -39 58z" />
    <glyph glyph-name="ncaron" unicode="&#x148;" horiz-adv-x="583" 
d="M320 416c-45 0 -86 -12 -119 -24v-325c0 -47 -29 -72 -72 -72h-2c-43 0 -72 25 -72 72v389c0 50 21 74 69 74h3c36 0 60 -17 69 -63c49 37 123 66 194 66c76 0 141 -29 141 -147v-319c0 -47 -29 -72 -72 -72h-2c-43 0 -72 25 -72 72v282c0 52 -20 67 -65 67zM215 595
l-9 9c-54 54 -30 104 11 104h3c20 0 38 -9 62 -35l16 -18l16 18c24 26 42 35 62 35h3c41 0 65 -50 11 -104l-9 -9c-30 -30 -51 -38 -80 -38h-6c-29 0 -50 8 -80 38z" />
    <glyph glyph-name="ncommaaccent" unicode="&#x146;" horiz-adv-x="583" 
d="M320 416c-45 0 -86 -12 -119 -24v-325c0 -47 -29 -72 -72 -72h-2c-43 0 -72 25 -72 72v389c0 50 21 74 69 74h3c36 0 60 -17 69 -63c49 37 123 66 194 66c76 0 141 -29 141 -147v-319c0 -47 -29 -72 -72 -72h-2c-43 0 -72 25 -72 72v282c0 52 -20 67 -65 67zM230 -189v1
c0 11 6 20 24 27c19 7 26 13 26 21c0 7 -3 12 -20 23s-27 23 -27 46c0 30 26 53 60 53c39 0 67 -25 67 -75c0 -69 -36 -109 -92 -120c-24 -5 -38 6 -38 24z" />
    <glyph glyph-name="ohungarumlaut" unicode="&#x151;" horiz-adv-x="588" 
d="M562 260c0 -168 -120 -267 -268 -267s-268 99 -268 267c0 169 120 273 268 273s268 -104 268 -273zM174 259c0 -113 49 -162 120 -162s120 49 120 162c0 114 -49 170 -120 170s-120 -56 -120 -170zM178 612l10 37c12 40 34 56 75 56h15c42 0 57 -35 26 -74l-31 -40
c-22 -28 -41 -34 -58 -34h-3c-26 0 -44 20 -34 55zM342 612l10 37c12 40 34 56 75 56h15c42 0 57 -35 26 -74l-31 -40c-22 -28 -41 -34 -58 -34h-3c-26 0 -44 20 -34 55z" />
    <glyph glyph-name="omacron" unicode="&#x14d;" horiz-adv-x="588" 
d="M562 260c0 -168 -120 -267 -268 -267s-268 99 -268 267c0 169 120 273 268 273s268 -104 268 -273zM174 259c0 -113 49 -162 120 -162s120 49 120 162c0 114 -49 170 -120 170s-120 -56 -120 -170zM208 682h172c36 0 48 -22 48 -48v-2c0 -26 -12 -48 -48 -48h-172
c-36 0 -48 22 -48 48v2c0 26 12 48 48 48z" />
    <glyph glyph-name="racute" unicode="&#x155;" horiz-adv-x="395" 
d="M127 530c35 0 60 -23 70 -69c34 38 91 70 132 70c32 0 52 -16 52 -59v-3c0 -43 -19 -62 -62 -66c-53 -4 -90 -13 -118 -24v-312c0 -47 -29 -72 -72 -72h-2c-43 0 -72 25 -72 72v389c0 50 21 74 69 74h3zM192 614l10 35c12 40 36 56 76 56h39c43 0 59 -45 27 -75l-46 -44
c-21 -20 -40 -30 -63 -30h-4c-29 0 -49 23 -39 58z" />
    <glyph glyph-name="rcaron" unicode="&#x159;" horiz-adv-x="395" 
d="M127 530c35 0 60 -23 70 -69c34 38 91 70 132 70c32 0 52 -16 52 -59v-3c0 -43 -19 -62 -62 -66c-53 -4 -90 -13 -118 -24v-312c0 -47 -29 -72 -72 -72h-2c-43 0 -72 25 -72 72v389c0 50 21 74 69 74h3zM144 595l-9 9c-54 54 -30 104 11 104h3c20 0 38 -9 62 -35l16 -18
l16 18c24 26 42 35 62 35h3c41 0 65 -50 11 -104l-9 -9c-30 -30 -51 -38 -80 -38h-6c-29 0 -50 8 -80 38z" />
    <glyph glyph-name="rcommaaccent" unicode="&#x157;" horiz-adv-x="395" 
d="M127 530c35 0 60 -23 70 -69c34 38 91 70 132 70c32 0 52 -16 52 -59v-3c0 -43 -19 -62 -62 -66c-53 -4 -90 -13 -118 -24v-312c0 -47 -29 -72 -72 -72h-2c-43 0 -72 25 -72 72v389c0 50 21 74 69 74h3zM59 -189v1c0 11 6 20 24 27c19 7 26 13 26 21c0 7 -3 12 -20 23
s-27 23 -27 46c0 30 26 53 60 53c39 0 67 -25 67 -75c0 -69 -36 -109 -92 -120c-24 -5 -38 6 -38 24z" />
    <glyph glyph-name="sacute" unicode="&#x15b;" horiz-adv-x="455" 
d="M431 164c0 -103 -67 -170 -219 -170c-55 0 -97 6 -130 19c-40 16 -56 38 -56 74v2c0 33 17 54 47 54c35 0 51 -42 132 -42c59 0 90 16 90 49c0 32 -19 47 -93 56c-115 14 -174 57 -174 160c0 106 79 165 208 165c49 0 86 -5 116 -16c41 -15 53 -37 53 -67v-4
c0 -35 -18 -53 -45 -53c-34 0 -58 33 -123 33c-58 0 -79 -17 -79 -47c0 -27 24 -41 96 -50c125 -16 177 -57 177 -163zM196 614l10 35c12 40 36 56 76 56h39c43 0 59 -45 27 -75l-46 -44c-21 -20 -40 -30 -63 -30h-4c-29 0 -49 23 -39 58z" />
    <glyph glyph-name="scedilla" unicode="&#x15f;" horiz-adv-x="455" 
d="M431 164c0 -94 -56 -158 -181 -168v-20c57 -2 81 -30 81 -74c0 -48 -41 -77 -105 -77c-16 0 -36 3 -49 8c-19 7 -28 17 -28 36v3c0 16 7 29 23 29c17 0 26 -14 46 -14c16 0 24 7 24 19c0 11 -9 18 -33 18h-2c-17 0 -26 7 -26 25v46c-40 2 -73 7 -99 18
c-40 16 -56 38 -56 74v2c0 33 17 54 47 54c35 0 51 -42 132 -42c59 0 90 16 90 49c0 32 -19 47 -93 56c-115 14 -174 57 -174 160c0 106 79 165 208 165c49 0 86 -5 116 -16c41 -15 53 -37 53 -67v-4c0 -35 -18 -53 -45 -53c-34 0 -58 33 -123 33c-58 0 -79 -17 -79 -47
c0 -27 24 -41 96 -50c125 -16 177 -57 177 -163z" />
    <glyph glyph-name="scircumflex" unicode="&#x15d;" horiz-adv-x="455" 
d="M431 164c0 -103 -67 -170 -219 -170c-55 0 -97 6 -130 19c-40 16 -56 38 -56 74v2c0 33 17 54 47 54c35 0 51 -42 132 -42c59 0 90 16 90 49c0 32 -19 47 -93 56c-115 14 -174 57 -174 160c0 106 79 165 208 165c49 0 86 -5 116 -16c41 -15 53 -37 53 -67v-4
c0 -35 -18 -53 -45 -53c-34 0 -58 33 -123 33c-58 0 -79 -17 -79 -47c0 -27 24 -41 96 -50c125 -16 177 -57 177 -163zM136 661l9 9c30 30 51 38 80 38h6c29 0 50 -8 80 -38l9 -9c54 -54 30 -104 -11 -104h-3c-20 0 -38 9 -62 35l-16 18l-16 -18c-24 -26 -42 -35 -62 -35h-3
c-41 0 -65 50 -11 104z" />
    <glyph glyph-name="scommaaccent" unicode="&#x219;" horiz-adv-x="455" 
d="M431 164c0 -103 -67 -170 -219 -170c-55 0 -97 6 -130 19c-40 16 -56 38 -56 74v2c0 33 17 54 47 54c35 0 51 -42 132 -42c59 0 90 16 90 49c0 32 -19 47 -93 56c-115 14 -174 57 -174 160c0 106 79 165 208 165c49 0 86 -5 116 -16c41 -15 53 -37 53 -67v-4
c0 -35 -18 -53 -45 -53c-34 0 -58 33 -123 33c-58 0 -79 -17 -79 -47c0 -27 24 -41 96 -50c125 -16 177 -57 177 -163zM164 -189v1c0 11 6 20 24 27c19 7 26 13 26 21c0 7 -3 12 -20 23s-27 23 -27 46c0 30 26 53 60 53c39 0 67 -25 67 -75c0 -69 -36 -109 -92 -120
c-24 -5 -38 6 -38 24z" />
    <glyph glyph-name="tcaron" unicode="&#x165;" horiz-adv-x="352" 
d="M77 427h-18c-32 0 -48 18 -48 48v2c0 30 16 48 48 48h18v73c0 44 27 72 73 72h2c46 0 71 -28 71 -72v-73h63c32 0 48 -18 48 -48v-2c0 -30 -16 -48 -48 -48h-63v-269c0 -48 14 -62 58 -64c39 -2 53 -15 53 -42v-4c0 -29 -12 -46 -45 -52c-16 -3 -31 -4 -53 -4
c-98 0 -159 40 -159 149v286zM385 634l-26 -45c-17 -30 -35 -41 -56 -41h-3c-20 0 -37 14 -37 40v57c0 35 22 60 67 60h12c46 0 63 -36 43 -71z" />
    <glyph glyph-name="tcommaaccent" unicode="&#x163;" horiz-adv-x="352" 
d="M77 427h-18c-32 0 -48 18 -48 48v2c0 30 16 48 48 48h18v73c0 44 27 72 73 72h2c46 0 71 -28 71 -72v-73h63c32 0 48 -18 48 -48v-2c0 -30 -16 -48 -48 -48h-63v-269c0 -48 14 -62 58 -64c39 -2 53 -15 53 -42v-4c0 -29 -12 -46 -45 -52c-16 -3 -31 -4 -53 -4
c-98 0 -159 40 -159 149v286zM133 -189v1c0 11 6 20 24 27c19 7 26 13 26 21c0 7 -3 12 -20 23s-27 23 -27 46c0 30 26 53 60 53c39 0 67 -25 67 -75c0 -69 -36 -109 -92 -120c-24 -5 -38 6 -38 24z" />
    <glyph glyph-name="ubreve" unicode="&#x16d;" horiz-adv-x="595" 
d="M463 -5c-35 0 -57 19 -68 57c-49 -35 -118 -59 -184 -59c-88 0 -153 34 -153 142v323c0 44 26 72 72 72h2c46 0 72 -28 72 -72v-286c0 -52 22 -70 74 -70c37 0 78 13 110 26v330c0 44 26 72 72 72h2c46 0 72 -28 72 -72v-389c0 -50 -19 -74 -68 -74h-3zM297 563
c-59 0 -107 27 -134 73c-20 39 -10 77 26 77h4c40 0 57 -51 104 -51c46 0 64 51 103 51h4c37 0 47 -38 26 -77c-27 -46 -74 -73 -133 -73z" />
    <glyph glyph-name="uhungarumlaut" unicode="&#x171;" horiz-adv-x="595" 
d="M463 -5c-35 0 -57 19 -68 57c-49 -35 -118 -59 -184 -59c-88 0 -153 34 -153 142v323c0 44 26 72 72 72h2c46 0 72 -28 72 -72v-286c0 -52 22 -70 74 -70c37 0 78 13 110 26v330c0 44 26 72 72 72h2c46 0 72 -28 72 -72v-389c0 -50 -19 -74 -68 -74h-3zM345 612l10 37
c12 40 34 56 75 56h15c42 0 57 -35 26 -74l-31 -40c-22 -28 -41 -34 -58 -34h-3c-26 0 -44 20 -34 55zM181 612l10 37c12 40 34 56 75 56h15c42 0 57 -35 26 -74l-31 -40c-22 -28 -41 -34 -58 -34h-3c-26 0 -44 20 -34 55z" />
    <glyph glyph-name="umacron" unicode="&#x16b;" horiz-adv-x="595" 
d="M463 -5c-35 0 -57 19 -68 57c-49 -35 -118 -59 -184 -59c-88 0 -153 34 -153 142v323c0 44 26 72 72 72h2c46 0 72 -28 72 -72v-286c0 -52 22 -70 74 -70c37 0 78 13 110 26v330c0 44 26 72 72 72h2c46 0 72 -28 72 -72v-389c0 -50 -19 -74 -68 -74h-3zM211 682h172
c36 0 48 -22 48 -48v-2c0 -26 -12 -48 -48 -48h-172c-36 0 -48 22 -48 48v2c0 26 12 48 48 48z" />
    <glyph glyph-name="uogonek" unicode="&#x173;" horiz-adv-x="595" 
d="M534 69c0 -33 -8 -54 -28 -66c-15 -9 -37 -28 -37 -49c0 -7 1 -13 5 -18c4 -6 13 -11 26 -15c23 -7 34 -17 34 -37v-2c0 -30 -27 -47 -79 -47c-30 0 -54 8 -71 22c-16 14 -25 33 -25 58c0 42 28 71 63 93c-12 9 -21 24 -27 44c-49 -35 -118 -59 -184 -59
c-88 0 -153 34 -153 142v323c0 44 26 72 72 72h2c46 0 72 -28 72 -72v-286c0 -52 22 -70 74 -70c37 0 78 13 110 26v330c0 44 26 72 72 72h2c46 0 72 -28 72 -72v-389z" />
    <glyph glyph-name="uring" unicode="&#x16f;" horiz-adv-x="595" 
d="M463 -5c-35 0 -57 19 -68 57c-49 -35 -118 -59 -184 -59c-88 0 -153 34 -153 142v323c0 44 26 72 72 72h2c46 0 72 -28 72 -72v-286c0 -52 22 -70 74 -70c37 0 78 13 110 26v330c0 44 26 72 72 72h2c46 0 72 -28 72 -72v-389c0 -50 -19 -74 -68 -74h-3zM402 666
c0 -62 -48 -100 -105 -100s-105 38 -105 100s48 101 105 101s105 -39 105 -101zM261 666c0 -23 14 -38 36 -38s37 15 37 38c0 24 -15 39 -37 39s-36 -15 -36 -39z" />
    <glyph glyph-name="zacute" unicode="&#x17a;" horiz-adv-x="483" 
d="M58 142l234 280h-203c-31 0 -51 20 -51 50v2c0 31 20 51 51 51h307c41 0 63 -21 63 -56v-2c0 -28 -10 -49 -37 -82l-237 -282h213c31 0 51 -20 51 -50v-2c0 -31 -20 -51 -51 -51h-315c-41 0 -63 23 -63 59v2c0 23 8 45 38 81zM213 614l10 35c12 40 36 56 76 56h39
c43 0 59 -45 27 -75l-46 -44c-21 -20 -40 -30 -63 -30h-4c-29 0 -49 23 -39 58z" />
    <glyph glyph-name="zdotaccent" unicode="&#x17c;" horiz-adv-x="483" 
d="M58 142l234 280h-203c-31 0 -51 20 -51 50v2c0 31 20 51 51 51h307c41 0 63 -21 63 -56v-2c0 -28 -10 -49 -37 -82l-237 -282h213c31 0 51 -20 51 -50v-2c0 -31 -20 -51 -51 -51h-315c-41 0 -63 23 -63 59v2c0 23 8 45 38 81zM326 643c0 -43 -35 -77 -79 -77
s-79 34 -79 77s35 78 79 78s79 -35 79 -78z" />
    <glyph glyph-name="oneeighth" unicode="&#x215b;" horiz-adv-x="783" 
d="M597 -8c-105 0 -163 45 -163 116c0 50 25 80 74 96v2c-40 13 -59 40 -59 81c0 65 61 104 148 104c85 0 147 -39 147 -104c0 -41 -18 -68 -58 -81v-2c49 -16 73 -46 73 -96c0 -71 -58 -116 -162 -116zM597 64c37 0 53 22 53 53c0 30 -16 54 -53 54c-38 0 -55 -24 -55 -54
c0 -31 17 -53 55 -53zM597 234c27 0 44 15 44 42s-17 43 -44 43c-29 0 -45 -16 -45 -43s16 -42 45 -42zM602 659l-422 -655c-20 -31 -34 -43 -53 -43h-1c-34 0 -57 34 -30 75l422 655c20 31 34 43 53 43h1c34 0 57 -34 30 -75zM214 652v-285c0 -42 -25 -57 -55 -57h-6
c-31 0 -56 15 -56 57v222l-11 -9c-16 -13 -27 -19 -38 -19c-14 0 -25 9 -25 34v7c0 30 10 48 46 67l23 12c19 10 46 19 67 19h3c34 0 52 -15 52 -48z" />
    <glyph glyph-name="onethird" unicode="&#x2153;" horiz-adv-x="765" 
d="M598 659l-422 -655c-20 -31 -34 -43 -53 -43h-1c-34 0 -57 34 -30 75l422 655c20 31 34 43 53 43h1c34 0 57 -34 30 -75zM214 652v-285c0 -42 -25 -57 -55 -57h-6c-31 0 -56 15 -56 57v222l-11 -9c-16 -13 -27 -19 -38 -19c-14 0 -25 9 -25 34v7c0 30 10 48 46 67l23 12
c19 10 46 19 67 19h3c34 0 52 -15 52 -48zM627 114c0 24 -17 36 -49 39l-10 1c-29 3 -41 14 -41 36v6c0 23 12 33 41 36l10 1c30 3 47 14 47 38c0 25 -17 38 -50 38c-37 0 -50 -24 -75 -24c-19 0 -32 13 -32 36v4c0 22 8 35 31 47c21 11 55 19 92 19c81 0 141 -33 141 -107
c0 -47 -32 -73 -78 -86v-2c53 -9 84 -37 84 -88c0 -74 -63 -114 -163 -114c-29 0 -60 4 -83 14c-25 11 -36 27 -36 51v3c0 21 12 35 32 35c27 0 34 -26 76 -26c39 0 63 13 63 43z" />
    <glyph glyph-name="threeeighths" unicode="&#x215c;" horiz-adv-x="811" 
d="M625 -8c-105 0 -163 45 -163 116c0 50 25 80 74 96v2c-40 13 -59 40 -59 81c0 65 61 104 148 104c85 0 147 -39 147 -104c0 -41 -18 -68 -58 -81v-2c49 -16 73 -46 73 -96c0 -71 -58 -116 -162 -116zM625 64c37 0 53 22 53 53c0 30 -16 54 -53 54c-38 0 -55 -24 -55 -54
c0 -31 17 -53 55 -53zM625 234c27 0 44 15 44 42s-17 43 -44 43c-29 0 -45 -16 -45 -43s16 -42 45 -42zM648 659l-422 -655c-20 -31 -34 -43 -53 -43h-1c-34 0 -57 34 -30 75l422 655c20 31 34 43 53 43h1c34 0 57 -34 30 -75zM199 429c0 24 -17 36 -49 39l-10 1
c-29 3 -41 14 -41 36v6c0 23 12 33 41 36l10 1c30 3 47 14 47 38c0 25 -17 38 -50 38c-37 0 -50 -24 -75 -24c-19 0 -32 13 -32 36v4c0 22 8 35 31 47c21 11 55 19 92 19c81 0 141 -33 141 -107c0 -47 -32 -73 -78 -86v-2c53 -9 84 -37 84 -88c0 -74 -63 -114 -163 -114
c-29 0 -60 4 -83 14c-25 11 -36 27 -36 51v3c0 21 12 35 32 35c27 0 34 -26 76 -26c39 0 63 13 63 43z" />
    <glyph glyph-name="fiveeighths" unicode="&#x215d;" horiz-adv-x="819" 
d="M633 -8c-105 0 -163 45 -163 116c0 50 25 80 74 96v2c-40 13 -59 40 -59 81c0 65 61 104 148 104c85 0 147 -39 147 -104c0 -41 -18 -68 -58 -81v-2c49 -16 73 -46 73 -96c0 -71 -58 -116 -162 -116zM633 64c37 0 53 22 53 53c0 30 -16 54 -53 54c-38 0 -55 -24 -55 -54
c0 -31 17 -53 55 -53zM633 234c27 0 44 15 44 42s-17 43 -44 43c-29 0 -45 -16 -45 -43s16 -42 45 -42zM650 659l-422 -655c-20 -31 -34 -43 -53 -43h-1c-34 0 -57 34 -30 75l422 655c20 31 34 43 53 43h1c34 0 57 -34 30 -75zM195 559c69 0 121 -39 121 -120
s-65 -130 -170 -130c-29 0 -59 4 -82 14c-25 11 -34 28 -34 48v6c0 19 11 35 33 35c24 0 36 -24 76 -24c41 0 64 18 64 51s-22 48 -48 48c-37 0 -51 -20 -79 -20c-22 0 -35 12 -35 33v147c0 29 14 53 53 53h166c32 0 41 -19 41 -41v-2c0 -22 -9 -41 -41 -41h-139v-75h2
c13 9 36 18 72 18z" />
    <glyph glyph-name="twothirds" unicode="&#x2154;" horiz-adv-x="838" 
d="M684 659l-422 -655c-20 -31 -34 -43 -53 -43h-1c-34 0 -57 34 -30 75l422 655c20 31 34 43 53 43h1c34 0 57 -34 30 -75zM152 399h117c32 0 42 -19 42 -41v-2c0 -22 -10 -41 -42 -41h-203c-22 0 -41 14 -41 46v2c0 25 5 39 38 71l69 64c40 37 60 61 60 86
c0 22 -17 37 -47 37c-39 0 -48 -27 -78 -27c-20 0 -33 14 -33 36v3c0 28 11 43 38 56c26 12 60 17 90 17c92 0 145 -36 145 -113c0 -56 -34 -90 -92 -140zM700 114c0 24 -17 36 -49 39l-10 1c-29 3 -41 14 -41 36v6c0 23 12 33 41 36l10 1c30 3 47 14 47 38
c0 25 -17 38 -50 38c-37 0 -50 -24 -75 -24c-19 0 -32 13 -32 36v4c0 22 8 35 31 47c21 11 55 19 92 19c81 0 141 -33 141 -107c0 -47 -32 -73 -78 -86v-2c53 -9 84 -37 84 -88c0 -74 -63 -114 -163 -114c-29 0 -60 4 -83 14c-25 11 -36 27 -36 51v3c0 21 12 35 32 35
c27 0 34 -26 76 -26c39 0 63 13 63 43z" />
    <glyph glyph-name="seveneighths" unicode="&#x215e;" horiz-adv-x="790" 
d="M604 -8c-105 0 -163 45 -163 116c0 50 25 80 74 96v2c-40 13 -59 40 -59 81c0 65 61 104 148 104c85 0 147 -39 147 -104c0 -41 -18 -68 -58 -81v-2c49 -16 73 -46 73 -96c0 -71 -58 -116 -162 -116zM604 64c37 0 53 22 53 53c0 30 -16 54 -53 54c-38 0 -55 -24 -55 -54
c0 -31 17 -53 55 -53zM604 234c27 0 44 15 44 42s-17 43 -44 43c-29 0 -45 -16 -45 -43s16 -42 45 -42zM130 311h-3c-41 0 -65 33 -42 75l122 224v2h-143c-34 0 -43 19 -43 43v2c0 24 9 43 43 43h190c24 0 48 -13 48 -48v-2c0 -37 -9 -57 -22 -88l-83 -199
c-15 -36 -37 -52 -67 -52zM603 659l-422 -655c-20 -31 -34 -43 -53 -43h-1c-34 0 -57 34 -30 75l422 655c20 31 34 43 53 43h1c34 0 57 -34 30 -75z" />
    <glyph glyph-name="space_uni0326" 
d="M134 -189v1c0 11 6 20 24 27c19 7 26 13 26 21c0 7 -3 12 -20 23s-27 23 -27 46c0 30 26 53 60 53c39 0 67 -25 67 -75c0 -69 -36 -109 -92 -120c-24 -5 -38 6 -38 24z" />
    <glyph glyph-name="zero.numerator" horiz-adv-x="411" 
d="M385 507c0 -136 -81 -198 -179 -198c-99 0 -180 62 -180 198s84 199 180 199s179 -63 179 -199zM143 505c0 -90 23 -118 63 -118c39 0 62 28 62 118s-23 118 -62 118c-40 0 -63 -28 -63 -118z" />
    <glyph glyph-name="one.numerator" horiz-adv-x="263" 
d="M214 652v-285c0 -42 -25 -57 -55 -57h-6c-31 0 -56 15 -56 57v222l-11 -9c-16 -13 -27 -19 -38 -19c-14 0 -25 9 -25 34v7c0 30 10 48 46 67l23 12c19 10 46 19 67 19h3c34 0 52 -15 52 -48z" />
    <glyph glyph-name="two.numerator" horiz-adv-x="336" 
d="M152 399h117c32 0 42 -19 42 -41v-2c0 -22 -10 -41 -42 -41h-203c-22 0 -41 14 -41 46v2c0 25 5 39 38 71l69 64c40 37 60 61 60 86c0 22 -17 37 -47 37c-39 0 -48 -27 -78 -27c-20 0 -33 14 -33 36v3c0 28 11 43 38 56c26 12 60 17 90 17c92 0 145 -36 145 -113
c0 -56 -34 -90 -92 -140z" />
    <glyph glyph-name="three.numerator" horiz-adv-x="331" 
d="M193 429c0 24 -17 36 -49 39l-10 1c-29 3 -41 14 -41 36v6c0 23 12 33 41 36l10 1c30 3 47 14 47 38c0 25 -17 38 -50 38c-37 0 -50 -24 -75 -24c-19 0 -32 13 -32 36v4c0 22 8 35 31 47c21 11 55 19 92 19c81 0 141 -33 141 -107c0 -47 -32 -73 -78 -86v-2
c53 -9 84 -37 84 -88c0 -74 -63 -114 -163 -114c-29 0 -60 4 -83 14c-25 11 -36 27 -36 51v3c0 21 12 35 32 35c27 0 34 -26 76 -26c39 0 63 13 63 43z" />
    <glyph glyph-name="four.numerator" horiz-adv-x="362" 
d="M302 394v-31c0 -39 -24 -53 -53 -53h-2c-29 0 -53 14 -53 53v31h-132c-25 0 -43 17 -43 48v2c0 26 8 43 36 77l108 136c28 35 48 48 83 48h2c32 0 54 -14 54 -56v-182h13c27 0 35 -16 35 -35v-2c0 -20 -8 -36 -35 -36h-13zM192 583l-91 -114v-2h94v116h-3z" />
    <glyph glyph-name="five.numerator" horiz-adv-x="332" 
d="M186 559c69 0 121 -39 121 -120s-65 -130 -170 -130c-29 0 -59 4 -82 14c-25 11 -34 28 -34 48v6c0 19 11 35 33 35c24 0 36 -24 76 -24c41 0 64 18 64 51s-22 48 -48 48c-37 0 -51 -20 -79 -20c-22 0 -35 12 -35 33v147c0 29 14 53 53 53h166c32 0 41 -19 41 -41v-2
c0 -22 -9 -41 -41 -41h-139v-75h2c13 9 36 18 72 18z" />
    <glyph glyph-name="six.numerator" horiz-adv-x="377" 
d="M231 558c71 0 121 -39 121 -116c0 -82 -60 -133 -156 -133c-100 0 -170 56 -170 189c0 132 75 208 204 208c22 0 42 -2 62 -8c26 -8 39 -24 39 -49v-6c0 -23 -13 -37 -34 -37s-35 16 -67 16c-57 0 -81 -28 -88 -87c23 16 57 23 89 23zM191 488c-20 0 -39 -7 -51 -14
c2 -73 22 -92 53 -92c33 0 48 18 48 55c0 36 -18 51 -50 51z" />
    <glyph glyph-name="seven.numerator" horiz-adv-x="326" 
d="M130 311h-3c-41 0 -65 33 -42 75l122 224v2h-143c-34 0 -43 19 -43 43v2c0 24 9 43 43 43h190c24 0 48 -13 48 -48v-2c0 -37 -9 -57 -22 -88l-83 -199c-15 -36 -37 -52 -67 -52z" />
    <glyph glyph-name="eight.numerator" horiz-adv-x="373" 
d="M187 307c-105 0 -163 45 -163 116c0 50 25 80 74 96v2c-40 13 -59 40 -59 81c0 65 61 104 148 104c85 0 147 -39 147 -104c0 -41 -18 -68 -58 -81v-2c49 -16 73 -46 73 -96c0 -71 -58 -116 -162 -116zM187 379c37 0 53 22 53 53c0 30 -16 54 -53 54
c-38 0 -55 -24 -55 -54c0 -31 17 -53 55 -53zM187 549c27 0 44 15 44 42s-17 43 -44 43c-29 0 -45 -16 -45 -43s16 -42 45 -42z" />
    <glyph glyph-name="nine.numerator" horiz-adv-x="372" 
d="M144 393c61 0 82 27 88 83c-24 -16 -56 -22 -87 -22c-71 0 -123 41 -123 118c0 82 60 134 156 134c100 0 170 -56 170 -191c0 -129 -68 -206 -204 -206c-26 0 -52 2 -70 9c-25 9 -35 25 -35 50v2c0 24 14 39 34 39c21 0 29 -16 71 -16zM183 524c20 0 38 6 51 13
c-2 76 -23 96 -54 96c-33 0 -49 -21 -49 -57c0 -39 20 -52 52 -52z" />
    <glyph glyph-name="zero.denominator" horiz-adv-x="411" 
d="M385 192c0 -136 -81 -198 -179 -198c-99 0 -180 62 -180 198s84 199 180 199s179 -63 179 -199zM143 190c0 -90 23 -118 63 -118c39 0 62 28 62 118s-23 118 -62 118c-40 0 -63 -28 -63 -118z" />
    <glyph glyph-name="one.denominator" horiz-adv-x="263" 
d="M214 337v-285c0 -42 -25 -57 -55 -57h-6c-31 0 -56 15 -56 57v222l-11 -9c-16 -13 -27 -19 -38 -19c-14 0 -25 9 -25 34v7c0 30 10 48 46 67l23 12c19 10 46 19 67 19h3c34 0 52 -15 52 -48z" />
    <glyph glyph-name="two.denominator" horiz-adv-x="336" 
d="M152 84h117c32 0 42 -19 42 -41v-2c0 -22 -10 -41 -42 -41h-203c-22 0 -41 14 -41 46v2c0 25 5 39 38 71l69 64c40 37 60 61 60 86c0 22 -17 37 -47 37c-39 0 -48 -27 -78 -27c-20 0 -33 14 -33 36v3c0 28 11 43 38 56c26 12 60 17 90 17c92 0 145 -36 145 -113
c0 -56 -34 -90 -92 -140z" />
    <glyph glyph-name="three.denominator" horiz-adv-x="331" 
d="M193 114c0 24 -17 36 -49 39l-10 1c-29 3 -41 14 -41 36v6c0 23 12 33 41 36l10 1c30 3 47 14 47 38c0 25 -17 38 -50 38c-37 0 -50 -24 -75 -24c-19 0 -32 13 -32 36v4c0 22 8 35 31 47c21 11 55 19 92 19c81 0 141 -33 141 -107c0 -47 -32 -73 -78 -86v-2
c53 -9 84 -37 84 -88c0 -74 -63 -114 -163 -114c-29 0 -60 4 -83 14c-25 11 -36 27 -36 51v3c0 21 12 35 32 35c27 0 34 -26 76 -26c39 0 63 13 63 43z" />
    <glyph glyph-name="four.denominator" horiz-adv-x="362" 
d="M302 79v-31c0 -39 -24 -53 -53 -53h-2c-29 0 -53 14 -53 53v31h-132c-25 0 -43 17 -43 48v2c0 26 8 43 36 77l108 136c28 35 48 48 83 48h2c32 0 54 -14 54 -56v-182h13c27 0 35 -16 35 -35v-2c0 -20 -8 -36 -35 -36h-13zM192 268l-91 -114v-2h94v116h-3z" />
    <glyph glyph-name="five.denominator" horiz-adv-x="332" 
d="M186 244c69 0 121 -39 121 -120s-65 -130 -170 -130c-29 0 -59 4 -82 14c-25 11 -34 28 -34 48v6c0 19 11 35 33 35c24 0 36 -24 76 -24c41 0 64 18 64 51s-22 48 -48 48c-37 0 -51 -20 -79 -20c-22 0 -35 12 -35 33v147c0 29 14 53 53 53h166c32 0 41 -19 41 -41v-2
c0 -22 -9 -41 -41 -41h-139v-75h2c13 9 36 18 72 18z" />
    <glyph glyph-name="six.denominator" horiz-adv-x="377" 
d="M231 243c71 0 121 -39 121 -116c0 -82 -60 -133 -156 -133c-100 0 -170 56 -170 189c0 132 75 208 204 208c22 0 42 -2 62 -8c26 -8 39 -24 39 -49v-6c0 -23 -13 -37 -34 -37s-35 16 -67 16c-57 0 -81 -28 -88 -87c23 16 57 23 89 23zM191 173c-20 0 -39 -7 -51 -14
c2 -73 22 -92 53 -92c33 0 48 18 48 55c0 36 -18 51 -50 51z" />
    <glyph glyph-name="seven.denominator" horiz-adv-x="326" 
d="M130 -4h-3c-41 0 -65 33 -42 75l122 224v2h-143c-34 0 -43 19 -43 43v2c0 24 9 43 43 43h190c24 0 48 -13 48 -48v-2c0 -37 -9 -57 -22 -88l-83 -199c-15 -36 -37 -52 -67 -52z" />
    <glyph glyph-name="eight.denominator" horiz-adv-x="373" 
d="M187 -8c-105 0 -163 45 -163 116c0 50 25 80 74 96v2c-40 13 -59 40 -59 81c0 65 61 104 148 104c85 0 147 -39 147 -104c0 -41 -18 -68 -58 -81v-2c49 -16 73 -46 73 -96c0 -71 -58 -116 -162 -116zM187 64c37 0 53 22 53 53c0 30 -16 54 -53 54c-38 0 -55 -24 -55 -54
c0 -31 17 -53 55 -53zM187 234c27 0 44 15 44 42s-17 43 -44 43c-29 0 -45 -16 -45 -43s16 -42 45 -42z" />
    <glyph glyph-name="nine.denominator" horiz-adv-x="372" 
d="M144 78c61 0 82 27 88 83c-24 -16 -56 -22 -87 -22c-71 0 -123 41 -123 118c0 82 60 134 156 134c100 0 170 -56 170 -191c0 -129 -68 -206 -204 -206c-26 0 -52 2 -70 9c-25 9 -35 25 -35 50v2c0 24 14 39 34 39c21 0 29 -16 71 -16zM183 209c20 0 38 6 51 13
c-2 76 -23 96 -54 96c-33 0 -49 -21 -49 -57c0 -39 20 -52 52 -52z" />
    <glyph glyph-name="one.superior" unicode="&#xb9;" horiz-adv-x="263" 
d="M214 652v-285c0 -42 -25 -57 -55 -57h-6c-31 0 -56 15 -56 57v222l-11 -9c-16 -13 -27 -19 -38 -19c-14 0 -25 9 -25 34v7c0 30 10 48 46 67l23 12c19 10 46 19 67 19h3c34 0 52 -15 52 -48z" />
    <glyph glyph-name="two.superior" unicode="&#xb2;" horiz-adv-x="336" 
d="M152 399h117c32 0 42 -19 42 -41v-2c0 -22 -10 -41 -42 -41h-203c-22 0 -41 14 -41 46v2c0 25 5 39 38 71l69 64c40 37 60 61 60 86c0 22 -17 37 -47 37c-39 0 -48 -27 -78 -27c-20 0 -33 14 -33 36v3c0 28 11 43 38 56c26 12 60 17 90 17c92 0 145 -36 145 -113
c0 -56 -34 -90 -92 -140z" />
    <glyph glyph-name="three.superior" unicode="&#xb3;" horiz-adv-x="331" 
d="M193 429c0 24 -17 36 -49 39l-10 1c-29 3 -41 14 -41 36v6c0 23 12 33 41 36l10 1c30 3 47 14 47 38c0 25 -17 38 -50 38c-37 0 -50 -24 -75 -24c-19 0 -32 13 -32 36v4c0 22 8 35 31 47c21 11 55 19 92 19c81 0 141 -33 141 -107c0 -47 -32 -73 -78 -86v-2
c53 -9 84 -37 84 -88c0 -74 -63 -114 -163 -114c-29 0 -60 4 -83 14c-25 11 -36 27 -36 51v3c0 21 12 35 32 35c27 0 34 -26 76 -26c39 0 63 13 63 43z" />
    <glyph glyph-name="Q.alt" horiz-adv-x="730" 
d="M701 350c0 -156 -66 -257 -169 -297v-2c75 -8 119 -18 154 -33c43 -18 55 -43 55 -77v-2c0 -36 -23 -61 -62 -61c-27 0 -50 12 -84 29c-45 22 -111 53 -236 77c-96 18 -156 43 -211 87c-75 59 -119 151 -119 279c0 231 157 358 336 358c180 0 336 -127 336 -358zM189 347
c0 -171 73 -247 176 -247c102 0 176 76 176 247c0 172 -74 251 -176 251c-103 0 -176 -79 -176 -251z" />
    <glyph glyph-name="Q.alt1" horiz-adv-x="730" 
d="M582 6l-43 33c-52 -31 -113 -47 -174 -47c-179 0 -336 127 -336 358s157 358 336 358s336 -127 336 -358c0 -94 -28 -171 -73 -230l27 -20c29 -22 30 -58 10 -83c-21 -28 -54 -34 -83 -11zM189 347c0 -171 73 -247 176 -247c31 0 58 4 80 12l-59 47c-29 22 -30 57 -10 83
c21 27 53 33 83 10l64 -50c12 36 18 84 18 145c0 172 -74 251 -176 251c-103 0 -176 -79 -176 -251z" />
    <glyph glyph-name="f.short" horiz-adv-x="324" 
d="M223 427v-360c0 -47 -29 -72 -72 -72h-2c-43 0 -72 25 -72 72v360h-18c-26 0 -48 12 -48 48v2c0 36 22 48 48 48h18v40c0 99 63 145 164 145c16 0 29 -1 43 -4c28 -6 40 -21 40 -48v-2c0 -25 -11 -44 -49 -47c-41 -3 -52 -20 -52 -49v-35h53c26 0 48 -12 48 -48v-2
c0 -36 -22 -48 -48 -48h-53z" />
    <glyph glyph-name="f_f.short" horiz-adv-x="626" 
d="M379 427h-156v-360c0 -47 -29 -72 -72 -72h-2c-43 0 -72 25 -72 72v360h-18c-26 0 -48 12 -48 48v2c0 36 22 48 48 48h18v40c0 99 62 145 167 145c16 0 29 -1 46 -5c27 -6 40 -20 40 -48v-2c0 -25 -11 -43 -49 -46c-43 -3 -58 -19 -58 -49v-35h156v40
c0 99 63 145 164 145c16 0 29 -1 43 -4c28 -6 40 -21 40 -48v-2c0 -25 -11 -44 -49 -47c-41 -3 -52 -20 -52 -49v-35h53c26 0 48 -12 48 -48v-2c0 -36 -22 -48 -48 -48h-53v-360c0 -47 -29 -72 -72 -72h-2c-43 0 -72 25 -72 72v360z" />
    <glyph glyph-name="less.cap" horiz-adv-x="412" 
d="M232 47l-183 235c-18 23 -27 43 -27 67v2c0 24 9 45 27 68l183 234c28 36 46 52 74 52h2c52 0 85 -54 45 -107l-186 -245v-3l186 -248c40 -53 7 -107 -45 -107h-2c-28 0 -46 16 -74 52z" />
    <glyph glyph-name="greater.cap" horiz-adv-x="412" 
d="M363 282l-183 -235c-28 -36 -46 -52 -74 -52h-2c-52 0 -85 54 -45 107l186 248v3l-186 245c-40 53 -7 107 45 107h2c28 0 46 -16 74 -52l183 -234c18 -23 27 -44 27 -68v-2c0 -24 -9 -44 -27 -67z" />
    <glyph glyph-name="questiondown.cap" horiz-adv-x="449" 
d="M269 498h5c37 0 58 -22 58 -59s-20 -83 -71 -134c-44 -44 -78 -77 -78 -131c0 -45 32 -68 75 -68c64 0 83 47 131 47c25 0 41 -17 41 -53v-11c0 -34 -11 -55 -50 -71c-36 -16 -78 -26 -131 -26c-137 0 -220 61 -220 181c0 145 141 171 174 271c12 36 34 54 66 54z
M189 626c0 45 37 80 82 80c46 0 82 -35 82 -80s-36 -81 -82 -81c-45 0 -82 36 -82 81z" />
    <glyph glyph-name="exclamdown.cap" horiz-adv-x="284" 
d="M194 442c0 0 26 -335 26 -370c0 -47 -25 -77 -76 -77h-4c-51 0 -76 30 -76 77c0 35 26 370 26 370c2 35 25 52 51 52h2c26 0 49 -17 51 -52zM224 626c0 -45 -37 -81 -82 -81c-46 0 -82 36 -82 81s36 80 82 80c45 0 82 -35 82 -80z" />
    <glyph glyph-name="bullet.cap" horiz-adv-x="340" 
d="M308 326c0 -84 -61 -134 -138 -134c-76 0 -138 50 -138 134s62 136 138 136c77 0 138 -52 138 -136z" />
    <glyph glyph-name="hyphen.cap" horiz-adv-x="307" 
d="M215 273h-123c-35 0 -59 26 -59 59v2c0 32 24 58 59 58h123c35 0 59 -26 59 -58v-2c0 -33 -24 -59 -59 -59z" />
    <glyph glyph-name="endash.cap" horiz-adv-x="437" 
d="M348 276h-258c-37 0 -57 25 -57 56v2c0 30 20 55 57 55h258c36 0 56 -25 56 -55v-2c0 -31 -20 -56 -56 -56z" />
    <glyph glyph-name="emdash.cap" horiz-adv-x="747" 
d="M658 276h-568c-37 0 -57 25 -57 56v2c0 30 20 55 57 55h568c36 0 56 -25 56 -55v-2c0 -31 -20 -56 -56 -56z" />
    <glyph glyph-name="dagger.cap" horiz-adv-x="469" 
d="M83 408c-43 0 -64 22 -64 64v14c0 42 21 64 64 64c26 0 60 -10 109 -34c-22 53 -30 89 -30 121c0 45 25 68 70 68h6c45 0 69 -23 69 -68c0 -32 -8 -68 -30 -121c49 24 83 34 109 34c43 0 64 -22 64 -64v-14c0 -42 -21 -64 -64 -64c-26 0 -60 10 -109 34
c27 -76 32 -109 32 -171c0 -78 -18 -220 -18 -220c-3 -37 -23 -56 -55 -56h-2c-32 0 -53 18 -56 55c0 0 -18 142 -18 220c0 62 6 96 32 172c-49 -24 -83 -34 -109 -34z" />
    <glyph glyph-name="daggerdbl.cap" horiz-adv-x="469" 
d="M192 452c-49 -24 -83 -34 -109 -34c-43 0 -64 22 -64 64v14c0 42 21 64 64 64c26 0 60 -10 109 -34c-23 52 -30 79 -30 111c0 45 25 68 70 68h6c45 0 69 -23 69 -68c0 -32 -7 -59 -30 -111c49 24 83 34 109 34c43 0 64 -22 64 -64v-14c0 -42 -21 -64 -64 -64
c-26 0 -60 10 -109 34c25 -47 33 -73 33 -103s-8 -54 -33 -101c49 24 83 34 109 34c43 0 64 -22 64 -64v-14c0 -42 -21 -64 -64 -64c-26 0 -60 10 -109 34c23 -52 30 -79 30 -111c0 -45 -24 -68 -69 -68h-6c-45 0 -70 23 -70 68c0 32 7 59 30 111c-49 -24 -83 -34 -109 -34
c-43 0 -64 22 -64 64v14c0 42 21 64 64 64c26 0 60 -10 109 -34c-25 47 -33 71 -33 101s8 56 33 103z" />
    <glyph glyph-name="quoteleft.cap" horiz-adv-x="531" 
d="M412 351c47 -26 89 -71 89 -164c0 -115 -86 -195 -215 -195c-132 0 -256 86 -256 277c0 229 115 382 343 429c84 18 124 -6 124 -48v-1c0 -30 -14 -51 -78 -68c-117 -32 -149 -72 -149 -125c0 -64 77 -69 142 -105z" />
    <glyph glyph-name="quoteright.cap" horiz-adv-x="531" 
d="M119 349c-47 26 -89 71 -89 164c0 115 86 195 215 195c132 0 256 -86 256 -277c0 -229 -115 -382 -343 -429c-84 -18 -124 6 -124 48v1c0 30 14 51 78 68c117 32 149 72 149 125c0 64 -77 69 -142 105z" />
    <glyph glyph-name="quotedblleft.cap" horiz-adv-x="1049" 
d="M930 351c47 -26 89 -71 89 -164c0 -115 -86 -195 -215 -195c-132 0 -256 86 -256 277c0 229 115 382 343 429c84 18 124 -6 124 -48v-1c0 -30 -14 -51 -78 -68c-117 -32 -149 -72 -149 -125c0 -64 77 -69 142 -105zM412 351c47 -26 89 -71 89 -164
c0 -115 -86 -195 -215 -195c-132 0 -256 86 -256 277c0 229 115 382 343 429c84 18 124 -6 124 -48v-1c0 -30 -14 -51 -78 -68c-117 -32 -149 -72 -149 -125c0 -64 77 -69 142 -105z" />
    <glyph glyph-name="quotedblright.cap" horiz-adv-x="1049" 
d="M119 349c-47 26 -89 71 -89 164c0 115 86 195 215 195c132 0 256 -86 256 -277c0 -229 -115 -382 -343 -429c-84 -18 -124 6 -124 48v1c0 30 14 51 78 68c117 32 149 72 149 125c0 64 -77 69 -142 105zM637 349c-47 26 -89 71 -89 164c0 115 86 195 215 195
c132 0 256 -86 256 -277c0 -229 -115 -382 -343 -429c-84 -18 -124 6 -124 48v1c0 30 14 51 78 68c117 32 149 72 149 125c0 64 -77 69 -142 105z" />
    <glyph glyph-name="guillemotleft.cap" horiz-adv-x="682" 
d="M232 47l-183 235c-18 23 -27 43 -27 67v2c0 24 9 45 27 68l183 234c28 36 46 52 74 52h2c52 0 85 -54 45 -107l-186 -245v-3l186 -248c40 -53 7 -107 -45 -107h-2c-28 0 -46 16 -74 52zM502 47l-183 235c-18 23 -27 43 -27 67v2c0 24 9 45 27 68l183 234
c28 36 46 52 74 52h2c52 0 85 -54 45 -107l-186 -245v-3l186 -248c40 -53 7 -107 -45 -107h-2c-28 0 -46 16 -74 52z" />
    <glyph glyph-name="guillemotright.cap" horiz-adv-x="682" 
d="M363 282l-183 -235c-28 -36 -46 -52 -74 -52h-2c-52 0 -85 54 -45 107l186 248v3l-186 245c-40 53 -7 107 45 107h2c28 0 46 -16 74 -52l183 -234c18 -23 27 -44 27 -68v-2c0 -24 -9 -44 -27 -67zM633 282l-183 -235c-28 -36 -46 -52 -74 -52h-2c-52 0 -85 54 -45 107
l186 248v3l-186 245c-40 53 -7 107 45 107h2c28 0 46 -16 74 -52l183 -234c18 -23 27 -44 27 -68v-2c0 -24 -9 -44 -27 -67z" />
    <glyph glyph-name="at.cap" horiz-adv-x="862" 
d="M454 439c-63 0 -102 -68 -102 -145c0 -30 15 -46 39 -46c26 0 51 13 74 37l32 146c-10 4 -19 8 -43 8zM437 -39c-201 0 -404 108 -404 359c0 266 218 410 420 410c203 0 376 -114 376 -318c0 -179 -110 -259 -232 -259c-78 0 -112 28 -127 64c-26 -35 -62 -63 -124 -63
c-70 0 -123 47 -123 138c0 120 81 240 217 240c50 0 73 -16 95 -38c19 26 37 36 68 36h3c30 0 44 -16 37 -47l-41 -190c-6 -30 -8 -54 25 -54c60 0 101 50 101 173c0 145 -109 231 -275 231c-160 0 -312 -102 -312 -323c0 -195 132 -272 296 -272c172 0 197 62 242 62
c22 0 35 -14 35 -39v-3c0 -25 -14 -43 -41 -58c-62 -32 -149 -49 -236 -49z" />
    <glyph glyph-name="paragraph.cap" horiz-adv-x="592" 
d="M304 -5h-2c-28 0 -51 13 -51 51v257c-133 0 -227 59 -227 198c0 153 110 199 254 199h169c56 0 83 -37 83 -83v-571c0 -38 -23 -51 -51 -51h-2c-28 0 -51 13 -51 51v552h-71v-552c0 -38 -23 -51 -51 -51z" />
    <glyph glyph-name="grave.cap" 
d="M229 810l11 -32c12 -34 -9 -57 -38 -57h-6c-18 0 -42 11 -65 31l-38 33c-37 31 -24 75 27 75h30c40 0 65 -10 79 -50z" />
    <glyph glyph-name="dieresis.cap" 
d="M179 801c0 -41 -33 -73 -75 -73s-75 32 -75 73c0 40 33 73 75 73s75 -33 75 -73zM371 801c0 -41 -33 -73 -75 -73s-75 32 -75 73c0 40 33 73 75 73s75 -33 75 -73z" />
    <glyph glyph-name="macron.cap" 
d="M110 837h180c36 0 48 -22 48 -48v-2c0 -26 -12 -48 -48 -48h-180c-36 0 -48 22 -48 48v2c0 26 12 48 48 48z" />
    <glyph glyph-name="acute.cap" 
d="M160 778l11 32c14 40 39 50 79 50h30c51 0 64 -44 27 -75l-38 -33c-23 -20 -47 -31 -65 -31h-6c-29 0 -50 23 -38 57z" />
    <glyph glyph-name="circumflex.cap" 
d="M200 772l-16 -15c-27 -26 -47 -35 -63 -35h-2c-44 0 -61 46 -20 87l12 12c34 34 59 43 85 43h9c26 0 51 -9 85 -43l12 -12c41 -41 24 -87 -20 -87h-2c-16 0 -35 10 -63 35z" />
    <glyph glyph-name="caron.cap" 
d="M184 829l16 -15l17 15c28 25 47 35 63 35h2c44 0 61 -46 20 -87l-12 -12c-34 -34 -59 -43 -85 -43h-9c-26 0 -51 9 -85 43l-12 12c-41 41 -24 87 20 87h2c16 0 36 -9 63 -35z" />
    <glyph glyph-name="breve.cap" 
d="M200 728c-56 0 -104 24 -126 65c-19 36 -5 69 28 69h4c34 0 50 -41 94 -41s60 41 94 41h4c33 0 47 -33 28 -69c-22 -41 -70 -65 -126 -65z" />
    <glyph glyph-name="dotaccent.cap" 
d="M279 805c0 -43 -35 -77 -79 -77s-79 34 -79 77s35 78 79 78s79 -35 79 -78z" />
    <glyph glyph-name="ring.cap" 
d="M305 829c0 -62 -48 -100 -105 -100s-105 38 -105 100s48 101 105 101s105 -39 105 -101zM164 829c0 -23 14 -38 36 -38s37 15 37 38c0 24 -15 39 -37 39s-36 -15 -36 -39z" />
    <glyph glyph-name="tilde.cap" 
d="M347 795c-12 -40 -46 -68 -96 -68c-44 0 -82 31 -108 31c-37 0 -40 -36 -71 -36h-2c-28 0 -46 24 -33 69c11 39 46 68 96 68c44 0 82 -31 108 -31c37 0 40 36 71 36h2c28 0 45 -25 33 -69z" />
    <glyph glyph-name="hungarumlaut.cap" 
d="M244 774l9 33c12 40 33 53 74 53h17c42 0 56 -31 25 -70l-30 -36c-18 -22 -36 -32 -59 -32h-3c-26 0 -43 17 -33 52zM81 774l9 33c12 40 33 53 74 53h17c42 0 56 -31 25 -70l-30 -36c-18 -22 -36 -32 -59 -32h-3c-26 0 -43 17 -33 52z" />
    <glyph glyph-name="uni2009" unicode="&#x2009;" horiz-adv-x="100" 
 />
    </font>
</defs>
</svg>
