<?xml version="1.0" standalone="no"?>
<!DOCTYPE svg PUBLIC "-//W3C//DTD SVG 1.1//EN" "http://www.w3.org/Graphics/SVG/1.1/DTD/svg11.dtd" >
<svg>
<metadata>
Created by FontForge 20110222 at Wed Jul 16 05:59:29 2014
 By Orthosie Webhosting
(C) 2003 Bitstream Inc. &#38; Font Diner. All Rights Reserved. Designed by Stuart Sandler. http://www.fontdiner.com/ ROE
</metadata>
<defs>
<font id="AnnieBTN" horiz-adv-x="1706" >
  <font-face 
    font-family="Annie BTN"
    font-weight="400"
    font-stretch="normal"
    units-per-em="2048"
    panose-1="3 12 5 6 4 1 9 4 3 6"
    ascent="1638"
    descent="-410"
    x-height="887"
    cap-height="1358"
    bbox="-244 -1085 2118 2056"
    underline-thickness="41"
    underline-position="-252"
    unicode-range="U+0020-F002"
  />
<missing-glyph horiz-adv-x="1024" 
d="M128 0v2005h768v-2005h-768zM256 128h512v1749h-512v-1749z" />
    <glyph glyph-name=".notdef" horiz-adv-x="1024" 
d="M128 0v2005h768v-2005h-768zM256 128h512v1749h-512v-1749z" />
    <glyph glyph-name=".null" horiz-adv-x="0" 
 />
    <glyph glyph-name="nonmarkingreturn" horiz-adv-x="414" 
 />
    <glyph glyph-name="space" unicode=" " horiz-adv-x="414" 
 />
    <glyph glyph-name="exclam" unicode="!" horiz-adv-x="313" 
d="M250 1368q0 -23 -6 -68.5t-6 -68.5q0 -10 1 -30t1 -30q0 -130 -33 -241q8 -17 8 -39q0 -20 -10 -59.5t-10 -59.5q0 -25 12 -43v-10q0 -49 -22 -147.5t-21 -149.5q-30 7 -61 13q-40 9 -40 36q0 3 5 25q2 21 8 63q28 145 28 152q0 20 -4 39q66 280 66 569q0 59 -12 90h41
q55 0 55 -41zM245 -8q-25 -46 -61 -46q-4 0 -78 19q-13 12 -13 37v46q22 26 59 26q34 0 62.5 -24t30.5 -58z" />
    <glyph glyph-name="quotedbl" unicode="&#x22;" horiz-adv-x="569" 
d="M465 1124q-22 -79 -127 -202q-29 32 -29 77q0 39 23 105q24 71 26 104q17 18 17 47q0 19 -8.5 55t-8.5 54q0 33 31 33q20 0 45 -8l31 -54q-12 -49 -12 -106q0 -55 12 -105zM233 981q0 -64 -55 -80q-22 14 -44 27q-30 19 -30 37q0 9 11.5 29.5t11.5 31.5t-12 23
q10 50 22 202q31 12 31 41q0 8 -2 23t-2 22q0 28 37 31l20 -96q-10 -33 -10 -100.5t-10 -100.5q32 -35 32 -90z" />
    <glyph glyph-name="numbersign" unicode="#" horiz-adv-x="1575" 
d="M1458 971l-37 -107h-317l-98 -276h340l-37 -109h-340l-170 -479h-129l172 479h-269l-172 -479h-127l170 479h-327l39 109h325l101 276h-353l35 107h354l173 483h127l-168 -483h264l172 483h127l-170 -483h315zM975 864h-266l-97 -276h267z" />
    <glyph glyph-name="dollar" unicode="$" horiz-adv-x="696" 
d="M653 604q-18 -26 -40 -139q-17 -88 -76 -117v-41q-15 -27 -93 -74q-67 -40 -67 -79q0 -24 22 -60q-18 -14 -18 -35q0 -14 10 -39.5t10 -39.5q0 -21 -12 -35q12 -8 12 -15q0 -5 -13 -11t-13 -11q0 -7 14 -17q2 -7 2 -14q0 -16 -14 -36q-18 -26 -21 -34q13 -7 13 -16
q0 -6 -8.5 -21t-4.5 -26q-7 -11 -29 -69q-17 -44 -44 -58q-23 30 -23 68q0 27 10 71q11 54 13 72q2 25 18 106q12 66 12 107q0 61 -20 106q-177 -30 -189 -30q-67 0 -108 30q-96 72 -96 181l10 10q-2 6 -2 16q0 12 8.5 46t8.5 49q0 9 -3 16q5 14 10.5 29.5t20.5 13.5
q6 -19 6 -45q0 -24 -5 -72t-5 -72q0 -133 139 -133q132 0 225 68q-10 54 -10 256v51q12 34 12 88q0 12 -1 46q-1 29 -1 46q-5 3 -137 41q-86 24 -115 76q-12 22 -12 33q0 119 107 248q44 53 200 196q10 35 10 152q0 95 33 145q-10 11 -10 25q0 11 10 31t11 30q28 -4 37 -49
q11 -55 26 -67q-31 -22 -31 -62q0 -15 5.5 -44t5.5 -44q0 -24 -11 -41q1 -40 1 -79q4 -49 40 -60q0 -35 34 -93t34 -87q0 -13 -7 -29.5t-7 -24.5q0 -3 1 -10.5t1 -11.5q0 -12 -15 -12q-2 0 -18 4l-4 -2q-8 25 -23.5 62t-42.5 97q-16 -9 -16 -204v-7q8 -4 8 -12
q0 -1 -12.5 -23.5t-12.5 -48.5q0 -59 102 -91q107 -34 118 -101q-2 -5 -2 -10q0 -12 13 -33q18 -28 19 -31zM346 1198l-10 10q-18 -26 -70 -62.5t-69 -64.5q4 -14 4 -20q0 -51 -68 -86v-6q0 -63 33 -90q22 -19 31 -19q8 0 12 8q15 -20 47 -20h57zM549 580q0 17 -12 24
q12 10 12 17q0 34 -29.5 56.5t-64.5 22.5q-47 0 -47 -45q0 -52 1 -158t1 -159q83 83 137 213v4q0 4 1 12t1 13z" />
    <glyph glyph-name="percent" unicode="%" horiz-adv-x="1128" 
d="M965 1343q0 -46 -56 -219q-36 -30 -67 -117.5t-70 -115.5q-3 -48 -39 -105q-31 -48 -61 -96q-9 -16 -27 -86q-16 -37 -49 -110q-6 -15 -37 -113q-9 -23 -26 -66.5t-48 -136.5q-16 -50 -47 -151q-4 -24 -16 -70q-10 -34 -16 -42q-10 -17 -37 -24q-16 -4 -21 -4
q-15 0 -23 23q-5 17 -10 35q36 52 68.5 174.5t69.5 175.5q-2 10 -2 20q0 36 34 109q38 87 113 260q145 331 258 535q0 20 11.5 58.5t11.5 57.5q0 38 -33 54q-52 -23 -160 -54v-20q-24 -21 -120 -57q-78 -28 -103 -80q-46 -20 -127 -76q14 -129 14 -141q0 -62 -35 -134
q-52 -107 -139 -139q-113 0 -113 166q0 147 166 354h25q14 0 18 11q16 -19 39 -19q19 0 50 17q36 21 49 24q47 34 131 81q102 56 135 77q27 0 60 20q51 31 57.5 32t24 2t26.5 1q76 0 108 -33q13 -37 13 -78zM1024 344q0 -41 -48 -109q-51 -72 -56 -110q-92 -127 -201 -127
q-53 21 -53 96q0 37 20 94q27 76 31 93q7 48 33 143q5 12 14 37l22 92q20 51 70 51q-3 0 35 -8q88 -19 104 -68q0 -13 10.5 -32t10.5 -29q0 -14 -10 -23q10 -3 10 -12q0 -4 -5 -13.5t-5 -17.5q18 -29 18 -57zM940 399q0 123 -59 123q-6 0 -15 -4q-29 -36 -39 -101l-14 -110
q-30 -30 -37 -91q-12 -95 -14 -101q178 134 178 284zM272 999q0 10 -7 28t-7 28q0 7 4 16h-4q-10 0 -27.5 -20.5t-31.5 -22.5q-17 -24 -26 -93q-9 -61 -38 -87q3 -3 12 -35q8 -22 23 -22q9 0 18 4q6 15 45 79q31 51 31 84q0 9 -2 17q10 10 10 24z" />
    <glyph glyph-name="ampersand" unicode="&#x26;" horiz-adv-x="614" 
d="M385 1204q0 -31 -45 -49q-5 4 -84 32q-46 16 -55 64q20 34 22 88q-2 -42 -2 93q0 97 55 137v22q21 -2 54 -22l-23 -64q12 -27 12 -69q0 -17 -2 -49.5t-2 -49.5q0 -92 66 -118q4 -9 4 -15zM551 614q-14 -102 -105 -149q-71 -37 -86 -31q-43 -10 -84 -10q-71 0 -149 31
q-64 25 -64 106q0 55 11 84q32 93 129 208q84 93 168 185q8 -2 14 -2q7 0 21.5 2t21.5 2q29 0 39 -22v-256q-4 -32 -21 -94q-9 -22 -35 -45t-46 -23q-25 0 -25 29q0 35 11 104t11 105q0 20 -2 41q-22 -1 -46 -24l-38 -40q-24 -24 -43 -86.5t-43 -83.5q-2 -10 -17 -39
q-13 -24 -13 -41q0 -47 119 -47q57 0 92 33q99 94 112 94h13q45 0 55 -31zM352 25q0 -94 -22 -101q-7 -2 -21 -2q-69 0 -69 84q0 113 47 215q13 6 22 6q19 0 28 -27q7 -21 13 -42q-2 -10 -2 -21q0 -19 2 -56.5t2 -55.5z" />
    <glyph glyph-name="quotesingle" unicode="'" horiz-adv-x="440" 
d="M336 1264q0 -29 -25.5 -84t-25.5 -88q-36 -7 -55 -58.5t-52 -58.5q-25 -33 -59 -33q-4 0 -15 2q4 52 48 111q60 81 69 100q33 70 33 213q0 10 10 64q22 -8 34 -47q16 -54 19 -60q19 -30 19 -61z" />
    <glyph glyph-name="parenleft" unicode="(" horiz-adv-x="508" 
d="M424 -8q0 -61 -43 -58q-119 56 -148 127q-9 25 -63 128q-41 79 -51 133q0 9 -2 26q-9 21 -23 64q-10 42 -10 98q0 63 21 185.5t22 183.5q68 135 105 198q63 109 128 185l43 -11q-6 -31 -53 -96q-43 -59 -43 -106q-76 -77 -106 -199q-20 -78 -27 -227q-4 -85 -4 -115
q0 -5 12 -66q24 -118 40 -162q30 -87 85 -143q0 -23 18 -41l35 -35q12 7 17 7q47 0 47 -76z" />
    <glyph glyph-name="parenright" unicode=")" horiz-adv-x="612" 
d="M528 469q0 -17 -20 -88q-8 -37 -29 -109q-67 -173 -299 -338q-4 4 -55 17q-23 6 -23 53q0 39 51 59q66 25 78 41q203 125 203 424q0 -4 -24 93q-34 133 -61 191q-46 99 -128 153q0 57 -68.5 86t-68.5 55q0 21 20 49q222 -50 361 -381v-6q0 -54 31.5 -151t31.5 -148z" />
    <glyph glyph-name="asterisk" unicode="*" horiz-adv-x="1339" 
d="M1235 1130q0 -8 -4 -18q-55 -29 -103 -29q-27 0 -47 9q-85 -10 -171 -19q-100 -13 -169 -35q-24 13 -55 13q-8 0 -39 -2l-33 -41q30 -47 90 -185q52 -118 101 -178q2 -7 2 -14q0 -11 -23 -60q-66 6 -96 64q-3 7 -45 110q-26 67 -59 103q-28 -44 -97 -183
q-58 -116 -106 -178q-2 -18 -30 -36q-22 -14 -44 -27q-37 29 -37 82q0 23 9.5 69.5t9.5 69.5q0 72 -90 209q-10 16 -31 47q-20 20 -40 41q-24 25 -24 49q0 16 13 37q23 17 78.5 27t78.5 26q16 -2 27 -2q33 0 83 9q70 12 83 14q-18 46 -70 128.5t-69 127.5q25 22 34 22
q5 0 9 -2q40 -55 118 -168q16 -29 52 -86q9 -12 30 -12q62 176 170 299q12 1 27 15.5t27 15.5q-8 -35 -37 -81q-40 -66 -45 -77q-3 -6 -25 -86q-2 -7 -12 -24.5t-10 -28.5q0 -23 16 -23q5 0 13 6.5t14 6.5q8 0 12 -11q65 6 228 35q144 26 229 29q4 -7 34 -26q23 -15 23 -32z
M530 975l-43 43q-45 -17 -142.5 -26.5t-143.5 -26.5q107 -140 149 -351q42 68 94 179q77 164 86 182z" />
    <glyph glyph-name="plus" unicode="+" 
d="M1452 561h-549v-561h-98v561h-551v98h551v562h98v-562h549v-98z" />
    <glyph glyph-name="comma" unicode="," horiz-adv-x="354" 
d="M250 82q-11 -27 -39 -148q-20 -91 -57 -139q-9 -11 -41 -43q-27 -28 -84 -82q-59 -42 -172 -131l-21 43q109 128 217 256q114 158 114 306q0 16 -1 32q13 25 33 25q3 0 8 -2q7 -34 43 -117z" />
    <glyph glyph-name="hyphen" unicode="-" horiz-adv-x="819" 
d="M756 514q-7 -26 -13 -51q-9 -31 -28 -43q-47 18 -109 18q-35 0 -54 -9t-54 -9q-56 0 -103 18q-20 -12 -47 -12q-15 0 -43 8t-43 8q-28 0 -51 -16q-42 6 -82.5 13t-65.5 46q82 23 154 26q-15 -1 156 -1q80 0 177 12q107 13 177 15z" />
    <glyph glyph-name="hyphen" unicode="&#x2010;" horiz-adv-x="819" 
d="M756 514q-7 -26 -13 -51q-9 -31 -28 -43q-47 18 -109 18q-35 0 -54 -9t-54 -9q-56 0 -103 18q-20 -12 -47 -12q-15 0 -43 8t-43 8q-28 0 -51 -16q-42 6 -82.5 13t-65.5 46q82 23 154 26q-15 -1 156 -1q80 0 177 12q107 13 177 15z" />
    <glyph glyph-name="period" unicode="." horiz-adv-x="403" 
d="M272 23q-10 -23 -49 -37q-31 -10 -63 -19q-3 9 -16 14.5t-13 14.5v24q0 98 59 112q52 -18 82 -109z" />
    <glyph glyph-name="slash" unicode="/" horiz-adv-x="1083" 
d="M979 1231q0 -3 -2 -14q-20 -26 -178 -277q-30 -42 -88 -127q-26 -38 -69 -132q-41 -87 -73 -130q-21 -30 -65 -90q-33 -40 -90 -125q0 -68 -41 -117q-16 -15 -45 -49q-1 -2 -47 -80q-26 -46 -58 -72q4 -9 4 -16q0 -16 -47 -59q-7 -2 -18 -2q-24 0 -41 21.5t-17 45.5
q0 25 23 41q-1 18 26 44q34 33 40 42q29 41 86 125q6 11 40 86q3 5 93 137q121 179 182 310q26 4 36 33q9 25 17 51q30 41 86 127q10 15 160 266q10 -9 53 -11q33 -1 33 -28z" />
    <glyph glyph-name="zero" unicode="0" horiz-adv-x="827" 
d="M805 946q0 -19 -6 -51q-7 -40 -8 -51q-7 -77 -14 -153q-10 -89 -29 -150q-17 -35 -50 -105q-21 -53 -63 -160q-27 1 -31 -31q-6 -44 -12 -52q-22 -22 -64 -66q-80 -86 -121 -115q-73 -53 -155 -53q4 0 -41 12q-118 32 -139 105q-70 75 -70 198q0 103 39 226q26 83 53 167
q36 99 84 150q6 26 21 76q2 8 69 117q58 93 164 286q-10 5 -10 13q0 5 7 14.5t7 15.5q0 4 -4 9q38 24 76 49q46 28 84 28q31 0 53 -12q42 -23 86 -115q37 -76 51 -141q23 -100 23 -211zM721 946q0 195 -66 371q-57 22 -63 22q-3 0 -9 -2t-10 -2q-8 0 -34 25l-31 -33l31 -31
q-2 -14 -2 -24q0 -31 8 -79q13 -66 14 -79q-5 -22 -10 -45q-6 -26 -31 -29q-22 23 -22 33q18 13 18 29q0 1 -29 55q-9 2 -8 2q-12 0 -45 -12q-8 -64 -74 -166q-71 -107 -84 -174q-5 -26 -42 -60.5t-37 -56.5q0 -11 4 -20l-31 -43q-6 -54 -51 -175q-41 -109 -41 -176
q0 -68 39 -126q-3 -17 21 -28.5t24 -24.5q0 -5 -2 -11q46 -33 121 -33h6q162 48 274 277q14 35 43 106q14 31 41 94q78 205 78 416z" />
    <glyph glyph-name="one" unicode="1" horiz-adv-x="399" 
d="M287 1104q-31 -28 -31 -74q0 -17 5 -52t5 -52q0 -41 -20 -66q2 -19 2 -43q0 -63 -23 -164q-28 -125 -32 -164q-7 -78 -13 -156q-10 -89 -41 -153q4 -13 4 -24q0 -18 -8 -53.5t-8 -53.5q0 -25 12 -49q-1 -20 -20 -53q-57 5 -86 63q16 49 25 184q9 119 38 179l-10 10
q46 176 79 508q35 354 71 510l-13 43h43q13 -35 13 -80q0 -27 -6.5 -81t-6.5 -81q0 -57 21 -98z" />
    <glyph glyph-name="two" unicode="2" horiz-adv-x="846" 
d="M846 137q0 -23 -48 -33q-52 -11 -61 -45h-32q4 11 4 17q0 18 -45 37q-54 -20 -137 -21q135 2 -140 2q-69 0 -202 -32.5t-201 -32.5q-2 10 -2 16q0 -4 22 90h12q59 146 252 445q180 278 238 452q18 55 18 68q0 31 -28 46q-4 1 -56 17q-180 -118 -307 -274h-33q-4 11 -4 22
q0 30 49 75q46 43 41 73q153 166 279 166q59 0 100 -31q45 -33 45 -90q0 -43 -43 -131q-27 -13 -36.5 -71t-36.5 -77q-21 -103 -140 -213q6 -13 6 -20q0 -15 -22 -31.5t-25 -34.5q-52 -64 -120 -193q-75 -143 -113 -198q8 -2 14 -2q24 0 67 16.5t66 16.5q7 0 20 -1t19 -1
q27 0 80 8t80 8q14 0 35 -4q54 13 159 13q110 -1 160 10q66 -31 66 -62z" />
    <glyph glyph-name="three" unicode="3" horiz-adv-x="997" 
d="M909 514q0 -60 -63 -199l-86 -68q-52 -42 -74 -81q-4 10 -12 10q-5 0 -15.5 -4.5t-15.5 -5.5q-17 -18 -33 -36q-21 -21 -41 -21q-11 0 -20 4q-172 -95 -361 -95q-87 0 -149 21q-20 7 -27.5 22l-15.5 31q15 33 53 33q23 0 59 -21.5t62 -21.5q21 0 39 10q18 -10 41 -10
q19 0 54 9.5t52 10.5q185 85 246 123q133 83 189 193q22 44 22 55q0 162 -233 162q-153 0 -224 -76q-19 -21 -36 -27q-27 -10 -37 -16q-27 30 -27 57q0 39 71 90q81 58 93 87q50 53 124 163q80 119 122 166q-13 11 -13 25q0 7 5.5 21t5.5 22q0 18 -21 29q-269 -55 -420 -215
q-27 -34 -53 -68q-34 -39 -72 -39q-4 0 -16 2q-12 33 -12 53q289 340 616 340l64 -53q6 -26 6 -47q0 -124 -103 -207q-5 -24 -10.5 -47.5t-30.5 -38.5q-78 -49 -86 -117q37 -23 107 -21q76 2 105 -10q26 -10 44 -32q9 -28 44 -30.5t51 -33.5q32 -64 32 -98z" />
    <glyph glyph-name="four" unicode="4" horiz-adv-x="901" 
d="M825 799q0 -32 -10 -49q-40 -12 -49 -52q-4 -15 -4 -75q0 -38 -12 -64q2 -24 2 -49q0 11 -23 -270q-20 -15 -20 -37q0 -12 6 -34t6 -34q0 -19 -12 -33q6 -13 6 -36q0 -12 -6 -56q-5 -34 0 -55q-30 8 -59 15q-33 10 -48 36l64 520q-2 8 -2 21t5 38.5t5 39.5q0 29 -19 51
h-92q-50 0 -78 -10q-26 12 -59 12q-54 0 -145 -39q-13 -7 -39 -16q-10 -1 -29 -5q-44 -9 -111 -79q-2 -1 -6 -2q-19 0 -37 21q-28 32 -30 34q178 336 202 541q7 -1 17.5 5.5t17.5 6.5q2 0 6 -2v-213q-16 -13 -26 -60q-10 -50 -27 -67q0 -12 -16.5 -27t-16.5 -26
q0 -31 29 -31q10 0 30.5 15.5t37.5 15.5q-7 0 30 6q25 4 74 4q32 0 96 -4t97 -4q52 0 86 8v266q0 245 84 350h6q8 0 16 -10l10 10q11 -4 11 -33q-34 -14 -42 -49q-1 -9 -1 -67v-21q12 -12 12 -30q0 -17 -11.5 -48.5t-11.5 -48.5q0 -14 11.5 -41.5t11.5 -42.5q0 -16 -12 -32
l12 -11v-47q0 -44 31 -69q7 10 22 10q10 -17 10 -47z" />
    <glyph glyph-name="five" unicode="5" horiz-adv-x="934" 
d="M934 1386q-14 -20 -84 -20q-28 0 -43 -10q6 -14 31 -13l-351 -190q-4 4 -10 4q3 0 -53 -24q-52 -11 -103 -21q-58 -12 -77 -65q12 -38 12 -78q0 -27 -6 -81t-6 -81q0 -46 10 -78l136 98q85 58 153 58q41 0 84 -19q6 4 14 4q13 0 38 -17t42 -17q46 -60 91 -119
q52 -71 52 -137q0 -19 -4 -41q-40 -49 -33 -107q-57 -116 -147 -213q-58 -149 -203 -244q-39 -17 -117 -53q-17 12 -34 12t-46.5 -11t-46.5 -11q-113 0 -233 137q2 11 2 14q0 60 18 60q54 0 94 -75t97 -75q3 0 12 2l10 11q12 -2 33 -2q62 0 158 34q86 75 164 184
q24 35 133 208q-1 23 18 63t19 62q0 4 -4 14q14 26 14 55q0 45 -35 100q-32 44 -63 89q-35 12 -74 12q-45 0 -203 -55q-28 -51 -88 -111l-102 -100q-30 -2 -46 28q-5 8 -20 56q15 46 15 98q0 35 -7.5 104.5t-7.5 104.5q0 88 33 149q-12 11 -12 29q0 19 12 35l53 33
q105 6 230 57q37 14 217 100l180 86q8 -10 49 -10q27 0 35 -23z" />
    <glyph glyph-name="six" unicode="6" horiz-adv-x="793" 
d="M731 659q0 -77 -33 -143q-3 -37 -36 -101t-37 -100q-66 -75 -66 -185q0 -19 2 -38q-25 -16 -123 -132q-69 -81 -157 -81h-7q-65 14 -94 73q-14 29 -33 121q-16 80 -43 115q2 40 2 86q0 40 -2 120t-2 120q0 170 35 289q-12 31 -12 65q0 35 19 111q17 70 14 111
q17 51 25 165q8 110 28 164h6q82 0 82 -61q0 -18 -15.5 -46t-15.5 -42q0 -10 6 -21q-7 -16 -32 -43q6 -53 6 -96q0 -71 -14 -181q-21 -156 -23 -179l-33 -318q12 -7 12 -18q0 -7 -6 -19.5t-6 -19.5q0 -11 12 -19q-12 -27 -12 -53q0 -53 33 -94q-4 -28 -4 -41q0 -71 57 -193
q3 11 10 11q5 0 15.5 -5.5t17.5 -5.5q19 0 46 40q19 29 38 57q-10 5 -10 78q0 36 10 49q-12 24 -12 59q0 30 11 87.5t11 86.5q27 84 91 248q6 14 58.5 92t115.5 78q19 0 32 -4q33 -111 33 -187zM655 682q0 25 -10 57q-42 -14 -71 -73q-44 -95 -46 -97q9 -7 9 -16
q0 -11 -12 -29q-15 -24 -17 -28q6 -22 6 -39q0 -31 -16.5 -89.5t-16.5 -88.5q0 -17 6 -39q30 25 52 95.5t53 96.5q5 29 37 124q26 76 26 126z" />
    <glyph glyph-name="seven" unicode="7" horiz-adv-x="928" 
d="M905 1133q-7 -67 -13 -134q-11 -86 -40 -122q8 -19 8 -37q0 -25 -17.5 -71t-17.5 -71q0 -8 3 -23.5t3 -23.5q0 -38 -27 -108.5t-27 -112.5q0 -10 1 -20l-10 -11q6 -13 6 -30q0 -22 -13 -59q-14 -40 -16 -58q-11 -110 -17 -135q-16 -78 -56 -121q-63 11 -74 53
q20 44 33 112q11 58 22 115q10 31 29 93q4 15 31 174q40 241 75 366q-4 13 -4 25q0 15 7.5 44t7.5 44q0 28 -21 47q-38 -31 -137.5 -45t-138.5 -51q-18 4 -37 4q-41 0 -119 -31t-123 -31q-20 0 -39 5q-12 -6 -12 -31q17 -8 33 -16q20 -10 20 -27q0 -4 -10 -74
q-8 -12 -18 -12q-9 0 -23 10.5t-22 11.5q-24 15 -38 66q-14 48 -46 61q-5 18 -5 27q0 55 50 65q58 12 59 15q26 -10 51 -10q12 0 119 20q58 11 180 49q116 37 180 47q26 5 82 38q51 32 74 32q35 0 47 -59z" />
    <glyph glyph-name="eight" unicode="8" horiz-adv-x="913" 
d="M858 1026q-59 -48 -84 -106q4 -12 4 -23q0 -14 -19 -36q-24 -28 -28 -36l-106 -223l120 -122q68 -80 68 -150q0 -21 -8 -47q8 -19 8 -33q0 -37 -44 -96q-50 -66 -58 -95q-58 -39 -181 -104q-65 7 -131 15q-78 10 -102 69q5 115 81 259q65 120 130 241q-289 139 -434 286
q-4 24 -4 43q0 201 323 404q115 71 162 71q70 0 135 -65q27 -29 94 -125q42 0 51 -48q14 -68 23 -79zM754 1079q-31 57 -107 160q-91 22 -99 22q-10 0 -18 -1l-12 10q-209 -117 -371 -361q6 -71 93 -115q109 -56 131 -85q35 -6 96.5 -37.5t93.5 -38.5q23 66 100 221
q70 139 93 225zM713 328q0 67 -109 168q-28 -10 -57 -53q-37 -54 -49 -64q-7 -49 -65 -147q-52 -90 -52 -152q0 -25 25 -34q31 -12 38 -28q107 18 183 89q84 77 84 180q0 6 1 20t1 21z" />
    <glyph glyph-name="nine" unicode="9" horiz-adv-x="961" 
d="M874 899q0 -47 -16 -86q10 -29 10 -72q0 -28 -30 -172v-51q0 -36 -13 -55q0 -32 -16 -94t-16 -95q0 -6 1 -18t1 -18q0 -36 -33 -62v-8q0 -15 1 -46t1 -46q0 -53 -23 -80q11 -48 11 -53q0 -43 -41 -43q-48 0 -33 2q-5 10 -25 22.5t-20 20.5q0 9 12 20l-10 10q38 81 56 199
q11 104 22 207q8 76 28 168q2 7 13 37q8 23 8 37q0 20 -21 32h-43q-2 8 -2 23q0 14 7.5 40t7.5 40q0 18 -13 35h-6q-21 0 -31 -26q-13 -30 -26 -38l10 -10q-125 -149 -371 -287q-8 4 -18 4q-11 0 -24.5 -24.5t-61.5 -24.5q-57 0 -129 45q-23 36 -23 74q0 37 60 156
q5 12 16 34q108 166 406 451q52 48 155 145q28 30 86 84q16 13 39 13q70 0 70 -125q0 -62 -12 -88q20 -11 20 -33q0 -9 -5 -26.5t-5 -26.5q0 -20 20 -31q-2 -18 -2 -39q0 -20 4 -60.5t4 -60.5zM776 1237q0 9 -14 33q-47 -6 -96 -67q-53 -68 -84 -81q-12 -16 -162 -172
q-23 -28 -72 -84q-26 -25 -76 -80q-39 -56 -125 -163q-3 -13 -23 -50q-18 -32 -18 -51q0 -22 19 -37q108 9 180 64q201 153 299 269q145 172 168 358q-8 7 -8 18q0 8 6 21.5t6 21.5z" />
    <glyph glyph-name="colon" unicode=":" horiz-adv-x="379" 
d="M300 541q-24 -43 -69 -43q-70 0 -70 72v27q27 10 29 41q0 28 1 55q39 -30 77 -61q32 -33 32 -91zM244 9l-5 2q-8 0 -22 -16v-39q-17 -6 -34 -6q-34 0 -61 31q-22 28 -43 57q70 56 112 56q31 0 53 -29v-56z" />
    <glyph glyph-name="semicolon" unicode=";" horiz-adv-x="352" 
d="M308 418q0 -2 -3 -11q-20 -26 -77 -26q-88 0 -88 45q0 14 13.5 38.5t13.5 38.5q19 40 48 40q33 0 64 -47q29 -43 29 -78zM233 -82q0 -102 -43 -182q-10 -16 -30 -49q-8 -18 -25 -52q-70 -127 -188 -149q-1 21 -34.5 41t-33.5 35t15 30q21 -12 40 -12q36 0 74 56
q44 63 68 73q23 55 47 109q27 65 27 114q0 45 -23 84v23q0 87 12 115q32 -3 49 -38l21 -63q24 -75 24 -135z" />
    <glyph glyph-name="less" unicode="&#x3c;" 
d="M1442 88l-1178 481v82l1178 484v-109l-1022 -416l1022 -413v-109z" />
    <glyph glyph-name="equal" unicode="=" 
d="M1452 748h-1198v98h1198v-98zM1452 375h-1198v98h1198v-98z" />
    <glyph glyph-name="greater" unicode="&#x3e;" 
d="M1442 569l-1178 -481v109l1022 413l-1022 416v109l1178 -484v-82z" />
    <glyph glyph-name="question" unicode="?" horiz-adv-x="813" 
d="M709 1296q0 -60 -29 -151q-60 -29 -88 -131q-29 -107 -92 -146q-170 -103 -170 -223l10 -10q-4 -7 -4 -14q0 -14 18 -38.5t19 -41.5q55 -32 55 -74q0 -12 -2 -23q-24 -30 -51 -30q-8 0 -23 10q-39 28 -53 79t-43 68q-10 41 -10 78q0 87 53 135q4 42 72 107l102 92
q55 58 97 158q33 87 67 174q4 9 4 10q0 10 -14 23q-19 18 -21 20q-12 2 -37 2q-24 0 -72.5 -8t-72.5 -8q-11 0 -31 4q-58 -44 -116 -87q-63 -54 -84 -116q-10 -10 -29 -10q-60 0 -60 74q0 36 25 63q29 31 135 89q76 41 152 81h104q98 0 138 -28q51 -35 51 -128zM528 18
q0 -10 -2 -18q-19 -24 -38 -24q-14 0 -36 10q-27 12 -36 14q-29 58 -29 82q6 3 33 19q22 13 34 13q22 0 48 -36t26 -60z" />
    <glyph glyph-name="at" unicode="@" horiz-adv-x="2048" 
d="M1931 778q0 -172 -61 -309q-63 -140 -182 -233q-67 -52 -150 -82q-79 -29 -160 -29q-98 0 -145 37t-47 114q0 4 2 15v14q-106 -180 -295 -180q-313 0 -313 328q0 215 122 374q133 172 342 172q190 0 254 -163l60 125h94l-139 -562q-1 -4 -13 -63q-4 -22 -4 -29
q0 -92 107 -92q108 0 211 82q205 163 205 487q0 254 -198 417t-509 163q-350 0 -582 -199q-148 -127 -222.5 -289.5t-74.5 -363.5q0 -339 244 -537q215 -174 545 -174q354 0 635 193l39 -55q-293 -222 -654 -222q-190 0 -348 47q-359 107 -504 412q-73 155 -73 361
q0 417 338 696q268 221 659 221q158 0 307 -45q315 -95 445 -350q65 -129 65 -281zM1272 717q-17 87 -71 141q-58 57 -144 57q-172 0 -270 -155q-85 -134 -85 -316q0 -105 50 -167q55 -68 157 -68q106 0 189.5 72t111.5 188z" />
    <glyph glyph-name="A" unicode="A" horiz-adv-x="809" 
d="M766 -74q-1 0 -13 -22q-8 -15 -18 -15q-4 0 -12 5q-63 68 -78 208q-1 23 -6 68q-13 39 -37 117q-49 172 -49 307q-21 18 -37 18q-20 0 -52.5 -32.5t-55.5 -32.5q-15 0 -25 4q-2 -1 -20 -20q-13 -13 -24 -13q-4 0 -9 2q-54 0 -127 -63l-10 10q-37 -38 -37 -105
q0 -15 2 -46.5t2 -47.5q0 -71 -41 -108q2 -8 2 -27q0 -16 -7.5 -46t-7.5 -46q0 -21 13 -41l-1 -1q-12 -11 -34 -11q-5 0 -21 1q-12 1 -20 1l-20 30l86 680q20 21 20 113q0 20 10 57q12 54 37 160q31 109 90 328q16 -4 43 -21q16 20 62 128q40 93 68 107q11 5 26 5
q26 0 48 -35q15 -29 30 -57q28 -49 33 -124q-1 4 -1 -130q0 -89 21 -137l-10 -11l30 -340q2 -16 28 -18.5t26 -19.5v-5q-52 -42 -52 -110q0 -38 21.5 -113.5t19.5 -116.5q37 -80 62 -214q35 -184 45 -220zM522 721q0 25 -20 237q-31 318 -33 486q-34 -17 -55 -71
q-16 -44 -31 -89q-12 -26 -12 -37q0 -22 12 -37q-67 -124 -114 -328l-76 -341q135 40 243 149l10 -10q10 10 47 18q29 6 29 23z" />
    <glyph glyph-name="B" unicode="B" horiz-adv-x="748" 
d="M684 594q0 -100 -44 -223q-7 -20 -87 -211q-29 -20 -108 -102q-53 -56 -136 -78q-17 -5 -47 -39q-26 -31 -49 -31q-13 0 -29 8q-22 13 -26 14l-68 20q-39 16 -47 48q10 12 25 12q9 0 26.5 -6t26.5 -6q19 0 29 20q-15 67 -15 146q0 29 4 78q-12 27 -12 59q0 20 6 58.5
t6 58.5q0 62 -33 344q-10 90 -8 282q1 185 -12 281q8 31 41 31q13 0 23 -10q-2 -12 10 -21q30 16 74 85q40 61 85 73q64 78 148 86l80 -34q48 -27 49 -62q0 -4 -1 -11.5t-1 -11.5q0 -129 2 -71q-2 -44 -23 -64q2 -13 2 -17q0 -34 -30 -88q-33 -57 -35 -88q-25 -28 -50 -88
q-28 -67 -46 -92q43 -36 116 -31q31 -27 68 -82q45 -69 61 -88q25 -72 25 -149zM510 1444l-31 41q-139 -26 -266 -201q-16 -23 -16 -41q0 -21 20.5 -56t20.5 -52q0 -15 -19.5 -37t-19.5 -56q0 -9 2 -27.5t2 -27.5q0 -8 -5 -36t-5 -44q0 -59 20 -143q24 61 95.5 166.5
t94.5 163.5l72 170q35 97 35 180zM596 520q-9 22 -28 165q-13 97 -79 142q-17 13 -32 13q-21 0 -50 -22q-41 -32 -45 -34q-8 -49 -57 -81q-4 -3 -92 -46l20 -403q1 -1 2 -4t1 -4q0 -7 -6.5 -20t-6.5 -19q0 -10 10 -17q-10 -18 -10 -96v-20q10 12 21 12t28 -17q24 -25 25 -26
q53 19 149 127q30 33 59 92q47 96 48 98q17 30 24 84t19 76z" />
    <glyph glyph-name="C" unicode="C" horiz-adv-x="684" 
d="M805 391q0 -101 -90 -201q-50 -54 -81 -80q-55 -45 -99 -47q-39 -40 -116 -50q-64 -6 -128 -13q-145 44 -198 158q-40 86 -40 258q0 244 121 655q61 207 148 297q32 -11 43 -41q-3 -23 -3 -35q0 -94 35 -178l-12 -20q0 -48 11.5 -143.5t11.5 -143.5q0 -76 -23 -139
l12 -11q-8 -4 -10 -16q-2 -8 -12 -4q-7 -2 -17 -2q-44 0 -57 45q12 18 12 39q0 13 -6 39.5t-6 40.5q0 22 10 39q-4 15 -4 39q0 18 3 54t3 54q0 90 -32 129q-41 -57 -71 -172q-34 -131 -58 -178q0 -181 -31 -266q8 -93 15 -186q15 -108 58 -161q55 -69 168 -69q157 0 328 207
q21 23 58 71q3 6 10 47q5 31 22 31q9 0 21 -4q4 -19 4 -43z" />
    <glyph glyph-name="D" unicode="D" horiz-adv-x="842" 
d="M799 936q0 -55 -23 -109q4 -26 4 -41q0 -88 -45 -139q-13 -49 -44 -118q-26 -58 -52 -115q-28 -26 -59 -103q-27 -70 -68 -98q-49 -108 -157 -174q-101 -62 -226 -72q-53 18 -53 56q0 21 15 60t15 60t-8 37q8 4 8 10q0 4 -5.5 12t-6.5 13q39 82 39 475q0 -26 -14 520
q9 0 18.5 6.5t14.5 6.5q4 0 10 -2q42 -90 50 -246q7 -127 13 -254q-14 -17 -14 -49q0 -13 2 -38t2 -38q0 -39 -22 -55q12 -24 12 -62v-145q0 -34 -23 -58q23 -29 23 -65q0 -25 -14.5 -72t-14.5 -71q0 -21 6 -37q81 15 153 86q23 23 114 137q19 20 53 63q16 37 49 109
q154 328 154 502q0 171 -109 293l-86 60q-53 38 -94 38q-25 0 -54 -14q-17 -1 -47.5 10.5t-46.5 11.5q-31 0 -43 -33q-17 4 -26 4q-44 0 -111 -57q2 -7 2 -12q0 -16 -35 -29q-13 2 -28 17q-13 12 -25 24v33q22 8 156 83q80 44 180 44q235 0 348 -164q2 -3 37 -70
q9 -14 27 -43q49 -91 49 -188z" />
    <glyph glyph-name="E" unicode="E" horiz-adv-x="723" 
d="M680 1507q-60 -81 -251 -169q-183 -85 -236 -171q-3 -3 -3 -10t6.5 -18.5t6.5 -18.5q0 -10 -10 -16q-3 -10 -3 -14q0 -37 28 -105t28 -104q0 -28 -17.5 -60.5t-17.5 -34.5q0 -10 22 -32q54 31 109 62q66 34 117 34q6 0 20 -2l21 -21q-36 -33 -131.5 -82.5t-132.5 -82.5
q-60 -57 -60 -138q0 -23 4 -47q-9 -41 -11 -116q-3 -82 -9 -117q6 -10 25 -118q13 -77 69 -77q15 0 33 4q6 5 165 115q100 69 154 129h8q31 0 45 -21q-36 -30 -113 -123t-124 -130q-74 -60 -150 -60q-30 0 -49 4q-7 -10 -16 -10q-8 0 -21.5 17t-25.5 16q-74 80 -74 260v174
q0 26 16.5 75.5t16.5 75.5q0 7 -2 19q-21 7 -43 15q-26 10 -31 28q5 28 34 41q38 17 49 32q26 34 26 115q0 44 -14.5 129.5t-14.5 128.5q0 34 6 64q-12 17 -12 35q0 21 18 52q21 36 25 50q112 51 334 160q8 4 83 54q68 44 72 44t31 -35z" />
    <glyph glyph-name="F" unicode="F" horiz-adv-x="680" 
d="M678 1391q-153 -10 -234 -86q-10 4 -18 4q-19 0 -56.5 -17.5t-62.5 -17.5q-3 0 -28 -6q-80 -20 -99 -68v-344q0 -158 10 -262q31 11 178 99q102 61 193 61q-6 -41 -49 -64q-39 -16 -78 -33q-35 -51 -129 -94.5t-125 -85.5q2 -10 2 -31t-9 -63t-9 -64q0 -15 6 -32
q-12 -41 -12 -80q0 -36 10.5 -105t11.5 -102q-13 -25 -33 -25q-8 0 -43 15q-20 105 -20 254q0 68 6 205.5t6 205.5q0 98 -4 140q-8 82 -8 61v4l20 307q-11 15 -10.5 49t-9.5 48q27 40 87 50q52 6 103 13q20 6 137 48q83 30 140 36q15 25 74 64q18 -26 53 -21v-63z" />
    <glyph glyph-name="G" unicode="G" horiz-adv-x="934" 
d="M850 434q-4 -44 -42 -139q-34 -88 -34 -141q0 -32 1 -94t1 -93q-46 -22 -51 -22q-6 0 -12 2q-21 24 -21 92q0 41 -22 67q-44 -37 -88 -75q-57 -41 -105 -41q-27 0 -51 10q-4 -10 -33 -10l-10 10q-14 -10 -29 -10q-19 0 -43 18q-38 29 -39 29q-5 2 -16 6q-104 49 -155 200
q-34 127 -68 255q100 577 467 1040q3 -2 10 -2t16.5 8t16.5 8q6 0 10 -2q29 -35 39 -107l14 -116q4 -19 27 -62q20 -40 20 -59q0 -23 -26 -39q12 -17 12 -43q0 -24 -12 -41q-78 9 -78 105q0 20 3 59.5t3 59.5q0 47 -12 73v4q0 34 -23 50q-164 -191 -321 -584
q-27 -60 -70 -182q-8 -30 -8 -129q0 -256 133 -398q43 -45 65 -57q32 -16 103 -16q64 0 131 28q41 39 81 79q48 47 68 89q2 75 31 228q29 150 29 229q0 35 -8 86q-141 -45 -322 -227q-25 -29 -80 -82q-4 -1 -10 -2q-11 0 -33 24q5 57 71 109q84 68 99 92q193 142 328 160
q43 -55 43 -129q0 -49 -21.5 -142.5t-21.5 -142.5q0 -35 12 -43z" />
    <glyph glyph-name="H" unicode="H" horiz-adv-x="829" 
d="M725 1071q0 -11 -2 -32.5t-2 -30.5v-74q-21 -23 -21 -55q0 -14 4.5 -40.5t4.5 -39.5q0 -33 -21 -56q6 -23 6 -53q0 -24 -6 -63q-9 -50 -10 -64v-131q0 -91 -10 -135l-11 -10l11 -11l-43 -276q10 -4 10 -12q0 -5 -5.5 -14.5t-4.5 -16.5h-4q-60 0 -60 96q0 68 18.5 202
t18.5 202q0 29 -6 73q12 23 12 54q0 30 -12 53q-27 -13 -74 -53l-10 10q-18 -1 -33.5 -27t-40.5 -26q-74 0 -106 -31h-9q-72 0 -118 -33q2 -19 2 -61q0 -47 -8.5 -139.5t-8.5 -139.5q0 -132 35 -170q26 20 30 52q1 3 1 61q0 45 33 67q12 -45 12 -94q0 -51 -12 -96
q-18 -11 -40 -60q-18 -36 -61 -36h-6q-63 75 -69 280q-1 10 -3 36q-2 23 -2 36q0 15 4 40q4 30 5 40q4 60 4 160q0 45 -2 136.5t-2 137.5q0 17 9 41q13 31 15 39l-12 10q0 64 17.5 192t17.5 193q0 16 -7.5 44.5t-7.5 43.5q0 23 8.5 68.5t8.5 68.5q0 16 -4 37q12 16 43 33
q23 -31 21 -112t20 -111q-11 -28 -11 -68q0 -14 2.5 -43.5t2.5 -44.5q0 -52 -25 -88q10 -27 10 -72q0 -29 -7 -86.5t-7 -87.5q0 -18 4 -41q-12 -20 -12 -43q0 -14 6 -42.5t6 -43.5q0 -24 -10 -41h12q91 0 198 49q54 24 181 99q0 50 28.5 145.5t28.5 145.5q0 41 -14 82l10 10
q-10 65 -10 137q0 143 43 266q19 -27 27 -78q11 -67 16 -81q-12 -46 -12 -86q0 -32 8 -95.5t8 -95.5z" />
    <glyph glyph-name="I" unicode="I" horiz-adv-x="379" 
d="M274 893q0 -20 -10 -58t-10 -59q0 -80 -33 -129q-1 -55 -11 -172q-9 -112 -9 -172q0 -72 10 -123l-10 -10q12 -9 12 -23q0 -8 -6 -23t-6 -24q0 -17 20 -26q2 -7 2 -15q0 -11 -22 -59q-10 -4 -21 -4q-41 0 -65 57q-11 25 -11 78q0 27 6.5 81t6.5 81q0 40 -13 78
q6 73 40 293q28 183 28 294q0 28 -7 83t-7 83v6q0 16 6 44t6 43q0 17 -12 34q1 5 0 56q-1 38 22 51q50 -19 60 -90q2 -12 2 -117q0 -2 2 -27q22 -30 22 -88q0 -45 -12 -92q20 -20 20 -51z" />
    <glyph glyph-name="J" unicode="J" horiz-adv-x="709" 
d="M911 1360q0 -7 -24 -33q-10 2 -13 2q-32 0 -74 -44q-44 -47 -73 -52q-45 -57 -104 -76q-13 8 -13 43v10l76 64q-10 4 -20 4q-16 0 -44.5 -9t-43.5 -9q-11 0 -21 4q-14 -18 -62 -28t-65 -26q-62 -7 -175 -58t-175 -58q-5 26 -41.5 30t-36.5 23q0 9 4 20q10 -2 29 -2
q41 0 112 39.5t113 38.5q63 39 197 70q20 4 59 14q28 11 86 31q70 20 264 55l43 -43q2 -5 2 -10zM569 809q0 -28 -12 -55q4 -51 4 -68q0 -197 -67 -367q14 -11 14 -22t-21 -30t-24 -34q-36 -159 -117 -253q-8 10 -20 10q-10 0 -27.5 -10.5t-26.5 -10.5q-8 0 -34 8
q-88 28 -179 129q-43 111 -43 162q0 56 33 94q6 32 53 31q9 -10 9 -20q0 -14 -20.5 -41.5t-20.5 -50.5q0 9 20 -54q14 -43 28 -87q20 -50 54 -70q11 -7 47 -17q30 -8 39 -8q37 0 64 44q23 35 45 71q106 254 106 608q0 122 -10 248t-10 121q0 1 10 43q45 -13 94 -86l-20 -21
q12 -16 12 -33q0 -6 -2 -19t-2 -20q0 -21 12 -34q-2 -11 -2 -35q0 -21 7 -61.5t7 -61.5z" />
    <glyph glyph-name="K" unicode="K" horiz-adv-x="748" 
d="M807 86q-38 -37 -49 -37q-7 0 -15 4q-76 41 -101 128q-21 81 -42 161q-4 10 -39 61q-14 29 -43 86q-101 198 -242 201q-16 20 -16 39q0 25 55 60q59 38 66 71q79 87 159 258q101 214 138 273q1 -1 8 0q31 0 35 -11q-27 -38 -58 -126.5t-59 -127.5q-34 -175 -211 -350
q-2 -10 -2 -12q0 -30 37 -46q54 -22 59 -28q9 -8 45 -57q136 -183 158 -346q29 -29 60 -101t57 -100zM233 233q-14 -18 -14 -43q0 -11 3 -32.5t3 -32.5q0 -27 -14 -49q12 -36 12 -68q0 -77 -43 -114l-63 12q10 37 10 157v33q-4 9 -4 17q0 13 7 37.5t7 37.5q0 21 -10 35
l10 23q2 42 2 35q0 68 -17.5 204t-17.5 205q0 36 6.5 84t6.5 43q0 6 -15 139q-18 173 -18 271q0 143 33 250q4 1 26 13q15 9 27 9q4 0 10 -2q4 -8 4 -16q0 -9 -19.5 -31.5t-19.5 -60.5q0 -22 7.5 -65t7.5 -64q0 -27 -13 -50q15 -91 29 -183q17 -109 17 -185q0 -29 -3 -56
l11 -10q-8 -12 -8 -33q0 -11 4 -34t4 -35q0 -23 -11 -37q11 -31 11 -143v-15q18 -36 18 -82q0 -13 -2 -40.5t-2 -41.5q0 -46 18 -82z" />
    <glyph glyph-name="L" unicode="L" horiz-adv-x="702" 
d="M926 242q0 -29 -35 -39q-42 -12 -166 -33q-105 -17 -164 -41q-70 -29 -254 -137q-38 -26 -117 -66q-12 -4 -24 -4q-37 0 -72 68q23 82 23 192q0 50 -5.5 149t-5.5 148v434q0 33 -11 97.5t-11 97.5q0 64 33 102q43 -4 73 -43q5 -15 5 -26q0 -17 -7.5 -50.5t-7.5 -50.5
q0 -25 10 -43q-14 -16 -14 -36q0 -19 12.5 -53t12.5 -52q0 -29 -21 -49q23 -21 23 -51q0 -15 -7.5 -43.5t-7.5 -42.5q0 -24 13 -43q-23 -19 -23 -64q0 -82 2 -74q33 -73 33 -208q0 -30 -2 -89.5t-2 -89.5q0 -33 2 -59q35 17 104 53q15 12 45 33q28 10 82 29q106 37 162 75
q40 5 138 32q87 24 139 24q16 0 32 -2q13 -24 13 -45z" />
    <glyph glyph-name="M" unicode="M" horiz-adv-x="1108" 
d="M1044 63q0 -43 -53 -43q-21 0 -65 13l10 30q-53 418 -53 957l-11 10q-2 13 -2 17q0 10 2 32t2 33q0 58 -22 78q0 -44 -43.5 -108t-42.5 -105q-33 -34 -70 -129q-35 -88 -78 -125q7 -14 7 -35q0 -33 -36 -84q-40 -58 -46 -84q-25 -9 -65 -57q-36 -43 -62 -43q-19 0 -43 16
q-35 56 -53 168q-21 125 -41 172q12 11 12 29q0 25 -23 45q-43 -82 -43 -295q0 -38 11 -55q-24 -68 -43 -174q-16 -88 -31 -176q12 -17 12 -39q0 -23 -19 -71q-19 -44 -16 -71l-1 -1q-12 -11 -34 -11q-5 0 -18 1.5t-20 0.5q-3 83 -3 131q0 153 11.5 459.5t11.5 460.5
q0 90 12 170h8q30 0 46 -23q-11 -9 -11 -16q0 -6 12.5 -24.5t12.5 -39.5q0 -14 -7 -42.5t-7 -43.5q0 -26 20 -45q-22 -17 -22 -45q0 -2 2 -8l20 -23q20 39 42 146q19 96 54 141q39 -15 45 -18q24 -13 29 -35q-10 -11 -10 -25q0 -9 5 -26.5t5 -26.5q0 -17 -10 -29
q29 -48 37 -158.5t37 -158.5q-3 -14 -3 -18q0 -48 33 -89q178 224 223 394q33 32 63 104q34 81 54 109q27 94 76 127h4q55 0 76 -60q34 -97 37 -100v-8q0 -16 -9.5 -46.5t-9.5 -45.5q0 -29 29 -50q-4 -13 -4 -20q0 -12 5 -35t5 -35q0 -24 -16 -37q-4 -6 -4 -10q0 -9 13 -20
t13 -17q0 -9 -12 -16q10 -6 10 -14q0 -7 -10 -19t-10 -20q0 -49 10 -146.5t10 -146.5q0 -69 -10 -111q35 -35 35 -100q0 -21 -7.5 -61t-7.5 -60q0 -12 22.5 -31.5t22.5 -34.5z" />
    <glyph glyph-name="N" unicode="N" horiz-adv-x="874" 
d="M913 1444q0 -42 -32 -120t-32 -124q0 -10 1 -20q-22 -105 -66 -314q-13 -64 -26 -102q-6 -14 -15 -41q-1 -17 -4 -50t-16 -114q-22 -112 -64 -336q-28 -5 -37 -53q-11 -59 -26 -74l10 -10q-18 -33 -55 -33q-31 0 -68 72q-51 99 -87.5 315t-86.5 314q-19 194 -139 276
q-10 -28 -10 -67q0 -26 7 -75.5t7 -74.5q0 -17 -4 -37q12 -40 12 -86q0 -29 -6 -86t-6 -86q0 -47 10 -82v-10q0 -8 1 -23.5t1 -23.5q0 -27 -15 -66t-15 -53t8 -27l-10 -210q-13 -13 -35 -13q-5 0 -20 2q-12 1 -19 0l-33 31q3 120 26 425q19 269 19 425q0 139 -12 264
q17 12 35 12q21 0 52 -18q36 -21 50 -25q75 -60 130 -171q41 -101 83 -201q-2 -14 -2 -17q0 -50 33 -90q15 -104 63 -307q-20 -15 -20 -35q0 -17 19 -46q21 -32 24 -46q34 31 53 96q18 62 32 164q19 132 25 166q16 78 35 135q10 22 25 66q2 24 8 73q6 46 24 131
q23 94 45 187q27 120 27 184q0 41 23 72h16q57 0 57 -43z" />
    <glyph glyph-name="O" unicode="O" horiz-adv-x="610" 
d="M547 948q0 -22 -3 -134q-2 -82 1 -134q-23 -23 -23 -113q0 -34 -23.5 -92t-23.5 -84q0 -14 6 -29q-22 -15 -22 -86q0 -32 -30 -72q-25 -32 -50 -65q-97 -150 -110 -167q-74 -92 -160 -109q-29 15 -57 31.5t-38 52.5q-12 48 -12 112q0 53 31 252q3 35 12 103q9 41 25 125
q13 101 53 301q13 38 39 116q8 26 15 148q5 91 48 139q0 4 1 11.5t1 11.5q0 18 -12 18q-14 0 -20 -10q-13 5 -13 18q0 4 2 13q1 7 0 12q49 63 133 63q129 0 175 -116q-5 -9 -5 -17q0 -11 15 -27q17 -19 20 -30q25 -89 25 -242zM469 965q0 84 -29 182q-34 114 -86 160h-10
q-26 0 -43 -23q-2 -17 -28 -141q-18 -88 -18 -143q0 -23 3 -44q-30 -37 -39 -107q-13 -111 -14 -116l-21 -20l11 -13q-36 -86 -55 -247q-21 -181 -42 -250l11 -10q-11 -23 -11 -52q0 -10 2 -31.5t2 -31.5q0 -31 -14 -55q7 -7 12 -34q3 -22 17 -22q7 0 14 2q231 216 307 590
q21 100 21 131q0 9 -1 27.5t-1 27.5q0 37 6 110t6 110z" />
    <glyph glyph-name="P" unicode="P" horiz-adv-x="836" 
d="M834 948q0 -24 -12 -65q-12 -45 -13 -66q-1 -1 -22 -13q-13 -9 -13 -18q0 -5 2 -10q-91 -67 -117 -129h-10q-17 0 -22 12q-17 -44 -88 -64q-75 -20 -93 -52q-65 -15 -106 -15q-63 0 -104 25v20q255 7 432 226q38 47 55 82q25 49 25 147q0 139 -86 279q-98 157 -228 157
q-65 0 -209 -73q-4 -30 -22 -31q-18 -29 -20 -94q0 -49 -1 -99l11 -10v-180l10 -10q-23 -26 -23 -35q1 -3 2 -8l11 -11q-11 -5 -11 -34v-9q23 -26 23 -75q0 -14 -6 -41.5t-6 -40.5q0 -20 10 -58.5t10 -58.5q0 -32 -20 -53q20 -199 20 -246q0 -26 4 -78.5t4 -79.5
q0 -172 -39 -309q-12 -10 -37 -10q-24 0 -36 10q-13 38 -13 72q0 46 23 67l-10 11q8 61 8 157q0 70 -10.5 210t-10.5 210q0 79 10 150q13 84 13 69q0 40 -13 106q-17 85 -20 105q10 34 10 137q0 44 13 86l-23 74q-11 -8 -11 -31.5t-9 -31.5q-8 -2 -15 -2q-14 0 -28 34
q52 128 174 213q15 12 49 31q70 31 205 31q70 0 112 -22l96 -62q90 -141 118 -197q57 -117 57 -219q0 -21 -5 -51q5 -12 5 -29z" />
    <glyph glyph-name="Q" unicode="Q" horiz-adv-x="729" 
d="M727 -147q-28 -33 -55 -33q-17 0 -29 10l-48 104q-29 63 -58 99l-16 66q-10 38 -27 61q-18 -13 -128 -139q-75 -87 -157 -87q-106 0 -162 114q-45 90 -45 208q0 92 30 217q28 107 56 213q11 47 25 143q9 65 94 275q15 53 30 105q19 57 66 87q-2 7 -2 13q0 16 26.5 23
t26.5 18q0 9 -8 20q13 -10 31 -10q23 0 54 31q38 36 52 43q82 -14 128 -113q16 -36 53 -174q-11 -17 -11 -39q0 -18 11 -50t12 -48l-12 -13q14 -148 14 -209q0 -107 -25 -204l11 -11q-36 -75 -84 -233q-21 -9 -21 -64q0 -18 -12 -30q36 -44 74 -149.5t75 -149.5
q-2 -8 -2 -13q0 -15 16.5 -40.5t16.5 -40.5zM610 817l-10 12q8 25 8 52q0 20 -5 61t-5 62q0 4 1 13t1 13q0 11 -8 57q-32 183 -98 283q-45 -27 -85 -86q-31 -52 -63 -104q-44 -27 -67 -95q-6 -17 -27 -116q-3 -16 -12 -45q-3 -6 -20 -24q-13 -14 -13 -28q0 -10 12 -22
l-63 -223q4 -10 4 -23q0 -15 -15.5 -42t-15.5 -46q0 -14 4 -27q-23 -18 -26 -46q2 15 2 -54q0 -29 -19 -49q12 -38 12 -147q0 -115 54 -160q5 2 16 2q8 0 24.5 -4t24.5 -4q18 0 29 26q64 13 113 92q39 66 77 131q-3 27 -5 53q-6 29 -25 44q-5 15 -32 52q-24 33 -24 54
q0 22 23 41q11 2 14 2q14 0 72 -43q12 -9 18 -41q4 -24 31 -24h4q61 142 94 403z" />
    <glyph glyph-name="R" unicode="R" horiz-adv-x="754" 
d="M956 53q-12 -4 -21 -24.5t-17 -20.5q-6 0 -25 15q-34 18 -69 37q-41 23 -48 57q-46 44 -188 151q-22 18 -66 51q-137 96 -350 160q-22 -53 -22 -139q6 -7 6 -14q0 -11 -8.5 -29t-8.5 -29q0 -13 11 -22q-37 -57 -43 -146q2 21 2 -155q0 -64 -13 -115q-14 -10 -41 -10
q-28 0 -43 10q-10 25 -10 53q0 20 6 58t6 57q0 10 -3 29.5t-3 29.5q0 40 21 105q23 74 26 104q21 170 21 191q0 43 -10 73q28 314 28 420q0 124 -18 230q-4 23 -4 30q0 73 78 127q69 38 139 76q10 -12 20 -12q11 0 28.5 16.5t35.5 16.5q13 0 38.5 4t39.5 4q96 0 180 -51.5
t125 -137.5v-106q0 -24 -33.5 -69.5t-33.5 -77.5q0 -6 1 -13q-39 -30 -169 -177q-100 -113 -191 -151q-66 -27 -71 -30q-34 -22 -36 -66q12 -7 145 -63q87 -37 132 -86q9 2 12 2q27 0 67.5 -33.5t66.5 -33.5q7 0 13 1q38 -60 148.5 -148t148.5 -149zM649 1243
q-51 96 -178 96q-107 0 -172 -22q-110 -38 -117 -244q21 -51 21 -125q0 -36 -7.5 -109t-7.5 -110q0 -27 5 -59q193 108 253 170q16 15 58 69q143 185 145 334z" />
    <glyph glyph-name="S" unicode="S" horiz-adv-x="838" 
d="M795 434q0 -68 -25 -137q-38 -4 -40 -51q-3 -54 -23 -66q-5 -14 -33 -43q-22 -24 -21 -53q-30 -61 -116 -90q-113 -39 -138 -57h-137q-38 4 -77 9q-49 8 -52 44q3 4 14 47q7 26 35 26h4q3 -13 19 -28q24 -24 24 -25q30 -4 54 -4q100 0 243 68q183 236 183 385
q0 127 -101 127q-11 0 -33.5 -2t-33.5 -2q-21 0 -58 12q-42 14 -123 14q-26 0 -67 -4q-27 19 -117 42q-75 18 -106 65q-7 38 -7 84q0 125 66 271q21 48 133 249q15 11 75 102q50 74 85 74t78 -67q41 -63 41 -101q0 -37 -25 -82q-4 -2 -8 -2q-9 0 -35 25q12 16 12 34
q0 19 -32 93q-44 22 -43 22q-4 0 -11 -2q-45 -51 -98 -156q-61 -118 -92 -161q0 -34 -28 -82q-31 -53 -36 -78q-18 -18 -18 -43q0 -10 3 -30.5t3 -31.5q0 -28 -20 -45q36 -57 132 -78q141 -32 154 -38q42 4 58 4q143 0 282 -58q56 -68 56 -180z" />
    <glyph glyph-name="T" unicode="T" horiz-adv-x="778" 
d="M817 1489q0 -20 -12 -35q-36 0 -48 -27q-17 -39 -28 -47q-31 -20 -92 -63q-62 -51 -195 -139q25 -21 25 -41q0 -14 -12 -43q22 -50 21 -143q-1 -104 9 -144q-21 -56 -21 -175t-22 -175l13 -11q-9 -75 -43 -223q10 -4 10 -12q0 -5 -5 -14.5t-5 -16.5q0 -17 10 -50.5
t10 -51.5q0 -55 -43 -55q-12 0 -32 12q-26 16 -31 18v312q0 35 18 104t18 104q0 24 -4 41q23 47 26 127q3 107 7 129q-12 32 -11 100.5t-11 100.5q12 7 12 25q0 44 -2 28q-9 13 -19 13q-8 0 -23.5 -13.5t-31.5 -9.5q-8 -5 -84 -70q-51 -43 -96 -47q-10 -34 -66 -67
q-59 -34 -71 -60q-8 2 -19 2q-25 0 -55.5 -34.5t-54.5 -34.5q-9 0 -21 4q10 42 66 90q71 62 84 80q40 21 166 149q101 102 184 105q90 53 268 164q60 39 88 61q11 10 35 29q6 4 40 8q26 4 36 25q12 -11 12 -29z" />
    <glyph glyph-name="U" unicode="U" horiz-adv-x="881" 
d="M797 1161q0 -17 -13.5 -50t-13.5 -52q0 -5 3 -14.5t3 -14.5v-362q-22 -9 -22 -21q0 -8 12 -22t12 -23q0 -10 -14 -18q12 -38 12 -160v-31q-10 -8 -10 -47q0 -19 -12 -29q12 -7 12 -16q0 -6 -7 -18t-7 -19q0 -28 13 -89q11 -45 21 -91q-8 -2 -32 -13q-20 -10 -31 -10
q-17 0 -33 13q-22 73 -22 182q0 14 4 132q3 81 -2 132q10 18 10 45q0 15 -5 45t-5 45q0 27 10 45l-10 11q-35 -44 -74.5 -148.5t-75.5 -148.5q-6 -43 -54 -115.5t-52 -118.5q-50 -49 -148 -149q-136 10 -160 116q-43 198 -43 463q0 136 11 275q6 44 12 133v117q35 12 53 12
q47 -55 47 -154q0 -89 -36 -155v-203q0 -103 10 -178q-10 -12 -10 -64v-12l10 -10q-10 -9 -10 -21q0 -7 5 -21t5 -22q0 -12 -10 -20q19 -56 73 -160q56 7 96 73q48 81 74 97q163 292 242 575q11 49 35 146q7 25 18 76q5 65 35 190h4q44 0 70 -33v-10q0 -37 -11 -43
q11 -17 11 -37z" />
    <glyph glyph-name="V" unicode="V" horiz-adv-x="893" 
d="M891 1188q-107 -91 -107 -217q0 -5 1 -13.5t1 -13.5q0 -22 -22.5 -57.5t-22.5 -55.5q0 -16 13 -34q-21 -10 -30 -41q-11 -35 -24 -45l21 -21q-21 -24 -41.5 -84.5t-42.5 -85.5v-31q0 -16 -10 -22v-47q0 -40 -23 -70q-8 -51 -44 -134q-40 -94 -50 -132v-2q0 -21 -17.5 -50
t-17.5 -44q0 -16 12 -31q-7 -11 -26 -23q-5 2 -15 13q-5 -10 -18 -10q-11 0 -35 10q-75 131 -157 469q-9 35 -27 106q-7 20 -19 62q-1 19 -4 57q-11 113 -50 261q-36 127 -73 255q10 10 54 10h10q21 -16 31 -56q10 -45 22 -60l74 -246q43 -153 43 -248q0 -60 33 -80
q15 -92 30 -185q19 -105 64 -175q21 23 41.5 84.5t44.5 85.5q28 72 54 188q39 179 42 191q20 77 39 122q9 16 23 50q2 14 7.5 42t24.5 99q29 95 84 285l66 30q31 -10 31 -67q0 -28 10 -39z" />
    <glyph glyph-name="W" unicode="W" horiz-adv-x="1223" 
d="M1221 1178q1 -31 -29.5 -79t-30.5 -77q0 -19 6 -35q-22 -8 -21 -40q2 -37 -9 -46q-29 -64 -56 -190q-29 -134 -51 -191q0 -26 -18.5 -67t-18.5 -64q0 -16 4 -29q-26 -27 -42 -79q-26 -84 -27 -86q-3 -8 -28 -46q-17 -25 -17 -49q0 -7 1 -22t1 -23q0 -55 -47 -55
q-14 0 -39 12q-62 30 -96 135q-42 130 -66 160q-15 65 -31 130q-18 78 -43 126q-5 2 -16 2q-15 0 -32 -17q-26 -27 -28 -28q7 -12 7 -20q0 -15 -18.5 -36.5t-18.5 -39.5q0 18 -15 -62q-22 -125 -24 -131q-20 -72 -68 -114q4 -10 4 -23q0 -19 -11 -52q-12 -36 -13 -52
q-16 -4 -25 -4q-32 0 -49 31q-1 3 -20 59q-5 10 -13 30q-58 147 -84 388q-39 377 -43 397q-21 36 -21 114q1 86 -12 119q10 23 35 23q11 0 29 -12q29 -21 33 -47q0 4 0 -58q0 -27 10 -43l-10 -10q12 -11 12 -27q0 -7 -4 -20.5t-4 -20.5q0 -19 26 -28q-12 -18 -12 -39
t18.5 -56.5t18.5 -56.5q0 -18 -14 -39q30 -49 30 -196q0 -77 45 -144q11 -15 11 -76q0 -37 20 -51q18 20 28 56q15 59 15 61q13 31 37 92q55 149 60 162q38 90 83 149q83 -12 86 -63q-6 -11 -6 -21q0 -15 25 -51q28 -41 33 -57t16 -47q13 -52 49 -154l-12 -10
q20 -29 42.5 -96t43.5 -97q101 201 178 484q15 59 45 176q12 39 35 117q34 126 59 297q17 22 33 22q15 0 36 -26q14 -20 28 -39z" />
    <glyph glyph-name="X" unicode="X" horiz-adv-x="778" 
d="M735 74q-17 -13 -43 -13q-27 0 -51 13q-39 59 -114 214q-67 139 -119 210q-36 -45 -67 -117q-26 -63 -52 -125l-51 -96q-42 -79 -33 -203q-17 -11 -53 -31q-52 16 -52 51q0 21 16.5 60.5t16.5 60.5q0 10 -2 19q76 179 244 530q-51 173 -242 440q-90 127 -90 134
q0 4 35 30q63 -21 120 -111q67 -106 103 -132q0 -34 26 -59q31 -30 38 -48q15 -17 27 -71q10 -48 36 -66q49 87 115 248q74 183 108 252q13 12 27 12q37 0 37 -64v-2q-40 -23 -64 -129l11 -10q-46 -40 -46 -77q0 -8 2 -17q-11 0 -30 -23q-1 -56 -40 -134q-48 -98 -56 -130
q-21 -13 -21 -37q0 -14 10 -40t11 -40q16 -33 33 -67q18 -40 20 -72q40 -66 97 -179q70 -139 93 -181z" />
    <glyph glyph-name="Y" unicode="Y" horiz-adv-x="737" 
d="M776 1552q0 -39 -32 -89q-48 -75 -52 -83.5t-96 -244.5q10 -11 10 -23q0 -11 -9 -30.5t-9 -30.5q0 -13 8 -21q-31 -19 -31 -55q0 -13 5 -39t5 -39q0 -24 -22 -49q-57 -63 -74 -234q-4 -6 -4 -16q0 -11 8.5 -31t8.5 -30q0 -17 -31 -17t-35 10q-23 -37 -23 -100
q0 -65 23 -102q-20 -16 -22 -48q2 29 2 -55q0 -52 -33 -78q12 -10 12 -28q0 -5 -1.5 -17t-0.5 -18l-10 -10l2 -23q0 -14 -2 -42t-2 -42q0 -10 3 -29.5t3 -29.5q0 -46 -45 -58q-17 8 -33 16q-20 11 -20 28q0 26 20 137v61q0 25 10 68q2 6 21 135q13 93 43 278
q-111 305 -223 508q-13 23 -64 38q-43 12 -43 44q0 4 2 15q19 20 45 20q20 0 52 -13q36 -15 51 -18q31 -39 75 -126q45 -90 74 -128q-2 -15 -2 -14q0 -38 30 -81q39 -56 46 -75q42 91 134 435q74 272 185 413q8 0 41 -30v-9z" />
    <glyph glyph-name="Z" unicode="Z" horiz-adv-x="926" 
d="M1149 303q0 -28 -12 -53q-18 -10 -47 -10q-19 0 -55.5 5t-55.5 5q-31 0 -53 -10q-12 2 -21 2q-25 0 -65 -9q-53 -12 -64 -14q-16 6 -33 6q-23 0 -63 -17.5t-62 -17.5q-19 0 -32 7q-33 -18 -165 -64q-102 -36 -155 -84h-6q-8 0 -24.5 -1t-24.5 -1q-78 0 -78 59
q0 19 26.5 80.5t88.5 180.5q54 89 167 239q123 164 171 238q36 44 73 88q42 52 43 104q-15 13 -34 13q-20 0 -57.5 -14.5t-57.5 -14.5q-15 0 -31 6q-11 -23 -63 -22q-49 -59 -168 -97q-127 -42 -172 -84q-13 -4 -23 -4q-47 0 -73 58q14 35 75 53q92 29 95 31l124 68
q73 39 132 54q34 5 104 17q3 0 45 18q97 41 145 41q61 0 97 -49l-43 -53q4 -12 4 -21q0 -21 -15 -58q-17 -43 -20 -58q-41 -11 -53 -76q-2 -3 -87 -99q-53 -61 -63 -112h-2q-34 0 -48.5 -50t-53.5 -46q1 -35 -59 -90t-60 -95q0 -8 2 -16q-28 -20 -57 -67q-37 -58 -49 -72v-9
q0 -17 10 -22q82 16 235 80q31 14 94 37q27 5 80 16q201 43 285 43q43 0 80 -6q19 20 96 20q33 -13 33 -53z" />
    <glyph glyph-name="bracketleft" unicode="[" horiz-adv-x="621" 
d="M578 1204q-40 -30 -95 -30q-29 0 -85 12t-85 12q-24 0 -57 -12q-41 -14 -41 -33q0 -8 6 -23.5t6 -23.5q0 -10 -10 -10q-2 -19 -2 -17q0 -43 19.5 -126t19.5 -126q0 -5 -29 -118q-18 -73 -18 -232q0 -13 -5 -35q-5 -25 -5 -34q-2 -51 -13 -152q11 -22 11 -61
q0 -24 -5.5 -72t-5.5 -72q0 -99 74 -127q25 4 57 4q18 0 53.5 -3t53.5 -3q46 0 92 23q36 -18 53 -54q-5 -1 -135 -38q-81 -23 -137 -23q-69 0 -121 37q-5 -4 -10 -4q-10 0 -26 29t-27 34q-7 12 -7 62q0 95 27 448q12 163 12 168q0 19 -2 29q-6 7 -6 22q0 25 21.5 87
t21.5 100q0 46 -15.5 138t-15.5 138q0 34 7 60q-13 24 -13 43t19 39q21 24 24 36q40 -3 136 -24q87 -19 137 -19q37 0 78 9q17 -3 26 -22t17 -36z" />
    <glyph glyph-name="backslash" unicode="\" horiz-adv-x="1083" 
d="M979 8q0 -24 -17 -45.5t-40 -21.5q-12 0 -19 2q-47 43 -47 59q0 7 4 16q-31 26 -58 72q-45 78 -46 80q-16 16 -45 49q-41 49 -41 117q-11 20 -90 125q-2 2 -66 90q-31 43 -72 130q-44 94 -69 132q-31 42 -88 127q-56 94 -179 277q-2 11 -2 14q0 27 33 28q43 2 53 11
q53 -90 160 -266q30 -42 86 -127q9 -26 18 -51q10 -29 35 -33q61 -131 183 -310q35 -44 92 -137q11 -29 41 -86q31 -40 86 -125q5 -9 39 -42q27 -26 26 -44q23 -16 23 -41z" />
    <glyph glyph-name="bracketright" unicode="]" horiz-adv-x="621" 
d="M516 1159q0 -95 -27 -448q-12 -163 -12 -168q0 -19 2 -29q6 -7 6 -22q0 -25 -21.5 -87t-21.5 -100q0 -46 15.5 -138t15.5 -138q0 -34 -6 -60q12 -24 12 -43t-18 -40q-21 -23 -25 -36q-40 3 -136 24q-86 20 -136 20q-38 0 -78 -9q-17 3 -27 23q-8 17 -16 35q40 30 94 30
q29 0 85 -12t85 -12q25 0 58 11q41 15 41 34q0 8 -6.5 23.5t-6.5 23.5q0 10 10 10q3 19 3 17q0 42 -19.5 125.5t-19.5 125.5q0 6 28 119q19 73 19 232q0 12 4 34q5 26 6 35q1 51 12 152q-10 22 -10 61q0 24 5 72t5 72q0 99 -74 127q-25 -4 -57 -4q-18 0 -53.5 3t-52.5 3
q-47 0 -93 -23q-35 18 -53 53q6 2 135 39q82 23 138 23q69 0 120 -37q6 4 11 4q10 0 26 -29t27 -34q6 -12 6 -62z" />
    <glyph glyph-name="asciicircum" unicode="^" horiz-adv-x="2048" 
d="M1624 901h-143l-457 455l-459 -455h-143l532 557h140z" />
    <glyph glyph-name="underscore" unicode="_" horiz-adv-x="1024" 
d="M1024 -483h-1024v100h1024v-100z" />
    <glyph glyph-name="grave" unicode="`" horiz-adv-x="532" 
d="M432 1118q0 -57 -63 -76q-62 37 -129 148q-44 20 -77 78q-44 75 -61 92l33 20q68 -12 139 -87q15 -17 105 -134q20 -7 53 -33v-8z" />
    <glyph glyph-name="a" unicode="a" horiz-adv-x="750" 
d="M879 49q-64 -81 -90.5 -93.5t-131.5 -12.5q-30 0 -47 2q-35 49 -108 233q-22 -14 -41.5 -67t-52.5 -70v-2q0 -31 -37 -65t-39 -60q-58 -87 -201 -96q-108 49 -108 256q0 17 1 52t1 52q0 11 36 129q123 393 334 686q52 73 63 85q45 48 87 48q40 0 53 -47
q-15 -134 -43 -403q-10 -10 -10 -51v-13l10 -10q7 37 63 43q31 -19 31 -47q0 -18 -16.5 -52.5t-16.5 -54.5q0 -8 2 -16q-30 -30 -32 -93q-2 -70 -21 -97q1 -1 47 -143q32 -95 82 -95q48 0 75 27q15 16 42 71q6 2 16 2q16 0 29 -22q15 -28 23 -33v-43zM514 934q0 44 -2 29
q-6 22 -14 22q-5 0 -18.5 -22.5t-24.5 -22.5q-4 1 -6 2q-39 -59 -113 -180q-21 -38 -31 -60q-4 -12 -14 -36q-16 -23 -43 -70q-19 -52 -64 -152l11 -12q-2 -14 -33 -41q-56 -233 -56 -401q0 -35 3 -45q3 -18 19.5 -25t16.5 -14q0 -6 -4 -15h21q155 95 226 280q48 125 73 363
q30 279 51 365l-10 10q12 7 12 25z" />
    <glyph glyph-name="b" unicode="b" horiz-adv-x="827" 
d="M743 729q0 -21 -24 -39v-4q0 -21 11 -61.5t11 -61.5q0 -14 -10 -43q-14 -42 -45 -125q-103 -236 -338 -405q-8 4 -18 4q-13 0 -37 -7t-37 -7q-30 0 -45 30q0 37 -30.5 77t-30.5 63q0 6 5 19t5 19q0 10 -12.5 24.5t-12.5 23.5t12 18q-19 174 -32 530q-11 282 -11 246
q0 -8 6.5 72t6.5 149q0 72 -6.5 152t-6.5 72q0 5 11 86q11 2 18 2q35 0 55 -45q-8 -4 -8 -11t9.5 -18t11.5 -14q4 -10 4 -52q0 -26 -8.5 -76.5t-8.5 -76.5q0 -15 6.5 -42.5t6.5 -41.5q0 -78 -4 -103q-9 -48 -9 -32v-160q0 4 5 -8q10 -30 10 -78q0 -19 -3 -56.5t-3 -56.5
q0 -46 14 -88q-10 -11 -10 -61v-13l10 -10q22 35 41 116.5t43 117.5q18 24 51 73q76 125 106 158q69 78 162 86q54 -33 80 -101q45 -116 47 -120q-22 -17 -22 -39q0 -15 12 -41t12 -41zM645 584v143q0 178 -63 260q-23 -13 -66 -43q-49 -37 -104 -147q-125 -246 -125 -418
q0 -38 -17.5 -111.5t-17.5 -111.5q0 -50 22 -93l97 33q187 160 256 398q18 64 18 90z" />
    <glyph glyph-name="c" unicode="c" horiz-adv-x="569" 
d="M772 406q0 -20 -33 -54t-34 -55q-17 -23 -87 -80q-58 -47 -73 -90q-32 -4 -58 -24.5t-51 -41.5q-9 -5 -28 -18q-12 -9 -47 -48q-25 -27 -60 -38q-9 25 -35 25q-20 0 -39 -13q-5 5 -94 60q-54 33 -65 88q-25 116 -25 225q0 354 242 786q26 50 80 136q6 8 26 8q37 0 47 -41
q10 -8 11 -31.5t12 -32.5q-10 -20 -10 -80q0 -33 -23 -57q14 -125 14 -145q0 -68 -24 -121q0 -11 2 -33.5t2 -34.5q0 -82 -51 -82q-49 0 -49 43q0 39 17 114t17 114q0 37 -12 69q43 89 43 109t-12 41q-46 -17 -69 -73q-18 -48 -36 -97q-20 -38 -55 -117q-25 -86 -84 -254
q16 -19 16 -41q0 -19 -21.5 -50t-21.5 -50t17 -39q-21 -39 -21 -88q0 -97 64 -189q37 -53 106 -53q7 0 33 8q65 21 131 83q55 55 111 110q9 38 71 87q56 43 56 95q11 10 63 10h13q24 -19 24 -40z" />
    <glyph glyph-name="d" unicode="d" horiz-adv-x="797" 
d="M733 -41q0 -35 -33 -35q-59 0 -51 2q-48 64 -43 213q-10 20 -10 113q0 18 -5 50.5t-5 49.5q0 14 -13 19q-54 -31 -96 -124q-45 -100 -84 -130l13 -11q-47 -46 -93 -92q-60 -53 -114 -53q-118 0 -152 170l-24 262l32 127l-12 10l84 256q53 132 172 201q92 53 119 53
t39 -10q9 -8 26 -37q60 -98 60 -297v-143q-7 -18 -19 -18q2 0 -35 18q13 53 13 106q0 24 -33 275q-8 16 -33 43q-69 1 -132 -64q-51 -58 -101 -116q0 -24 -18.5 -55t-18.5 -50q0 -8 6 -22q-27 -18 -32 -52q-1 -5 -1 -63q0 -52 -20 -68q8 -13 8 -26q0 -18 -20.5 -53.5
t-20.5 -63.5q0 -4 8.5 -28.5t9.5 -32.5l10 -130q11 -77 68 -100q97 11 180 125q64 97 127 193q9 33 61 124q44 76 44 130q0 32 -8 55l30 455l-10 12q33 149 33 239q0 52 -12 111q29 10 53 10q3 -33 24 -110q19 -70 19 -111q0 -48 -21 -86l11 -12q-1 -30 -12 -91t-11 -93
q0 -34 12 -70q-13 2 -22 -10q12 -18 12 -39q0 -13 -6 -37t-6 -37q0 -22 10 -37q-10 -15 -10 -37q0 -12 6 -36.5t6 -36.5q0 -20 -12 -37q6 -13 6 -33q0 -12 -3 -36.5t-3 -37.5q0 -27 10 -43q-20 -38 -20 -90q0 -27 32 -174q-6 -25 -6 -41q0 -36 18.5 -106t18.5 -107z" />
    <glyph glyph-name="e" unicode="e" horiz-adv-x="696" 
d="M715 246q0 -4 -2 -11q-1 -7 0 -12q-73 -87 -101 -111q-66 -59 -133 -59q-8 -10 -26 -22q-5 1 -17 12q-32 -57 -104 -57q-88 0 -139 14q-73 20 -133 111q-58 88 -58 165q0 44 10 54q-2 11 -2 30q0 60 37 127q7 11 19 33q14 43 49 127q83 174 280 383q13 4 29 4
q61 0 108 -80q1 -17 15 -46.5t14 -45.5q0 -12 -8 -24l12 -11l-12 -10q53 -100 53 -133q0 -32 -20 -57q-268 -12 -426 -133q-46 -35 -62 -58q-12 -17 -11 -53q2 -40 -4 -54t-17 -22q56 -221 180 -244q42 7 125 25q79 23 141 59q60 45 190 119q13 -5 13 -20zM502 743l-13 11
q3 12 3 24q0 46 -14 89q-20 59 -56 59q-30 0 -73 -48q-30 -35 -60 -71q0 -50 -36 -101q-59 -86 -60 -90q20 27 64 37q37 9 75 17q21 27 88 36q64 9 82 37z" />
    <glyph glyph-name="f" unicode="f" horiz-adv-x="586" 
d="M584 1288q-5 -7 -14 -111q-8 -92 -52 -116q-10 18 -10 41q0 18 10 54t10 54q0 16 -3 43q-4 32 -5 43q-8 139 -9 147q-11 84 -46 138q-29 -3 -55 -38q-20 -29 -39 -58q-28 -35 -59 -117t-58 -117q10 -20 10 -49q0 -19 -7 -57t-7 -58q0 -11 4 -26q-20 -19 -21 -59
q-1 -33 -1 -65q-4 -30 -21 -46q10 -6 10 -66q0 -128 -10 -155q8 -15 8 -39q0 -14 -4 -40.5t-4 -39.5q0 -32 20 -51q11 -4 21 -4q21 0 50.5 27.5t56.5 27.5t71 22.5t70 22.5q7 0 18 -2q0 -51 -59 -81q-49 -23 -99 -46q2 -5 2 -12q0 -8 -14 -12l-20 -7h-4q-53 0 -103 -43v-16
q0 -35 17.5 -101.5t17.5 -101.5q0 -37 -12 -68q6 -29 6 -57q0 -37 -19 -80q-13 -4 -24 -4q-29 0 -50.5 25.5t-21.5 54.5q0 18 8.5 51.5t8.5 50.5q0 15 -5 33l11 10q0 20 -11.5 56t-11.5 53q0 7 2 19.5t2 19.5q0 23 -24 33q-20 -20 -81 -22q-57 -2 -77 -30q-16 21 -16 33
q0 21 56 36q64 16 77 36q5 -2 10 -2q11 0 23 14q17 18 20 21q-8 33 -8 71q0 29 5 86.5t5 85.5q0 8 -1 22t-1 21q0 23 3 59q4 45 5 58q9 169 9 177q9 102 34 173q-2 7 -2 17q0 34 16 78q15 38 29 75q57 167 203 318q65 -6 102 -69q13 -23 45 -122q13 -37 13 -94q0 -13 -2 -49
q-1 -31 0 -49q-11 -2 -11 -6q0 -3 6 -9.5t7 -11.5z" />
    <glyph glyph-name="g" unicode="g" horiz-adv-x="653" 
d="M631 -211q0 -83 -27 -184q-6 -21 -16 -62q-4 -28 -15 -84q-24 -63 -69 -190q-48 -16 -65.5 -95.5t-63.5 -95.5q-48 -49 -129 -102q-96 -61 -148 -61q-102 0 -157 88v32q29 -20 59 -41q36 -22 68 -22q12 10 73 10q183 116 278 336q63 145 116 428q-5 14 -5 27q0 18 7.5 55
t7.5 55q0 39 -21 64q2 12 2 24q0 7 -22 135q-7 55 -15 109q-9 64 -28 104q-38 -13 -70 -72q-38 -71 -57 -87q-17 -54 -79.5 -92.5t-121.5 -38.5q-34 0 -70 38q-56 58 -59 60q-2 24 -2 53q0 216 152 457q28 17 111 128q70 95 118 95q38 0 78 -43q8 -29 8 -137q0 -91 35 -127
q-2 -12 -2 -18q0 -47 33.5 -131.5t33.5 -131.5q0 -32 -14 -69q22 -52 43 -104q25 -63 25 -109q0 -33 -15 -64q23 -60 23 -137zM399 582q0 94 -24 161q-52 -41 -112 -122q-88 -121 -99 -134q-6 -38 -44 -129q-34 -82 -34 -131q0 -90 49 -90q58 0 49 2q61 46 115 127
q17 24 88 148q12 91 12 168z" />
    <glyph glyph-name="h" unicode="h" horiz-adv-x="827" 
d="M743 33q0 -27 -29 -32q4 1 -48 1q-9 0 -19 -2q-10 18 -10 82q0 25 -10 45q12 11 10.5 43t9.5 43q-10 5 -10 23q0 26 -1 78.5t-1 78.5q0 29 2 87t2 87q0 231 -66 271q-125 -30 -233 -211v-4q0 -24 -23 -57t-23 -51q0 -8 3 -15q-19 -18 -41.5 -64.5t-42.5 -64.5
q-2 -28 -18.5 -84.5t-16.5 -87.5q0 -7 1 -20t1 -19q0 3 -6 -29l-12 -72q-8 -42 -25 -69q-15 1 -74 53q2 22 13 69q10 43 10 68q0 27 -12 53q12 6 12 15q0 5 -6 12t-6 12q0 9 10 15v14q0 19 1 58t1 59q0 24 -6 72.5t-6 72.5q0 9 1 27t1 26q0 39 -1 116t-1 116q0 185 22 246
q-12 61 -12 125q0 57 8 108h-8l10 8l2 13v-5q0 3 -4 -16q44 1 58 -36q9 -23 10.5 -80.5t9.5 -75.5q-1 -59 -10 -192q-8 -123 -8 -191q0 -102 18 -179v-36q0 -31 20 -50q45 159 238 357q25 26 50 53q30 27 65 27q5 0 94 -23q-1 -27 34.5 -48.5t39.5 -45.5q10 -66 13 -146
q1 -57 -1 -147q-2 -116 -2 -147q0 -118 10 -228q12 -132 12 -106z" />
    <glyph glyph-name="i" unicode="i" horiz-adv-x="319" 
d="M230 1198q0 -20 -21 -32l-38 -16q-33 13 -47 38q-3 5 -22 58l27 56q31 -1 66 -37t35 -67zM211 74q-23 -13 -23 -31q0 -11 10.5 -30.5t10.5 -28.5q0 -20 -39 -27q-24 10 -64 43q1 104 1 207q-1 123 -13 207q-10 11 -10 28q0 11 6 30t6 30q0 15 -12 28q22 58 22 222
q0 68 11 108q8 2 18 2q24 0 32 -36q8 -43 23 -52q9 -35 9 -65q0 -38 -14.5 -113t-14.5 -113q0 -64 31 -112v-146q0 -91 10 -151z" />
    <glyph glyph-name="j" unicode="j" horiz-adv-x="328" 
d="M239 1283q0 -56 -26 -88q-11 -3 -16 -3q-50 0 -96 56v19q0 66 69 66h24q45 0 45 -50zM244 446q-11 -9 -11 -53v-10q9 -4 9 -12q0 -7 -19 -31q13 -47 13 -121q0 -25 -2.5 -74.5t-2.5 -74.5q0 -11 2.5 -32t2.5 -32t-23 -59q12 -14 12 -27q0 -12 -12 -33.5t-12 -35.5
q0 -5 2 -11q-68 -309 -228 -309q-25 0 -58 17q-46 25 -54 28q0 22 -22.5 44t-22.5 36t12 27q8 -12 41 -34q28 -18 35 -40l4 -2q242 -4 242 780q0 21 -5 54q-5 41 -6 55l-6 128q-5 74 -22 126q-2 5 -18 38q-13 27 -13 35q0 27 51 27h6q16 -25 31 -49q19 -29 43 -37
q10 -43 10 -178q0 -88 21 -140z" />
    <glyph glyph-name="k" unicode="k" horiz-adv-x="725" 
d="M805 47q-8 -10 -45 -10q-19 0 -29 -12l-287 170q-33 49 -111.5 138t-111.5 138h-4q-4 0 -27 -22q11 -15 11 -35q0 -14 -6.5 -40.5t-6.5 -39.5q0 -20 7.5 -63.5t7.5 -67.5q0 -62 -13 -115q11 -4 11 -31q-6 -5 -6 -14q0 -18 16 -39q-8 -14 -8 -96q0 -53 -35 -74
q-76 27 -74 64q12 17 12 36q0 13 -6 38t-6 38q0 22 10 37l-10 10q12 26 12 58q0 28 -11 82.5t-11 83.5q0 -11 10 45q8 44 8 106q0 45 -5 134.5t-5 133.5q0 36 2 58q17 32 17 76q0 16 -3.5 49.5t-3.5 50.5q0 35 13 67q-13 11 -13 25q0 7 4.5 21.5t4.5 21.5q0 9 -9 16
q7 57 14 113q9 73 50 90q33 -19 33 -51q0 -15 -8.5 -45t-8.5 -45q0 -16 8.5 -45.5t8.5 -44.5v-49q0 -6 2 -17.5t2 -17.5q0 -9 -6 -25t-6 -24q0 -17 18 -29q-21 -84 -21 -152t21 -125q103 86 210 271q135 233 183 293h8q55 0 56 -33q-63 -43 -117 -175t-117 -175v-41
q-7 -8 -45 -78q-27 -50 -61 -62q-31 -34 -31 -63q0 -17 10 -31q25 -14 54 -83q26 -59 73 -66q95 -158 223 -180l90 -60q46 -37 58 -88z" />
    <glyph glyph-name="l" unicode="l" horiz-adv-x="317" 
d="M254 948q-49 -136 -49 -233q0 -50 6 -84l-10 -13q12 -14 12 -36q0 -20 -11.5 -36t-11.5 -24t6.5 -24t6.5 -25q0 -13 -13 -24q13 -30 12 -80q-1 -70 0 -81q5 -48 31 -73q-18 -18 -18 -51q0 -14 3 -40.5t3 -39.5q0 -59 -61 -59q-32 0 -43 22q2 7 2 21q0 12 -7.5 36.5
t-7.5 36.5q0 17 13 33l-33 318q22 16 22 38q0 12 -6 34t-6 34q0 21 10 33v82q0 60 13 86q18 38 20 117q2 76 21 106q-1 12 -11 34.5t-10 35.5q0 15 14 31t29 16q21 0 64 -31q10 -16 10 -41q0 -14 -5 -40t-5 -40q0 -23 10 -39z" />
    <glyph glyph-name="m" unicode="m" horiz-adv-x="999" 
d="M936 88q-5 -5 -27 -36q-14 -20 -37 -27q-45 15 -45 47q0 14 8.5 40.5t8.5 41.5q0 10 -15 41q-12 26 -12 86q0 18 2 54t2 54q0 30 -12 83q-14 66 -16 85q-8 102 -37 305q-7 0 -43 -31q4 -8 4 -16q0 -15 -22.5 -35.5t-22.5 -50.5q0 -35 -30 -92q-31 -60 -34 -92
q-25 -37 -38.5 -122t-37.5 -122q-59 -92 -75 -125q-33 -70 -29 -141q-11 -27 -37 -27q5 0 -59 17q-2 36 -2 57q0 29 2 88t2 88q0 129 -23 203l11 10q-13 31 -10 90q2 64 -4 91q-8 33 -29 53q-45 -34 -54 -87q4 -7 4 -12q0 -11 -8 -33t-8 -34q0 -7 2 -15q-30 -74 -59 -189
q-24 -97 -47 -194q12 -4 12 -18q0 -4 -1.5 -11t-0.5 -12q-21 -23 -21 -32q13 -13 13 -29q0 -14 -14.5 -45t-14.5 -49q0 -13 6 -27q-5 -17 -29 -19q-27 -2 -34 -12q-21 2 -28 26q-10 32 -15 38q26 57 34 146q7 75 13 151q7 28 16 84v114q0 15 8 60q6 34 11 67q9 38 34 58v31
q6 -4 17 -30q9 -22 26 -24q43 120 50 135q33 74 77 119q10 4 17 4q15 0 35 -14q25 -18 32 -21q-2 -8 -2 -18q0 -25 19 -52q23 -32 26 -46q3 -27 8 -80q19 -176 13 -250q14 -6 14 -16q0 -7 -7 -18.5t-7 -16.5q0 -12 22 -12q45 76 123 303q68 195 146 293q45 57 71 57
q22 0 46 -28q31 -37 38 -42q-12 -17 -12 -35t17.5 -51.5t17.5 -52.5q0 1 -2 -8q-11 -16 -11 -41q0 -15 7.5 -44t7.5 -44q0 -10 -4 -21q2 -105 21 -260z" />
    <glyph glyph-name="n" unicode="n" horiz-adv-x="723" 
d="M647 78q-8 -12 -8 -78q0 -45 -35 -59q-40 -1 -63 30q2 39 2 78q0 75 -11.5 224.5t-11.5 224.5q0 58 -30 162q-31 108 -33 161l-33 31q-34 -27 -31 -84q-17 -3 -24.5 -35t-28.5 -39q0 -61 -26 -130l-50 -122q-7 -18 -16 -55q-1 -11 -4 -33q-1 -3 -25 -69q-11 -32 -59 -164
q18 -20 18 -43q0 -21 -16 -49q-22 -37 -25 -45l-10 10q-5 -10 -16 -10t-15 10l-33 31q-20 95 -20 221q0 63 7 190t7 191q0 56 -4 108q12 23 64 23q33 -59 33 -129q0 -39 -11.5 -116t-11.5 -116l23 -22q35 28 51 99q19 77 43 104q23 101 112 284q14 34 47 96q17 25 37 25
q23 0 51 -35q20 -26 39 -53q1 -5 39 -144q25 -93 25 -143q0 -85 22 -127v-213q0 -10 5.5 -39t5.5 -45q0 -51 -11 -84q23 -23 27 -23q3 0 4 1z" />
    <glyph glyph-name="o" unicode="o" horiz-adv-x="514" 
d="M471 676q0 -71 -17 -173q-14 -86 -28 -171q-46 -65 -46 -95q0 -11 3 -22q-21 -48 -68 -109q-40 -51 -79 -102q-19 -3 -47 -27t-50 -26q-11 10 -57 10q-34 0 -49 23q-31 46 -31 159q0 83 33 228q36 158 41 227q3 46 36.5 128t37.5 126l-21 22q-19 -2 -32 -25l-21 -38h-4
q-3 0 -9.5 -1t-9.5 -1q-14 0 -20 12q3 24 30 56.5t33 50.5q74 61 170 61q87 0 140 -84q65 -104 65 -229zM383 612q0 18 -7 52.5t-7 52.5q0 12 4 28q-15 46 -29 91q-22 51 -68 59q-16 -34 -40 -107q-33 -144 -97 -434q-22 -102 -22 -110q0 -7 2 -17q-21 -100 -21 -116
q0 -29 11 -54q63 25 110 89q24 34 70 126q11 20 30 60q13 45 54 129v104q10 20 10 47z" />
    <glyph glyph-name="p" unicode="p" horiz-adv-x="705" 
d="M662 594q0 -166 -82 -262q-7 -81 -99 -158q-143 -121 -147 -127q-5 2 -17 2q-15 0 -33 -20q-21 -22 -34 -25q-62 -15 -77 -20q-41 -13 -73 -33q15 -23 15 -45q0 -18 -10.5 -52.5t-10.5 -52.5q0 -17 6 -30v-43l-4 2q-8 -1 -16 -13q12 -50 12 -90q0 -38 -12 -90
q22 -40 22 -94q0 -2 -2 -23q-23 -30 -49 -30q-25 0 -41 31q-14 27 -14 55q0 18 6 55t6 55q0 34 -12 58v102q0 29 8 85t8 85q0 102 -80 131q-32 31 -32 117l43 41q14 -8 14 -31q0 -8 -2 -23.5t-2 -23.5q0 -47 43 -59q17 102 34 205q19 121 19 206q0 90 -22 172q7 21 22 21
q8 0 24 -7.5t25 -7.5q7 0 15 5q33 89 124 165q83 68 183 101q18 6 43 6q70 0 158 -103q41 -122 41 -237zM559 631q0 73 -22 147q-17 56 -74 56q-16 0 -86 -13q-82 -68 -116 -102q-62 -62 -95 -121q10 -11 10 -29q0 -11 -7 -31.5t-7 -31.5q0 -7 4 -14q-7 -76 -13 -151
q-9 -89 -30 -146q10 -15 10 -37q0 -14 -7 -41t-7 -41q0 -9 4 -19q50 20 147 64q17 9 74 65q215 215 215 445z" />
    <glyph glyph-name="q" unicode="q" horiz-adv-x="748" 
d="M807 -461q0 -75 -31 -129q-26 -179 -82 -289q-6 -14 -22 -41q-15 -13 -41 -41q-31 -40 -62 -81q-39 -43 -88 -43q-15 0 -43 8q-29 25 -38 79q-13 84 -15 89q4 116 37 350q33 231 37 350q-9 11 -32 12.5t-32 10.5q3 21 40.5 45.5t43.5 48.5l15 96q32 183 32 234
q0 35 -4 63q-34 -7 -79 -62q-49 -62 -81 -75q-38 -43 -98 -43q-27 0 -88 11q-56 11 -88 9l-86 97v16q0 167 140 313q93 96 284 211q9 -4 16 -4q8 0 24 19.5t58 19.5q60 0 135 -68q-2 -20 -2 -43q0 -20 2.5 -62t2.5 -62q0 -93 -33 -140q2 -18 2 -32q0 -32 -7.5 -94t-7.5 -93
q0 -9 1 -27.5t1 -27.5q0 -57 -32 -96q4 -13 4 -27q0 -15 -7.5 -43t-7.5 -43q0 -28 21 -47q18 4 33 4q67 0 116 -68q20 -75 40 -151q22 -89 22 -154zM565 618q-52 80 -100 80q-15 0 -27 -4q-22 -29 -102 -73q-68 -38 -90 -86q-31 -11 -62 -54q-35 -50 -55 -63
q0 -21 -14.5 -56t-14.5 -53q0 -15 9 -28l-11 -13q6 -43 54 -43q91 0 84 2q190 85 329 391zM727 -406q0 89 -25 134l-18 30q-25 46 -31 53q-21 25 -53 25q-15 0 -25 -2q-56 -210 -56 -341q0 -32 3 -62q-55 -183 -63 -381l30 -33q138 95 203 340q1 4 14 38q9 23 9 38
q0 16 -13 30q25 58 25 131z" />
    <glyph glyph-name="r" unicode="r" horiz-adv-x="637" 
d="M758 154q-1 -36 -41 -54q-64 -29 -66 -30q-51 9 -102 19q-36 10 -92 52l-11 -10q-34 50 -96 84q-4 2 -117 53q-23 33 -69 33h-4q-33 -52 -33 -158v-65q0 -21 9 -63t9 -64q0 -83 -59 -117q-63 25 -63 92q0 23 8 68t8 67q0 20 -6 37q9 202 30 607q154 183 183 213
q120 120 231 147h4q95 0 135 -96q-11 -42 -32 -127q-2 -17 -11 -49q-19 -32 -55 -97q-6 -18 -18.5 -54.5t-82.5 -106.5q-80 -81 -98 -107q-20 -8 -42 -17t-33 -26q8 -42 74 -63q71 -23 85 -54q10 -4 101 -63q64 -41 106 -41q17 0 37.5 27.5t34.5 27.5q12 0 23 -12
q32 2 53 -53zM522 946q0 17 -12 33q-56 0 -106 -37q-4 -2 -85 -76q-14 -11 -43 -35q-51 -42 -84 -124q-32 -77 -32 -148q0 -63 20 -110q116 68 242 260q55 84 55 98v20q0 27 23 35q1 13 12 42q10 26 10 42z" />
    <glyph glyph-name="s" unicode="s" horiz-adv-x="764" 
d="M700 268q0 -124 -114 -233q-17 -54 -86 -81q-58 -23 -115 -46h-78q-39 0 -59 10q-18 -8 -55 -8q-75 0 -138 20q-38 13 -55 57q-4 12 -18 81q11 22 36 22q9 0 27 -2q13 -9 47 -69q28 -48 60 -48q-6 0 86 6q245 17 307 134q4 11 14 32l42 74q17 37 17 84q-27 69 -118 104
l-158 46q-2 0 -84 41q-17 5 -49 18q-98 46 -143 143q-21 44 -21 62q0 97 117 202l190 158q29 12 58 12q8 0 28 -1t31 -1q58 -80 96 -73l21 -21q-4 -14 -4 -35q0 -18 8 -54.5t8 -55.5q0 -26 -33 -68q-6 -8 -8 -45q-1 -30 -25 -39q-88 7 -88 109q0 16 2.5 49t2.5 49
q0 70 -33 100q-56 2 -118 -63q-81 -84 -103 -96q-4 -30 -23 -31q-1 -22 -22 -65.5t-21 -65.5q0 -29 33 -51q131 -90 287 -131q24 -6 73 -17q144 -35 170 -159q8 -39 8 -54z" />
    <glyph glyph-name="t" unicode="t" horiz-adv-x="475" 
d="M719 856q-26 -36 -53 -72q-35 -46 -65 -54.5t-91 -33.5q-20 -11 -100 -68q-60 -44 -105 -59q-22 -48 -22 -116q0 -158 2 -138q2 -6 2 -12q0 -32 -35 -41q-2 -10 -2 -22q0 -37 33.5 -93t33.5 -81q0 -35 -45 -68q-5 4 -40 15q-24 9 -33 26q-21 39 -21 172q0 33 3 98.5
t3 98.5q0 55 -6 98l10 10q-20 14 -41 14q-23 0 -66 -29t-73 -26q-44 -45 -67 -45q-12 0 -19 2q-1 3 -13 21q-9 12 -9 22q0 4 2 10q80 54 286 148q13 108 13 264q0 33 -2 128q-1 80 0 128q-13 9 -11 23l11 10q-13 6 -13 20q0 15 13 21q28 -7 51 -49q17 -34 35 -68
q10 -79 10 -186q0 -38 -6 -112t-6 -112q0 -17 12 -24q33 22 100 63q4 2 58 23q12 5 47 24q125 72 196 72q6 0 23 -2z" />
    <glyph glyph-name="u" unicode="u" horiz-adv-x="733" 
d="M690 -25q-11 -16 -10 -66q0 -45 -23 -61q-106 4 -106 134q0 12 1 37t1 36q0 51 -12 80q0 28 11 83t11 83q0 43 -22 78v10q0 9 1 27.5t1 27.5q0 38 -13 62q-49 -122 -99 -243q-62 -145 -144 -214q0 -46 -97 -115q-13 11 -34 11q-6 0 -17.5 -2t-17.5 -2q-32 0 -47 34
q-11 166 -11 377v484q5 10 35 10h8q31 -32 31 -86q0 -20 -5 -58.5t-5 -58.5q0 -45 20 -74v-360q0 12 9 -29q4 -20 4 -119q5 -12 30 -12q2 2 74 107q44 65 86 96q12 42 78 180q9 21 29 64q75 151 106 383q11 8 27 8q28 0 57 -31v-43h-10q-12 -47 -12 -100t12 -101
q-12 -37 -12 -80q0 -31 9 -93.5t9 -94.5q0 -31 -6 -61l10 -11v-51q0 -22 -5 -64.5t-5 -64.5v-4q0 -84 53 -113z" />
    <glyph glyph-name="v" unicode="v" horiz-adv-x="668" 
d="M768 930q-79 -17 -117 -180q-30 -38 -57 -115q-30 -88 -49 -119q8 -11 8 -20q0 -16 -22.5 -41.5t-22.5 -42.5q0 -16 16 -33q-28 -9 -30 -47q-4 -47 -13 -60q-56 -75 -53 -137q-30 -10 -31 -49q-2 -46 -12 -57q-5 -5 -16 -19q-11 -28 -21 -56q-15 -38 -37 -38
q-17 0 -43 18q-72 109 -106 230q-6 30 -21 88q-10 24 -26 74q-10 40 -15 116q-5 82 -12 117q-4 23 -36 59q-29 33 -29 52q0 43 43 43q17 0 38 -21q25 -23 37 -26q0 -29 22.5 -81t22.5 -81q0 -28 -12 -51q27 -33 38 -111.5t36 -110.5q-10 -5 -10 -32q26 -9 30.5 -48t22.5 -49
q38 42 68 112q24 61 49 122q19 74 67 219q13 22 39 68q3 5 35 100q38 115 64 168q43 92 102 145q18 -3 27 -36t26 -37v-33z" />
    <glyph glyph-name="w" unicode="w" horiz-adv-x="1004" 
d="M1104 1006q-25 -28 -50 -89q-27 -67 -44 -92q-10 -73 -69 -232q-54 -147 -58 -235q-17 -17 -27 -71q-10 -49 -37 -68q4 -9 4 -18q0 -14 -21 -30.5t-26 -35.5q-2 -14 -6 -41q-15 -76 -68 -129l-86 10q-17 35 -26 98q-11 74 -19 99q-4 13 -39 70q-18 29 -25 123
q-7 89 -38 131q-48 -34 -67 -117q-14 -69 -29 -137q-17 -19 -44 -98q-21 -63 -63 -83q10 -12 10 -26q0 -38 -40 -49q-36 7 -49 44q-8 34 -15 68q-4 12 -12 37q-8 45 -25 133q-44 228 -59 387q-3 24 -19 82q-14 52 -14 82q0 38 23 70q39 0 63 -33l64 -358q12 -57 32 -172
q-1 -4 -2 -9q0 -37 23 -65q54 58 89 159q26 88 52 177q35 110 68 110q4 0 16 -1t18 -1q91 -119 91 -235q0 -18 -7 -49q34 -49 59 -124l38 -132h20q72 140 172 458q98 306 178 455h7q20 0 34 -24q12 -20 23 -39z" />
    <glyph glyph-name="x" unicode="x" horiz-adv-x="612" 
d="M569 125q-26 -33 -84 -33q-35 32 -81 125q-44 86 -89 119q-48 -14 -82 -91q-35 -82 -77 -100v-20q-2 -3 -64 -90q-39 -54 -41 -101q-10 -4 -14 -4q-12 0 -49 35q-6 18 -6 31q0 40 50 96.5t50 95.5q45 39 92 112l78 122q-1 42 -49 97q-51 59 -58 93q-100 85 -137 201
q18 12 43 12t41 -12q11 -8 74 -92q97 -130 160 -182q16 19 29 62q14 48 24 65q31 73 63 147q40 88 107 107l20 -21v-4q0 -29 -40 -47t-44 -45q2 -10 2 -23q0 -31 -25.5 -83.5t-25.5 -80.5q0 -19 6 -36q-4 -23 -41 -64q-34 -37 -34 -61q0 -14 12 -33q51 -72 103 -144
q61 -85 87 -153z" />
    <glyph glyph-name="y" unicode="y" horiz-adv-x="735" 
d="M651 260q0 -36 -6 -82q-32 -244 -32 -327q0 -29 1 -56q-17 -49 -67 -264q-37 -163 -94 -254q-3 -4 -52 -65q-13 -19 -45 -54q-55 -50 -165 -86q-91 -25 -183 -51q-8 10 -20 10q-9 0 -25 -7t-24 -7q-4 0 -15 4q-32 7 -65 14q-41 11 -41 39v21q59 -15 127 -15q120 0 227 54
q112 56 176 153q134 204 169 535q22 284 44 567q-12 11 -12 25q0 7 5 21t5 22q0 18 -20 28q-27 -15 -37 -68t-37 -69q-22 -60 -64 -182l-66 -80q-45 -49 -87 -49q-8 0 -17 2q-4 -10 -30 -10q-66 53 -94 146q-12 40 -31 173q-15 101 -15 84v307q11 13 31 13q4 0 17 -2
q10 -1 16 0q39 -29 39 -74q0 -23 -10.5 -67t-10.5 -66q0 -31 15 -58q-13 -17 -13 -32q0 -16 12.5 -45t12.5 -46q0 -8 -3 -25t-3 -26q0 -35 24 -89q29 -62 33 -87q29 3 54 34q33 43 42 50q172 285 232 627l22 20l-10 13q28 32 45 32q19 0 25 -54q2 -35 4 -71q1 -8 7.5 -27
t6.5 -30q0 -13 -7 -37t-7 -37q0 -19 10 -32q-10 -44 -10 -101q0 -44 8 -131t8 -131z" />
    <glyph glyph-name="z" unicode="z" horiz-adv-x="772" 
d="M885 147q0 -4 -2 -17q-1 -11 0 -17q-32 -10 -95 -31q-14 -8 -43 -23q-11 -5 -124 -27.5t-132 -23.5q-32 -17 -105 -26t-105 -27q-11 2 -33 2q-16 0 -46.5 -4t-45.5 -4q-41 0 -68 26l12 64q58 89 198 249q147 169 205 252q101 148 128 285q-21 15 -49 15q-33 0 -84 -31
q-72 -44 -80 -47q-210 -89 -318 -203q-11 -2 -22 -2q-74 0 -74 55q40 23 121 91q74 63 123 85q28 8 86 25q20 6 72 45q44 34 76 34q11 0 22 -3l20 20q5 -2 8 -2t66 23h8q11 0 33 1t33 1q38 0 63 -33l-18 -160q-19 -94 -76 -137q-11 -35 -69 -98q-52 -57 -58 -105
q-24 -33 -152 -159q-95 -93 -124 -179q24 -4 49 -4q44 0 106 14q52 11 105 23q19 2 57 8q46 14 139 41q14 4 66 30q39 20 67 20q60 0 60 -46z" />
    <glyph glyph-name="braceleft" unicode="{" horiz-adv-x="1024" 
d="M854 -414h-47q-205 0 -274 83q-62 74 -62 286v244q0 146 -52 210q-58 70 -200 70q7 0 -22 -2h-23v109h23q29 -2 22 -2q142 0 200 70q52 64 52 210v242q0 211 62 287q70 84 274 84h47v-107h-37q-130 0 -176.5 -50t-46.5 -204v-242q0 -147 -31 -215q-43 -93 -166 -129
q109 -30 153 -102.5t44 -241.5v-241q0 -143 37 -193q44 -61 178 -61q-8 0 22 2h23v-107z" />
    <glyph glyph-name="bar" unicode="|" horiz-adv-x="1024" 
d="M567 -483h-108v2048h108v-2048z" />
    <glyph glyph-name="braceright" unicode="}" horiz-adv-x="1024" 
d="M852 477h-23q-30 2 -22 2q-142 0 -200 -70q-52 -64 -52 -210v-244q0 -224 -69 -296.5t-267 -72.5h-47v107h39q137 0 182 58q39 50 39 194v241q0 149 31 217q42 93 166 127q-124 36 -166 128q-31 67 -31 216v242q0 144 -36 194q-44 62 -179 62q8 0 -22 -2h-23v107h47
q204 0 274 -84q62 -76 62 -287v-242q0 -146 52 -210q58 -70 200 -70q-8 0 22 2h23v-109z" />
    <glyph glyph-name="asciitilde" unicode="~" 
d="M1530 637q-98 -69 -198 -106t-189 -37q-98 0 -260 57l-45 16q-170 64 -273 64q-87 0 -174.5 -36.5t-212.5 -123.5v113q211 145 387 145q103 0 273 -61q5 -3 15 -6.5t34 -12.5q165 -59 256 -59q84 0 177.5 38.5t209.5 121.5v-113z" />
    <glyph glyph-name="Adieresis" unicode="&#xc4;" horiz-adv-x="809" 
d="M766 -74q-1 0 -13 -22q-8 -15 -18 -15q-4 0 -12 5q-63 68 -78 208q-1 23 -6 68q-13 39 -37 117q-49 172 -49 307q-21 18 -37 18q-20 0 -52.5 -32.5t-55.5 -32.5q-15 0 -25 4q-2 -1 -20 -20q-13 -13 -24 -13q-4 0 -9 2q-54 0 -127 -63l-10 10q-37 -38 -37 -105
q0 -15 2 -46.5t2 -47.5q0 -71 -41 -108q2 -8 2 -27q0 -16 -7.5 -46t-7.5 -46q0 -21 13 -41l-1 -1q-12 -11 -34 -11q-5 0 -21 1q-12 1 -20 1l-20 30l86 680q20 21 20 113q0 20 10 57q12 54 37 160q31 109 90 328q16 -4 43 -21q16 20 62 128q40 93 68 107q11 5 26 5
q26 0 48 -35q15 -29 30 -57q28 -49 33 -124q-1 4 -1 -130q0 -89 21 -137l-10 -11l30 -340q2 -16 28 -18.5t26 -19.5v-5q-52 -42 -52 -110q0 -38 21.5 -113.5t19.5 -116.5q37 -80 62 -214q35 -184 45 -220zM522 721q0 25 -20 237q-31 318 -33 486q-34 -17 -55 -71
q-16 -44 -31 -89q-12 -26 -12 -37q0 -22 12 -37q-67 -124 -114 -328l-76 -341q135 40 243 149l10 -10q10 10 47 18q29 6 29 23zM676 1763q-10 -22 -50 -36l-62 -20q-4 10 -16.5 15.5t-12.5 14.5v24q0 98 58 112q53 -18 83 -110zM410 1763q-10 -22 -50 -36l-62 -20
q-4 10 -16.5 15.5t-12.5 14.5v24q0 98 58 112q52 -18 83 -110z" />
    <glyph glyph-name="Aring" unicode="&#xc5;" horiz-adv-x="809" 
d="M766 -74l-13 -22q-8 -15 -18 -15q-4 0 -12 5q-63 67 -78 208q-1 23 -6 68q-13 39 -37 117q-49 171 -49 307q-21 18 -37 18q-20 0 -52.5 -32.5t-55.5 -32.5q-15 0 -25 4q-2 -1 -20 -20q-13 -13 -24 -13q-4 0 -9 2q-54 0 -127 -63l-10 10q-37 -38 -37 -105q0 -15 2 -46.5
t2 -47.5q0 -71 -41 -108q2 -8 2 -27q0 -16 -7.5 -46t-7.5 -46q0 -21 13 -41l-1 -1q-12 -11 -34 -11q-5 0 -21 1q-12 1 -20 1l-20 30l86 680q20 21 20 113q0 20 10 57q12 54 37 160q31 109 90 328q16 -4 43 -21q24 29 47 87q35 83 39 92q-39 43 -39 133q0 149 166 356
q10 0 26.5 -8t24.5 -8q10 0 13 6q15 -32 43 -97q14 -37 14 -143q0 -61 -33 -132q-34 -74 -82 -107q5 -11 15 -31q28 -51 33 -124q-1 2 -1 -130q0 -89 21 -137l-10 -11l30 -340q2 -16 28 -18.5t26 -19.5v-5q-52 -42 -52 -110q0 -38 21.5 -113.5t19.5 -116.5q37 -80 62 -214
q35 -184 45 -220zM565 1794q0 10 -7 28t-7 27q0 8 4 17l-4 2q-10 0 -27.5 -21t-31.5 -22q-17 -24 -27 -94q-8 -63 -37 -89q3 -3 12 -34q7 -23 23 -23q6 0 18 6q6 16 45 80q31 51 31 83q0 9 -2 18q10 9 10 22zM522 721q0 25 -20 237q-31 318 -33 486q-34 -17 -55 -71
q-16 -44 -31 -89q-12 -26 -12 -37q0 -22 12 -37q-67 -124 -114 -328l-76 -341q135 40 243 149l10 -10q10 10 47 18q29 6 29 23z" />
    <glyph glyph-name="Ccedilla" unicode="&#xc7;" horiz-adv-x="684" 
d="M805 391q0 -102 -90 -201q-51 -55 -81 -80q-55 -45 -99 -47q-44 -45 -162 -53q6 -12 6 -26q0 -12 -12 -25l2 -4l-4 -14q54 0 73 -23q31 -2 52.5 -29.5t21.5 -58.5q0 -19 -8 -45q-14 -13 -35 -37q-6 -11 -12 -23t-19 -12q-6 0 -10 4q-13 -11 -33 -10q-56 -26 -125 -26
q-74 0 -98 30q-10 14 -10 17q0 36 43 36q9 0 24.5 -6.5t22.5 -7.5q8 6 12 6q3 0 8 -3t9 -3q32 0 83.5 30t55.5 60q-12 23 -68 23q-29 0 -61 -19.5t-35 -19.5q-14 0 -30.5 19t-16.5 34q0 18 16 31q26 21 27 23t6 10q9 12 29 59q-144 45 -195 160q-39 85 -39 256
q0 244 121 655q61 207 148 297q32 -12 43 -41q-3 -23 -3 -35q0 -94 35 -178l-12 -20q0 -48 11.5 -143.5t11.5 -143.5q0 -76 -23 -139l12 -11q-7 -4 -10 -16q-2 -8 -12 -4q-7 -2 -17 -2q-44 0 -57 45q12 18 12 39q0 13 -6 39.5t-6 40.5q0 22 10 39q-4 15 -4 39q0 18 3 54
t3 54q0 90 -32 129q-41 -57 -71 -172q-34 -131 -58 -178q0 -182 -31 -266q8 -93 15 -186q15 -108 58 -161q55 -69 168 -69q189 0 386 278q4 7 10 48q4 30 22 30q9 0 21 -4q4 -19 4 -43z" />
    <glyph glyph-name="Eacute" unicode="&#xc9;" horiz-adv-x="723" 
d="M680 1507q-60 -81 -251 -169q-183 -85 -236 -171q-3 -3 -3 -10t6.5 -18.5t6.5 -18.5q0 -10 -10 -16q-3 -10 -3 -14q0 -37 28 -105t28 -104q0 -28 -17.5 -60.5t-17.5 -34.5q0 -10 22 -32q54 31 109 62q66 34 117 34q6 0 20 -2l21 -21q-36 -33 -131.5 -82.5t-132.5 -82.5
q-60 -57 -60 -138q0 -23 4 -47q-9 -41 -11 -116q-3 -82 -9 -117q6 -10 25 -118q13 -77 69 -77q15 0 33 4q6 5 165 115q100 69 154 129h8q31 0 45 -21q-36 -30 -113 -123t-124 -130q-74 -60 -150 -60q-30 0 -49 4q-7 -10 -16 -10q-8 0 -21.5 17t-25.5 16q-74 80 -74 260v174
q0 26 16.5 75.5t16.5 75.5q0 7 -2 19q-21 7 -43 15q-26 10 -31 28q5 28 34 41q38 17 49 32q26 34 26 115q0 44 -14.5 129.5t-14.5 128.5q0 34 6 64q-12 17 -12 35q0 21 18 52q21 36 25 50q112 51 334 160q8 4 83 54q68 44 72 44t31 -35zM493 1811q-17 -17 -60 -92
q-34 -58 -77 -78q-68 -111 -129 -148q-64 19 -64 84q7 11 54 33q89 117 105 134q70 75 138 87z" />
    <glyph glyph-name="Ntilde" unicode="&#xd1;" horiz-adv-x="874" 
d="M913 1444q0 -42 -32 -120t-32 -124q0 -10 1 -20q-22 -105 -66 -314q-13 -64 -26 -102q-6 -14 -15 -41q-1 -17 -4 -50t-16 -114q-22 -112 -64 -336q-28 -5 -37 -53q-11 -59 -26 -74l10 -10q-18 -33 -55 -33q-31 0 -68 72q-51 99 -87.5 315t-86.5 314q-19 194 -139 276
q-10 -28 -10 -67q0 -26 7 -75.5t7 -74.5q0 -17 -4 -37q12 -40 12 -86q0 -29 -6 -86t-6 -86q0 -47 10 -82v-10q0 -8 1 -23.5t1 -23.5q0 -27 -15 -66t-15 -53t8 -27l-10 -210q-13 -13 -35 -13q-5 0 -20 2q-12 1 -19 0l-33 31q3 120 26 425q19 269 19 425q0 139 -12 264
q17 12 35 12q21 0 52 -18q36 -21 50 -25q75 -60 130 -171q41 -101 83 -201q-2 -14 -2 -17q0 -50 33 -90q15 -104 63 -307q-20 -15 -20 -35q0 -17 19 -46q21 -32 24 -46q34 31 53 96q18 62 32 164q19 132 25 166q16 78 35 135q10 22 25 66q2 24 8 73q6 46 24 131
q23 94 45 187q27 120 27 184q0 41 23 72h16q57 0 57 -43zM690 1467q0 -33 -22 -62.5t-23 -42.5q-18 -6 -48 -37q-23 -24 -69 -24q-65 0 -154 73q-3 19 -29 46t-28 40l-14 13q-91 -29 -113 -94q0 -1 -18 -31h-6q-35 0 -35 33q0 6 2.5 17t3.5 15q2 21 2 39q52 67 66 80
q44 41 92 41q41 0 66 -33q28 -36 38 -39q48 -61 53 -66q35 -36 72 -36q11 0 20 2q45 29 64 88l14 16q17 9 31 9q9 0 16 -2q19 -17 19 -45z" />
    <glyph glyph-name="Odieresis" unicode="&#xd6;" horiz-adv-x="610" 
d="M547 948q0 -22 -3 -134q-2 -82 1 -134q-23 -23 -23 -113q0 -34 -23.5 -92t-23.5 -84q0 -14 6 -29q-22 -15 -22 -86q0 -32 -30 -72q-25 -32 -50 -65q-97 -150 -110 -167q-74 -92 -160 -109q-29 15 -57 31.5t-38 52.5q-12 48 -12 112q0 53 31 252q3 35 12 103q9 41 25 125
q13 101 53 301q13 38 39 116q8 26 15 148q5 91 48 139q0 4 1 11.5t1 11.5q0 18 -12 18q-14 0 -20 -10q-13 5 -13 18q0 4 2 13q1 7 0 12q49 63 133 63q129 0 175 -116q-5 -9 -5 -17q0 -11 15 -27q17 -19 20 -30q25 -89 25 -242zM469 965q0 84 -29 182q-34 114 -86 160h-10
q-26 0 -43 -23q-2 -17 -28 -141q-18 -88 -18 -143q0 -23 3 -44q-30 -37 -39 -107q-13 -111 -14 -116l-21 -20l11 -13q-36 -86 -55 -247q-21 -181 -42 -250l11 -10q-11 -23 -11 -52q0 -10 2 -31.5t2 -31.5q0 -31 -14 -55q7 -7 12 -34q3 -22 17 -22q7 0 14 2q231 216 307 590
q21 100 21 131q0 9 -1 27.5t-1 27.5q0 37 6 110t6 110zM573 1579q-10 -22 -50 -36l-62 -20q-4 10 -16.5 15.5t-12.5 14.5v24q0 98 58 112q53 -18 83 -110zM307 1579q-10 -22 -50 -36l-62 -20q-4 10 -16.5 15.5t-12.5 14.5v24q0 98 58 112q52 -18 83 -110z" />
    <glyph glyph-name="Udieresis" unicode="&#xdc;" horiz-adv-x="881" 
d="M797 1161q0 -17 -13.5 -50t-13.5 -52q0 -5 3 -14.5t3 -14.5v-362q-22 -9 -22 -21q0 -8 12 -22t12 -23q0 -10 -14 -18q12 -38 12 -160v-31q-10 -8 -10 -47q0 -19 -12 -29q12 -7 12 -16q0 -6 -7 -18t-7 -19q0 -28 13 -89q11 -45 21 -91q-8 -2 -32 -13q-20 -10 -31 -10
q-17 0 -33 13q-22 73 -22 182q0 14 4 132q3 81 -2 132q10 18 10 45q0 15 -5 45t-5 45q0 27 10 45l-10 11q-35 -44 -74.5 -148.5t-75.5 -148.5q-6 -43 -54 -115.5t-52 -118.5q-50 -49 -148 -149q-136 10 -160 116q-43 198 -43 463q0 136 11 275q6 44 12 133v117q35 12 53 12
q47 -55 47 -154q0 -89 -36 -155v-203q0 -103 10 -178q-10 -12 -10 -64v-12l10 -10q-10 -9 -10 -21q0 -7 5 -21t5 -22q0 -12 -10 -20q19 -56 73 -160q56 7 96 73q48 81 74 97q163 292 242 575q11 49 35 146q7 25 18 76q5 65 35 190h4q44 0 70 -33v-10q0 -37 -11 -43
q11 -17 11 -37zM614 1394q-10 -22 -50 -36l-62 -20q-4 10 -16.5 15.5t-12.5 14.5v24q0 98 58 112q53 -18 83 -110zM348 1394q-10 -22 -50 -36l-62 -20q-4 10 -16.5 15.5t-12.5 14.5v24q0 98 58 112q52 -18 83 -110z" />
    <glyph glyph-name="aacute" unicode="&#xe1;" horiz-adv-x="750" 
d="M879 49q-64 -81 -90.5 -93.5t-131.5 -12.5q-30 0 -47 2q-35 49 -108 233q-22 -14 -41.5 -67t-52.5 -70v-2q0 -31 -37 -65t-39 -60q-58 -87 -201 -96q-108 49 -108 256q0 17 1 52t1 52q0 11 36 129q123 393 334 686q52 73 63 85q45 48 87 48q40 0 53 -47
q-15 -134 -43 -403q-10 -10 -10 -51v-13l10 -10q7 37 63 43q31 -19 31 -47q0 -18 -16.5 -52.5t-16.5 -54.5q0 -8 2 -16q-30 -30 -32 -93q-2 -70 -21 -97q1 -1 47 -143q32 -95 82 -95q48 0 75 27q15 16 42 71q6 2 16 2q16 0 29 -22q15 -28 23 -33v-43zM514 934q0 44 -2 29
q-6 22 -14 22q-5 0 -18.5 -22.5t-24.5 -22.5q-4 1 -6 2q-39 -59 -113 -180q-21 -38 -31 -60q-4 -12 -14 -36q-16 -23 -43 -70q-19 -52 -64 -152l11 -12q-2 -14 -33 -41q-56 -233 -56 -401q0 -35 3 -45q3 -18 19.5 -25t16.5 -14q0 -6 -4 -15h21q155 95 226 280q48 125 73 363
q30 279 51 365l-10 10q12 7 12 25zM534 1462q-17 -17 -60 -92q-34 -58 -77 -78q-68 -111 -129 -148q-64 19 -64 84q7 11 54 33q89 117 105 134q70 75 138 87z" />
    <glyph glyph-name="agrave" unicode="&#xe0;" horiz-adv-x="750" 
d="M879 49q-64 -81 -90.5 -93.5t-131.5 -12.5q-30 0 -47 2q-35 49 -108 233q-22 -14 -41.5 -67t-52.5 -70v-2q0 -31 -37 -65t-39 -60q-58 -87 -201 -96q-108 49 -108 256q0 17 1 52t1 52q0 11 36 129q123 393 334 686q52 73 63 85q45 48 87 48q40 0 53 -47
q-15 -134 -43 -403q-10 -10 -10 -51v-13l10 -10q7 37 63 43q31 -19 31 -47q0 -18 -16.5 -52.5t-16.5 -54.5q0 -8 2 -16q-30 -30 -32 -93q-2 -70 -21 -97q1 -1 47 -143q32 -95 82 -95q48 0 75 27q15 16 42 71q6 2 16 2q16 0 29 -22q15 -28 23 -33v-43zM514 934q0 44 -2 29
q-6 22 -14 22q-5 0 -18.5 -22.5t-24.5 -22.5q-4 1 -6 2q-39 -59 -113 -180q-21 -38 -31 -60q-4 -12 -14 -36q-16 -23 -43 -70q-19 -52 -64 -152l11 -12q-2 -14 -33 -41q-56 -233 -56 -401q0 -35 3 -45q3 -18 19.5 -25t16.5 -14q0 -6 -4 -15h21q155 95 226 280q48 125 73 363
q30 279 51 365l-10 10q12 7 12 25zM596 1323q0 -57 -63 -76q-62 37 -129 148q-44 20 -77 78q-44 75 -61 92l33 20q68 -12 139 -87q15 -17 105 -134q20 -7 53 -33v-8z" />
    <glyph glyph-name="acircumflex" unicode="&#xe2;" horiz-adv-x="750" 
d="M879 49q-64 -81 -90.5 -93.5t-131.5 -12.5q-30 0 -47 2q-35 49 -108 233q-22 -14 -41.5 -67t-52.5 -70v-2q0 -31 -37 -65t-39 -60q-58 -87 -201 -96q-108 49 -108 256q0 17 1 52t1 52q0 11 36 129q123 393 334 686q52 73 63 85q45 48 87 48q40 0 53 -47
q-15 -134 -43 -403q-10 -10 -10 -51v-13l10 -10q7 37 63 43q31 -19 31 -47q0 -18 -16.5 -52.5t-16.5 -54.5q0 -8 2 -16q-30 -30 -32 -93q-2 -70 -21 -97q1 -1 47 -143q32 -95 82 -95q48 0 75 27q15 16 42 71q6 2 16 2q16 0 29 -22q15 -28 23 -33v-43zM514 934q0 44 -2 29
q-6 22 -14 22q-5 0 -18.5 -22.5t-24.5 -22.5q-4 1 -6 2q-39 -59 -113 -180q-21 -38 -31 -60q-4 -12 -14 -36q-16 -23 -43 -70q-19 -52 -64 -152l11 -12q-2 -14 -33 -41q-56 -233 -56 -401q0 -35 3 -45q3 -18 19.5 -25t16.5 -14q0 -6 -4 -15h21q155 95 226 280q48 125 73 363
q30 279 51 365l-10 10q12 7 12 25zM758 1341q0 -10 -8 -22q-1 -1 -48 -28q-29 -17 -53 -17q-4 0 -14 2q-4 32 -48.5 61.5t-45.5 58.5q-18 3 -32.5 22t-29.5 23q-35 -15 -56 -53q-26 -43 -44 -57q2 -5 2 -8q0 -14 -24.5 -31t-24.5 -25q-12 -10 -31 -10q-32 0 -28 23l-2 2
q-2 5 -2 12q0 6 8 35q31 14 49 50q20 40 39 52q9 40 104 127q79 -7 145 -83q73 -85 121 -99q2 -5 14 -17q9 -9 9 -18z" />
    <glyph glyph-name="adieresis" unicode="&#xe4;" horiz-adv-x="750" 
d="M879 49q-64 -81 -90.5 -93.5t-131.5 -12.5q-30 0 -47 2q-35 49 -108 233q-22 -14 -41.5 -67t-52.5 -70v-2q0 -31 -37 -65t-39 -60q-58 -87 -201 -96q-108 49 -108 256q0 17 1 52t1 52q0 11 36 129q123 393 334 686q52 73 63 85q45 48 87 48q40 0 53 -47
q-15 -134 -43 -403q-10 -10 -10 -51v-13l10 -10q7 37 63 43q31 -19 31 -47q0 -18 -16.5 -52.5t-16.5 -54.5q0 -8 2 -16q-30 -30 -32 -93q-2 -70 -21 -97q1 -1 47 -143q32 -95 82 -95q48 0 75 27q15 16 42 71q6 2 16 2q16 0 29 -22q15 -28 23 -33v-43zM514 934q0 44 -2 29
q-6 22 -14 22q-5 0 -18.5 -22.5t-24.5 -22.5q-4 1 -6 2q-39 -59 -113 -180q-21 -38 -31 -60q-4 -12 -14 -36q-16 -23 -43 -70q-19 -52 -64 -152l11 -12q-2 -14 -33 -41q-56 -233 -56 -401q0 -35 3 -45q3 -18 19.5 -25t16.5 -14q0 -6 -4 -15h21q155 95 226 280q48 125 73 363
q30 279 51 365l-10 10q12 7 12 25zM594 1271q-10 -22 -50 -36l-62 -20q-4 10 -16.5 15.5t-12.5 14.5v24q0 98 58 112q53 -18 83 -110zM328 1271q-10 -22 -50 -36l-62 -20q-4 10 -16.5 15.5t-12.5 14.5v24q0 98 58 112q52 -18 83 -110z" />
    <glyph glyph-name="atilde" unicode="&#xe3;" horiz-adv-x="750" 
d="M879 49q-64 -81 -90.5 -93.5t-131.5 -12.5q-30 0 -47 2q-35 49 -108 233q-22 -14 -41.5 -67t-52.5 -70v-2q0 -31 -37 -65t-39 -60q-58 -87 -201 -96q-108 49 -108 256q0 17 1 52t1 52q0 11 36 129q123 393 334 686q52 73 63 85q45 48 87 48q40 0 53 -47
q-15 -134 -43 -403q-10 -10 -10 -51v-13l10 -10q7 37 63 43q31 -19 31 -47q0 -18 -16.5 -52.5t-16.5 -54.5q0 -8 2 -16q-30 -30 -32 -93q-2 -70 -21 -97q1 -1 47 -143q32 -95 82 -95q48 0 75 27q15 16 42 71q6 2 16 2q16 0 29 -22q15 -28 23 -33v-43zM514 934q0 44 -2 29
q-6 22 -14 22q-5 0 -18.5 -22.5t-24.5 -22.5q-4 1 -6 2q-39 -59 -113 -180q-21 -38 -31 -60q-4 -12 -14 -36q-16 -23 -43 -70q-19 -52 -64 -152l11 -12q-2 -14 -33 -41q-56 -233 -56 -401q0 -35 3 -45q3 -18 19.5 -25t16.5 -14q0 -6 -4 -15h21q155 95 226 280q48 125 73 363
q30 279 51 365l-10 10q12 7 12 25zM690 1426q0 -33 -22 -62.5t-23 -42.5q-18 -6 -48 -37q-23 -24 -69 -24q-65 0 -154 73q-3 19 -29 46t-28 40l-14 13q-91 -29 -113 -94q0 -1 -18 -31h-6q-35 0 -35 33q0 6 2.5 17t3.5 15q2 21 2 39q52 67 66 80q44 41 92 41q41 0 66 -33
q28 -36 38 -39q48 -61 53 -66q35 -36 72 -36q11 0 20 2q45 29 64 88l14 16q17 9 31 9q9 0 16 -2q19 -17 19 -45z" />
    <glyph glyph-name="aring" unicode="&#xe5;" horiz-adv-x="750" 
d="M879 49q-64 -81 -90.5 -93.5t-131.5 -12.5q-30 0 -47 2q-35 49 -108 233q-22 -14 -41.5 -67t-52.5 -70v-2q0 -31 -37 -65t-39 -60q-58 -87 -201 -96q-108 49 -108 256q0 17 1 52t1 52q0 11 36 129q123 393 334 686q52 73 63 85q45 48 87 48q40 0 53 -47
q-15 -134 -43 -403q-10 -10 -10 -51v-13l10 -10q7 37 63 43q31 -19 31 -47q0 -18 -16.5 -52.5t-16.5 -54.5q0 -8 2 -16q-30 -30 -32 -93q-2 -70 -21 -97q1 -1 47 -143q32 -95 82 -95q48 0 75 27q15 16 42 71q6 2 16 2q16 0 29 -22q15 -28 23 -33v-43zM514 934q0 44 -2 29
q-6 22 -14 22q-5 0 -18.5 -22.5t-24.5 -22.5q-4 1 -6 2q-39 -59 -113 -180q-21 -38 -31 -60q-4 -12 -14 -36q-16 -23 -43 -70q-19 -52 -64 -152l11 -12q-2 -14 -33 -41q-56 -233 -56 -401q0 -35 3 -45q3 -18 19.5 -25t16.5 -14q0 -6 -4 -15h21q155 95 226 280q48 125 73 363
q30 279 51 365l-10 10q12 7 12 25zM533 1419q0 -61 -35 -133q-51 -105 -139 -137q-113 0 -113 163q0 150 166 357q10 0 26 -8.5t25 -8.5q10 0 12 7q16 -32 43 -97q15 -39 15 -143zM455 1458q0 10 -7.5 27.5t-7.5 27.5q0 7 5 16l-5 3q-10 -1 -27.5 -21.5t-31.5 -21.5
q-17 -24 -26 -94q-9 -63 -37 -89q2 -3 12 -34q7 -23 22 -23q6 0 19 6q5 16 44 80q31 50 31 83q0 9 -1 17q10 10 10 23z" />
    <glyph glyph-name="ccedilla" unicode="&#xe7;" horiz-adv-x="569" 
d="M772 406q0 -20 -33 -54t-34 -55q-17 -23 -87 -80q-58 -47 -73 -90q-32 -4 -58 -24.5t-51 -41.5q-9 -5 -28 -18q-24 -29 -82 -76q0 -17 -13 -30l2 -5l-4 -14q54 0 74 -22q30 -3 52 -30.5t22 -58.5q0 -17 -8 -45q-15 -14 -37 -41q-6 -10 -11.5 -20t-17.5 -10q-6 0 -10 4
q-13 -12 -33 -10q-56 -27 -125 -27q-75 0 -98 31q-10 13 -10 16q0 37 43 37q9 0 24.5 -6.5t22.5 -7.5q8 6 12 6q3 0 8 -3t8 -3q33 0 84.5 30t55.5 60q-12 22 -68 22q-30 0 -61.5 -19.5t-34.5 -19.5q-14 0 -30.5 19.5t-16.5 34.5q0 17 15 30q27 22 27.5 24t6.5 9q11 15 26 53
l-4 -2q-5 5 -94 60q-54 33 -65 88q-25 117 -25 225q0 344 225 758q31 58 97 164q6 8 26 8q37 0 47 -41q10 -8 11 -32t12 -32q-10 -20 -10 -80q0 -33 -23 -57q14 -125 14 -145q0 -68 -24 -121q0 -11 2 -33.5t2 -34.5q0 -82 -51 -82q-49 0 -49 43q0 39 17 114t17 114
q0 37 -12 69q43 89 43 109t-12 41q-46 -17 -69 -73q-18 -48 -36 -97q-20 -38 -55 -117q-25 -86 -84 -254q16 -19 16 -41q0 -19 -21.5 -50t-21.5 -50t17 -39q-21 -39 -21 -88q0 -96 64 -189q36 -53 106 -53q7 0 33 8q65 21 131 83q55 55 111 110q9 38 71 87q56 43 56 95
q11 10 63 10h13q24 -19 24 -40z" />
    <glyph glyph-name="eacute" unicode="&#xe9;" horiz-adv-x="696" 
d="M715 246q0 -4 -2 -11q-1 -7 0 -12q-73 -87 -101 -111q-66 -59 -133 -59q-8 -10 -26 -22q-5 1 -17 12q-32 -57 -104 -57q-88 0 -139 14q-73 20 -133 111q-58 88 -58 165q0 44 10 54q-2 11 -2 30q0 60 37 127q7 11 19 33q14 43 49 127q83 174 280 383q13 4 29 4
q61 0 108 -80q1 -17 15 -46.5t14 -45.5q0 -12 -8 -24l12 -11l-12 -10q53 -100 53 -133q0 -32 -20 -57q-268 -12 -426 -133q-46 -35 -62 -58q-12 -17 -11 -53q2 -40 -4 -54t-17 -22q56 -221 180 -244q42 7 125 25q79 23 141 59q60 45 190 119q13 -5 13 -20zM502 743l-13 11
q3 12 3 24q0 46 -14 89q-20 59 -56 59q-30 0 -73 -48q-30 -35 -60 -71q0 -50 -36 -101q-59 -86 -60 -90q20 27 64 37q37 9 75 17q21 27 88 36q64 9 82 37zM534 1421q-17 -17 -60 -92q-34 -58 -77 -78q-68 -111 -129 -148q-64 19 -64 84q7 11 54 33q89 117 105 134
q70 75 138 87z" />
    <glyph glyph-name="egrave" unicode="&#xe8;" horiz-adv-x="696" 
d="M715 246q0 -4 -2 -11q-1 -7 0 -12q-73 -87 -101 -111q-66 -59 -133 -59q-8 -10 -26 -22q-5 1 -17 12q-32 -57 -104 -57q-88 0 -139 14q-73 20 -133 111q-58 88 -58 165q0 44 10 54q-2 11 -2 30q0 60 37 127q7 11 19 33q14 43 49 127q83 174 280 383q13 4 29 4
q61 0 108 -80q1 -17 15 -46.5t14 -45.5q0 -12 -8 -24l12 -11l-12 -10q53 -100 53 -133q0 -32 -20 -57q-268 -12 -426 -133q-46 -35 -62 -58q-12 -17 -11 -53q2 -40 -4 -54t-17 -22q56 -221 180 -244q42 7 125 25q79 23 141 59q60 45 190 119q13 -5 13 -20zM502 743l-13 11
q3 12 3 24q0 46 -14 89q-20 59 -56 59q-30 0 -73 -48q-30 -35 -60 -71q0 -50 -36 -101q-59 -86 -60 -90q20 27 64 37q37 9 75 17q21 27 88 36q64 9 82 37zM514 1241q0 -57 -63 -76q-62 37 -129 148q-44 20 -77 78q-44 75 -61 92l33 20q68 -12 139 -87q15 -17 105 -134
q20 -7 53 -33v-8z" />
    <glyph glyph-name="ecircumflex" unicode="&#xea;" horiz-adv-x="696" 
d="M715 246q0 -4 -2 -11q-1 -7 0 -12q-73 -87 -101 -111q-66 -59 -133 -59q-8 -10 -26 -22q-5 1 -17 12q-32 -57 -104 -57q-88 0 -139 14q-73 20 -133 111q-58 88 -58 165q0 44 10 54q-2 11 -2 30q0 60 37 127q7 11 19 33q14 43 49 127q83 174 280 383q13 4 29 4
q61 0 108 -80q1 -17 15 -46.5t14 -45.5q0 -12 -8 -24l12 -11l-12 -10q53 -100 53 -133q0 -32 -20 -57q-268 -12 -426 -133q-46 -35 -62 -58q-12 -17 -11 -53q2 -40 -4 -54t-17 -22q56 -221 180 -244q42 7 125 25q79 23 141 59q60 45 190 119q13 -5 13 -20zM502 743l-13 11
q3 12 3 24q0 46 -14 89q-20 59 -56 59q-30 0 -73 -48q-30 -35 -60 -71q0 -50 -36 -101q-59 -86 -60 -90q20 27 64 37q37 9 75 17q21 27 88 36q64 9 82 37zM717 1239q0 -10 -8 -22q-1 -1 -48 -28q-29 -17 -53 -17q-4 0 -14 2q-4 32 -48.5 61.5t-45.5 58.5q-18 3 -32.5 22
t-29.5 23q-35 -15 -56 -53q-26 -43 -44 -57q2 -5 2 -8q0 -14 -24.5 -31t-24.5 -25q-12 -10 -31 -10q-32 0 -28 23l-2 2q-2 5 -2 12q0 6 8 35q31 14 49 50q20 40 39 52q9 40 104 127q79 -7 145 -83q73 -85 121 -99q2 -5 14 -17q9 -9 9 -18z" />
    <glyph glyph-name="edieresis" unicode="&#xeb;" horiz-adv-x="696" 
d="M715 246q0 -4 -2 -11q-1 -7 0 -12q-73 -87 -101 -111q-66 -59 -133 -59q-8 -10 -26 -22q-5 1 -17 12q-32 -57 -104 -57q-88 0 -139 14q-73 20 -133 111q-58 88 -58 165q0 44 10 54q-2 11 -2 30q0 60 37 127q7 11 19 33q14 43 49 127q83 174 280 383q13 4 29 4
q61 0 108 -80q1 -17 15 -46.5t14 -45.5q0 -12 -8 -24l12 -11l-12 -10q53 -100 53 -133q0 -32 -20 -57q-268 -12 -426 -133q-46 -35 -62 -58q-12 -17 -11 -53q2 -40 -4 -54t-17 -22q56 -221 180 -244q42 7 125 25q79 23 141 59q60 45 190 119q13 -5 13 -20zM502 743l-13 11
q3 12 3 24q0 46 -14 89q-20 59 -56 59q-30 0 -73 -48q-30 -35 -60 -71q0 -50 -36 -101q-59 -86 -60 -90q20 27 64 37q37 9 75 17q21 27 88 36q64 9 82 37zM635 1210q-10 -22 -50 -36l-62 -20q-4 10 -16.5 15.5t-12.5 14.5v24q0 98 58 112q53 -18 83 -110zM369 1210
q-10 -22 -50 -36l-62 -20q-4 10 -16.5 15.5t-12.5 14.5v24q0 98 58 112q52 -18 83 -110z" />
    <glyph glyph-name="iacute" unicode="&#xed;" horiz-adv-x="319" 
d="M211 74q-23 -13 -23 -31q0 -11 10.5 -30.5t10.5 -28.5q0 -20 -39 -27q-24 10 -64 43q1 104 1 207q-1 123 -13 207q-10 11 -10 28q0 11 6 30t6 30q0 15 -12 28q22 58 22 222q0 68 11 108q8 2 18 2q24 0 32 -36q8 -43 23 -52q9 -35 9 -65q0 -38 -14.5 -113t-14.5 -113
q0 -64 31 -112v-146q0 -91 10 -151zM391 1401q-17 -17 -60 -92q-34 -58 -77 -78q-68 -111 -129 -148q-64 19 -64 84q7 11 54 33q89 117 105 134q70 75 138 87z" />
    <glyph glyph-name="igrave" unicode="&#xec;" horiz-adv-x="319" 
d="M211 74q-23 -13 -23 -31q0 -11 10.5 -30.5t10.5 -28.5q0 -20 -39 -27q-24 10 -64 43q1 104 1 207q-1 123 -13 207q-10 11 -10 28q0 11 6 30t6 30q0 15 -12 28q22 58 22 222q0 68 11 108q8 2 18 2q24 0 32 -36q8 -43 23 -52q9 -35 9 -65q0 -38 -14.5 -113t-14.5 -113
q0 -64 31 -112v-146q0 -91 10 -151zM248 1098q0 -57 -63 -76q-62 37 -129 148q-44 20 -77 78q-44 75 -61 92l33 20q68 -12 139 -87q15 -17 105 -134q20 -7 53 -33v-8z" />
    <glyph glyph-name="icircumflex" unicode="&#xee;" horiz-adv-x="319" 
d="M211 74q-23 -13 -23 -31q0 -11 10.5 -30.5t10.5 -28.5q0 -20 -39 -27q-24 10 -64 43q1 104 1 207q-1 123 -13 207q-10 11 -10 28q0 11 6 30t6 30q0 15 -12 28q22 58 22 222q0 68 11 108q8 2 18 2q24 0 32 -36q8 -43 23 -52q9 -35 9 -65q0 -38 -14.5 -113t-14.5 -113
q0 -64 31 -112v-146q0 -91 10 -151zM410 1116q0 -10 -8 -22q-1 -1 -48 -28q-29 -17 -53 -17q-4 0 -14 2q-4 32 -48.5 61.5t-45.5 58.5q-18 3 -32.5 22t-29.5 23q-35 -15 -56 -53q-26 -43 -44 -57q2 -5 2 -8q0 -14 -24.5 -31t-24.5 -25q-12 -10 -31 -10q-32 0 -28 23l-2 2
q-2 5 -2 12q0 6 8 35q31 14 49 50q20 40 39 52q9 40 104 127q79 -7 145 -83q73 -85 121 -99q2 -5 14 -17q9 -9 9 -18z" />
    <glyph glyph-name="idieresis" unicode="&#xef;" horiz-adv-x="319" 
d="M211 74q-23 -13 -23 -31q0 -11 10.5 -30.5t10.5 -28.5q0 -20 -39 -27q-24 10 -64 43q1 104 1 207q-1 123 -13 207q-10 11 -10 28q0 11 6 30t6 30q0 15 -12 28q22 58 22 222q0 68 11 108q8 2 18 2q24 0 32 -36q8 -43 23 -52q9 -35 9 -65q0 -38 -14.5 -113t-14.5 -113
q0 -64 31 -112v-146q0 -91 10 -151zM348 1067q-10 -22 -50 -36l-62 -20q-4 10 -16.5 15.5t-12.5 14.5v24q0 98 58 112q53 -18 83 -110zM82 1067q-10 -22 -50 -36l-62 -20q-4 10 -16.5 15.5t-12.5 14.5v24q0 98 58 112q52 -18 83 -110z" />
    <glyph glyph-name="ntilde" unicode="&#xf1;" horiz-adv-x="723" 
d="M647 78q-8 -12 -8 -78q0 -45 -35 -59q-40 -1 -63 30q2 39 2 78q0 75 -11.5 224.5t-11.5 224.5q0 58 -30 162q-31 108 -33 161l-33 31q-34 -27 -31 -84q-17 -3 -24.5 -35t-28.5 -39q0 -61 -26 -130l-50 -122q-7 -18 -16 -55q-1 -11 -4 -33q-1 -3 -25 -69q-11 -32 -59 -164
q18 -20 18 -43q0 -21 -16 -49q-22 -37 -25 -45l-10 10q-5 -10 -16 -10t-15 10l-33 31q-20 95 -20 221q0 63 7 190t7 191q0 56 -4 108q12 23 64 23q33 -59 33 -129q0 -39 -11.5 -116t-11.5 -116l23 -22q35 28 51 99q19 77 43 104q23 101 112 284q14 34 47 96q17 25 37 25
q23 0 51 -35q20 -26 39 -53q1 -5 39 -144q25 -93 25 -143q0 -85 22 -127v-213q0 -10 5.5 -39t5.5 -45q0 -51 -11 -84q23 -23 27 -23q3 0 4 1zM629 1282q0 -33 -22 -62.5t-23 -42.5q-18 -6 -48 -37q-23 -24 -69 -24q-65 0 -154 73q-3 19 -29 46t-28 40l-14 13
q-91 -29 -113 -94q0 -1 -18 -31h-6q-35 0 -35 33q0 6 2.5 17t3.5 15q2 21 2 39q52 67 66 80q44 41 92 41q41 0 66 -33q28 -36 38 -39q48 -61 53 -66q35 -36 72 -36q11 0 20 2q45 29 64 88l14 16q17 9 31 9q9 0 16 -2q19 -17 19 -45z" />
    <glyph glyph-name="oacute" unicode="&#xf3;" horiz-adv-x="514" 
d="M471 676q0 -71 -17 -173q-14 -86 -28 -171q-46 -65 -46 -95q0 -11 3 -22q-21 -48 -68 -109q-40 -51 -79 -102q-19 -3 -47 -27t-50 -26q-11 10 -57 10q-34 0 -49 23q-31 46 -31 159q0 83 33 228q36 158 41 227q3 46 36.5 128t37.5 126l-21 22q-19 -2 -32 -25l-21 -38h-4
q-3 0 -9.5 -1t-9.5 -1q-14 0 -20 12q3 24 30 56.5t33 50.5q74 61 170 61q87 0 140 -84q65 -104 65 -229zM383 612q0 18 -7 52.5t-7 52.5q0 12 4 28q-15 46 -29 91q-22 51 -68 59q-16 -34 -40 -107q-33 -144 -97 -434q-22 -102 -22 -110q0 -7 2 -17q-21 -100 -21 -116
q0 -29 11 -54q63 25 110 89q24 34 70 126q11 20 30 60q13 45 54 129v104q10 20 10 47zM514 1442q-17 -17 -60 -92q-34 -58 -77 -78q-68 -111 -129 -148q-64 19 -64 84q7 11 54 33q89 117 105 134q70 75 138 87z" />
    <glyph glyph-name="ograve" unicode="&#xf2;" horiz-adv-x="514" 
d="M471 676q0 -71 -17 -173q-14 -86 -28 -171q-46 -65 -46 -95q0 -11 3 -22q-21 -48 -68 -109q-40 -51 -79 -102q-19 -3 -47 -27t-50 -26q-11 10 -57 10q-34 0 -49 23q-31 46 -31 159q0 83 33 228q36 158 41 227q3 46 36.5 128t37.5 126l-21 22q-19 -2 -32 -25l-21 -38h-4
q-3 0 -9.5 -1t-9.5 -1q-14 0 -20 12q3 24 30 56.5t33 50.5q74 61 170 61q87 0 140 -84q65 -104 65 -229zM383 612q0 18 -7 52.5t-7 52.5q0 12 4 28q-15 46 -29 91q-22 51 -68 59q-16 -34 -40 -107q-33 -144 -97 -434q-22 -102 -22 -110q0 -7 2 -17q-21 -100 -21 -116
q0 -29 11 -54q63 25 110 89q24 34 70 126q11 20 30 60q13 45 54 129v104q10 20 10 47zM432 1200q0 -57 -63 -76q-62 37 -129 148q-44 20 -77 78q-44 75 -61 92l33 20q68 -12 139 -87q15 -17 105 -134q20 -7 53 -33v-8z" />
    <glyph glyph-name="ocircumflex" unicode="&#xf4;" horiz-adv-x="514" 
d="M471 676q0 -71 -17 -173q-14 -86 -28 -171q-46 -65 -46 -95q0 -11 3 -22q-21 -48 -68 -109q-40 -51 -79 -102q-19 -3 -47 -27t-50 -26q-11 10 -57 10q-34 0 -49 23q-31 46 -31 159q0 83 33 228q36 158 41 227q3 46 36.5 128t37.5 126l-21 22q-19 -2 -32 -25l-21 -38h-4
q-3 0 -9.5 -1t-9.5 -1q-14 0 -20 12q3 24 30 56.5t33 50.5q74 61 170 61q87 0 140 -84q65 -104 65 -229zM383 612q0 18 -7 52.5t-7 52.5q0 12 4 28q-15 46 -29 91q-22 51 -68 59q-16 -34 -40 -107q-33 -144 -97 -434q-22 -102 -22 -110q0 -7 2 -17q-21 -100 -21 -116
q0 -29 11 -54q63 25 110 89q24 34 70 126q11 20 30 60q13 45 54 129v104q10 20 10 47zM553 1218q0 -10 -8 -22q-1 -1 -48 -28q-29 -17 -53 -17q-4 0 -14 2q-4 32 -48.5 61.5t-45.5 58.5q-18 3 -32.5 22t-29.5 23q-35 -15 -56 -53q-26 -43 -44 -57q2 -5 2 -8q0 -14 -24.5 -31
t-24.5 -25q-12 -10 -31 -10q-32 0 -28 23l-2 2q-2 5 -2 12q0 6 8 35q31 14 49 50q20 40 39 52q9 40 104 127q79 -7 145 -83q73 -85 121 -99q2 -5 14 -17q9 -9 9 -18z" />
    <glyph glyph-name="odieresis" unicode="&#xf6;" horiz-adv-x="514" 
d="M471 676q0 -71 -17 -173q-14 -86 -28 -171q-46 -65 -46 -95q0 -11 3 -22q-21 -48 -68 -109q-40 -51 -79 -102q-19 -3 -47 -27t-50 -26q-11 10 -57 10q-34 0 -49 23q-31 46 -31 159q0 83 33 228q36 158 41 227q3 46 36.5 128t37.5 126l-21 22q-19 -2 -32 -25l-21 -38h-4
q-3 0 -9.5 -1t-9.5 -1q-14 0 -20 12q3 24 30 56.5t33 50.5q74 61 170 61q87 0 140 -84q65 -104 65 -229zM383 612q0 18 -7 52.5t-7 52.5q0 12 4 28q-15 46 -29 91q-22 51 -68 59q-16 -34 -40 -107q-33 -144 -97 -434q-22 -102 -22 -110q0 -7 2 -17q-21 -100 -21 -116
q0 -29 11 -54q63 25 110 89q24 34 70 126q11 20 30 60q13 45 54 129v104q10 20 10 47zM471 1169q-10 -22 -50 -36l-62 -20q-4 10 -16.5 15.5t-12.5 14.5v24q0 98 58 112q53 -18 83 -110zM205 1169q-10 -22 -50 -36l-62 -20q-4 10 -16.5 15.5t-12.5 14.5v24q0 98 58 112
q52 -18 83 -110z" />
    <glyph glyph-name="otilde" unicode="&#xf5;" horiz-adv-x="514" 
d="M471 676q0 -71 -17 -173q-14 -86 -28 -171q-46 -65 -46 -95q0 -11 3 -22q-21 -48 -68 -109q-40 -51 -79 -102q-19 -3 -47 -27t-50 -26q-11 10 -57 10q-34 0 -49 23q-31 46 -31 159q0 83 33 228q36 158 41 227q3 46 36.5 128t37.5 126l-21 22q-19 -2 -32 -25l-21 -38h-4
q-3 0 -9.5 -1t-9.5 -1q-14 0 -20 12q3 24 30 56.5t33 50.5q74 61 170 61q87 0 140 -84q65 -104 65 -229zM383 612q0 18 -7 52.5t-7 52.5q0 12 4 28q-15 46 -29 91q-22 51 -68 59q-16 -34 -40 -107q-33 -144 -97 -434q-22 -102 -22 -110q0 -7 2 -17q-21 -100 -21 -116
q0 -29 11 -54q63 25 110 89q24 34 70 126q11 20 30 60q13 45 54 129v104q10 20 10 47zM588 1303q0 -33 -22 -62.5t-23 -42.5q-18 -6 -48 -37q-23 -24 -69 -24q-65 0 -154 73q-3 19 -29 46t-28 40l-14 13q-91 -29 -113 -94q0 -1 -18 -31h-6q-35 0 -35 33q0 6 2.5 17t3.5 15
q2 21 2 39q52 67 66 80q44 41 92 41q41 0 66 -33q28 -36 38 -39q48 -61 53 -66q35 -36 72 -36q11 0 20 2q45 29 64 88l14 16q17 9 31 9q9 0 16 -2q19 -17 19 -45z" />
    <glyph glyph-name="uacute" unicode="&#xfa;" horiz-adv-x="733" 
d="M690 -25q-11 -16 -10 -66q0 -45 -23 -61q-106 4 -106 134q0 12 1 37t1 36q0 51 -12 80q0 28 11 83t11 83q0 43 -22 78v10q0 9 1 27.5t1 27.5q0 38 -13 62q-49 -122 -99 -243q-62 -145 -144 -214q0 -46 -97 -115q-13 11 -34 11q-6 0 -17.5 -2t-17.5 -2q-32 0 -47 34
q-11 166 -11 377v484q5 10 35 10h8q31 -32 31 -86q0 -20 -5 -58.5t-5 -58.5q0 -45 20 -74v-360q0 12 9 -29q4 -20 4 -119q5 -12 30 -12q2 2 74 107q44 65 86 96q12 42 78 180q9 21 29 64q75 151 106 383q11 8 27 8q28 0 57 -31v-43h-10q-12 -47 -12 -100t12 -101
q-12 -37 -12 -80q0 -31 9 -93.5t9 -94.5q0 -31 -6 -61l10 -11v-51q0 -22 -5 -64.5t-5 -64.5v-4q0 -84 53 -113zM596 1299q-17 -17 -60 -92q-34 -58 -77 -78q-68 -111 -129 -148q-64 19 -64 84q7 11 54 33q89 117 105 134q70 75 138 87z" />
    <glyph glyph-name="ugrave" unicode="&#xf9;" horiz-adv-x="733" 
d="M690 -25q-11 -16 -10 -66q0 -45 -23 -61q-106 4 -106 134q0 12 1 37t1 36q0 51 -12 80q0 28 11 83t11 83q0 43 -22 78v10q0 9 1 27.5t1 27.5q0 38 -13 62q-49 -122 -99 -243q-62 -145 -144 -214q0 -46 -97 -115q-13 11 -34 11q-6 0 -17.5 -2t-17.5 -2q-32 0 -47 34
q-11 166 -11 377v484q5 10 35 10h8q31 -32 31 -86q0 -20 -5 -58.5t-5 -58.5q0 -45 20 -74v-360q0 12 9 -29q4 -20 4 -119q5 -12 30 -12q2 2 74 107q44 65 86 96q12 42 78 180q9 21 29 64q75 151 106 383q11 8 27 8q28 0 57 -31v-43h-10q-12 -47 -12 -100t12 -101
q-12 -37 -12 -80q0 -31 9 -93.5t9 -94.5q0 -31 -6 -61l10 -11v-51q0 -22 -5 -64.5t-5 -64.5v-4q0 -84 53 -113zM432 1077q0 -57 -63 -76q-62 37 -129 148q-44 20 -77 78q-44 75 -61 92l33 20q68 -12 139 -87q15 -17 105 -134q20 -7 53 -33v-8z" />
    <glyph glyph-name="ucircumflex" unicode="&#xfb;" horiz-adv-x="733" 
d="M690 -25q-11 -16 -10 -66q0 -45 -23 -61q-106 4 -106 134q0 12 1 37t1 36q0 51 -12 80q0 28 11 83t11 83q0 43 -22 78v10q0 9 1 27.5t1 27.5q0 38 -13 62q-49 -122 -99 -243q-62 -145 -144 -214q0 -46 -97 -115q-13 11 -34 11q-6 0 -17.5 -2t-17.5 -2q-32 0 -47 34
q-11 166 -11 377v484q5 10 35 10h8q31 -32 31 -86q0 -20 -5 -58.5t-5 -58.5q0 -45 20 -74v-360q0 12 9 -29q4 -20 4 -119q5 -12 30 -12q2 2 74 107q44 65 86 96q12 42 78 180q9 21 29 64q75 151 106 383q11 8 27 8q28 0 57 -31v-43h-10q-12 -47 -12 -100t12 -101
q-12 -37 -12 -80q0 -31 9 -93.5t9 -94.5q0 -31 -6 -61l10 -11v-51q0 -22 -5 -64.5t-5 -64.5v-4q0 -84 53 -113zM614 1116q0 -10 -8 -22q-1 -1 -48 -28q-29 -17 -53 -17q-4 0 -14 2q-4 32 -48.5 61.5t-45.5 58.5q-18 3 -32.5 22t-29.5 23q-35 -15 -56 -53q-26 -43 -44 -57
q2 -5 2 -8q0 -14 -24.5 -31t-24.5 -25q-12 -10 -31 -10q-32 0 -28 23l-2 2q-2 5 -2 12q0 6 8 35q31 14 49 50q20 40 39 52q9 40 104 127q79 -7 145 -83q73 -85 121 -99q2 -5 14 -17q9 -9 9 -18z" />
    <glyph glyph-name="udieresis" unicode="&#xfc;" horiz-adv-x="733" 
d="M690 -25q-11 -16 -10 -66q0 -45 -23 -61q-106 4 -106 134q0 12 1 37t1 36q0 51 -12 80q0 28 11 83t11 83q0 43 -22 78v10q0 9 1 27.5t1 27.5q0 38 -13 62q-49 -122 -99 -243q-62 -145 -144 -214q0 -46 -97 -115q-13 11 -34 11q-6 0 -17.5 -2t-17.5 -2q-32 0 -47 34
q-11 166 -11 377v484q5 10 35 10h8q31 -32 31 -86q0 -20 -5 -58.5t-5 -58.5q0 -45 20 -74v-360q0 12 9 -29q4 -20 4 -119q5 -12 30 -12q2 2 74 107q44 65 86 96q12 42 78 180q9 21 29 64q75 151 106 383q11 8 27 8q28 0 57 -31v-43h-10q-12 -47 -12 -100t12 -101
q-12 -37 -12 -80q0 -31 9 -93.5t9 -94.5q0 -31 -6 -61l10 -11v-51q0 -22 -5 -64.5t-5 -64.5v-4q0 -84 53 -113zM553 1026q-10 -22 -50 -36l-62 -20q-4 10 -16.5 15.5t-12.5 14.5v24q0 98 58 112q53 -18 83 -110zM287 1026q-10 -22 -50 -36l-62 -20q-4 10 -16.5 15.5
t-12.5 14.5v24q0 98 58 112q52 -18 83 -110z" />
    <glyph glyph-name="dagger" unicode="&#x2020;" horiz-adv-x="1024" 
d="M952 920h-372v-1135h-142v1135h-366v131h366v422h142v-422h372v-131z" />
    <glyph glyph-name="degree" unicode="&#xb0;" horiz-adv-x="674" 
d="M614 1174q0 -116 -81.5 -197.5t-196.5 -81.5q-116 0 -196.5 81.5t-80.5 197.5q0 115 81.5 196.5t197.5 81.5q114 0 195 -82.5t81 -195.5zM545 1174q0 87 -60.5 147.5t-146.5 60.5q-87 0 -148 -61t-61 -147q0 -88 60.5 -147.5t148.5 -59.5t147.5 59t59.5 148z" />
    <glyph glyph-name="cent" unicode="&#xa2;" horiz-adv-x="666" 
d="M889 600q0 -12 -38 -34t-40 -36q-17 -12 -99 -50q-68 -30 -85 -58q-28 -2 -123 -41l-39 -12q-18 -11 -53 -31q-10 -155 -50 -236q5 -14 5 -28q0 -21 -8.5 -61t-8.5 -60q0 -31 12 -55q-2 -24 -24 -62q-64 6 -96 72q18 56 28 209q10 135 43 202l-8 11q-25 0 -49 -8
q-51 17 -103 34q-68 24 -81 60q-29 74 -29 143q0 257 373 588q25 220 53 346l-10 47h47q14 -41 14 -92q0 -31 -7 -92t-7 -92q0 -63 24 -111q-14 -13 -22 -29q6 -4 7.5 -18t12.5 -19q-12 -13 -12 -51q0 -19 -14 -30q6 -39 6 -54q0 -81 -25 -114v-17q0 -33 -4 -53
q-51 -245 -63 -371q45 15 107 50q103 56 104 57q11 25 83 54q64 27 64 60q17 9 72 9h14q29 -12 29 -27zM403 1038q-36 -14 -57 -42.5t-41 -57.5q-23 -27 -65 -84q-29 -53 -95 -154q21 -12 21 -24q0 -13 -25.5 -33t-25.5 -33t18 -24q-24 -26 -24 -58q0 -58 73 -118
q43 -35 123 -35q2 0 8 2q34 144 60 368q-6 5 -6 17q0 7 16 69q3 40 10 117l-2 2l4 4z" />
    <glyph glyph-name="sterling" unicode="&#xa3;" horiz-adv-x="911" 
d="M889 61q0 -45 -60 -45q-31 0 -94 2t-94 2q-137 0 -410 -94q-118 -41 -135 -41q-36 0 -51 24q-8 12 -20 56q37 75 58 190q16 99 32 197q-38 -6 -52 -6q-63 0 -61 70q58 19 129 28q71 280 141 394q-10 11 -10 20q0 12 23 27q27 17 32 30q68 156 160 232q8 -14 23 -14
q9 0 26.5 6t26.5 6q108 -50 184 -172q19 -93 19 -127q0 -85 -51 -127q-10 -25 -41 -25q-8 0 -19 2q-4 9 -4 19q0 16 28.5 42.5t28.5 49.5q0 11 -5.5 32.5t-6.5 28.5q-13 95 -18 109q-18 47 -78 76q-30 14 -49 14q-31 0 -63 -37q-50 -55 -52 -57q-137 -214 -199 -516
q76 11 135 35q14 -7 29 -7q19 0 52.5 13.5t48.5 13.5q45 0 45 -59q0 -45 -48 -58q-2 0 -90 -8q-110 -9 -186 -29q-1 -69 -27 -182q-31 -135 -36 -180q36 10 108 31q18 8 53 22q11 4 84 14q120 18 176 41q21 -2 45 -2q28 0 82.5 4.5t81.5 4.5q60 0 103 -15q6 -21 6 -35z" />
    <glyph glyph-name="section" unicode="&#xa7;" horiz-adv-x="1024" 
d="M922 598q0 -173 -187 -276q99 -93 99 -224q0 -135 -106 -216q-95 -72 -234 -72q-161 0 -247.5 85.5t-86.5 243.5v33h141v-20q0 -213 199 -213q188 0 188 157q0 98 -215 234l-172 108q-203 128 -203 285q0 192 191 295q-96 76 -96 203q0 136 98 216q92 74 231 74
q145 0 231.5 -88t86.5 -231v-33h-138q-4 227 -192 227q-77 0 -125.5 -42.5t-48.5 -116.5q0 -102 153 -191l203 -116q230 -133 230 -322zM772 580q0 117 -162 217l-233 143q-139 -57 -139 -180q0 -113 149 -205l262 -162q123 82 123 187z" />
    <glyph glyph-name="bullet" unicode="&#x2022;" horiz-adv-x="1208" 
d="M899 762q0 -122 -87.5 -209.5t-209.5 -87.5t-208.5 87.5t-86.5 209.5q0 124 86 209.5t211 85.5q124 0 209.5 -85.5t85.5 -209.5z" />
    <glyph glyph-name="paragraph" unicode="&#xb6;" horiz-adv-x="1024" 
d="M940 1409h-127v-1409h-82v1409h-186v-1409h-84v782q-173 8 -275 103t-102 245q0 155 108 252t285 97h463v-70z" />
    <glyph glyph-name="germandbls" unicode="&#xdf;" horiz-adv-x="1042" 
d="M1020 268q0 -124 -115 -233q-17 -54 -86 -81l-114 -46q-50 -5 -138 10q-18 -8 -55 -8q-72 0 -137 20q-38 12 -55 57q-5 12 -19 81q12 22 37 22q8 0 27 -2q12 -9 47 -69q27 -48 59 -48q-6 0 86 6q115 8 174 28q92 31 133 106q5 11 17 34l40 74q17 36 17 82
q-28 69 -118 104l-158 46q-3 1 -84 41q-17 5 -50 18q-97 46 -143 143q-20 44 -20 62q0 17 8 59q17 90 67 162q32 48 115 133v6q0 21 12.5 59t12.5 58q0 -16 -19 61q-7 61 -41 179q-15 32 -51 76q-45 58 -55 73q-30 -3 -56 -38q-20 -29 -41 -58q-27 -35 -58 -117t-58 -117
q12 -24 12 -49q0 -17 -7.5 -57t-7.5 -59q0 -14 3 -25q-23 -22 -21 -86t-20 -84q10 -6 10 -66q0 -128 -10 -155q8 -15 8 -39q0 -14 -4 -40.5t-4 -39.5q0 -32 20 -51q-12 -122 -12 -127q0 -35 17.5 -101t17.5 -100q0 -35 -13 -66q7 -29 7 -57q0 -42 -17 -80q-13 -4 -24 -4
q-29 0 -50.5 25.5t-21.5 54.5q0 19 7.5 55.5t7.5 55.5q0 13 -3 24l10 10q0 20 -11 56t-11 53q0 7 1 19.5t1 19.5q0 25 -23 33l11 86q-6 25 -6 71q0 29 4 86.5t4 85.5q0 8 -1 22t-1 21q0 22 4 59q5 43 6 58q5 89 9 177q9 102 34 173q-4 13 -4 25q0 29 18 74q14 35 29 71
q57 169 201 318q63 -6 118 -70q41 -58 82 -117q30 -42 78 -180q-6 -4 -6 -8q0 -2 8 -8.5t8 -20.5q0 -48 -7 -131q-9 -106 -21 -119q-5 -4 -54 -69q-33 -43 -63 -60q-19 -98 -43 -104q-1 -20 -15 -58.5t-14 -60.5q0 -37 39 -63q138 -92 287 -131q25 -6 74 -17q17 -4 55 -22
q96 -46 115 -137q8 -39 8 -54z" />
    <glyph glyph-name="registered" unicode="&#xae;" 
d="M1585 723q0 -306 -211 -514q-222 -219 -522 -219t-515.5 216.5t-215.5 516.5q0 143 57 281q56 134 162 241q103 105 232 158t280 53q309 0 521 -214t212 -519zM1505 721q0 132 -49 254q-100 249 -350 352q-119 49 -254 49q-126 0 -246 -49t-209 -139
q-93 -95 -144.5 -216.5t-51.5 -248.5q0 -266 192.5 -458.5t458.5 -192.5q126 0 250 51q257 107 356 348q47 115 47 250zM1223 924q0 -91 -53 -149.5t-146 -72.5l188 -389h-145l-178 371h-197v-371h-127v844h309q349 0 349 -233zM1092 915q0 156 -242 156h-158v-303h158
q136 0 189 33t53 114z" />
    <glyph glyph-name="copyright" unicode="&#xa9;" 
d="M1585 723q0 -306 -211 -514q-222 -219 -522 -219q-299 0 -515 216t-216 517q0 144 57 281q121 286 393 399q130 53 281 53q149 0 283 -55q207 -86 328.5 -270t121.5 -408zM1505 723q0 131 -49 252q-101 249 -352 352q-119 49 -252 49q-130 0 -250 -49
q-244 -100 -350 -354q-51 -123 -51 -250q0 -266 192.5 -458.5t458.5 -192.5q126 0 250 51q258 107 356 348q47 116 47 252zM1200 555q-12 -132 -116 -211q-97 -74 -234 -74q-178 0 -279.5 122t-101.5 335q0 204 107 326.5t284 122.5q129 0 219 -66q98 -70 111 -195h-117
q-17 78 -75.5 123t-141.5 45q-122 0 -190 -95t-68 -267q0 -145 56 -239q67 -115 202 -115q89 0 151 50.5t78 137.5h115z" />
    <glyph glyph-name="trademark" unicode="&#x2122;" 
d="M1376 924h-71v467l-177 -467h-49l-186 467v-467h-72v530h117l166 -422l156 422h116v-530zM694 1397h-172v-473h-82v473h-176v57h430v-57z" />
    <glyph glyph-name="acute" unicode="&#xb4;" horiz-adv-x="532" 
d="M432 1360q-17 -17 -60 -92q-34 -58 -77 -78q-68 -111 -129 -148q-64 19 -64 84q7 11 54 33q89 117 105 134q70 75 138 87z" />
    <glyph glyph-name="dieresis" unicode="&#xa8;" horiz-adv-x="532" 
d="M471 1210q-10 -22 -50 -36l-62 -20q-4 10 -16.5 15.5t-12.5 14.5v24q0 98 58 112q53 -18 83 -110zM205 1210q-10 -22 -50 -36l-62 -20q-4 10 -16.5 15.5t-12.5 14.5v24q0 98 58 112q52 -18 83 -110z" />
    <glyph glyph-name="notequal" unicode="&#x2260;" 
d="M1452 375h-709l-254 -324l-73 60l205 264h-367v98h428l215 277h-643v96h707l253 323l74 -59l-205 -264h369v-96h-432l-215 -277h647v-98z" />
    <glyph glyph-name="AE" unicode="&#xc6;" horiz-adv-x="1098" 
d="M1075 276q-36 -30 -113 -123t-123 -130q-74 -60 -149 -60q-31 0 -49 4q-7 -10 -16 -10q-8 0 -22 17.5t-25 15.5q-76 82 -76 252v182q0 16 2 47t2 47q0 27 -4 76q-10 -2 -50 -26q-36 -21 -65 -21q-15 0 -25 4l-20 -20q-12 -13 -23 -13q-5 0 -10 2q-53 0 -127 -63l-10 10
q-37 -38 -37 -105q0 -15 2 -46.5t2 -47.5q0 -71 -41 -108q2 -8 2 -27q0 -16 -7 -46t-7 -46q0 -21 12 -41q-12 -12 -35 -12q-5 0 -19 1t-21 1l-21 30l86 680q21 21 21 113q0 21 10 57q11 54 37 160q30 109 90 328q16 -4 43 -21q16 20 62 127q39 94 65 107q12 6 28 6
q27 0 49 -35q14 -29 29 -57q35 -60 33 -178q108 47 317 153q3 2 70 45q56 37 62 37q9 0 18 -13l12 -22q-60 -82 -240 -163.5t-239 -159.5q5 -69 20 -205q2 -9 15 -44q10 -27 10 -54q0 -25 -12 -52l8 -71l104 60q64 32 113 32q5 0 18 -2l21 -21q-25 -24 -136 -83
q-91 -48 -116 -97q-27 -52 -27 -69q0 -20 10 -51q13 -39 15 -50q-9 -41 -11 -116q-3 -82 -9 -117q6 -10 25 -118q13 -77 69 -77q15 0 33 4q1 1 164 115q98 69 153 129h8q31 0 45 -21zM498 756q0 32 -19 225q-28 299 -30 463q-35 -16 -55 -71q-16 -44 -32 -89
q-12 -25 -12 -37q0 -22 12 -37q-67 -124 -113 -328l-77 -341q136 40 244 149l10 -10q13 16 43 16q29 22 29 60z" />
    <glyph glyph-name="Oslash" unicode="&#xd8;" horiz-adv-x="610" 
d="M557 1358q-22 -64 -45 -150q35 -39 35 -260q0 -22 -3 -134q-2 -82 1 -134q-23 -23 -23 -113q0 -34 -23.5 -92t-23.5 -84q0 -14 6 -29q-22 -15 -22 -86q0 -28 -10 -43q-25 -30 -70 -94q-44 -68 -87 -137q-56 -78 -114 -113q-2 -5 -16 -26q12 -15 12 -27q0 -6 -33 -65
q-14 -11 -28 -11q-24 0 -44 23t-20 47q0 20 12 37q-3 11 -2 20q-57 31 -57 172q0 55 31 252q3 35 12 103q9 41 25 125q13 101 53 301q13 38 39 116q8 26 15 148q5 90 48 139v6q0 3 1 8.5t1 8.5q0 18 -12 18q-13 0 -20 -10q-13 5 -13 18q0 4 2 13q1 7 0 12q49 63 133 63
q75 0 129 -51l15 60q8 -5 16 -5q10 0 28 6.5t27 6.5q22 0 25 -39zM469 965q0 24 -4 59q-4 -34 -23 -87q-27 -73 -30 -85q-14 -47 -30 -159q-15 -105 -34 -163q-12 -38 -37 -114q-20 -53 -53 -160q6 -16 6 -45q0 -61 -35 -133q151 193 209 481q21 101 21 131q0 9 -1 27.5
t-1 27.5q0 37 6 110t6 110zM418 1208q-28 68 -64 99h-10q-26 0 -43 -23q-2 -16 -28 -141q-18 -88 -18 -143q0 -23 3 -44q-30 -37 -38 -107q-14 -111 -15 -116l-21 -20l11 -13q-36 -86 -55 -247q-21 -181 -42 -250l11 -10q-11 -23 -11 -52q0 -10 2 -31.5t2 -31.5
q0 -32 -14 -55q5 -5 14 -43q17 51 48 155q5 19 16 105q2 13 49 172q68 226 90 383q25 13 25 75q0 26 21 93l30 96q11 41 37 149z" />
    <glyph glyph-name="infinity" unicode="&#x221e;" 
d="M1475 616q0 -151 -69 -256q-80 -122 -224 -122q-179 0 -314 264q-70 -139 -147.5 -201.5t-173.5 -62.5q-145 0 -233 118q-81 107 -81 256q0 151 70 256q80 121 223 121q98 0 171 -62.5t141 -205.5q63 127 127 187q86 81 204 81q126 0 222 -116q84 -104 84 -257zM1419 627
q0 139 -91 217q-54 45 -128 45q-106 0 -192 -119q-48 -65 -111 -211q52 -99 122 -149t159 -50q111 0 178 79q63 74 63 188zM811 668q-103 196 -281 196q-105 0 -173 -75t-68 -189q0 -103 57 -179q62 -83 162 -83q85 0 156.5 77t146.5 253z" />
    <glyph glyph-name="plusminus" unicode="&#xb1;" 
d="M1452 723h-549v-348h-98v348h-551v98h551v348h98v-348h549v-98zM1452 51h-1198v99h1198v-99z" />
    <glyph glyph-name="lessequal" unicode="&#x2264;" 
d="M1442 295l-1178 401v84l1178 402v-107l-1010 -338l1010 -336v-106zM1442 41h-1178v98h1178v-98z" />
    <glyph glyph-name="greaterequal" unicode="&#x2265;" 
d="M1442 696l-1178 -401v106l1010 336l-1010 338v107l1178 -402v-84zM1442 41h-1178v98h1178v-98z" />
    <glyph glyph-name="yen" unicode="&#xa5;" horiz-adv-x="778" 
d="M797 1499q0 -39 -33 -89q-48 -75 -52 -84t-96 -245q11 -10 11 -20q0 -11 -9.5 -31.5t-9.5 -32.5t8 -20q-30 -19 -30 -55q0 -14 5 -39.5t5 -38.5q0 -23 -23 -47q-55 -61 -71 -211q56 12 90 12q63 0 121 -25v-43h-41q-25 0 -33 -20q-41 -4 -129 -33q-4 -8 -31 -10
q-2 0 -43 -10q-12 -32 -12 -80q0 -44 10 -74q100 16 139 16q107 0 107 -75q-7 -6 -11 -33q-3 -23 -18 -23q-5 0 -12 2l-23 21q-32 -10 -84 -10q-53 0 -86 10l-10 -10l-10 10h-2q2 -54 2 -39q0 -52 -33 -78q13 -10 13 -28q0 -5 -1.5 -17t-1.5 -18l-10 -11l2 -22q0 -14 -2 -42
t-2 -42q0 -10 3 -29.5t3 -29.5q0 -46 -45 -58q-16 8 -33 16q-20 11 -20 27q0 21 20 137v62q0 34 5 49l6 18l14 91q-89 -27 -119 -27q-55 0 -86 41v4q0 65 64 65q10 0 32 -2t33 -2q45 0 62 21q19 -2 28 -2q9 50 25 151h-31q-12 9 -28 9q-14 0 -39 -11.5t-39 -11.5
q-16 0 -33 14l-10 -12q-10 18 -54 27q-38 8 -43 37q11 34 58 34q29 0 59 -12q60 3 158 33q-105 281 -211 477q-12 23 -64 37q-43 11 -43 43q0 4 3 14q20 23 45 23q20 0 51 -14q36 -16 51 -19q32 -40 76 -126q45 -90 73 -128q-2 -15 -2 -14q0 -38 31 -81q38 -56 45 -75
q42 90 135 435q73 272 185 413q7 0 41 -31v-8z" />
    <glyph glyph-name="mu" unicode="&#xb5;" horiz-adv-x="1110" 
d="M1036 1065l-164 -770q-7 -32 -18 -84q-4 -25 -4 -49q0 -66 68 -66h16l20 2l-20 -110q-39 -11 -86 -11q-70 0 -103.5 36.5t-33.5 109.5v14q-42 -77 -120 -119.5t-179 -42.5q-93 0 -161 39.5t-108 116.5l-114 -557h-140l316 1491h139l-125 -592q-16 -78 -16 -139
q0 -244 225 -244q126 0 215 106t133 312l121 557h139z" />
    <glyph glyph-name="mu" unicode="&#x3bc;" horiz-adv-x="1110" 
d="M1036 1065l-164 -770q-7 -32 -18 -84q-4 -25 -4 -49q0 -66 68 -66h16l20 2l-20 -110q-39 -11 -86 -11q-70 0 -103.5 36.5t-33.5 109.5v14q-42 -77 -120 -119.5t-179 -42.5q-93 0 -161 39.5t-108 116.5l-114 -557h-140l316 1491h139l-125 -592q-16 -78 -16 -139
q0 -244 225 -244q126 0 215 106t133 312l121 557h139z" />
    <glyph glyph-name="partialdiff" unicode="&#x2202;" horiz-adv-x="1034" 
d="M918 752q0 -336 -135.5 -557.5t-333.5 -221.5q-155 0 -244 119q-80 107 -80 266q0 179 109.5 304.5t261.5 125.5q97 0 161 -49q61 -47 95 -147q24 170 24 309q0 326 -155 326q-52 0 -110 -68.5t-101 -68.5q-30 0 -52 20.5t-22 46.5q0 72 77 115q64 37 142 37
q166 0 264.5 -149.5t98.5 -407.5zM711 463q0 258 -179 258q-136 0 -206 -165q-54 -125 -54 -282q0 -125 45.5 -188t133.5 -63q111 0 185.5 126t74.5 314z" />
    <glyph glyph-name="summation" unicode="&#x2211;" horiz-adv-x="1317" 
d="M1280 -393h-1266v133l744 821l-709 772v140h1223v-144h-1014l705 -766l-740 -813h1057v-143z" />
    <glyph glyph-name="product" unicode="&#x220f;" horiz-adv-x="1509" 
d="M1348 -393h-168v1718h-852v-1718h-168v1866h1188v-1866z" />
    <glyph glyph-name="pi" unicode="&#x3c0;" horiz-adv-x="1171" 
d="M1147 1065l-27 -121h-182l-115 -541q-30 -144 -30 -188q0 -106 110 -106q33 0 51 2q5 0 41 8l-26 -119q-58 -16 -101 -16q-213 0 -213 202q0 89 56 351l86 407h-365l-199 -944h-139l199 944h-39q-106 0 -127 -131h-131q25 144 90.5 198t212.5 54h848z" />
    <glyph glyph-name="integral" unicode="&#x222b;" horiz-adv-x="985" 
d="M938 1415q0 -104 -107 -104q-79 0 -104 69.5t-33 69.5q-105 0 -116 -623l-7 -288q-14 -495 -102 -705q-86 -205 -266 -205q-70 0 -114 36t-44 91q0 111 113 111q73 0 102 -68q3 -7 6 -32q5 -39 27 -39q104 0 117 712l4 197q8 362 50 542q85 369 316 369q67 0 110 -32
q48 -37 48 -101z" />
    <glyph glyph-name="ordfeminine" unicode="&#xaa;" horiz-adv-x="971" 
d="M866 836q-106 -140 -264 -140q-18 0 -43 4q-39 51 -104 160q-8 -10 -22 -45q-10 -27 -32 -41q0 -24 -27.5 -49.5t-27.5 -40.5q-44 -69 -156 -76q-86 37 -86 201v72q101 406 330 667q18 21 53 21q18 0 35.5 -13t16.5 -30h-2q-6 -64 -31 -295q-6 -4 -6 -25q18 16 45 19
q30 -19 30 -45q0 -15 -12 -40t-12 -39q0 -7 2 -14q-22 -20 -24 -64q-3 -51 -13 -69q18 -53 37 -107q26 -69 74 -69q45 0 99 47q51 45 67 90q13 7 20 7q17 0 30 -19q15 -22 23 -26v-41zM457 1419q0 4 -1 11.5t-1 11.5q-14 -24 -29 -27q-43 -60 -111 -190q-14 -11 -39 -72
l-34 -82l6 -6v-4q0 -13 -25 -37q-39 -164 -39 -262q0 -9 1 -26.5t1 -26.5q0 -2 11 -8t14 -19q107 66 156 198q34 89 52 256q22 199 36 257l-15 14q17 6 17 12z" />
    <glyph glyph-name="ordmasculine" unicode="&#xba;" horiz-adv-x="565" 
d="M461 1219q0 -49 -13 -126q-15 -96 -18 -124q-33 -45 -33 -66q0 -8 2 -16q-14 -34 -112 -162q-13 -1 -34.5 -19.5t-43.5 -19.5q-8 8 -37 8q-68 0 -68 140q0 60 24 165q26 115 30 164q2 33 25 91t26 87l-6 9q-9 -20 -33 -45h-18q-19 0 -25 16q2 22 22.5 46t24.5 38
q58 49 129 49q79 0 122 -82q36 -67 36 -153zM379 1174q0 11 -7 46q-5 29 -1 48q-9 27 -17 55q-12 33 -35 41q-11 -21 -26 -66q-3 -19 -49 -214q-41 -170 -35 -189q-14 -63 -14 -82q0 -16 2 -25q57 28 112 140q7 16 25 47q9 32 37 92v76q8 15 8 31z" />
    <glyph glyph-name="Omega" unicode="&#x3a9;" horiz-adv-x="1579" 
d="M1462 0h-581v127q419 251 419 668q0 261 -141 421t-368 160t-369 -159q-143 -162 -143 -420q0 -421 419 -670v-127h-581v139h344q-340 262 -340 645q0 310 178 515q187 214 492 214q291 0 480 -203.5t189 -523.5q0 -383 -342 -647h344v-139z" />
    <glyph glyph-name="Omega" unicode="&#x2126;" horiz-adv-x="1579" 
d="M1462 0h-581v127q419 251 419 668q0 261 -141 421t-368 160t-369 -159q-143 -162 -143 -420q0 -421 419 -670v-127h-581v139h344q-340 262 -340 645q0 310 178 515q187 214 492 214q291 0 480 -203.5t189 -523.5q0 -383 -342 -647h344v-139z" />
    <glyph glyph-name="ae" unicode="&#xe6;" horiz-adv-x="1141" 
d="M1118 223q-72 -87 -100 -111q-67 -59 -133 -59q-18 -22 -27 -22q-1 0 -6 2l-10 10q-33 -57 -107 -57q-79 0 -137 14q-61 15 -119 88q-1 -9 -10 -65q14 -32 14 -62q0 -24 -10 -78q-10 -49 -8 -78l-23 -10q-47 57 -47 180q0 40 6 144l-14 -10v-3q0 -31 -37 -65t-39 -59
q-58 -87 -200 -97q-109 50 -109 256q0 18 1 52.5t1 52.5q0 11 37 129q123 393 334 686q52 72 63 84q44 49 86 49q41 0 54 -47q-15 -135 -43 -404q-11 -9 -11 -51v-12l4 -4q29 56 130 193q112 153 144 162q12 3 27 3q60 0 107 -80q0 -17 14.5 -47t14.5 -45t-7 -24l11 -11
l-11 -10q54 -99 54 -133q0 -29 -23 -57q-263 -12 -418 -127q-5 -18 -7 -75q-1 -45 -19 -73q10 -262 106 -289q45 7 131 27q84 27 136 57q59 45 188 119q12 -5 12 -35v-8zM905 743l-10 11q2 12 2 24q0 44 -16 89q-20 59 -56 59q-30 0 -72 -48q-31 -35 -61 -71q0 -55 -63 -141
q0 -15 -4 -27q19 11 54 18q46 9 56 13q21 27 87 36t83 37zM494 1001q0 45 -2 29q-7 23 -15 23q-5 0 -18.5 -22.5t-23.5 -22.5q-4 0 -7 2q-39 -60 -113 -181q-21 -37 -30 -59q-4 -13 -15 -37q-15 -22 -43 -69q-18 -52 -63 -152l10 -12q-2 -14 -33 -41q-55 -233 -55 -402
q0 -35 2 -45q4 -17 20.5 -24t16.5 -15q0 -6 -4 -14h20q156 95 227 280q47 125 73 363q29 278 51 365l-11 10q13 7 13 24z" />
    <glyph glyph-name="oslash" unicode="&#xf8;" horiz-adv-x="514" 
d="M483 989q-19 -44 -49 -131q37 -74 37 -182q0 -71 -17 -173q-14 -86 -28 -171q-46 -66 -46 -95q0 -11 3 -22q-21 -48 -68 -109q-40 -51 -79 -102q-19 -3 -47 -27t-50 -26l-8 6q-7 -14 -14 -23q6 -8 6 -18q0 -11 -25 -47q-22 -10 -43 -10q-17 0 -32 16.5t-15 34.5
q0 15 10 27q-2 7 -2 8q0 11 19 35q-33 73 -33 163q0 83 33 228q36 158 41 227q3 46 36.5 128t37.5 126l-21 22q-19 -2 -32 -25q-21 -37 -21 -38h-4q-3 0 -9.5 -1t-9.5 -1q-14 0 -20 12q3 24 30 56.5t33 50.5q74 61 170 61q65 0 105 -39l18 60q4 -2 14 -2t29 4t29 4
q22 0 22 -21v-6zM338 848q-21 40 -62 47q-16 -34 -40 -107q-33 -144 -97 -434q-22 -102 -22 -110q0 -7 2 -17q-1 -7 -4 -22q15 39 45 114q58 151 84 271q19 8 22 32l4 42q24 61 68 184zM383 612q0 15 -10 72q-8 -18 -23 -53q-15 -76 -61 -225q-33 -70 -82 -193q4 -10 4 -23
q0 -36 -12 -69q34 39 90 151q11 20 30 60q13 45 54 129v104q10 20 10 47z" />
    <glyph glyph-name="questiondown" unicode="&#xbf;" horiz-adv-x="813" 
d="M104 147q0 61 29 152q60 29 88 131q29 107 92 145q170 103 170 224l-10 10q4 7 4 14q0 13 -18 38t-19 42q-55 32 -55 74q0 12 2 22q24 31 51 31q8 0 23 -10q39 -28 53 -81q14 -49 43 -67q10 -40 10 -77q0 -87 -53 -136q-4 -42 -72 -106l-102 -92q-55 -58 -97 -158
q-33 -87 -67 -174l-4 -10q0 -10 14 -23q19 -18 21 -20q12 -2 37 -2q24 0 72.5 8t72.5 8q11 0 31 -4q58 44 116 87q63 54 85 116q9 10 28 10q60 0 60 -74q0 -36 -25 -63q-29 -32 -135 -89q-76 -41 -152 -81h-104q-97 0 -138 28q-51 35 -51 127zM285 1425q0 10 2 19
q19 24 38 24q14 0 36 -10q27 -12 36 -14q29 -58 29 -82q-6 -3 -33 -19q-22 -13 -34 -13q-22 0 -48 36t-26 59z" />
    <glyph glyph-name="exclamdown" unicode="&#xa1;" horiz-adv-x="313" 
d="M63 2q0 23 6.5 68.5t6.5 68.5q0 10 -1 30t-1 30q0 130 32 241q-8 17 -8 39q0 21 10.5 60t10.5 59q0 25 -13 43v10q0 50 22.5 148t21.5 149q30 -6 60 -13q40 -9 40 -36q0 -2 -3 -24t-9 -64q-29 -145 -29 -152q0 -20 4 -38q-66 -281 -66 -570q0 -59 13 -90h-41
q-56 0 -56 41zM69 1379q24 45 61 45q3 0 77 -19q13 -12 13 -37v-45q-21 -27 -58 -27q-35 0 -63.5 24t-29.5 59z" />
    <glyph glyph-name="logicalnot" unicode="&#xac;" 
d="M1452 356h-96v402h-1102v100h1198v-502z" />
    <glyph glyph-name="radical" unicode="&#x221a;" horiz-adv-x="1276" 
d="M1276 1565h-125l-594 -1606h-41l-328 899l-114 -39l-19 58l246 86l272 -746l525 1419h178v-71z" />
    <glyph glyph-name="florin" unicode="&#x192;" horiz-adv-x="774" 
d="M772 1452q0 22 -18 -149q-13 -2 -13 -7q0 -2 5.5 -8t5.5 -10q-1 -2 -2 -6l-30 -120q-22 -77 -65 -93q-6 15 -6 31q0 23 18.5 66t18.5 67q0 37 7 110.5t7 110.5q0 82 -26 137q-30 1 -61 -29q-24 -27 -48 -53q-31 -31 -73 -107.5t-74 -107.5q6 -18 6 -35q0 -24 -18 -77
q-16 -49 -13 -76q-25 -19 -32 -82.5t-33 -81.5q10 -7 10 -19q0 7 -5.5 -35t-10.5 -85q-6 -52 -23 -82q4 -11 4 -25q0 -18 -10 -52t-10 -52q0 -23 14 -41q15 -9 27 -9q19 0 48 23t48 23q4 0 12 -2.5t12 -2.5q21 0 59.5 14.5t59.5 14.5q13 0 31 -6q-7 -50 -70 -73
q-52 -16 -104 -31q2 -7 2 -11q0 -9 -16 -12q-11 -2 -23 -4q-7 2 -16 2q-48 0 -95 -31v-4h4q1 -34 9 -63q-15 -11 -15 -27t4.5 -48t4.5 -48q0 -57 -23 -96v-9q0 -79 -29 -127h-2q-6 -40 -6 -73q0 -11 -33 -62q9 -12 9 -24q0 -14 -18 -38.5t-15 -41.5q-46 -126 -87 -183
q-68 -96 -165 -96q-31 0 -63 23q-54 38 -56 39v4q0 20 -17.5 42.5t-17.5 35.5q0 14 17 26q6 -13 35 -39q25 -23 28 -45q13 -2 27 -2q190 0 282 490q-6 17 -6 20q0 23 18 72q16 46 13 74l2 2q10 73 10 71q0 7 -4 19.5t-4 19.5q0 9 4 26t4 25q0 21 -18 31q-19 -14 -47 -14
q-11 0 -31 2t-31 2q-36 0 -55 -21q-12 20 -12 31q0 24 58 31q68 9 83 26q4 -2 12 -2q10 0 25.5 12.5t19.5 14.5q-2 17 -2 25q0 15 31 176q3 28 10 84q10 43 27 129q24 129 32 166q23 93 56 159q-2 10 -2 15q0 29 25 76q20 37 40 73q80 159 244 289q64 -15 92 -83
q10 -25 29 -128q4 -22 4 -41z" />
    <glyph glyph-name="approxequal" unicode="&#x2248;" 
d="M1530 807q-102 -72 -199.5 -108.5t-187.5 -36.5q-100 0 -289 69.5t-289 69.5q-82 0 -171.5 -37t-215.5 -123v113q209 145 387 145q102 0 295 -69.5t283 -69.5q84 0 171.5 34.5t215.5 123.5v-111zM1530 469q-104 -72 -201.5 -108.5t-185.5 -36.5q-100 0 -289 69.5
t-289 69.5q-82 0 -171.5 -36.5t-215.5 -123.5v111q110 75 203 110t184 35q112 0 299 -67q193 -70 279 -70q89 0 175 34.5t212 123.5v-111z" />
    <glyph glyph-name="approxequal" unicode="&#x22f2;" 
d="M1530 807q-102 -72 -199.5 -108.5t-187.5 -36.5q-100 0 -289 69.5t-289 69.5q-82 0 -171.5 -37t-215.5 -123v113q209 145 387 145q102 0 295 -69.5t283 -69.5q84 0 171.5 34.5t215.5 123.5v-111zM1530 469q-104 -72 -201.5 -108.5t-185.5 -36.5q-100 0 -289 69.5
t-289 69.5q-82 0 -171.5 -36.5t-215.5 -123.5v111q110 75 203 110t184 35q112 0 299 -67q193 -70 279 -70q89 0 175 34.5t212 123.5v-111z" />
    <glyph glyph-name="Delta" unicode="&#x394;" horiz-adv-x="1346" 
d="M1356 0h-1366l590 1473h186zM1139 139l-467 1186l-465 -1186h932z" />
    <glyph glyph-name="Delta" unicode="&#x2206;" horiz-adv-x="1346" 
d="M1356 0h-1366l590 1473h186zM1139 139l-467 1186l-465 -1186h932z" />
    <glyph glyph-name="guillemotleft" unicode="&#xab;" horiz-adv-x="756" 
d="M651 156q0 -12 -6 -33q-18 -12 -35 -12q-22 0 -59 45q-29 35 -96 92q-24 20 -78 78q-4 4 -23 41q-14 28 -26 28h-9q-14 21 -14 45q0 23 12 37q37 44 58 65q36 37 67 54q22 47 59 77q56 47 68 60q6 39 39 39q31 0 31 -35q0 -19 -19 -46q-21 -30 -24 -44q-42 -1 -66 -57
q-26 -59 -67 -64q-3 -3 -10 -22q-4 -10 -25 -31q-16 -18 -16 -33q0 -32 72 -106q59 -60 104 -90q63 -43 63 -88zM410 154q0 -19 -4 -33q-18 -12 -31 -12q-2 0 -6 2q-30 6 -60 43q-59 55 -174 170q-4 4 -23 41q-14 30 -26 30q-3 0 -6 -2q-17 23 -17 45q0 27 56 86
q50 53 82 70q22 46 58 77q57 47 69 60q5 41 39 41q30 0 30 -37q0 -19 -18 -46q-21 -30 -25 -44q-42 -1 -66 -57q-25 -59 -67 -64q-3 -4 -10 -22q-4 -9 -23 -31q-16 -18 -16 -33q0 -26 21 -49q57 -63 72 -78q41 -42 81 -69q64 -44 64 -88z" />
    <glyph glyph-name="guillemotright" unicode="&#xbb;" horiz-adv-x="715" 
d="M631 438q0 -22 -17 -45q-2 1 -6 2q-14 0 -26 -33q-15 -38 -89 -106q-95 -87 -108 -102q-17 -21 -26 -28q-13 -11 -33 -15q-3 -1 -7 -2q-12 0 -30 12q-4 14 -4 33q0 44 63 88q52 35 154 147q20 23 20 49q0 15 -16 33q-19 22 -22 30.5t-11 22.5q-41 5 -67 64q-24 56 -66 57
q-3 14 -24 44q-19 27 -19 46q0 37 31 37q33 0 39 -41q11 -13 68 -60q37 -31 59 -77q31 -17 81 -70q56 -59 56 -86zM389 440q0 -24 -14 -45h-8q-15 0 -27 -30q-15 -40 -89 -107q-94 -86 -108 -102q-37 -45 -59 -45h-4q-13 0 -31 12q-6 21 -6 33q0 45 63 88q45 30 104 90
q73 74 73 106q0 15 -17 33q-21 21 -24 30t-11 23q-41 5 -66 64q-25 56 -67 57q-3 14 -24 44q-19 27 -19 46q0 35 31 35q34 0 39 -39q12 -13 68 -60q37 -30 59 -77q46 -25 125 -119q12 -14 12 -37z" />
    <glyph glyph-name="ellipsis" unicode="&#x2026;" horiz-adv-x="809" 
d="M705 29q-8 -18 -39 -28q-24 -8 -48 -15q-2 7 -12 11.5t-10 10.5v19q0 75 45 86q40 -14 64 -84zM459 29q-8 -18 -38 -28q-24 -8 -48 -15q-3 7 -13 11.5t-10 10.5v19q0 75 45 86q40 -14 64 -84zM213 29q-8 -18 -38 -28q-24 -8 -48 -15q-3 7 -13 11.5t-10 10.5v19
q0 75 46 86q40 -14 63 -84z" />
    <glyph glyph-name="Agrave" unicode="&#xc0;" horiz-adv-x="809" 
d="M766 -74q-1 0 -13 -22q-8 -15 -18 -15q-4 0 -12 5q-63 68 -78 208q-1 23 -6 68q-13 39 -37 117q-49 172 -49 307q-21 18 -37 18q-20 0 -52.5 -32.5t-55.5 -32.5q-15 0 -25 4q-2 -1 -20 -20q-13 -13 -24 -13q-4 0 -9 2q-54 0 -127 -63l-10 10q-37 -38 -37 -105
q0 -15 2 -46.5t2 -47.5q0 -71 -41 -108q2 -8 2 -27q0 -16 -7.5 -46t-7.5 -46q0 -21 13 -41l-1 -1q-12 -11 -34 -11q-5 0 -21 1q-12 1 -20 1l-20 30l86 680q20 21 20 113q0 20 10 57q12 54 37 160q31 109 90 328q16 -4 43 -21q16 20 62 128q40 93 68 107q11 5 26 5
q26 0 48 -35q15 -29 30 -57q28 -49 33 -124q-1 4 -1 -130q0 -89 21 -137l-10 -11l30 -340q2 -16 28 -18.5t26 -19.5v-5q-52 -42 -52 -110q0 -38 21.5 -113.5t19.5 -116.5q37 -80 62 -214q35 -184 45 -220zM522 721q0 25 -20 237q-31 318 -33 486q-34 -17 -55 -71
q-16 -44 -31 -89q-12 -26 -12 -37q0 -22 12 -37q-67 -124 -114 -328l-76 -341q135 40 243 149l10 -10q10 10 47 18q29 6 29 23zM596 1732q0 -57 -63 -76q-62 37 -129 148q-44 20 -77 78q-44 75 -61 92l33 20q68 -12 139 -87q15 -17 105 -134q20 -7 53 -33v-8z" />
    <glyph glyph-name="Atilde" unicode="&#xc3;" horiz-adv-x="809" 
d="M766 -74q-1 0 -13 -22q-8 -15 -18 -15q-4 0 -12 5q-63 68 -78 208q-1 23 -6 68q-13 39 -37 117q-49 172 -49 307q-21 18 -37 18q-20 0 -52.5 -32.5t-55.5 -32.5q-15 0 -25 4q-2 -1 -20 -20q-13 -13 -24 -13q-4 0 -9 2q-54 0 -127 -63l-10 10q-37 -38 -37 -105
q0 -15 2 -46.5t2 -47.5q0 -71 -41 -108q2 -8 2 -27q0 -16 -7.5 -46t-7.5 -46q0 -21 13 -41l-1 -1q-12 -11 -34 -11q-5 0 -21 1q-12 1 -20 1l-20 30l86 680q20 21 20 113q0 20 10 57q12 54 37 160q31 109 90 328q16 -4 43 -21q16 20 62 128q40 93 68 107q11 5 26 5
q26 0 48 -35q15 -29 30 -57q28 -49 33 -124q-1 4 -1 -130q0 -89 21 -137l-10 -11l30 -340q2 -16 28 -18.5t26 -19.5v-5q-52 -42 -52 -110q0 -38 21.5 -113.5t19.5 -116.5q37 -80 62 -214q35 -184 45 -220zM522 721q0 25 -20 237q-31 318 -33 486q-34 -17 -55 -71
q-16 -44 -31 -89q-12 -26 -12 -37q0 -22 12 -37q-67 -124 -114 -328l-76 -341q135 40 243 149l10 -10q10 10 47 18q29 6 29 23zM711 1876q0 -33 -22 -62.5t-23 -42.5q-18 -6 -48 -37q-23 -24 -69 -24q-65 0 -154 73q-3 19 -29 46t-28 40l-14 13q-91 -29 -113 -94
q0 -1 -18 -31h-6q-35 0 -35 33q0 6 2.5 17t3.5 15q2 21 2 39q52 67 66 80q44 41 92 41q41 0 66 -33q28 -36 38 -39q48 -61 53 -66q35 -36 72 -36q11 0 20 2q45 29 64 88l14 16q17 9 31 9q9 0 16 -2q19 -17 19 -45z" />
    <glyph glyph-name="Otilde" unicode="&#xd5;" horiz-adv-x="610" 
d="M547 948q0 -22 -3 -134q-2 -82 1 -134q-23 -23 -23 -113q0 -34 -23.5 -92t-23.5 -84q0 -14 6 -29q-22 -15 -22 -86q0 -32 -30 -72q-25 -32 -50 -65q-97 -150 -110 -167q-74 -92 -160 -109q-29 15 -57 31.5t-38 52.5q-12 48 -12 112q0 53 31 252q3 35 12 103q9 41 25 125
q13 101 53 301q13 38 39 116q8 26 15 148q5 91 48 139q0 4 1 11.5t1 11.5q0 18 -12 18q-14 0 -20 -10q-13 5 -13 18q0 4 2 13q1 7 0 12q49 63 133 63q129 0 175 -116q-5 -9 -5 -17q0 -11 15 -27q17 -19 20 -30q25 -89 25 -242zM469 965q0 84 -29 182q-34 114 -86 160h-10
q-26 0 -43 -23q-2 -17 -28 -141q-18 -88 -18 -143q0 -23 3 -44q-30 -37 -39 -107q-13 -111 -14 -116l-21 -20l11 -13q-36 -86 -55 -247q-21 -181 -42 -250l11 -10q-11 -23 -11 -52q0 -10 2 -31.5t2 -31.5q0 -31 -14 -55q7 -7 12 -34q3 -22 17 -22q7 0 14 2q231 216 307 590
q21 100 21 131q0 9 -1 27.5t-1 27.5q0 37 6 110t6 110zM649 1733q0 -33 -22 -62.5t-23 -42.5q-18 -6 -48 -37q-23 -24 -69 -24q-65 0 -154 73q-3 19 -29 46t-28 40l-14 13q-91 -29 -113 -94q0 -1 -18 -31h-6q-35 0 -35 33q0 6 2.5 17t3.5 15q2 21 2 39q52 67 66 80
q44 41 92 41q41 0 66 -33q28 -36 38 -39q48 -61 53 -66q35 -36 72 -36q11 0 20 2q45 29 64 88l14 16q17 9 31 9q9 0 16 -2q19 -17 19 -45z" />
    <glyph glyph-name="OE" unicode="&#x152;" horiz-adv-x="1028" 
d="M1026 1507q-60 -82 -240.5 -164t-238.5 -163q18 -85 20 -199q25 -63 25 -100q0 -41 -29 -78v-31l17 -18l108 62q66 34 117 34q6 0 20 -2l21 -21q-31 -29 -163 -99q-108 -57 -140 -120q0 -77 -17 -123v-8q-4 -24 -10 -74q-1 -53 -10 -159q6 -10 25 -118q13 -77 69 -77
q16 0 33 4q6 5 165 115q100 69 154 129h9q30 0 45 -21q-37 -30 -114 -123t-124 -130q-74 -60 -150 -60q-30 0 -49 4q-6 -10 -16 -10q-8 0 -21.5 17t-25.5 16q-63 68 -72 200q-63 -97 -127 -194q-84 -114 -178 -133q-29 15 -57 31.5t-37 52.5q-12 46 -12 112q0 50 30 252
q4 35 13 103q8 41 24 125q14 101 53 301q14 38 39 116q8 25 15 148q6 91 49 139q-1 4 0.5 11.5t1.5 11.5q0 18 -12 18q-14 0 -21 -10q-12 5 -12 18q0 4 1 12t1 13q49 63 133 63q116 0 166 -100l2 4q112 51 334 160q8 4 83 54q68 44 72 44q6 0 31 -35zM489 920q0 3 -8 47
q-12 65 -12 145q0 6 -8 37q-29 107 -86 158h-10q-27 0 -43 -23q-3 -17 -28 -141q-18 -88 -18 -143q0 -23 3 -44q-31 -37 -39 -107q-13 -110 -15 -116l-20 -20l10 -13q-36 -86 -54 -247q-21 -181 -42 -250l10 -10q-10 -23 -10 -52q0 -10 2 -31.5t2 -31.5q0 -32 -14 -55
q7 -7 11 -34q3 -22 17 -22q8 0 15 2q204 191 288 502q25 91 25 113q0 2 -2 10q-21 7 -43 15q-26 10 -31 28q5 28 39 43q40 18 49 33v10q0 33 6 98.5t6 98.5z" />
    <glyph glyph-name="oe" unicode="&#x153;" horiz-adv-x="1079" 
d="M1057 223q-73 -87 -101 -111q-66 -59 -133 -59q-19 -22 -26 -22q-2 0 -6 2l-11 10q-32 -57 -104 -57q-91 0 -139 14q-11 3 -37 18q-93 55 -133 166q-44 -59 -131 -180q-19 -3 -47 -27t-50 -26q-11 10 -57 10q-34 0 -49 23q-31 45 -31 159q0 83 33 228q36 158 41 227
q3 46 36.5 128t37.5 126l-21 22q-19 -2 -32 -25q-11 -19 -21 -38h-4q-3 0 -9.5 -1t-9.5 -1q-14 0 -20 12q3 24 30 56.5t33 50.5q74 61 170 61q88 0 140 -84q64 -105 65 -223q29 55 128 190q111 150 142 159q12 3 27 3q61 0 109 -80q0 -17 14 -46.5t14 -45.5q0 -12 -8 -24
l10 -11l-10 -10q53 -100 53 -133q0 -32 -20 -57q-333 -15 -488 -189q-10 -57 -10 -78q0 -38 -22 -53q56 -221 180 -244q42 7 125 25q80 23 141 59q61 45 191 119q10 -4 10 -35v-8zM844 743l-10 11q2 12 2 24q0 46 -14 89q-20 59 -56 59q-30 0 -73 -48q-30 -35 -60 -71
q0 -50 -35 -101q-60 -86 -61 -90q20 27 63 37q37 9 74 17q21 27 88 36q64 9 82 37zM383 612q0 18 -7 52.5t-7 52.5q0 12 4 28q-15 46 -29 91q-22 51 -68 59q-16 -34 -40 -107q-33 -144 -97 -434q-22 -102 -22 -110q0 -7 2 -17q-21 -100 -21 -116q0 -29 11 -54q63 25 110 89
q24 34 70 126q11 20 30 60q13 45 54 129v104q10 20 10 47z" />
    <glyph glyph-name="endash" unicode="&#x2013;" horiz-adv-x="1024" 
d="M961 514q-9 -26 -19 -54t-35 -40q-60 18 -135 18q-46 0 -76 -9t-75 -9q-71 0 -132 18q-26 -12 -61 -12q-19 0 -56 8t-57 8q-31 0 -61 -16q-53 6 -106 13.5t-85 45.5q107 23 197 26q-22 -1 199 -1q104 0 232 12q142 13 233 15z" />
    <glyph glyph-name="emdash" unicode="&#x2014;" horiz-adv-x="2048" 
d="M2118 514q-20 -29 -39.5 -56t-65.5 -38q-121 18 -272 18q-92 0 -275.5 -9t-275.5 -9q-143 0 -264 18q-53 -12 -121 -12q-38 0 -113 8t-112 8q-67 0 -127 -16q-156 6 -312 11q-222 11 -282 48q213 23 504 26q-87 -1 505 -1q197 0 588.5 13.5t587.5 13.5q34 -11 74 -23z
" />
    <glyph glyph-name="quotedblleft" unicode="&#x201c;" horiz-adv-x="629" 
d="M524 1386q-44 -99 -37 -208q-36 -76 -159 -179q-17 27 -17 60q0 43 36 111q43 83 50 110q27 21 27 70q0 9 -1 27.5t-1 27.5q0 55 31 55q20 0 51 -16zM272 1366q-15 -30 -26.5 -97t-28.5 -98q21 -31 21 -71q0 -33 -20.5 -61t-51.5 -31q-1 0 -37 33q-25 22 -25 38
q0 11 16.5 32.5t16.5 35.5q0 6 -8 16q19 46 57 197q37 7 39 57q2 47 37 47h8z" />
    <glyph glyph-name="quotedblright" unicode="&#x201d;" horiz-adv-x="629" 
d="M524 1386q-44 -99 -37 -208q-36 -76 -159 -179q-17 27 -17 60q0 43 36 111q43 83 50 110q27 21 27 70q0 9 -1 27.5t-1 27.5q0 55 31 55q20 0 51 -16zM272 1366q-15 -30 -26.5 -97t-28.5 -98q21 -31 21 -71q0 -33 -20.5 -61t-51.5 -31q-1 0 -37 33q-25 22 -25 38
q0 11 16.5 32.5t16.5 35.5q0 6 -8 16q19 46 57 197q37 7 39 57q2 47 37 47h8z" />
    <glyph glyph-name="quoteleft" unicode="&#x2018;" horiz-adv-x="377" 
d="M272 1366q-15 -30 -26.5 -97t-28.5 -98q21 -31 21 -71q0 -33 -20.5 -61t-51.5 -31q-1 0 -37 33q-25 22 -25 38q0 11 16.5 32.5t16.5 35.5q0 6 -8 16q19 46 57 197q37 7 39 57q2 47 37 47h8z" />
    <glyph glyph-name="quoteright" unicode="&#x2019;" horiz-adv-x="420" 
d="M315 1386q-44 -99 -36 -208q-37 -76 -160 -179q-17 27 -17 60q0 43 36 111q43 83 50 110q27 21 27 119q0 61 29 61q20 0 51 -16z" />
    <glyph glyph-name="divide" unicode="&#xf7;" 
d="M961 963q0 -46 -31 -76.5t-76 -30.5t-75.5 30.5t-30.5 76.5q0 42 32.5 75t73.5 33q44 0 75.5 -32t31.5 -76zM1452 561h-1198v98h1198v-98zM961 258q0 -45 -31 -75.5t-76 -30.5t-75.5 30.5t-30.5 75.5t30.5 76t75.5 31t76 -31t31 -76z" />
    <glyph glyph-name="lozenge" unicode="&#x25ca;" horiz-adv-x="1012" 
d="M1006 592l-500 -1069l-500 1069l500 1061zM891 592l-385 817l-385 -817l385 -825z" />
    <glyph glyph-name="ydieresis" unicode="&#xff;" horiz-adv-x="735" 
d="M651 260q0 -36 -6 -82q-32 -244 -32 -327q0 -29 1 -56q-17 -49 -67 -264q-37 -163 -94 -254q-3 -4 -52 -65q-13 -19 -45 -54q-55 -50 -165 -86q-91 -25 -183 -51q-8 10 -20 10q-9 0 -25 -7t-24 -7q-4 0 -15 4q-32 7 -65 14q-41 11 -41 39v21q59 -15 127 -15q120 0 227 54
q112 56 176 153q134 204 169 535q22 284 44 567q-12 11 -12 25q0 7 5 21t5 22q0 18 -20 28q-27 -15 -37 -68t-37 -69q-22 -60 -64 -182l-66 -80q-45 -49 -87 -49q-8 0 -17 2q-4 -10 -30 -10q-66 53 -94 146q-12 40 -31 173q-15 101 -15 84v307q11 13 31 13q4 0 17 -2
q10 -1 16 0q39 -29 39 -74q0 -23 -10.5 -67t-10.5 -66q0 -31 15 -58q-13 -17 -13 -32q0 -16 12.5 -45t12.5 -46q0 -8 -3 -25t-3 -26q0 -35 24 -89q29 -62 33 -87q29 3 54 34q33 43 42 50q172 285 232 627l22 20l-10 13q28 32 45 32q19 0 25 -54q2 -35 4 -71q1 -8 7.5 -27
t6.5 -30q0 -13 -7 -37t-7 -37q0 -19 10 -32q-10 -44 -10 -101q0 -44 8 -131t8 -131zM532 1005q-10 -22 -50 -36l-62 -20q-4 10 -16.5 15.5t-12.5 14.5v24q0 98 58 112q53 -18 83 -110zM266 1005q-10 -22 -50 -36l-62 -20q-4 10 -16.5 15.5t-12.5 14.5v24q0 98 58 112
q52 -18 83 -110z" />
    <glyph glyph-name="Ydieresis" unicode="&#x178;" horiz-adv-x="737" 
d="M776 1552q0 -39 -32 -89q-48 -75 -52 -83.5t-96 -244.5q10 -11 10 -23q0 -11 -9 -30.5t-9 -30.5q0 -13 8 -21q-31 -19 -31 -55q0 -13 5 -39t5 -39q0 -24 -22 -49q-57 -63 -74 -234q-4 -6 -4 -16q0 -11 8.5 -31t8.5 -30q0 -17 -31 -17t-35 10q-23 -37 -23 -100
q0 -65 23 -102q-20 -16 -22 -48q2 29 2 -55q0 -52 -33 -78q12 -10 12 -28q0 -5 -1.5 -17t-0.5 -18l-10 -10l2 -23q0 -14 -2 -42t-2 -42q0 -10 3 -29.5t3 -29.5q0 -46 -45 -58q-17 8 -33 16q-20 11 -20 28q0 26 20 137v61q0 25 10 68q2 6 21 135q13 93 43 278
q-111 305 -223 508q-13 23 -64 38q-43 12 -43 44q0 4 2 15q19 20 45 20q20 0 52 -13q36 -15 51 -18q31 -39 75 -126q45 -90 74 -128q-2 -15 -2 -14q0 -38 30 -81q39 -56 46 -75q42 91 134 435q74 272 185 413q8 0 41 -30v-9zM512 1538q-10 -22 -50 -36l-62 -20
q-4 10 -16.5 15.5t-12.5 14.5v24q0 98 58 112q53 -18 83 -110zM246 1538q-10 -22 -50 -36l-62 -20q-4 10 -16.5 15.5t-12.5 14.5v24q0 98 58 112q52 -18 83 -110z" />
    <glyph glyph-name="fraction" unicode="&#x2044;" horiz-adv-x="1083" 
d="M979 1231q0 -3 -2 -14q-20 -26 -178 -277q-30 -42 -88 -127q-26 -38 -69 -132q-41 -87 -73 -130q-21 -30 -65 -90q-33 -40 -90 -125q0 -68 -41 -117q-16 -15 -45 -49q-1 -2 -47 -80q-26 -46 -58 -72q4 -9 4 -16q0 -16 -47 -59q-7 -2 -18 -2q-24 0 -41 21.5t-17 45.5
q0 25 23 41q-1 18 26 44q34 33 40 42q29 41 86 125q6 11 40 86q3 5 93 137q121 179 182 310q26 4 36 33q9 25 17 51q30 41 86 127q10 15 160 266q10 -9 53 -11q33 -1 33 -28z" />
    <glyph glyph-name="currency" unicode="&#xa4;" horiz-adv-x="1157" 
d="M1053 391q0 -102 -90 -201q-52 -56 -81 -80q-55 -45 -100 -47q-38 -40 -115 -50q-64 -6 -128 -13q-200 61 -226 256q-71 -25 -100 -25q-47 0 -76 43q-2 16 -2 15q0 53 55 53q11 0 31.5 -2t30.5 -2q36 0 51 16q-2 41 -2 54q0 8 2 63q-54 -18 -59 -18q-18 0 -33 12l-10 -10
q-10 18 -54 27q-38 7 -43 36q10 33 58 33q29 0 59 -12q33 1 86 14q16 177 115 518q58 202 149 297q30 -11 41 -41v-12q0 -122 33 -201l-10 -20q0 -38 10 -112t10 -112q0 -59 -20 -116l10 -11q-7 -1 -8.5 -12t-6.5 -11q-2 0 -5 1q-8 -2 -19 -2q-44 0 -57 45q12 18 12 35
q0 10 -6 29.5t-6 29.5q0 17 10 33q-4 14 -4 31q0 10 3 30.5t3 30.5q0 92 -33 131q-40 -57 -69 -172q-33 -131 -58 -178q0 -118 -12 -189q134 41 201 41q61 0 119 -24v-43h-9q-5 0 -15 1t-15 1q-27 0 -35 -23q-44 -4 -130.5 -32t-133.5 -31q3 -44 8 -105q144 21 145 21
q97 0 97 -76q-7 -6 -11 -32q-3 -21 -16 -21q-6 0 -12 2l-19 20q-34 -12 -76 -12q-40 0 -75 12l-11 -10l-8 10h-2q42 -192 217 -192q185 0 387 278q6 8 11 48q4 30 22 30q9 0 21 -4q4 -19 4 -43z" />
    <glyph glyph-name="guilsinglleft" unicode="&#x2039;" horiz-adv-x="473" 
d="M369 154q0 -19 -4 -33q-18 -12 -31 -12q-2 0 -6 2q-30 6 -60 43q-59 55 -174 170q-4 4 -23 41q-14 30 -26 30q-3 0 -6 -2q-16 23 -16 45q0 27 55 86q50 53 82 70q22 46 58 77q57 47 69 60q5 41 39 41q30 0 30 -37q0 -19 -18 -46q-21 -30 -25 -44q-42 -1 -66 -57
q-25 -59 -67 -64q-3 -4 -10 -22q-4 -9 -23 -31q-16 -18 -16 -33q0 -26 21 -49q57 -63 72 -78q41 -42 81 -69q64 -44 64 -88z" />
    <glyph glyph-name="guilsinglright" unicode="&#x203a;" horiz-adv-x="494" 
d="M430 438q0 -22 -16 -45l-6 2q-15 0 -27 -33q-15 -38 -89 -106q-95 -87 -108 -102q-17 -21 -25 -28q-14 -11 -34 -15q-2 -1 -6 -2q-13 0 -31 12q-4 14 -4 33q0 44 63 88q53 35 154 147q21 23 21 49q0 15 -16 33q-20 22 -23 30.5t-11 22.5q-41 5 -66 64q-25 56 -67 57
q-3 14 -24 44q-19 27 -19 46q0 37 31 37q33 0 39 -41q12 -13 68 -60q37 -31 59 -77q31 -17 82 -70q55 -59 55 -86z" />
    <glyph glyph-name="fi" unicode="&#xf001;" horiz-adv-x="946" 
d="M842 1204q0 -15 -45 -37q-31 13 -54 74l21 43q24 0 51 -27.5t27 -52.5zM838 74q-23 -13 -23 -31q0 -11 10.5 -30.5t10.5 -28.5q0 -21 -39 -27q-26 10 -66 43v31q0 29 1 87t1 87q0 123 -12 209q-10 11 -10 28q0 11 6 30t6 30q0 15 -12 28q20 53 20 95q0 6 -8 6
q-11 0 -63 -23t-66 -33q2 -5 2 -8q0 -11 -28 -16q-35 -6 -38 -8h-4q-21 0 -69 -31q-26 -10 -76 -35q-10 -21 -24 -27q-25 -11 -29 -14h-4q-53 0 -103 -43v-16q0 -35 17.5 -101.5t17.5 -101.5q0 -37 -12 -68q6 -29 6 -57q0 -37 -19 -80q-13 -4 -24 -4q-29 0 -50.5 25.5
t-21.5 54.5q0 18 8.5 51.5t8.5 50.5q0 15 -5 33l11 10q0 20 -11.5 56t-11.5 53q0 7 2 19.5t2 19.5q0 23 -24 33q-20 -20 -81 -22q-57 -2 -77 -30q-16 21 -16 33q0 21 56 36q64 16 77 36q5 -2 10 -2q11 0 23 14q16 18 20 21q-8 33 -8 71q0 29 5 86.5t5 85.5q0 8 -1 22t-1 21
q0 23 3 59q4 44 5 58q9 168 9 177q9 102 34 173q-2 7 -2 17q0 34 16 78q15 38 29 75q57 167 203 318q66 -6 102 -69q12 -23 45 -122q13 -37 13 -94q0 -13 -2 -49q-1 -31 0 -49q-11 -2 -11 -6q0 -3 6 -9.5t7 -11.5q-5 -7 -14 -111q-8 -92 -52 -116q-10 18 -10 41q0 18 10 54
t10 54q0 16 -3 43q-4 32 -5 43q-8 138 -9 147q-11 84 -46 138q-29 -3 -55 -38q-20 -29 -39 -58q-27 -35 -58.5 -117t-58.5 -117q10 -20 10 -49q0 -19 -7 -57t-7 -58q0 -11 4 -26q-20 -19 -21 -59q-1 -33 -1 -65q-4 -30 -21 -46q12 -7 12 -33q0 -156 -12 -188q8 -15 8 -39
q0 -14 -4 -40.5t-4 -39.5q0 -32 20 -51q11 -4 21 -4q21 0 50.5 27.5t57.5 27.5q24 0 54 15q49 23 51 24q78 69 131 69q26 0 80 30.5t57 51.5q0 40 10 119q8 2 17 2q24 0 32 -36q10 -43 25 -52q8 -35 8 -65q0 -38 -14 -113t-14 -113q0 -64 30 -112v-146q0 -91 11 -151z" />
    <glyph glyph-name="fl" unicode="&#xf002;" horiz-adv-x="864" 
d="M801 948q-51 -142 -51 -233q0 -40 8 -86l-10 -11q10 -11 10 -36q0 -20 -11.5 -36t-11.5 -24t6.5 -24t6.5 -25q0 -14 -13 -24q12 -30 12 -80q-1 -70 0 -81q5 -48 31 -73q-18 -18 -18 -51q0 -14 4 -40.5t4 -39.5q0 -59 -63 -59q-32 0 -43 22q4 12 4 21q0 12 -7.5 36.5
t-7.5 36.5q0 19 11 33l-31 318q20 14 20 38q0 12 -6 34t-6 34q0 17 12 31v84q0 63 11 86q17 39 21 120q4 75 22 103q-2 18 -10 89q-7 55 -7 89q0 15 -11 46q-13 35 -15 46q-6 46 -23 103q-12 6 -35 20q-53 36 -139 166q-29 -3 -55 -38q-20 -29 -39 -58q-28 -35 -59 -117
t-58 -117q10 -20 10 -49q0 -19 -7 -57t-7 -58q0 -11 4 -26q-20 -19 -21 -59q-1 -33 -1 -65q-4 -30 -21 -46q12 -7 12 -33q0 -156 -12 -188q8 -15 8 -39q0 -14 -4 -40.5t-4 -39.5q0 -32 20 -51q11 -4 21 -4q21 0 50.5 27.5t56.5 27.5t71 22.5t70 22.5q7 0 18 -2
q0 -51 -59 -81q-49 -23 -99 -46q2 -5 2 -12q0 -8 -14 -12l-20 -7h-4q-53 0 -103 -43v-16q0 -35 17.5 -101.5t17.5 -101.5q0 -37 -12 -68q6 -29 6 -57q0 -37 -19 -80q-13 -4 -24 -4q-29 0 -50.5 25.5t-21.5 54.5q0 18 8.5 51.5t8.5 50.5q0 15 -5 33l11 10q0 20 -11.5 56
t-11.5 53q0 7 2 19.5t2 19.5q0 23 -24 33q-20 -20 -81 -22q-57 -2 -77 -30q-16 21 -16 33q0 21 56 36q64 16 77 36q5 -2 10 -2q11 0 23 14q16 18 20 21q-8 33 -8 71q0 29 5 86.5t5 85.5q0 8 -1 22t-1 21q0 23 3 59q4 44 5 58q9 168 9 177q9 102 34 173q-2 7 -2 17
q0 34 16 78q15 38 29 75q57 167 203 318q69 -7 148 -93q58 -70 116 -141q4 -14 37 -87q29 -65 29 -79q0 -5 -2 -16t-2 -16q0 -34 10 -84q12 -61 28 -74q13 -19 13 -41q0 -14 -6.5 -40t-6.5 -40q0 -20 13 -39z" />
    <glyph glyph-name="daggerdbl" unicode="&#x2021;" horiz-adv-x="1024" 
d="M965 205h-387v-422h-142v422h-377v133h377v580h-377v131h377v424h142v-424h387v-131h-387v-580h387v-133z" />
    <glyph glyph-name="periodcentered" unicode="&#xb7;" horiz-adv-x="561" 
d="M385 680q0 -43 -30.5 -74t-73.5 -31q-45 0 -75 30t-30 75q0 43 30.5 73.5t74.5 30.5q43 0 73.5 -30.5t30.5 -73.5z" />
    <glyph glyph-name="periodcentered" unicode="&#x2219;" horiz-adv-x="561" 
d="M385 680q0 -43 -30.5 -74t-73.5 -31q-45 0 -75 30t-30 75q0 43 30.5 73.5t74.5 30.5q43 0 73.5 -30.5t30.5 -73.5z" />
    <glyph glyph-name="quotesinglbase" unicode="&#x201a;" horiz-adv-x="420" 
d="M315 160q-44 -100 -36 -209q-35 -73 -160 -176q-17 26 -17 57q0 42 36 111q43 83 50 110q27 21 27 121q0 59 29 59q20 0 51 -16z" />
    <glyph glyph-name="quotedblbase" unicode="&#x201e;" horiz-adv-x="629" 
d="M524 160q-44 -100 -37 -209q-34 -73 -159 -176q-17 26 -17 57q0 42 36 111q43 83 50 110q27 21 27 70q0 9 -1 28.5t-1 28.5q0 53 31 53q20 0 51 -16zM272 139q-15 -30 -26.5 -97t-28.5 -97q21 -32 21 -72q0 -33 -20.5 -61t-51.5 -31q-1 1 -37 33q-25 22 -25 39
q0 10 16.5 31.5t16.5 35.5q0 8 -8 19q20 49 57 194q37 7 39 58q2 47 37 47h8z" />
    <glyph glyph-name="perthousand" unicode="&#x2030;" horiz-adv-x="1483" 
d="M1378 344q0 -41 -48 -109q-51 -72 -56 -110q-92 -127 -201 -127q-53 21 -53 96q0 37 20 94q27 76 31 93q7 48 33 143q5 12 14 37l22 92q20 51 70 51q-2 0 35 -8q88 -19 105 -68q-1 -13 9.5 -32t10.5 -29q0 -14 -10 -23q10 -3 10 -12q0 -4 -5 -13.5t-5 -17.5
q18 -29 18 -57zM965 1343q0 -46 -56 -219q-36 -30 -67 -117.5t-70 -115.5q-3 -48 -39 -105q-31 -48 -61 -96q-9 -16 -27 -86q-16 -37 -49 -110q-6 -15 -37 -113q-9 -23 -26 -66.5t-48 -136.5q-16 -50 -47 -151q-4 -24 -16 -70q-10 -34 -16 -42q-10 -17 -37 -24
q-16 -4 -21 -4q-15 0 -23 23q-5 17 -10 35q36 52 68.5 174.5t69.5 175.5q-2 10 -2 20q0 36 34 109q38 87 113 260q145 331 258 535q0 20 11.5 58.5t11.5 57.5q0 38 -33 54q-52 -23 -160 -54v-20q-24 -21 -120 -57q-78 -28 -103 -80q-46 -20 -127 -76q14 -129 14 -141
q0 -62 -35 -134q-52 -107 -139 -139q-113 0 -113 166q0 147 166 354h25q14 0 18 11q16 -19 39 -19q19 0 50 17q36 21 49 24q47 34 131 81q102 56 135 77q27 0 60 20q51 31 57.5 32t24 2t26.5 1q76 0 108 -33q13 -37 13 -78zM1024 344q0 -41 -48 -109q-51 -72 -56 -110
q-92 -127 -201 -127q-53 21 -53 96q0 37 20 94q27 76 31 93q7 48 33 143q5 12 14 37l22 92q20 51 70 51q-3 0 35 -8q88 -19 104 -68q0 -13 10.5 -32t10.5 -29q0 -14 -10 -23q10 -3 10 -12q0 -4 -5 -13.5t-5 -17.5q18 -29 18 -57zM1294 399q0 123 -59 123q-6 0 -14 -4
q-30 -36 -39 -101q-7 -55 -15 -110q-30 -30 -37 -91q-12 -95 -14 -101q178 134 178 284zM940 399q0 123 -59 123q-6 0 -15 -4q-29 -36 -39 -101l-14 -110q-30 -30 -37 -91q-12 -95 -14 -101q178 134 178 284zM272 999q0 10 -7 28t-7 28q0 7 4 16h-4q-10 0 -27.5 -20.5
t-31.5 -22.5q-17 -24 -26 -93q-9 -61 -38 -87q3 -3 12 -35q8 -22 23 -22q9 0 18 4q6 15 45 79q31 51 31 84q0 9 -2 17q10 10 10 24z" />
    <glyph glyph-name="Acircumflex" unicode="&#xc2;" horiz-adv-x="809" 
d="M766 -74q-1 0 -13 -22q-8 -15 -18 -15q-4 0 -12 5q-63 68 -78 208q-1 23 -6 68q-13 39 -37 117q-49 172 -49 307q-21 18 -37 18q-20 0 -52.5 -32.5t-55.5 -32.5q-15 0 -25 4q-2 -1 -20 -20q-13 -13 -24 -13q-4 0 -9 2q-54 0 -127 -63l-10 10q-37 -38 -37 -105
q0 -15 2 -46.5t2 -47.5q0 -71 -41 -108q2 -8 2 -27q0 -16 -7.5 -46t-7.5 -46q0 -21 13 -41l-1 -1q-12 -11 -34 -11q-5 0 -21 1q-12 1 -20 1l-20 30l86 680q20 21 20 113q0 20 10 57q12 54 37 160q31 109 90 328q16 -4 43 -21q16 20 62 128q40 93 68 107q11 5 26 5
q26 0 48 -35q15 -29 30 -57q28 -49 33 -124q-1 4 -1 -130q0 -89 21 -137l-10 -11l30 -340q2 -16 28 -18.5t26 -19.5v-5q-52 -42 -52 -110q0 -38 21.5 -113.5t19.5 -116.5q37 -80 62 -214q35 -184 45 -220zM522 721q0 25 -20 237q-31 318 -33 486q-34 -17 -55 -71
q-16 -44 -31 -89q-12 -26 -12 -37q0 -22 12 -37q-67 -124 -114 -328l-76 -341q135 40 243 149l10 -10q10 10 47 18q29 6 29 23zM737 1751q0 -10 -8 -22q-1 -1 -48 -28q-29 -17 -53 -17q-4 0 -14 2q-4 32 -48.5 61.5t-45.5 58.5q-18 3 -32.5 22t-29.5 23q-35 -15 -56 -53
q-26 -43 -44 -57q2 -5 2 -8q0 -14 -24.5 -31t-24.5 -25q-12 -10 -31 -10q-32 0 -28 23l-2 2q-2 5 -2 12q0 6 8 35q31 14 49 50q20 40 39 52q9 40 104 127q79 -7 145 -83q73 -85 121 -99q2 -5 14 -17q9 -9 9 -18z" />
    <glyph glyph-name="Ecircumflex" unicode="&#xca;" horiz-adv-x="723" 
d="M680 1507q-60 -81 -251 -169q-183 -85 -236 -171q-3 -3 -3 -10t6.5 -18.5t6.5 -18.5q0 -10 -10 -16q-3 -10 -3 -14q0 -37 28 -105t28 -104q0 -28 -17.5 -60.5t-17.5 -34.5q0 -10 22 -32q54 31 109 62q66 34 117 34q6 0 20 -2l21 -21q-36 -33 -131.5 -82.5t-132.5 -82.5
q-60 -57 -60 -138q0 -23 4 -47q-9 -41 -11 -116q-3 -82 -9 -117q6 -10 25 -118q13 -77 69 -77q15 0 33 4q6 5 165 115q100 69 154 129h8q31 0 45 -21q-36 -30 -113 -123t-124 -130q-74 -60 -150 -60q-30 0 -49 4q-7 -10 -16 -10q-8 0 -21.5 17t-25.5 16q-74 80 -74 260v174
q0 26 16.5 75.5t16.5 75.5q0 7 -2 19q-21 7 -43 15q-26 10 -31 28q5 28 34 41q38 17 49 32q26 34 26 115q0 44 -14.5 129.5t-14.5 128.5q0 34 6 64q-12 17 -12 35q0 21 18 52q21 36 25 50q112 51 334 160q8 4 83 54q68 44 72 44t31 -35zM614 1669q0 -10 -8 -22
q-1 -1 -48 -28q-29 -17 -53 -17q-4 0 -14 2q-4 32 -48.5 61.5t-45.5 58.5q-18 3 -32.5 22t-29.5 23q-35 -15 -56 -53q-26 -43 -44 -57q2 -5 2 -8q0 -14 -24.5 -31t-24.5 -25q-12 -10 -31 -10q-32 0 -28 23l-2 2q-2 5 -2 12q0 6 8 35q31 14 49 50q20 40 39 52q9 40 104 127
q79 -7 145 -83q73 -85 121 -99q2 -5 14 -17q9 -9 9 -18z" />
    <glyph glyph-name="Aacute" unicode="&#xc1;" horiz-adv-x="809" 
d="M766 -74q-1 0 -13 -22q-8 -15 -18 -15q-4 0 -12 5q-63 68 -78 208q-1 23 -6 68q-13 39 -37 117q-49 172 -49 307q-21 18 -37 18q-20 0 -52.5 -32.5t-55.5 -32.5q-15 0 -25 4q-2 -1 -20 -20q-13 -13 -24 -13q-4 0 -9 2q-54 0 -127 -63l-10 10q-37 -38 -37 -105
q0 -15 2 -46.5t2 -47.5q0 -71 -41 -108q2 -8 2 -27q0 -16 -7.5 -46t-7.5 -46q0 -21 13 -41l-1 -1q-12 -11 -34 -11q-5 0 -21 1q-12 1 -20 1l-20 30l86 680q20 21 20 113q0 20 10 57q12 54 37 160q31 109 90 328q16 -4 43 -21q16 20 62 128q40 93 68 107q11 5 26 5
q26 0 48 -35q15 -29 30 -57q28 -49 33 -124q-1 4 -1 -130q0 -89 21 -137l-10 -11l30 -340q2 -16 28 -18.5t26 -19.5v-5q-52 -42 -52 -110q0 -38 21.5 -113.5t19.5 -116.5q37 -80 62 -214q35 -184 45 -220zM522 721q0 25 -20 237q-31 318 -33 486q-34 -17 -55 -71
q-16 -44 -31 -89q-12 -26 -12 -37q0 -22 12 -37q-67 -124 -114 -328l-76 -341q135 40 243 149l10 -10q10 10 47 18q29 6 29 23zM698 2036q-17 -17 -60 -92q-34 -58 -77 -78q-68 -111 -129 -148q-64 19 -64 84q7 11 54 33q89 117 105 134q70 75 138 87z" />
    <glyph glyph-name="Edieresis" unicode="&#xcb;" horiz-adv-x="723" 
d="M680 1507q-60 -81 -251 -169q-183 -85 -236 -171q-3 -3 -3 -10t6.5 -18.5t6.5 -18.5q0 -10 -10 -16q-3 -10 -3 -14q0 -37 28 -105t28 -104q0 -28 -17.5 -60.5t-17.5 -34.5q0 -10 22 -32q54 31 109 62q66 34 117 34q6 0 20 -2l21 -21q-36 -33 -131.5 -82.5t-132.5 -82.5
q-60 -57 -60 -138q0 -23 4 -47q-9 -41 -11 -116q-3 -82 -9 -117q6 -10 25 -118q13 -77 69 -77q15 0 33 4q6 5 165 115q100 69 154 129h8q31 0 45 -21q-36 -30 -113 -123t-124 -130q-74 -60 -150 -60q-30 0 -49 4q-7 -10 -16 -10q-8 0 -21.5 17t-25.5 16q-74 80 -74 260v174
q0 26 16.5 75.5t16.5 75.5q0 7 -2 19q-21 7 -43 15q-26 10 -31 28q5 28 34 41q38 17 49 32q26 34 26 115q0 44 -14.5 129.5t-14.5 128.5q0 34 6 64q-12 17 -12 35q0 21 18 52q21 36 25 50q112 51 334 160q8 4 83 54q68 44 72 44t31 -35zM491 1558q-10 -22 -50 -36l-62 -20
q-4 10 -16.5 15.5t-12.5 14.5v24q0 98 58 112q53 -18 83 -110zM225 1558q-10 -22 -50 -36l-62 -20q-4 10 -16.5 15.5t-12.5 14.5v24q0 98 58 112q52 -18 83 -110z" />
    <glyph glyph-name="Egrave" unicode="&#xc8;" horiz-adv-x="723" 
d="M680 1507q-60 -81 -251 -169q-183 -85 -236 -171q-3 -3 -3 -10t6.5 -18.5t6.5 -18.5q0 -10 -10 -16q-3 -10 -3 -14q0 -37 28 -105t28 -104q0 -28 -17.5 -60.5t-17.5 -34.5q0 -10 22 -32q54 31 109 62q66 34 117 34q6 0 20 -2l21 -21q-36 -33 -131.5 -82.5t-132.5 -82.5
q-60 -57 -60 -138q0 -23 4 -47q-9 -41 -11 -116q-3 -82 -9 -117q6 -10 25 -118q13 -77 69 -77q15 0 33 4q6 5 165 115q100 69 154 129h8q31 0 45 -21q-36 -30 -113 -123t-124 -130q-74 -60 -150 -60q-30 0 -49 4q-7 -10 -16 -10q-8 0 -21.5 17t-25.5 16q-74 80 -74 260v174
q0 26 16.5 75.5t16.5 75.5q0 7 -2 19q-21 7 -43 15q-26 10 -31 28q5 28 34 41q38 17 49 32q26 34 26 115q0 44 -14.5 129.5t-14.5 128.5q0 34 6 64q-12 17 -12 35q0 21 18 52q21 36 25 50q112 51 334 160q8 4 83 54q68 44 72 44t31 -35zM412 1569q0 -57 -63 -76
q-62 37 -129 148q-44 20 -77 78q-44 75 -61 92l33 20q68 -12 139 -87q15 -17 105 -134q20 -7 53 -33v-8z" />
    <glyph glyph-name="Iacute" unicode="&#xcd;" horiz-adv-x="379" 
d="M274 893q0 -20 -10 -58t-10 -59q0 -80 -33 -129q-1 -55 -11 -172q-9 -112 -9 -172q0 -72 10 -123l-10 -10q12 -9 12 -23q0 -8 -6 -23t-6 -24q0 -17 20 -26q2 -7 2 -15q0 -11 -22 -59q-10 -4 -21 -4q-41 0 -65 57q-11 25 -11 78q0 27 6.5 81t6.5 81q0 40 -13 78
q6 73 40 293q28 183 28 294q0 28 -7 83t-7 83v6q0 16 6 44t6 43q0 17 -12 34q1 5 0 56q-1 38 22 51q50 -19 60 -90q2 -12 2 -117q0 -2 2 -27q22 -30 22 -88q0 -45 -12 -92q20 -20 20 -51zM432 1852q-17 -17 -60 -92q-34 -58 -77 -78q-68 -111 -129 -148q-64 19 -64 84
q7 11 54 33q89 117 105 134q70 75 138 87z" />
    <glyph glyph-name="Icircumflex" unicode="&#xce;" horiz-adv-x="379" 
d="M274 893q0 -20 -10 -58t-10 -59q0 -80 -33 -129q-1 -55 -11 -172q-9 -112 -9 -172q0 -72 10 -123l-10 -10q12 -9 12 -23q0 -8 -6 -23t-6 -24q0 -17 20 -26q2 -7 2 -15q0 -11 -22 -59q-10 -4 -21 -4q-41 0 -65 57q-11 25 -11 78q0 27 6.5 81t6.5 81q0 40 -13 78
q6 73 40 293q28 183 28 294q0 28 -7 83t-7 83v6q0 16 6 44t6 43q0 17 -12 34q1 5 0 56q-1 38 22 51q50 -19 60 -90q2 -12 2 -117q0 -2 2 -27q22 -30 22 -88q0 -45 -12 -92q20 -20 20 -51zM471 1526q0 -10 -8 -22q-1 -1 -48 -28q-29 -17 -53 -17q-4 0 -14 2q-4 32 -48.5 61.5
t-45.5 58.5q-18 3 -32.5 22t-29.5 23q-35 -15 -56 -53q-26 -43 -44 -57q2 -5 2 -8q0 -14 -24.5 -31t-24.5 -25q-12 -10 -31 -10q-32 0 -28 23l-2 2q-2 5 -2 12q0 6 8 35q31 14 49 50q20 40 39 52q9 40 104 127q79 -7 145 -83q73 -85 121 -99q2 -5 14 -17q9 -9 9 -18z" />
    <glyph glyph-name="Idieresis" unicode="&#xcf;" horiz-adv-x="379" 
d="M274 893q0 -20 -10 -58t-10 -59q0 -80 -33 -129q-1 -55 -11 -172q-9 -112 -9 -172q0 -72 10 -123l-10 -10q12 -9 12 -23q0 -8 -6 -23t-6 -24q0 -17 20 -26q2 -7 2 -15q0 -11 -22 -59q-10 -4 -21 -4q-41 0 -65 57q-11 25 -11 78q0 27 6.5 81t6.5 81q0 40 -13 78
q6 73 40 293q28 183 28 294q0 28 -7 83t-7 83v6q0 16 6 44t6 43q0 17 -12 34q1 5 0 56q-1 38 22 51q50 -19 60 -90q2 -12 2 -117q0 -2 2 -27q22 -30 22 -88q0 -45 -12 -92q20 -20 20 -51zM410 1558q-10 -22 -50 -36l-62 -20q-4 10 -16.5 15.5t-12.5 14.5v24q0 98 58 112
q53 -18 83 -110zM144 1558q-10 -22 -50 -36l-62 -20q-4 10 -16.5 15.5t-12.5 14.5v24q0 98 58 112q52 -18 83 -110z" />
    <glyph glyph-name="Igrave" unicode="&#xcc;" horiz-adv-x="379" 
d="M274 893q0 -20 -10 -58t-10 -59q0 -80 -33 -129q-1 -55 -11 -172q-9 -112 -9 -172q0 -72 10 -123l-10 -10q12 -9 12 -23q0 -8 -6 -23t-6 -24q0 -17 20 -26q2 -7 2 -15q0 -11 -22 -59q-10 -4 -21 -4q-41 0 -65 57q-11 25 -11 78q0 27 6.5 81t6.5 81q0 40 -13 78
q6 73 40 293q28 183 28 294q0 28 -7 83t-7 83v6q0 16 6 44t6 43q0 17 -12 34q1 5 0 56q-1 38 22 51q50 -19 60 -90q2 -12 2 -117q0 -2 2 -27q22 -30 22 -88q0 -45 -12 -92q20 -20 20 -51zM330 1528q0 -57 -63 -76q-62 37 -129 148q-44 20 -77 78q-44 75 -61 92l33 20
q68 -12 139 -87q15 -17 105 -134q20 -7 53 -33v-8z" />
    <glyph glyph-name="Oacute" unicode="&#xd3;" horiz-adv-x="610" 
d="M547 948q0 -22 -3 -134q-2 -82 1 -134q-23 -23 -23 -113q0 -34 -23.5 -92t-23.5 -84q0 -14 6 -29q-22 -15 -22 -86q0 -32 -30 -72q-25 -32 -50 -65q-97 -150 -110 -167q-74 -92 -160 -109q-29 15 -57 31.5t-38 52.5q-12 48 -12 112q0 53 31 252q3 35 12 103q9 41 25 125
q13 101 53 301q13 38 39 116q8 26 15 148q5 91 48 139q0 4 1 11.5t1 11.5q0 18 -12 18q-14 0 -20 -10q-13 5 -13 18q0 4 2 13q1 7 0 12q49 63 133 63q129 0 175 -116q-5 -9 -5 -17q0 -11 15 -27q17 -19 20 -30q25 -89 25 -242zM469 965q0 84 -29 182q-34 114 -86 160h-10
q-26 0 -43 -23q-2 -17 -28 -141q-18 -88 -18 -143q0 -23 3 -44q-30 -37 -39 -107q-13 -111 -14 -116l-21 -20l11 -13q-36 -86 -55 -247q-21 -181 -42 -250l11 -10q-11 -23 -11 -52q0 -10 2 -31.5t2 -31.5q0 -31 -14 -55q7 -7 12 -34q3 -22 17 -22q7 0 14 2q231 216 307 590
q21 100 21 131q0 9 -1 27.5t-1 27.5q0 37 6 110t6 110zM575 1852q-17 -17 -60 -92q-34 -58 -77 -78q-68 -111 -129 -148q-64 19 -64 84q7 11 54 33q89 117 105 134q70 75 138 87z" />
    <glyph glyph-name="Ocircumflex" unicode="&#xd4;" horiz-adv-x="610" 
d="M547 948q0 -22 -3 -134q-2 -82 1 -134q-23 -23 -23 -113q0 -34 -23.5 -92t-23.5 -84q0 -14 6 -29q-22 -15 -22 -86q0 -32 -30 -72q-25 -32 -50 -65q-97 -150 -110 -167q-74 -92 -160 -109q-29 15 -57 31.5t-38 52.5q-12 48 -12 112q0 53 31 252q3 35 12 103q9 41 25 125
q13 101 53 301q13 38 39 116q8 26 15 148q5 91 48 139q0 4 1 11.5t1 11.5q0 18 -12 18q-14 0 -20 -10q-13 5 -13 18q0 4 2 13q1 7 0 12q49 63 133 63q129 0 175 -116q-5 -9 -5 -17q0 -11 15 -27q17 -19 20 -30q25 -89 25 -242zM469 965q0 84 -29 182q-34 114 -86 160h-10
q-26 0 -43 -23q-2 -17 -28 -141q-18 -88 -18 -143q0 -23 3 -44q-30 -37 -39 -107q-13 -111 -14 -116l-21 -20l11 -13q-36 -86 -55 -247q-21 -181 -42 -250l11 -10q-11 -23 -11 -52q0 -10 2 -31.5t2 -31.5q0 -31 -14 -55q7 -7 12 -34q3 -22 17 -22q7 0 14 2q231 216 307 590
q21 100 21 131q0 9 -1 27.5t-1 27.5q0 37 6 110t6 110zM635 1587q0 -10 -8 -22q-1 -1 -48 -28q-29 -17 -53 -17q-4 0 -14 2q-4 32 -48.5 61.5t-45.5 58.5q-18 3 -32.5 22t-29.5 23q-35 -15 -56 -53q-26 -43 -44 -57q2 -5 2 -8q0 -14 -24.5 -31t-24.5 -25q-12 -10 -31 -10
q-32 0 -28 23l-2 2q-2 5 -2 12q0 6 8 35q31 14 49 50q20 40 39 52q9 40 104 127q79 -7 145 -83q73 -85 121 -99q2 -5 14 -17q9 -9 9 -18z" />
    <glyph glyph-name="Ograve" unicode="&#xd2;" horiz-adv-x="610" 
d="M547 948q0 -22 -3 -134q-2 -82 1 -134q-23 -23 -23 -113q0 -34 -23.5 -92t-23.5 -84q0 -14 6 -29q-22 -15 -22 -86q0 -32 -30 -72q-25 -32 -50 -65q-97 -150 -110 -167q-74 -92 -160 -109q-29 15 -57 31.5t-38 52.5q-12 48 -12 112q0 53 31 252q3 35 12 103q9 41 25 125
q13 101 53 301q13 38 39 116q8 26 15 148q5 91 48 139q0 4 1 11.5t1 11.5q0 18 -12 18q-14 0 -20 -10q-13 5 -13 18q0 4 2 13q1 7 0 12q49 63 133 63q129 0 175 -116q-5 -9 -5 -17q0 -11 15 -27q17 -19 20 -30q25 -89 25 -242zM469 965q0 84 -29 182q-34 114 -86 160h-10
q-26 0 -43 -23q-2 -17 -28 -141q-18 -88 -18 -143q0 -23 3 -44q-30 -37 -39 -107q-13 -111 -14 -116l-21 -20l11 -13q-36 -86 -55 -247q-21 -181 -42 -250l11 -10q-11 -23 -11 -52q0 -10 2 -31.5t2 -31.5q0 -31 -14 -55q7 -7 12 -34q3 -22 17 -22q7 0 14 2q231 216 307 590
q21 100 21 131q0 9 -1 27.5t-1 27.5q0 37 6 110t6 110zM514 1548q0 -57 -63 -76q-62 37 -129 148q-44 20 -77 78q-44 75 -61 92l33 20q68 -12 139 -87q15 -17 105 -134q20 -7 53 -33v-8z" />
    <glyph glyph-name="Uacute" unicode="&#xda;" horiz-adv-x="881" 
d="M797 1161q0 -17 -13.5 -50t-13.5 -52q0 -5 3 -14.5t3 -14.5v-362q-22 -9 -22 -21q0 -8 12 -22t12 -23q0 -10 -14 -18q12 -38 12 -160v-31q-10 -8 -10 -47q0 -19 -12 -29q12 -7 12 -16q0 -6 -7 -18t-7 -19q0 -28 13 -89q11 -45 21 -91q-8 -2 -32 -13q-20 -10 -31 -10
q-17 0 -33 13q-22 73 -22 182q0 14 4 132q3 81 -2 132q10 18 10 45q0 15 -5 45t-5 45q0 27 10 45l-10 11q-35 -44 -74.5 -148.5t-75.5 -148.5q-6 -43 -54 -115.5t-52 -118.5q-50 -49 -148 -149q-136 10 -160 116q-43 198 -43 463q0 136 11 275q6 44 12 133v117q35 12 53 12
q47 -55 47 -154q0 -89 -36 -155v-203q0 -103 10 -178q-10 -12 -10 -64v-12l10 -10q-10 -9 -10 -21q0 -7 5 -21t5 -22q0 -12 -10 -20q19 -56 73 -160q56 7 96 73q48 81 74 97q163 292 242 575q11 49 35 146q7 25 18 76q5 65 35 190h4q44 0 70 -33v-10q0 -37 -11 -43
q11 -17 11 -37zM678 1585q-17 -17 -60 -92q-34 -58 -77 -78q-68 -111 -129 -148q-64 19 -64 84q7 11 54 33q89 117 105 134q70 75 138 87z" />
    <glyph glyph-name="Ucircumflex" unicode="&#xdb;" horiz-adv-x="881" 
d="M797 1161q0 -17 -13.5 -50t-13.5 -52q0 -5 3 -14.5t3 -14.5v-362q-22 -9 -22 -21q0 -8 12 -22t12 -23q0 -10 -14 -18q12 -38 12 -160v-31q-10 -8 -10 -47q0 -19 -12 -29q12 -7 12 -16q0 -6 -7 -18t-7 -19q0 -28 13 -89q11 -45 21 -91q-8 -2 -32 -13q-20 -10 -31 -10
q-17 0 -33 13q-22 73 -22 182q0 14 4 132q3 81 -2 132q10 18 10 45q0 15 -5 45t-5 45q0 27 10 45l-10 11q-35 -44 -74.5 -148.5t-75.5 -148.5q-6 -43 -54 -115.5t-52 -118.5q-50 -49 -148 -149q-136 10 -160 116q-43 198 -43 463q0 136 11 275q6 44 12 133v117q35 12 53 12
q47 -55 47 -154q0 -89 -36 -155v-203q0 -103 10 -178q-10 -12 -10 -64v-12l10 -10q-10 -9 -10 -21q0 -7 5 -21t5 -22q0 -12 -10 -20q19 -56 73 -160q56 7 96 73q48 81 74 97q163 292 242 575q11 49 35 146q7 25 18 76q5 65 35 190h4q44 0 70 -33v-10q0 -37 -11 -43
q11 -17 11 -37zM655 1382q0 -10 -8 -22q-1 -1 -48 -28q-29 -17 -53 -17q-4 0 -14 2q-4 32 -48.5 61.5t-45.5 58.5q-18 3 -32.5 22t-29.5 23q-35 -15 -56 -53q-26 -43 -44 -57q2 -5 2 -8q0 -14 -24.5 -31t-24.5 -25q-12 -10 -31 -10q-32 0 -28 23l-2 2q-2 5 -2 12q0 6 8 35
q31 14 49 50q20 40 39 52q9 40 104 127q79 -7 145 -83q73 -85 121 -99q2 -5 14 -17q9 -9 9 -18z" />
    <glyph glyph-name="Ugrave" unicode="&#xd9;" horiz-adv-x="881" 
d="M797 1161q0 -17 -13.5 -50t-13.5 -52q0 -5 3 -14.5t3 -14.5v-362q-22 -9 -22 -21q0 -8 12 -22t12 -23q0 -10 -14 -18q12 -38 12 -160v-31q-10 -8 -10 -47q0 -19 -12 -29q12 -7 12 -16q0 -6 -7 -18t-7 -19q0 -28 13 -89q11 -45 21 -91q-8 -2 -32 -13q-20 -10 -31 -10
q-17 0 -33 13q-22 73 -22 182q0 14 4 132q3 81 -2 132q10 18 10 45q0 15 -5 45t-5 45q0 27 10 45l-10 11q-35 -44 -74.5 -148.5t-75.5 -148.5q-6 -43 -54 -115.5t-52 -118.5q-50 -49 -148 -149q-136 10 -160 116q-43 198 -43 463q0 136 11 275q6 44 12 133v117q35 12 53 12
q47 -55 47 -154q0 -89 -36 -155v-203q0 -103 10 -178q-10 -12 -10 -64v-12l10 -10q-10 -9 -10 -21q0 -7 5 -21t5 -22q0 -12 -10 -20q19 -56 73 -160q56 7 96 73q48 81 74 97q163 292 242 575q11 49 35 146q7 25 18 76q5 65 35 190h4q44 0 70 -33v-10q0 -37 -11 -43
q11 -17 11 -37zM514 1323q0 -57 -63 -76q-62 37 -129 148q-44 20 -77 78q-44 75 -61 92l33 20q68 -12 139 -87q15 -17 105 -134q20 -7 53 -33v-8z" />
    <glyph glyph-name="dotlessi" unicode="&#x131;" horiz-adv-x="319" 
d="M211 74q-23 -13 -23 -31q0 -11 10.5 -30.5t10.5 -28.5q0 -20 -39 -27q-24 10 -64 43q1 104 1 207q-1 123 -13 207q-10 11 -10 28q0 11 6 30t6 30q0 15 -12 28q22 58 22 222q0 68 11 108q8 2 18 2q24 0 32 -36q8 -43 23 -52q9 -35 9 -65q0 -38 -14.5 -113t-14.5 -113
q0 -64 31 -112v-146q0 -91 10 -151z" />
    <glyph glyph-name="circumflex" unicode="&#x2c6;" horiz-adv-x="532" 
d="M512 1157q0 -10 -8 -22q-1 -1 -48 -28q-29 -17 -53 -17q-4 0 -14 2q-4 32 -48.5 61.5t-45.5 58.5q-18 3 -32.5 22t-29.5 23q-35 -15 -56 -53q-26 -43 -44 -57q2 -5 2 -8q0 -14 -24.5 -31t-24.5 -25q-12 -10 -31 -10q-32 0 -28 23l-2 2q-2 5 -2 12q0 6 8 35q31 14 49 50
q20 40 39 52q9 40 104 127q79 -7 145 -83q73 -85 121 -99q2 -5 14 -17q9 -9 9 -18z" />
    <glyph glyph-name="tilde" unicode="&#x2dc;" horiz-adv-x="532" 
d="M547 1262q0 -33 -22 -62.5t-23 -42.5q-18 -6 -48 -37q-23 -24 -69 -24q-65 0 -154 73q-3 19 -29 46t-28 40l-14 13q-91 -29 -113 -94q0 -1 -18 -31h-6q-35 0 -35 33q0 6 2.5 17t3.5 15q2 21 2 39q52 67 66 80q44 41 92 41q41 0 66 -33q28 -36 38 -39q48 -61 53 -66
q35 -36 72 -36q11 0 20 2q45 29 64 88l14 16q17 9 31 9q9 0 16 -2q19 -17 19 -45z" />
    <glyph glyph-name="macron" unicode="&#xaf;" horiz-adv-x="532" 
d="M500 1221q0 -62 -76 -62q-15 0 -45 2t-45 2q-78 0 -141 -12q-14 8 -43 8q-9 0 -26 -1t-26 -1q-65 0 -65 57q0 5 2 19q48 12 160 16q104 3 159 21q12 -8 29 -8q13 0 38.5 8t39.5 8q39 0 39 -57z" />
    <glyph glyph-name="macron" unicode="&#x2c9;" horiz-adv-x="532" 
d="M500 1221q0 -62 -76 -62q-15 0 -45 2t-45 2q-78 0 -141 -12q-14 8 -43 8q-9 0 -26 -1t-26 -1q-65 0 -65 57q0 5 2 19q48 12 160 16q104 3 159 21q12 -8 29 -8q13 0 38.5 8t39.5 8q39 0 39 -57z" />
    <glyph glyph-name="breve" unicode="&#x2d8;" horiz-adv-x="532" 
d="M465 1313q0 -22 -32.5 -50t-35.5 -49q-22 -5 -55 -36q-26 -25 -72 -25q-81 0 -184 100q-1 10 -8.5 31t-7.5 33q0 14 11.5 29.5t24.5 15.5q14 0 61.5 -65.5t113.5 -65.5h4q68 37 92 96l29 29q5 2 10 2q4 0 33 -10q16 -17 16 -35z" />
    <glyph glyph-name="dotaccent" unicode="&#x2d9;" horiz-adv-x="532" 
d="M338 1210q-10 -22 -50 -36l-62 -20q-4 10 -16.5 15.5t-12.5 14.5v24q0 98 58 112q53 -18 83 -110z" />
    <glyph glyph-name="ring" unicode="&#x2da;" horiz-adv-x="532" 
d="M410 1276q0 -61 -35 -133q-51 -105 -139 -137q-113 0 -113 163q0 150 166 357q10 0 26 -8.5t25 -8.5q10 0 12 7q16 -32 43 -97q15 -39 15 -143zM332 1315q0 10 -7.5 27.5t-7.5 27.5q0 7 5 16l-5 3q-10 -1 -27.5 -21.5t-31.5 -21.5q-17 -24 -26 -94q-9 -63 -37 -89
q2 -3 12 -34q7 -23 22 -23q6 0 19 6q5 16 44 80q31 50 31 83q0 9 -1 17q10 10 10 23z" />
    <glyph glyph-name="cedilla" unicode="&#xb8;" horiz-adv-x="532" 
d="M442 -193q0 -15 -8 -45q-12 -13 -33 -36q-6 -12 -13.5 -23.5t-18.5 -11.5q-7 0 -11 4q-13 -12 -32 -10q-57 -27 -125 -27q-77 0 -99 31q-10 15 -10 16q0 37 43 37q10 0 25 -6.5t22 -7.5q9 6 13 6q3 0 8 -3t8 -3q33 0 82 29q53 31 57 61q-11 22 -67 22q-30 0 -61.5 -19.5
t-35.5 -19.5q-9 0 -28 18t-19 27q0 27 14 38q28 22 29 24.5t6 9.5q1 1 33 68q5 10 27 20q4 4 10 4q51 0 51 -49q0 -11 -12 -24l2 -5q0 -5 -4 -14q54 0 74 -22q30 -3 51.5 -30.5t21.5 -58.5z" />
    <glyph glyph-name="hungarumlaut" unicode="&#x2dd;" horiz-adv-x="532" 
d="M555 1360q-17 -17 -60 -92q-34 -58 -77 -78q-68 -111 -129 -148q-64 19 -64 84q7 11 54 33q89 117 105 134q70 75 138 87zM309 1360q-16 -17 -60 -92q-34 -58 -77 -78q-68 -111 -129 -148q-63 19 -63 84q6 11 53 33q89 117 105 134q70 75 138 87z" />
    <glyph glyph-name="ogonek" unicode="&#x2db;" horiz-adv-x="532" 
d="M461 -178q0 -32 -46 -45q-57 -16 -67 -29q-14 4 -24 4q-11 0 -30.5 -6t-29.5 -6q-15 0 -33 6q-72 25 -106 65q-28 34 -51 113q7 29 16.5 58.5t42.5 29.5q22 0 28 -38q10 -64 18 -82q21 -51 79 -74h6q72 0 121 39l39 10q11 -2 33 -27q4 -13 4 -18z" />
    <glyph glyph-name="caron" unicode="&#x2c7;" horiz-adv-x="532" 
d="M512 1337q0 -5 -8 -34q-31 -15 -49 -51q-21 -39 -39 -52q-9 -40 -105 -127q-78 7 -144 83q-74 85 -122 99q-2 6 -12 16.5t-10 18.5q0 11 8 23l48 28q29 17 52 17q4 0 14 -2q4 -33 50 -63q43 -29 45 -58q18 -2 32.5 -21.5t28.5 -23.5q35 16 57 53q25 44 43 57q-2 6 -2 9
q0 13 24.5 30t25.5 25q12 10 30 10q32 0 29 -22q1 -1 1 -2q3 -5 3 -13z" />
    <glyph glyph-name="Lslash" unicode="&#x141;" horiz-adv-x="702" 
d="M926 242q0 -29 -35 -39q-41 -12 -166 -33q-104 -17 -164 -41q-70 -28 -254 -137q-118 -70 -141 -70q-37 0 -72 68q23 82 23 192q0 50 -5.5 149t-5.5 148v123h-14q-24 0 -33 -31q-18 -1 -55 -14.5t-57 -13.5q-26 0 -47 20q50 56 206 123v227q0 33 -11 97.5t-11 97.5
q0 64 33 102q43 -4 73 -43q5 -16 5 -26q0 -17 -7.5 -50.5t-7.5 -50.5q0 -25 10 -43q-14 -16 -14 -36q0 -19 12.5 -53t12.5 -52q0 -29 -21 -49q29 -27 21 -72q54 36 166 103l26 -15q19 -88 19 -82q0 -8 -2 -14q-18 2 -19 2q-40 0 -108.5 -49.5t-85.5 -46.5l4 -6
q-23 -19 -23 -64q0 -82 2 -74q33 -73 33 -208q0 -30 -2 -89.5t-2 -89.5q0 -33 2 -59q35 17 104 53q15 12 45 33q28 10 82 29q106 37 162 75q40 5 138 32q87 24 139 24q16 0 32 -2q13 -25 13 -45z" />
    <glyph glyph-name="lslash" unicode="&#x142;" horiz-adv-x="317" 
d="M412 721q0 -9 -2 -14q-18 2 -19 2q-41 0 -96 -40q-63 -47 -90 -55q1 -1 1 -2q7 -12 7 -30q0 -20 -11.5 -36t-11.5 -24t6.5 -24t6.5 -25q0 -13 -13 -24q13 -30 12 -80q-1 -70 0 -81q5 -48 31 -73q-18 -18 -18 -51q0 -14 3 -40.5t3 -39.5q0 -59 -61 -59q-32 0 -43 22
q2 7 2 21q0 12 -7.5 36.5t-7.5 36.5q0 17 13 33l-33 318q22 16 22 38l-10 52h-8q-19 0 -29 -31q-18 -2 -55 -15.5t-57 -13.5q-26 0 -47 21q73 81 204 121v16q0 93 13 119q18 37 20 117q2 75 21 106q-1 12 -11 34.5t-10 35.5q0 15 14 31t29 16q21 0 64 -31q10 -16 10 -41
q0 -14 -5 -40t-5 -40q0 -23 10 -39q-49 -134 -49 -229q53 34 162 98l26 -14q19 -89 19 -82z" />
    <glyph glyph-name="Scaron" unicode="&#x160;" horiz-adv-x="838" 
d="M795 434q0 -68 -25 -137q-38 -4 -40 -51q-3 -54 -23 -66q-5 -14 -33 -43q-22 -24 -21 -53q-30 -61 -116 -90q-113 -39 -138 -57h-137q-38 4 -77 9q-49 8 -52 44q3 4 14 47q7 26 35 26h4q3 -13 19 -28q24 -24 24 -25q30 -4 54 -4q100 0 243 68q183 236 183 385
q0 127 -101 127q-11 0 -33.5 -2t-33.5 -2q-21 0 -58 12q-42 14 -123 14q-26 0 -67 -4q-27 19 -117 42q-75 18 -106 65q-7 38 -7 84q0 125 66 271q21 48 133 249q15 11 75 102q50 74 85 74t78 -67q41 -63 41 -101q0 -37 -25 -82q-4 -2 -8 -2q-9 0 -35 25q12 16 12 34
q0 19 -32 93q-44 22 -43 22q-4 0 -11 -2q-45 -51 -98 -156q-61 -118 -92 -161q0 -34 -28 -82q-31 -53 -36 -78q-18 -18 -18 -43q0 -10 3 -30.5t3 -31.5q0 -28 -20 -45q36 -57 132 -78q141 -32 154 -38q42 4 58 4q143 0 282 -58q56 -68 56 -180zM573 1829q0 -5 -8 -34
q-31 -15 -49 -51q-21 -39 -39 -52q-9 -40 -105 -127q-78 7 -144 83q-74 85 -122 99q-2 6 -12 16.5t-10 18.5q0 11 8 23l48 28q29 17 52 17q4 0 14 -2q4 -33 50 -63q43 -29 45 -58q18 -2 32.5 -21.5t28.5 -23.5q35 16 57 53q25 44 43 57q-2 6 -2 9q0 13 24.5 30t25.5 25
q12 10 30 10q32 0 29 -22q1 -1 1 -2q3 -5 3 -13z" />
    <glyph glyph-name="scaron" unicode="&#x161;" horiz-adv-x="764" 
d="M700 268q0 -124 -114 -233q-17 -54 -86 -81q-58 -23 -115 -46h-78q-39 0 -59 10q-18 -8 -55 -8q-75 0 -138 20q-38 13 -55 57q-4 12 -18 81q11 22 36 22q9 0 27 -2q13 -9 47 -69q28 -48 60 -48q-6 0 86 6q245 17 307 134q4 11 14 32l42 74q17 37 17 84q-27 69 -118 104
l-158 46q-2 0 -84 41q-17 5 -49 18q-98 46 -143 143q-21 44 -21 62q0 97 117 202l190 158q29 12 58 12q8 0 28 -1t31 -1q58 -80 96 -73l21 -21q-4 -14 -4 -35q0 -18 8 -54.5t8 -55.5q0 -26 -33 -68q-6 -8 -8 -45q-1 -30 -25 -39q-88 7 -88 109q0 16 2.5 49t2.5 49
q0 70 -33 100q-56 2 -118 -63q-81 -84 -103 -96q-4 -30 -23 -31q-1 -22 -22 -65.5t-21 -65.5q0 -29 33 -51q131 -90 287 -131q24 -6 73 -17q144 -35 170 -159q8 -39 8 -54zM573 1419q0 -5 -8 -34q-31 -15 -49 -51q-21 -39 -39 -52q-9 -40 -105 -127q-78 7 -144 83
q-74 85 -122 99q-2 6 -12 16.5t-10 18.5q0 11 8 23l48 28q29 17 52 17q4 0 14 -2q4 -33 50 -63q43 -29 45 -58q18 -2 32.5 -21.5t28.5 -23.5q35 16 57 53q25 44 43 57q-2 6 -2 9q0 13 24.5 30t25.5 25q12 10 30 10q32 0 29 -22q1 -1 1 -2q3 -5 3 -13z" />
    <glyph glyph-name="Zcaron" unicode="&#x17d;" horiz-adv-x="926" 
d="M1149 303q0 -28 -12 -53q-18 -10 -47 -10q-19 0 -55.5 5t-55.5 5q-31 0 -53 -10q-12 2 -21 2q-25 0 -65 -9q-53 -12 -64 -14q-16 6 -33 6q-23 0 -63 -17.5t-62 -17.5q-19 0 -32 7q-33 -18 -165 -64q-102 -36 -155 -84h-6q-8 0 -24.5 -1t-24.5 -1q-78 0 -78 59
q0 19 26.5 80.5t88.5 180.5q54 89 167 239q123 164 171 238q36 44 73 88q42 52 43 104q-15 13 -34 13q-20 0 -57.5 -14.5t-57.5 -14.5q-15 0 -31 6q-11 -23 -63 -22q-49 -59 -168 -97q-127 -42 -172 -84q-13 -4 -23 -4q-47 0 -73 58q14 35 75 53q92 29 95 31l124 68
q73 39 132 54q34 5 104 17q3 0 45 18q97 41 145 41q61 0 97 -49l-43 -53q4 -12 4 -21q0 -21 -15 -58q-17 -43 -20 -58q-41 -11 -53 -76q-2 -3 -87 -99q-53 -61 -63 -112h-2q-34 0 -48.5 -50t-53.5 -46q1 -35 -59 -90t-60 -95q0 -8 2 -16q-28 -20 -57 -67q-37 -58 -49 -72v-9
q0 -17 10 -22q82 16 235 80q31 14 94 37q27 5 80 16q201 43 285 43q43 0 80 -6q19 20 96 20q33 -13 33 -53zM553 1419q0 -5 -8 -34q-31 -15 -49 -51q-21 -39 -39 -52q-9 -40 -105 -127q-78 7 -144 83q-74 85 -122 99q-2 6 -12 16.5t-10 18.5q0 11 8 23l48 28q29 17 52 17
q4 0 14 -2q4 -33 50 -63q43 -29 45 -58q18 -2 32.5 -21.5t28.5 -23.5q35 16 57 53q25 44 43 57q-2 6 -2 9q0 13 24.5 30t25.5 25q12 10 30 10q32 0 29 -22q1 -1 1 -2q3 -5 3 -13z" />
    <glyph glyph-name="zcaron" unicode="&#x17e;" horiz-adv-x="772" 
d="M885 147q0 -4 -2 -17q-1 -11 0 -17q-32 -10 -95 -31q-14 -8 -43 -23q-11 -5 -124 -27.5t-132 -23.5q-32 -17 -105 -26t-105 -27q-11 2 -33 2q-16 0 -46.5 -4t-45.5 -4q-41 0 -68 26l12 64q58 89 198 249q147 169 205 252q101 148 128 285q-21 15 -49 15q-33 0 -84 -31
q-72 -44 -80 -47q-210 -89 -318 -203q-11 -2 -22 -2q-74 0 -74 55q40 23 121 91q74 63 123 85q28 8 86 25q20 6 72 45q44 34 76 34q11 0 22 -3l20 20q5 -2 8 -2t66 23h8q11 0 33 1t33 1q38 0 63 -33l-18 -160q-19 -94 -76 -137q-11 -35 -69 -98q-52 -57 -58 -105
q-24 -33 -152 -159q-95 -93 -124 -179q24 -4 49 -4q44 0 106 14q52 11 105 23q19 2 57 8q46 14 139 41q14 4 66 30q39 20 67 20q60 0 60 -46zM553 1214q0 -5 -8 -34q-31 -15 -49 -51q-21 -39 -39 -52q-9 -40 -105 -127q-78 7 -144 83q-74 85 -122 99q-2 6 -12 16.5t-10 18.5
q0 11 8 23l48 28q29 17 52 17q4 0 14 -2q4 -33 50 -63q43 -29 45 -58q18 -2 32.5 -21.5t28.5 -23.5q35 16 57 53q25 44 43 57q-2 6 -2 9q0 13 24.5 30t25.5 25q12 10 30 10q32 0 29 -22q1 -1 1 -2q3 -5 3 -13z" />
    <glyph glyph-name="brokenbar" unicode="&#xa6;" horiz-adv-x="1024" 
d="M567 674h-108v758h108v-758zM567 -350h-108v758h108v-758z" />
    <glyph glyph-name="Eth" unicode="&#xd0;" horiz-adv-x="842" 
d="M799 936q0 -55 -23 -109q4 -26 4 -41q0 -88 -45 -139q-12 -49 -44 -118q-26 -58 -52 -115q-28 -26 -59 -103q-28 -70 -68 -98q-49 -108 -157 -174q-101 -62 -226 -72q-53 18 -53 56q0 21 15 60t15 60t-8 37q8 4 8 10q0 4 -5.5 12t-6.5 13q35 73 39 414q-7 -4 -18 -4
t-29.5 8t-28.5 8q-16 0 -30 -16q-42 6 -83 13q-48 8 -63 46q58 25 234 25h18q-5 167 -14 501q8 0 18 6.5t15 6.5q4 0 10 -2q42 -90 50 -246q7 -127 13 -254l-6 -8q66 9 199 22l18 -22q-3 -37 -26 -95q-30 19 -66 19q-23 0 -64 -9q-44 -9 -65 -10v-8q0 -53 -22 -69
q12 -24 12 -62v-145q0 -34 -23 -58q23 -29 23 -65q0 -25 -14.5 -72t-14.5 -71q0 -21 6 -37q81 15 153 86q25 25 114 137q19 20 53 63q16 37 49 109q154 326 154 502q0 171 -109 293q-1 0 -86 60q-53 38 -94 38q-25 0 -54 -14q-17 -1 -47.5 10.5t-46.5 11.5q-31 0 -43 -33
q-17 4 -26 4q-43 0 -111 -57q2 -7 2 -12q0 -15 -35 -29q-13 2 -28 17q-13 12 -25 24v33q22 8 156 83q80 44 180 44q234 0 348 -164q3 -4 37 -70q9 -14 27 -43q49 -92 49 -188z" />
    <glyph glyph-name="eth" unicode="&#xf0;" horiz-adv-x="666" 
d="M623 1376q-20 -7 -41 -16t-21 -31q-42 -22 -121 -86q9 -27 59 -111q38 -62 38 -124q0 -9 -1 -26t-1 -26q0 -140 34 -319q-11 -29 -24 -117q-11 -62 -31 -188q-46 -66 -46 -95q0 -11 3 -22q-21 -48 -68 -109q-40 -51 -79 -102q-18 -3 -46.5 -27t-50.5 -26q-11 10 -57 10
q-35 0 -49 23q-31 47 -31 159q0 83 33 228q36 158 41 227q3 46 36.5 128t37.5 126l-21 22q-19 -2 -32 -25q-21 -37 -21 -38h-4q-3 0 -9.5 -1t-9.5 -1q-14 0 -20 12q3 24 30.5 56.5t32.5 50.5q74 61 170 61q50 0 88 -24q-6 60 -29 117l-46 108q-27 -16 -50 -25q-7 2 -14 2
q-20 0 -47.5 -27.5t-48.5 -27.5q-7 0 -19 4l-4 -14q-12 10 -30 10q-9 0 -25 -3t-25 -3q-21 0 -32 20q-3 32 35 49q29 13 65 13q54 24 152 102q-122 244 -316 244q-53 0 -129 -18v22q0 29 42 40q32 6 65 13q10 4 14 4q9 0 24.5 -8t24.5 -8q11 0 21 12q116 -35 125 -38
q68 -27 108 -72q14 -20 43 -60q19 -23 53 -73q101 69 207 69zM469 586q0 25 -5 74.5t-5 74.5q0 15 -10 51q-14 50 -26 69q-21 34 -58 40q-17 -34 -41 -107q-33 -144 -97 -434q-22 -103 -22 -110t2 -17q-21 -101 -21 -116q0 -34 9 -54q93 36 182 215q11 20 31 60
q12 45 53 129v104q8 17 8 21z" />
    <glyph glyph-name="Yacute" unicode="&#xdd;" horiz-adv-x="737" 
d="M776 1552q0 -39 -32 -89q-48 -75 -52 -83.5t-96 -244.5q10 -11 10 -23q0 -11 -9 -30.5t-9 -30.5q0 -13 8 -21q-31 -19 -31 -55q0 -13 5 -39t5 -39q0 -24 -22 -49q-57 -63 -74 -234q-4 -6 -4 -16q0 -11 8.5 -31t8.5 -30q0 -17 -31 -17t-35 10q-23 -37 -23 -100
q0 -65 23 -102q-20 -16 -22 -48q2 29 2 -55q0 -52 -33 -78q12 -10 12 -28q0 -5 -1.5 -17t-0.5 -18l-10 -10l2 -23q0 -14 -2 -42t-2 -42q0 -10 3 -29.5t3 -29.5q0 -46 -45 -58q-17 8 -33 16q-20 11 -20 28q0 26 20 137v61q0 25 10 68q2 6 21 135q13 93 43 278
q-111 305 -223 508q-13 23 -64 38q-43 12 -43 44q0 4 2 15q19 20 45 20q20 0 52 -13q36 -15 51 -18q31 -39 75 -126q45 -90 74 -128q-2 -15 -2 -14q0 -38 30 -81q39 -56 46 -75q42 91 134 435q74 272 185 413q8 0 41 -30v-9zM575 1811q-17 -17 -60 -92q-34 -58 -77 -78
q-68 -111 -129 -148q-64 19 -64 84q7 11 54 33q89 117 105 134q70 75 138 87z" />
    <glyph glyph-name="yacute" unicode="&#xfd;" horiz-adv-x="735" 
d="M651 260q0 -36 -6 -82q-32 -244 -32 -327q0 -29 1 -56q-17 -49 -67 -264q-37 -163 -94 -254q-3 -4 -52 -65q-13 -19 -45 -54q-55 -50 -165 -86q-91 -25 -183 -51q-8 10 -20 10q-9 0 -25 -7t-24 -7q-4 0 -15 4q-32 7 -65 14q-41 11 -41 39v21q59 -15 127 -15q120 0 227 54
q112 56 176 153q134 204 169 535q22 284 44 567q-12 11 -12 25q0 7 5 21t5 22q0 18 -20 28q-27 -15 -37 -68t-37 -69q-22 -60 -64 -182l-66 -80q-45 -49 -87 -49q-8 0 -17 2q-4 -10 -30 -10q-66 53 -94 146q-12 40 -31 173q-15 101 -15 84v307q11 13 31 13q4 0 17 -2
q10 -1 16 0q39 -29 39 -74q0 -23 -10.5 -67t-10.5 -66q0 -31 15 -58q-13 -17 -13 -32q0 -16 12.5 -45t12.5 -46q0 -8 -3 -25t-3 -26q0 -35 24 -89q29 -62 33 -87q29 3 54 34q33 43 42 50q172 285 232 627l22 20l-10 13q28 32 45 32q19 0 25 -54q2 -35 4 -71q1 -8 7.5 -27
t6.5 -30q0 -13 -7 -37t-7 -37q0 -19 10 -32q-10 -44 -10 -101q0 -44 8 -131t8 -131zM575 1299q-17 -17 -60 -92q-34 -58 -77 -78q-68 -111 -129 -148q-64 19 -64 84q7 11 54 33q89 117 105 134q70 75 138 87z" />
    <glyph glyph-name="Thorn" unicode="&#xde;" horiz-adv-x="836" 
d="M834 481q0 -24 -12 -65q-12 -45 -13 -66q-2 -2 -21 -13q-14 -8 -14 -18q0 -5 2 -10q-91 -67 -117 -129h-10q-17 0 -22 13q-17 -45 -88 -65q-75 -20 -93 -52q-65 -15 -106 -15q-62 0 -104 25v20q148 4 282.5 89.5t204.5 218.5q25 46 25 147q0 115 -56.5 226t-148.5 180
q-42 30 -109 30q-64 0 -209 -73q-4 -31 -22 -31q-18 -28 -20 -93q0 -50 -1 -100l11 -10v-180l10 -10q-23 -27 -23 -35q1 -3 2 -8l11 -11q-11 -4 -11 -34v-9q23 -26 23 -75q0 -14 -6 -41.5t-6 -40.5q0 -20 10 -58.5t10 -58.5q0 -32 -20 -53q14 -138 14 -113q0 -50 -25 -133
q-12 -10 -37 -10q-24 0 -36 10q-13 38 -13 72q0 46 23 67l-10 11q8 61 8 112q0 18 -10.5 43.5t-10.5 38.5q0 24 11.5 71.5t11.5 63.5q0 41 -13 106q-17 85 -20 105q10 34 10 137q0 44 13 86l-23 74q-11 -8 -11 -31.5t-9 -31.5q-8 -2 -15 -2q-13 0 -28 34q19 48 51 93
q0 48 20 71q-1 12 -8 61q-6 37 -6 60q0 55 24 146q16 14 37 14q23 0 39 -14q13 -42 13 -78q0 -47 -25 -72l12 -12q-3 -25 -8 -74q23 19 74 49q75 31 205 31q69 0 112 -22l96 -62q90 -141 118 -197q57 -116 57 -219q0 -21 -5 -51q5 -12 5 -29z" />
    <glyph glyph-name="thorn" unicode="&#xfe;" horiz-adv-x="705" 
d="M662 594q0 -166 -82 -262q-7 -81 -99 -158q-143 -121 -147 -127q-5 2 -17 2q-15 0 -34 -21t-33 -24q-56 -13 -77 -20q-41 -13 -73 -33q15 -23 15 -45q0 -18 -10.5 -52.5t-10.5 -52.5q0 -17 6 -30v-43l-4 2q-8 -1 -16 -13q12 -50 12 -90q0 -38 -12 -90q22 -40 22 -94
q0 -2 -2 -23q-23 -30 -49 -30q-25 0 -41 31q-14 27 -14 55q0 18 6 55t6 55q0 34 -12 58v102q0 29 8 85t8 85q0 102 -80 131q-32 31 -32 117l43 41q14 -8 14 -31q0 -8 -2 -23.5t-2 -23.5q0 -47 43 -59q24 126 53 383q1 55 8 165q6 53 15 50q2 13 2 149q0 17 12 137
q17 27 18 72q-2 -80 -2 76q0 33 15 63q17 37 47 37q26 0 49 -37q-2 -69 -33 -112q4 -31 4 -60q0 -57 -22 -121q8 -14 20 -12l-4 -43q-10 -16 -10 -51v-4q46 56 135 112q98 62 160 62q70 0 158 -103q41 -122 41 -237zM559 631q0 73 -22 147q-17 56 -74 56q-16 0 -86 -13
q-82 -68 -116 -102q-62 -62 -95 -121q10 -11 10 -29q0 -11 -7 -31.5t-7 -31.5q0 -7 4 -14q-7 -76 -13 -151q-9 -89 -30 -146q10 -15 10 -37q0 -14 -7 -41t-7 -41q0 -9 4 -19q50 20 147 64q17 9 74 65q215 215 215 445z" />
    <glyph glyph-name="minus" unicode="&#x2212;" 
d="M1452 561h-1198v98h1198v-98z" />
    <glyph glyph-name="multiply" unicode="&#xd7;" 
d="M1407 129l-70 -70l-481 482l-481 -482l-70 70l481 481l-481 482l70 69l481 -481l481 481l70 -69l-481 -482z" />
    <glyph glyph-name="onesuperior" unicode="&#xb9;" horiz-adv-x="414" 
d="M309 1231q-22 -19 -22 -41q0 -11 3 -32t3 -32q0 -25 -14 -47l2 -18q0 -34 -19 -115q-17 -74 -22 -155q-6 -84 -25 -125v-4q0 -13 -4 -37.5t-4 -36.5q0 -6 8 -33l-6 -8q-2 -16 -23 -43q-55 4 -82 59q11 33 17 109q6 72 20 108l-4 6q29 110 50 315q21 221 42 316l-12 47h70
q12 -34 12 -69q0 -17 -3 -49.5t-3 -49.5q0 -34 16 -65z" />
    <glyph glyph-name="twosuperior" unicode="&#xb2;" horiz-adv-x="782" 
d="M678 643q0 -29 -33 -37.5t-35 -15.5l-4 -17h-37q-1 0 -26 2l6 27l-6 2q-33 -10 -170 -10q-45 0 -132 -19.5t-132 -19.5q-5 21 -5 31t21 76h8q41 97 137 245q62 96 89 143q45 81 69 152q10 31 10 33q0 7 -26 14q-106 -70 -185 -168h-43q-10 27 -10 37q0 25 29 52t26 44
q107 117 193 117q45 0 77.5 -26t32.5 -70q0 -33 -30 -96q-12 -6 -21 -38q-9 -36 -22 -48q-16 -66 -80 -127q0 -22 -15 -34.5t-16 -19.5q-30 -36 -63 -99q-52 -98 -56 -103q27 10 58 10q16 0 67 6q41 6 66 2q34 8 99 8q70 0 99 4q60 -27 60 -57z" />
    <glyph glyph-name="threesuperior" unicode="&#xb3;" horiz-adv-x="813" 
d="M709 874q0 -46 -41 -135q-33 -27 -65 -54q-27 -25 -54 -71l-12 27h-2q-39 -38 -54 -38q-6 0 -12 1q-110 -57 -223 -57q-52 0 -99 14h5q-21 2 -48 53q19 41 58 41q20 0 41 -13t33 -13q8 0 22 10q16 -10 27 -10q29 0 80 22q87 39 127 64q69 44 100 98q16 29 16 39
q0 74 -123 74q-79 0 -120 -41q-21 -12 -64 -37q-35 38 -35 61q0 34 47 68q52 38 58 53q30 32 72 95q48 72 69 98q-2 6 -2 12q0 7 4 18q-177 -40 -264 -161q-22 -31 -60 -31q-5 0 -26 4q-12 35 -12 47l2 12q186 222 399 222h6l51 -43q4 -18 4 -39q0 -83 -63 -140
q-5 -17 -10.5 -32t-24.5 -27q-27 -17 -37 -41q14 -4 64 -4q54 0 86 -37q1 -6 23 -10t36 -29q21 -35 21 -70z" />
    <glyph glyph-name="onehalf" unicode="&#xbd;" horiz-adv-x="1327" 
d="M1223 61q0 -28 -31 -37q-35 -9 -37 -16l-4 -14h-64l7 26l-7 5q-32 -11 -169 -11q-45 0 -132 -20.5t-133 -20.5q-4 22 -4 33q0 10 21 76h8q39 91 137 244q63 97 88 142q46 82 70 153q10 31 10 34q0 7 -29 13q-104 -70 -182 -166h-45q-8 21 -8 35q0 24 29 52t26 46
q105 115 193 115q45 0 76 -24q34 -27 34 -71q0 -29 -33 -96q-11 -5 -19 -37q-8 -36 -21 -49q-16 -66 -80 -127q0 -23 -15 -34.5t-16 -18.5q-30 -37 -63 -99q-53 -99 -56 -104q22 8 70 8q14 0 59 7q37 5 60 1q28 7 108 7q41 0 92 8q60 -27 60 -60zM362 1231q-24 -21 -24 -41
q0 -11 4 -32t4 -32q0 -25 -14 -47l2 -18q0 -34 -19 -115q-17 -74 -22 -155q-6 -84 -25 -125v-4q0 -13 -4 -37.5t-4 -36.5q0 -6 8 -33l-6 -8q-2 -16 -22 -43q-55 4 -82 59q11 33 17 109q5 72 20 108l-5 6q30 110 50 315q22 221 43 316l-13 47h68q14 -39 14 -69
q0 -17 -4 -49.5t-4 -49.5q0 -31 18 -65zM979 1231q0 -3 -2 -14q-20 -26 -178 -277q-30 -42 -88 -127q-26 -38 -69 -132q-41 -87 -73 -130q-21 -30 -65 -90q-33 -40 -90 -125q0 -68 -41 -117q-16 -15 -45 -49q-1 -2 -47 -80q-26 -46 -58 -72q4 -9 4 -16q0 -16 -47 -59
q-7 -2 -18 -2q-24 0 -41 21.5t-17 45.5q0 25 23 41q-1 18 26 44q34 33 40 42q29 41 86 125q6 11 40 86q3 5 93 137q121 179 182 310q26 4 36 33q9 25 17 51q30 41 86 127q10 15 160 266q10 -9 53 -11q33 -1 33 -28z" />
    <glyph glyph-name="onequarter" unicode="&#xbc;" horiz-adv-x="1376" 
d="M1272 498q0 -24 -15 -47q-21 -7 -25 -24q-1 -3 -1 -38q0 -23 -6 -41q2 -27 2 -29q0 -16 -17 -176q-10 -7 -10 -12q0 -7 3 -20.5t3 -20.5q0 -10 -6 -22q4 -15 4 -19q0 -9 -3 -27.5t-3 -27.5q0 -11 4 -43q-31 8 -62 17q-34 13 -48 40q9 75 30 266q2 20 8 58q-2 9 -2 10
q0 8 3.5 24.5t3.5 24.5q0 5 -2 10h-13q-58 0 -80 -8q-17 8 -34 8q-31 0 -111 -32q-30 -1 -78 -52q-11 -2 -14 -2q-17 0 -68 52q40 75 105 231q8 45 30 123l13 2q13 8 22 8q10 0 27 -8v-156q-11 -8 -19 -35q-12 -36 -14 -40l-4 -9q25 13 86 13q19 0 58 -3.5t59 -3.5
q17 0 32 3v145q0 158 62 233q13 5 22 2l5 5q32 -13 32 -52v-6q-22 -9 -25 -20q-1 -3 -1 -35v-10q8 -14 8 -25q0 -10 -7 -29.5t-7 -29.5q0 -5 7 -23t7 -29q0 -4 -1 -13.5t-1 -14.5q0 -35 4 -43h4q13 0 18 -2q15 -24 15 -47zM362 1231q-24 -21 -24 -41q0 -11 4 -32t4 -32
q0 -25 -14 -47l2 -18q0 -34 -19 -115q-17 -74 -22 -155q-6 -84 -25 -125v-4q0 -13 -4 -37.5t-4 -36.5q0 -6 8 -33l-6 -8q-2 -16 -22 -43q-55 4 -82 59q11 33 17 109q5 72 20 108l-5 6q30 110 50 315q22 221 43 316l-13 47h68q14 -39 14 -69q0 -17 -4 -49.5t-4 -49.5
q0 -31 18 -65zM979 1231q0 -3 -2 -14q-20 -26 -178 -277q-30 -42 -88 -127q-26 -38 -69 -132q-41 -87 -73 -130q-21 -30 -65 -90q-33 -40 -90 -125q0 -68 -41 -117q-16 -15 -45 -49q-1 -2 -47 -80q-26 -46 -58 -72q4 -9 4 -16q0 -16 -47 -59q-7 -2 -18 -2q-24 0 -41 21.5
t-17 45.5q0 25 23 41q-1 18 26 44q34 33 40 42q29 41 86 125q6 11 40 86q3 5 93 137q121 179 182 310q26 4 36 33q9 25 17 51q30 41 86 127q10 15 160 266q10 -9 53 -11q33 -1 33 -28z" />
    <glyph glyph-name="threequarters" unicode="&#xbe;" horiz-adv-x="1620" 
d="M1516 498q0 -24 -15 -47q-22 -7 -26 -24v-38q0 -23 -7 -41q2 -27 2 -29q0 -16 -16 -176q-10 -7 -10 -12q0 -7 3 -20.5t3 -20.5q0 -10 -6 -22q4 -15 4 -19q0 -9 -3 -27.5t-3 -27.5q0 -11 4 -43q-31 8 -62 17q-34 13 -49 40q10 75 31 266q1 20 8 58q-2 9 -2 10q0 8 3 24.5
t3 24.5q0 5 -2 10h-12q-58 0 -80 -8q-17 8 -35 8q-28 0 -108 -32q-32 -1 -80 -52q-12 -2 -14 -2q-17 0 -68 52q56 77 104 231q9 45 31 123l12 2q13 8 23 8t27 -8v-156q-11 -8 -20 -35q-11 -36 -13 -40l-4 -9q25 13 86 13q19 0 58 -3.5t58 -3.5q18 0 33 3v145q0 158 62 233
q13 5 22 2l4 5q33 -13 33 -52v-6q-22 -9 -26 -20q-1 -3 -1 -35v-10q9 -14 9 -25q0 -10 -7.5 -29.5t-7.5 -29.5q0 -5 7.5 -23t7.5 -29q0 -4 -1 -13.5t-1 -14.5q0 -35 4 -43h4q12 0 18 -2q15 -24 15 -47zM1223 1231q0 -3 -2 -14q-20 -26 -179 -277q-29 -42 -88 -127
q-25 -38 -69 -132q-41 -87 -72 -130q-22 -30 -65 -90q-33 -40 -91 -125l2 -6q0 -60 -43 -111q-16 -15 -45 -49q-1 -2 -46 -80q-27 -46 -58 -72q4 -9 4 -16q0 -16 -47 -59q-7 -2 -18 -2q-24 0 -41 21.5t-17 45.5q0 25 23 41q-1 18 26 44q34 33 39 42q29 41 86 125q7 11 41 86
q3 5 92 137q122 179 183 310q25 4 36 33q8 25 17 51q29 41 86 127q9 14 160 266q10 -9 53 -11q33 -1 33 -28zM709 874q0 -46 -41 -135q-33 -27 -65 -54q-27 -25 -54 -71l-12 27h-2q-39 -38 -54 -38q-6 0 -12 1q-110 -57 -223 -57q-52 0 -99 14h5q-21 2 -48 53q19 41 58 41
q20 0 41 -13t33 -13q8 0 22 10q16 -10 27 -10q29 0 80 22q87 39 127 64q69 44 100 98q16 29 16 39q0 74 -123 74q-79 0 -120 -41q-21 -12 -64 -37q-35 38 -35 61q0 34 47 68q52 38 58 53q30 32 72 95q48 72 69 98q-2 6 -2 12q0 7 4 18q-177 -40 -264 -161q-22 -31 -60 -31
q-5 0 -26 4q-12 34 -12 47l2 12q187 222 399 222h6l51 -43q4 -18 4 -39q0 -83 -63 -140q-5 -17 -10 -32t-25 -27q-26 -17 -37 -41q14 -4 64 -4q54 0 86 -37q1 -6 23 -10t36 -29q21 -35 21 -70z" />
    <glyph glyph-name="franc" unicode="&#x20a3;" horiz-adv-x="1210" 
d="M678 1391q-153 -10 -234 -86q-10 4 -18 4q-19 0 -56.5 -17.5t-62.5 -17.5q-3 0 -28 -6q-80 -20 -99 -68v-344q0 -158 10 -262q31 11 178 99q102 61 193 61q-6 -41 -49 -64q-39 -16 -78 -33q-35 -51 -129 -94.5t-125 -85.5q2 -10 2 -31t-9 -63t-9 -64q0 -15 6 -32
q-12 -41 -12 -80q0 -36 10.5 -105t11.5 -102q-13 -25 -33 -25q-8 0 -43 15q-20 105 -20 254q0 68 6 205.5t6 205.5q0 98 -4 140q-8 82 -8 61v4l20 307q-11 15 -10.5 49t-9.5 48q27 40 87 50q52 6 103 13q20 6 137 48q83 30 140 36q15 25 74 64q18 -26 53 -21v-63zM1331 277
q-1 -36 -41 -54q-64 -29 -66 -30q-51 9 -102 19q-36 10 -92 52l-11 -10q-34 50 -96 84q-4 2 -117 53q-23 33 -69 33h-4q-33 -52 -33 -158v-65q0 -21 9 -63t9 -64q0 -83 -59 -117q-63 25 -63 92q0 23 8 68t8 67q0 20 -6 37q9 202 30 607q154 183 183 213q120 120 231 147h4
q95 0 135 -96q-11 -42 -32 -127q-2 -17 -11 -49q-19 -32 -55 -97q-6 -18 -18.5 -54.5t-82.5 -106.5q-80 -81 -98 -107q-20 -8 -42 -17t-33 -26q8 -42 74 -63q71 -23 85 -54q10 -4 101 -63q64 -41 106 -41q17 0 37.5 27.5t34.5 27.5q12 0 23 -12q32 2 53 -53zM1095 1069
q0 17 -12 33q-56 0 -106 -37q-4 -2 -85 -76q-14 -11 -43 -35q-51 -42 -84 -124q-32 -77 -32 -148q0 -63 20 -110q116 68 242 260q55 84 55 98v20q0 27 23 35q1 13 12 42q10 26 10 42z" />
    <glyph glyph-name="Gbreve" unicode="&#x11e;" horiz-adv-x="934" 
d="M850 434q-4 -44 -42 -139q-34 -88 -34 -141q0 -32 1 -94t1 -93q-46 -22 -51 -22q-6 0 -12 2q-21 24 -21 92q0 41 -22 67q-44 -37 -88 -75q-57 -41 -105 -41q-27 0 -51 10q-4 -10 -33 -10l-10 10q-14 -10 -29 -10q-19 0 -43 18q-38 29 -39 29q-5 2 -16 6q-104 49 -155 200
q-34 127 -68 255q100 577 467 1040q3 -2 10 -2t16.5 8t16.5 8q6 0 10 -2q29 -35 39 -107l14 -116q4 -19 27 -62q20 -40 20 -59q0 -23 -26 -39q12 -17 12 -43q0 -24 -12 -41q-78 9 -78 105q0 20 3 59.5t3 59.5q0 47 -12 73v4q0 34 -23 50q-164 -191 -321 -584
q-27 -60 -70 -182q-8 -30 -8 -129q0 -256 133 -398q43 -45 65 -57q32 -16 103 -16q64 0 131 28q41 39 81 79q48 47 68 89q2 75 31 228q29 150 29 229q0 35 -8 86q-141 -45 -322 -227q-25 -29 -80 -82q-4 -1 -10 -2q-11 0 -33 24q5 57 71 109q84 68 99 92q193 142 328 160
q43 -55 43 -129q0 -49 -21.5 -142.5t-21.5 -142.5q0 -35 12 -43zM506 1805q0 -22 -32.5 -50t-35.5 -49q-22 -5 -55 -36q-26 -25 -72 -25q-81 0 -184 100q-1 10 -8.5 31t-7.5 33q0 14 11.5 29.5t24.5 15.5q14 0 61.5 -65.5t113.5 -65.5h4q68 37 92 96l29 29q5 2 10 2
q4 0 33 -10q16 -17 16 -35z" />
    <glyph glyph-name="gbreve" unicode="&#x11f;" horiz-adv-x="653" 
d="M631 -211q0 -83 -27 -184q-6 -21 -16 -62q-4 -28 -15 -84q-24 -63 -69 -190q-48 -16 -65.5 -95.5t-63.5 -95.5q-48 -49 -129 -102q-96 -61 -148 -61q-102 0 -157 88v32q29 -20 59 -41q36 -22 68 -22q12 10 73 10q183 116 278 336q63 145 116 428q-5 14 -5 27q0 18 7.5 55
t7.5 55q0 39 -21 64q2 12 2 24q0 7 -22 135q-7 55 -15 109q-9 64 -28 104q-38 -13 -70 -72q-38 -71 -57 -87q-17 -54 -79.5 -92.5t-121.5 -38.5q-34 0 -70 38q-56 58 -59 60q-2 24 -2 53q0 216 152 457q28 17 111 128q70 95 118 95q38 0 78 -43q8 -29 8 -137q0 -91 35 -127
q-2 -12 -2 -18q0 -47 33.5 -131.5t33.5 -131.5q0 -32 -14 -69q22 -52 43 -104q25 -63 25 -109q0 -33 -15 -64q23 -60 23 -137zM399 582q0 94 -24 161q-52 -41 -112 -122q-88 -121 -99 -134q-6 -38 -44 -129q-34 -82 -34 -131q0 -90 49 -90q58 0 49 2q61 46 115 127
q17 24 88 148q12 91 12 168zM424 1129q0 -22 -32.5 -50t-35.5 -49q-22 -5 -55 -36q-26 -25 -72 -25q-81 0 -184 100q-1 10 -8.5 31t-7.5 33q0 14 11.5 29.5t24.5 15.5q14 0 61.5 -65.5t113.5 -65.5h4q68 37 92 96l29 29q5 2 10 2q4 0 33 -10q16 -17 16 -35z" />
    <glyph glyph-name="Idotaccent" unicode="&#x130;" horiz-adv-x="379" 
d="M274 893q0 -20 -10 -58t-10 -59q0 -80 -33 -129q-1 -55 -11 -172q-9 -112 -9 -172q0 -72 10 -123l-10 -10q12 -9 12 -23q0 -8 -6 -23t-6 -24q0 -17 20 -26q2 -7 2 -15q0 -11 -22 -59q-10 -4 -21 -4q-41 0 -65 57q-11 25 -11 78q0 27 6.5 81t6.5 81q0 40 -13 78
q6 73 40 293q28 183 28 294q0 28 -7 83t-7 83v6q0 16 6 44t6 43q0 17 -12 34q1 5 0 56q-1 38 22 51q50 -19 60 -90q2 -12 2 -117q0 -2 2 -27q22 -30 22 -88q0 -45 -12 -92q20 -20 20 -51zM277 1517q-10 -22 -50 -36l-62 -20q-4 10 -16.5 15.5t-12.5 14.5v24q0 98 58 112
q53 -18 83 -110z" />
    <glyph glyph-name="Scedilla" unicode="&#x15e;" horiz-adv-x="838" 
d="M795 434q0 -68 -25 -137q-38 -4 -40 -51q-3 -54 -23 -66q-5 -14 -32 -43q-23 -24 -22 -53q-30 -61 -114 -90q-114 -40 -138 -57q2 -7 2 -19q0 -11 -12 -24l2 -5l-4 -14q54 0 74 -22q30 -3 52 -30.5t22 -58.5q0 -18 -9 -45q-13 -14 -34 -38q-6 -11 -13 -22t-18 -11
q-6 0 -10 4q-14 -12 -33 -10q-57 -27 -125 -27q-75 0 -98 31q-11 13 -11 16q0 37 43 37q10 0 25 -6.5t22 -7.5q9 6 13 6q3 0 8 -3t8 -3q33 0 82 29q53 31 57 61q-11 22 -67 22q-30 0 -61.5 -19.5t-34.5 -19.5q-15 0 -31.5 19.5t-16.5 34.5q0 17 16 30q27 22 27.5 24t6.5 9
q11 15 30 62h-51q-38 4 -77 9q-49 7 -52 44q3 4 14 47q7 26 35 26h4q3 -13 19 -28q23 -23 24 -25q30 -4 54 -4q100 0 243 68q183 236 183 385q0 127 -101 127q-11 0 -33.5 -2t-33.5 -2q-22 0 -58 12q-41 14 -123 14q-26 0 -67 -4q-27 19 -117 42q-75 18 -106 65q-7 38 -7 84
q0 125 66 271q21 48 133 249q15 11 75 102q50 74 85 74t78 -67q41 -63 41 -101q0 -37 -25 -82q-4 -2 -8 -2q-8 0 -35 25q12 17 12 34q0 18 -32 93q-46 22 -43 22q-4 0 -11 -2q-45 -51 -98 -156q-61 -118 -92 -161q0 -34 -28 -82q-31 -53 -36 -78q-18 -18 -18 -43
q0 -10 3 -30.5t3 -31.5q0 -28 -20 -45q36 -57 132 -78q141 -32 154 -38q43 4 58 4q143 0 282 -58q56 -68 56 -180z" />
    <glyph glyph-name="scedilla" unicode="&#x15f;" horiz-adv-x="764" 
d="M700 268q0 -124 -114 -233q-17 -54 -86 -81q-58 -23 -115 -46q-14 2 -25 2q12 0 -38 -2v-4q0 -18 -13 -31l2 -4l-4 -14q54 0 74 -23q30 -2 52 -29.5t22 -58.5q0 -18 -9 -45q-14 -15 -36 -41q-6 -10 -11.5 -20.5t-17.5 -10.5q-6 0 -10 4q-13 -11 -33 -10q-57 -27 -125 -27
q-75 0 -98 31q-11 14 -11 17q0 36 43 36q10 0 25.5 -6.5t22.5 -7.5q8 6 12 6q3 0 8 -3t8 -3q33 0 82 29q53 31 57 61q-11 23 -67 23q-30 0 -61.5 -19.5t-34.5 -19.5q-14 0 -30.5 19t-16.5 34q0 18 15 31q26 21 27 23.5t7 9.5q11 14 28 57q-11 -2 -36 -2q-73 0 -138 20
q-38 12 -55 57q-4 12 -18 81q11 22 36 22q9 0 27 -2q13 -9 47 -69q28 -48 60 -48q-8 0 86 6q243 17 307 134q4 11 14 32l42 74q17 37 17 84q-27 69 -118 104l-158 46q-4 1 -84 41q-17 5 -49 18q-98 46 -143 143q-21 44 -21 62q0 97 117 202l190 158q29 12 58 12q8 0 28 -1
t31 -1q58 -80 96 -73l21 -21q-4 -14 -4 -35q0 -18 8 -54.5t8 -55.5q0 -27 -33 -68q-6 -8 -8 -45q-1 -30 -25 -39q-88 7 -88 109q0 16 2.5 49t2.5 49q0 70 -33 100q-56 2 -118 -63q-81 -84 -103 -96q-4 -30 -23 -31q-1 -22 -22 -65.5t-21 -65.5q0 -29 33 -51
q134 -91 287 -131q24 -6 73 -17q144 -35 170 -159q8 -40 8 -54z" />
    <glyph glyph-name="Cacute" unicode="&#x106;" horiz-adv-x="684" 
d="M805 391q0 -101 -90 -201q-50 -54 -81 -80q-55 -45 -99 -47q-39 -40 -116 -50q-64 -6 -128 -13q-145 44 -198 158q-40 86 -40 258q0 244 121 655q61 207 148 297q32 -11 43 -41q-3 -23 -3 -35q0 -94 35 -178l-12 -20q0 -48 11.5 -143.5t11.5 -143.5q0 -76 -23 -139
l12 -11q-8 -4 -10 -16q-2 -8 -12 -4q-7 -2 -17 -2q-44 0 -57 45q12 18 12 39q0 13 -6 39.5t-6 40.5q0 22 10 39q-4 15 -4 39q0 18 3 54t3 54q0 90 -32 129q-41 -57 -71 -172q-34 -131 -58 -178q0 -181 -31 -266q8 -93 15 -186q15 -108 58 -161q55 -69 168 -69q157 0 328 207
q21 23 58 71q3 6 10 47q5 31 22 31q9 0 21 -4q4 -19 4 -43zM514 1770q-17 -17 -60 -92q-34 -58 -77 -78q-68 -111 -129 -148q-64 19 -64 84q7 11 54 33q89 117 105 134q70 75 138 87z" />
    <glyph glyph-name="cacute" unicode="&#x107;" horiz-adv-x="569" 
d="M772 406q0 -20 -33 -54t-34 -55q-17 -23 -87 -80q-58 -47 -73 -90q-32 -4 -58 -24.5t-51 -41.5q-9 -5 -28 -18q-12 -9 -47 -48q-25 -27 -60 -38q-9 25 -35 25q-20 0 -39 -13q-5 5 -94 60q-54 33 -65 88q-25 116 -25 225q0 354 242 786q26 50 80 136q6 8 26 8q37 0 47 -41
q10 -8 11 -31.5t12 -32.5q-10 -20 -10 -80q0 -33 -23 -57q14 -125 14 -145q0 -68 -24 -121q0 -11 2 -33.5t2 -34.5q0 -82 -51 -82q-49 0 -49 43q0 39 17 114t17 114q0 37 -12 69q43 89 43 109t-12 41q-46 -17 -69 -73q-18 -48 -36 -97q-20 -38 -55 -117q-25 -86 -84 -254
q16 -19 16 -41q0 -19 -21.5 -50t-21.5 -50t17 -39q-21 -39 -21 -88q0 -97 64 -189q37 -53 106 -53q7 0 33 8q65 21 131 83q55 55 111 110q9 38 71 87q56 43 56 95q11 10 63 10h13q24 -19 24 -40zM514 1626q-17 -17 -60 -92q-34 -58 -77 -78q-68 -111 -129 -148
q-64 19 -64 84q7 11 54 33q89 117 105 134q70 75 138 87z" />
    <glyph glyph-name="Ccaron" unicode="&#x10c;" horiz-adv-x="684" 
d="M805 391q0 -101 -90 -201q-50 -54 -81 -80q-55 -45 -99 -47q-39 -40 -116 -50q-64 -6 -128 -13q-145 44 -198 158q-40 86 -40 258q0 244 121 655q61 207 148 297q32 -11 43 -41q-3 -23 -3 -35q0 -94 35 -178l-12 -20q0 -48 11.5 -143.5t11.5 -143.5q0 -76 -23 -139
l12 -11q-8 -4 -10 -16q-2 -8 -12 -4q-7 -2 -17 -2q-44 0 -57 45q12 18 12 39q0 13 -6 39.5t-6 40.5q0 22 10 39q-4 15 -4 39q0 18 3 54t3 54q0 90 -32 129q-41 -57 -71 -172q-34 -131 -58 -178q0 -181 -31 -266q8 -93 15 -186q15 -108 58 -161q55 -69 168 -69q157 0 328 207
q21 23 58 71q3 6 10 47q5 31 22 31q9 0 21 -4q4 -19 4 -43zM573 1726q0 -5 -8 -34q-31 -15 -49 -51q-21 -39 -39 -52q-9 -40 -105 -127q-78 7 -144 83q-74 85 -122 99q-2 6 -12 16.5t-10 18.5q0 11 8 23l48 28q29 17 52 17q4 0 14 -2q4 -33 50 -63q43 -29 45 -58
q18 -2 32.5 -21.5t28.5 -23.5q35 16 57 53q25 44 43 57q-2 6 -2 9q0 13 24.5 30t25.5 25q12 10 30 10q32 0 29 -22q1 -1 1 -2q3 -5 3 -13z" />
    <glyph glyph-name="ccaron" unicode="&#x10d;" horiz-adv-x="569" 
d="M772 406q0 -20 -33 -54t-34 -55q-17 -23 -87 -80q-58 -47 -73 -90q-32 -4 -58 -24.5t-51 -41.5q-9 -5 -28 -18q-12 -9 -47 -48q-25 -27 -60 -38q-9 25 -35 25q-20 0 -39 -13q-5 5 -94 60q-54 33 -65 88q-25 116 -25 225q0 354 242 786q26 50 80 136q6 8 26 8q37 0 47 -41
q10 -8 11 -31.5t12 -32.5q-10 -20 -10 -80q0 -33 -23 -57q14 -125 14 -145q0 -68 -24 -121q0 -11 2 -33.5t2 -34.5q0 -82 -51 -82q-49 0 -49 43q0 39 17 114t17 114q0 37 -12 69q43 89 43 109t-12 41q-46 -17 -69 -73q-18 -48 -36 -97q-20 -38 -55 -117q-25 -86 -84 -254
q16 -19 16 -41q0 -19 -21.5 -50t-21.5 -50t17 -39q-21 -39 -21 -88q0 -97 64 -189q37 -53 106 -53q7 0 33 8q65 21 131 83q55 55 111 110q9 38 71 87q56 43 56 95q11 10 63 10h13q24 -19 24 -40zM553 1624q0 -5 -8 -34q-31 -15 -49 -51q-21 -39 -39 -52q-9 -40 -105 -127
q-78 7 -144 83q-74 85 -122 99q-2 6 -12 16.5t-10 18.5q0 11 8 23l48 28q29 17 52 17q4 0 14 -2q4 -33 50 -63q43 -29 45 -58q18 -2 32.5 -21.5t28.5 -23.5q35 16 57 53q25 44 43 57q-2 6 -2 9q0 13 24.5 30t25.5 25q12 10 30 10q32 0 29 -22q1 -1 1 -2q3 -5 3 -13z" />
    <glyph glyph-name="dcroat" unicode="&#x111;" horiz-adv-x="797" 
d="M874 1229q0 -62 -73 -62q-15 0 -44.5 2t-43.5 2q-2 -23 -13 -83q-10 -53 -10 -84q0 -34 12 -70q-13 2 -22 -10q12 -18 12 -39q0 -13 -6 -37t-6 -37q0 -22 10 -37q-10 -15 -10 -37q0 -12 6 -36.5t6 -36.5q0 -20 -12 -37q6 -13 6 -33q0 -12 -3 -36.5t-3 -37.5q0 -27 10 -43
q-20 -38 -20 -90q0 -27 32 -174q-6 -25 -6 -41q0 -36 18.5 -106.5t18.5 -106.5q0 -35 -33 -35q-59 0 -51 2q-48 64 -43 213q-10 20 -10 113q0 18 -5 50.5t-5 49.5q0 14 -13 19q-54 -31 -96 -124q-45 -100 -84 -130l13 -11q-47 -46 -93 -92q-60 -53 -114 -53q-118 0 -152 170
l-24 262l32 127l-12 10l84 256q53 132 172 201q92 53 119 53t39 -10q9 -8 26 -37q60 -98 60 -297v-143q-8 -18 -19 -18q2 0 -35 18q13 53 13 106q0 24 -33 275q-8 16 -33 43q-69 1 -132 -64q-51 -58 -101 -116q0 -23 -18.5 -54.5t-18.5 -50.5q0 -8 6 -22q-27 -18 -32 -52
q-1 -5 -1 -63q0 -52 -20 -68q8 -13 8 -26q0 -18 -20.5 -53.5t-20.5 -63.5q0 -4 8.5 -28.5t9.5 -32.5l10 -130q11 -77 68 -100q97 11 180 125q64 97 127 193q9 33 61 124q44 76 44 130q0 32 -8 55l30 455l-10 12l4 18q-14 -1 -43 -6q-13 8 -43 8q-8 0 -25 -1t-26 -1
q-65 0 -65 58q0 4 2 18q43 11 109 14q55 2 110 5q10 65 10 126q0 52 -12 111q29 10 53 10q3 -34 24 -115q19 -72 19 -116l6 2q12 -8 29 -8q13 0 38.5 8t39.5 8q38 0 38 -57z" />
    <glyph glyph-name="nonbreakingspace" unicode="&#xa0;" horiz-adv-x="414" 
 />
    <glyph glyph-name="apple" unicode="&#xf000;" horiz-adv-x="1618" 
d="M1167 1552q0 -131 -103 -234.5t-204 -103.5h-8h-8q-3 1 -8 3q-1 4 -2 14v22q0 132 102 237q96 99 229 124q1 -7 2 -23v-39zM1505 403q-90 -195 -152 -279q-118 -159 -257 -159q-46 0 -129.5 33t-124.5 33q-44 0 -130 -33t-128 -33q-129 0 -258 176q-213 291 -213 596
q0 211 117 349q124 145 331 145q67 0 156 -35q84 -33 123 -33q36 0 121 33q89 35 153 35q112 0 199 -39t160 -123q-201 -128 -201 -328q0 -114 59 -199.5t174 -138.5z" />
    <glyph glyph-name="sfthyphen" unicode="&#xad;" horiz-adv-x="819" 
d="M756 514q-7 -26 -13 -51q-9 -31 -28 -43q-47 18 -109 18q-35 0 -54 -9t-54 -9q-56 0 -103 18q-20 -12 -47 -12q-15 0 -43 8t-43 8q-28 0 -51 -16q-42 6 -82.5 13t-65.5 46q82 23 154 26q-15 -1 156 -1q80 0 177 12q107 13 177 15z" />
    <glyph glyph-name="Euro" unicode="&#x20ac;" horiz-adv-x="1157" 
d="M1053 391q0 -102 -90 -201q-52 -56 -81 -80q-55 -45 -100 -47q-38 -40 -115 -50q-64 -6 -128 -13q-200 61 -226 256q-71 -25 -100 -25q-47 0 -76 43q-2 16 -2 15q0 53 55 53q11 0 31.5 -2t30.5 -2q36 0 51 16q-2 41 -2 54q0 8 2 63q-54 -18 -59 -18q-18 0 -33 12l-10 -10
q-10 18 -54 27q-38 7 -43 36q10 33 58 33q29 0 59 -12q33 1 86 14q16 177 115 518q58 202 149 297q30 -11 41 -41v-12q0 -122 33 -201l-10 -20q0 -38 10 -112t10 -112q0 -59 -20 -116l10 -11q-7 -1 -8.5 -12t-6.5 -11q-2 0 -5 1q-8 -2 -19 -2q-44 0 -57 45q12 18 12 35
q0 10 -6 29.5t-6 29.5q0 17 10 33q-4 14 -4 31q0 10 3 30.5t3 30.5q0 92 -33 131q-40 -57 -69 -172q-33 -131 -58 -178q0 -118 -12 -189q134 41 201 41q61 0 119 -24v-43h-9q-5 0 -15 1t-15 1q-27 0 -35 -23q-44 -4 -130.5 -32t-133.5 -31q3 -44 8 -105q144 21 145 21
q97 0 97 -76q-7 -6 -11 -32q-3 -21 -16 -21q-6 0 -12 2l-19 20q-34 -12 -76 -12q-40 0 -75 12l-11 -10l-8 10h-2q42 -192 217 -192q185 0 387 278q6 8 11 48q4 30 22 30q9 0 21 -4q4 -19 4 -43z" />
    </font>
</defs>
</svg>
