<?xml version="1.0" encoding="utf-8"?>
<!-- Generator: Adobe Illustrator 19.0.0, SVG Export Plug-In . SVG Version: 6.00 Build 0)  -->
<svg version="1.1" id="Слой_1" xmlns="http://www.w3.org/2000/svg" xmlns:xlink="http://www.w3.org/1999/xlink" x="0px" y="0px"
	 viewBox="0 0 365.6 300" style="enable-background:new 0 0 365.6 300;" xml:space="preserve">
<style type="text/css">
	.st0{clip-path:url(#SVGID_2_);}
</style>
<g>
	<g>
		<defs>
			<rect id="SVGID_1_" y="25" width="366" height="251"/>
		</defs>
		<clipPath id="SVGID_2_">
			<use xlink:href="#SVGID_1_"  style="overflow:visible;"/>
		</clipPath>
		<path fill="#ff0000" class="st0" d="M184.4,64C128,64,82.1,109.9,82.1,166.4c0,56.4,45.9,102.3,102.3,102.3c56.4,0,102.3-45.9,102.3-102.3
			C286.7,109.9,240.8,64,184.4,64L184.4,64z M184.4,256.7c-49.8,0-90.3-40.5-90.3-90.3c0-49.8,40.5-90.3,90.3-90.3
			c49.8,0,90.3,40.5,90.3,90.3C274.7,216.2,234.2,256.7,184.4,256.7L184.4,256.7z M184.4,256.7"/>
		<path fill="#ff0000" class="st0" d="M362.5,25.7c-1.9-1.1-4.3-1-6.1,0.2c-1.8,1.2-44.4,29.4-44.4,123.7c0,3.3,2.7,6,6,6h35.6v113.5
			c0,3.3,2.7,6,6,6c3.3,0,6-2.7,6-6V31C365.6,28.8,364.4,26.8,362.5,25.7L362.5,25.7z M324.1,143.6c0.9-42.2,10.9-68.8,19.5-84
			c3.5-6.2,7-11.1,10.1-14.7v98.7H324.1z M324.1,143.6"/>
	</g>
	<path fill="#ff0000" d="M63.6,25c-3.3,0-6,2.7-6,6v75.2c0,1.1-0.9,2-2,2H40.8V31c0-3.3-2.7-6-6-6c-3.3,0-6,2.7-6,6v77.2H14c-1.1,0-2-0.9-2-2V31
		c0-3.3-2.7-6-6-6s-6,2.7-6,6v75.2c0,7.7,6.3,14,14,14h14.8v148.9c0,3.3,2.7,6,6,6c3.3,0,6-2.7,6-6V120.2h14.8c7.7,0,14-6.3,14-14
		V31C69.6,27.7,66.9,25,63.6,25L63.6,25z M63.6,25"/>
</g>
</svg>
