<?xml version="1.0" encoding="utf-8"?>
<!-- Generator: Adobe Illustrator 16.2.0, SVG Export Plug-In . SVG Version: 6.00 Build 0)  -->
<!DOCTYPE svg PUBLIC "-//W3C//DTD SVG 1.1//EN" "http://www.w3.org/Graphics/SVG/1.1/DTD/svg11.dtd">
<svg version="1.1" id="Слой_1" xmlns="http://www.w3.org/2000/svg" xmlns:xlink="http://www.w3.org/1999/xlink" x="0px" y="0px"
	 viewBox="0 0 315 186" enable-background="new 0 0 315 186" xml:space="preserve">
<g>
	<path fill="#FF0000" d="M290.286,184.188c-2.092,0-3.808-1.714-3.808-3.808v-18.846H28.33v18.846c0,2.094-1.713,3.808-3.807,3.808
		c-2.095,0-3.808-1.714-3.808-3.808v-18.846H9.864c-2.095,0-3.808-1.714-3.808-3.811V25.227c0-12.946,10.469-23.416,23.417-23.416
		h256.054c12.947,0,23.416,10.47,23.416,23.416v132.501c0,2.093-1.712,3.809-3.808,3.809h-10.852v18.848
		C294.096,182.475,292.38,184.188,290.286,184.188L290.286,184.188z M290.286,153.922h10.853v-51.973H13.671v51.973H290.286z
		 M13.671,94.334h287.467V78.721c0-6.279-5.142-11.422-11.422-11.422H25.093c-6.281,0-11.421,5.143-11.421,11.422V94.334z
		 M29.473,9.425c-8.758,0-15.802,7.045-15.802,15.802v38.455c3.237-2.476,7.236-3.808,11.421-3.808h10.281v-3.997
		c0-9.518,7.805-17.323,17.324-17.323h72.724c9.52,0,17.324,7.806,17.324,17.323v3.997h29.318v-3.997
		c0-9.518,7.803-17.323,17.324-17.323h72.723c9.521,0,17.325,7.806,17.325,17.323v3.997h10.281c4.189,0,8.184,1.333,11.422,3.808
		V25.227c0-8.757-7.045-15.802-15.803-15.802H29.473z M179.679,59.304h92.142v-3.425c0-5.333-4.381-9.71-9.71-9.71h-72.724
		c-5.329,0-9.712,4.377-9.712,9.71v3.425H179.679z M42.99,59.304h92.141v-3.425c0-5.333-4.377-9.71-9.708-9.71H52.7
		c-5.332,0-9.71,4.377-9.71,9.71V59.304z"/>
</g>
</svg>
