<?xml version="1.0" encoding="utf-8"?>
<!-- Generator: Adobe Illustrator 19.0.0, SVG Export Plug-In . SVG Version: 6.00 Build 0)  -->
<svg version="1.1" id="Слой_1" xmlns="http://www.w3.org/2000/svg" xmlns:xlink="http://www.w3.org/1999/xlink" x="0px" y="0px"
	 viewBox="-88 100 78 76" style="enable-background:new -88 100 78 76;" xml:space="preserve">
<g>
	<path fill="#ff1a25" d="M-64,113v-10c0-2.5-0.5-3-3-3l-4,0c-2.4,0-3,0.6-3,3v10c0,2.5,0.5,3,3,3h4C-64.5,116-64,115.5-64,113z M-24,113v-10
		c0-2.5-0.5-3-3-3l-4,0c-2.4,0-3,0.6-3,3v10c0,2.5,0.5,3,3,3h4C-24.5,116-24,115.5-24,113z M-60,141v-4c0-2.5-0.5-3-3-3l-4,0
		c-2.4,0-3,0.6-3,3v4c0,2.5,0.5,3,3,3h4C-60.5,144-60,143.5-60,141z M-44,141v-4c0-2.5-0.5-3-3-3l-4,0c-2.4,0-3,0.6-3,3v4
		c0,2.5,0.5,3,3,3h4C-44.5,144-44,143.5-44,141z M-28,141v-4c0-2.5-0.5-3-3-3l-4,0c-2.4,0-3,0.6-3,3v4c0,2.5,0.5,3,3,3h4
		C-28.5,144-28,143.5-28,141z M-60,157v-4c0-2.5-0.5-3-3-3l-4,0c-2.4,0-3,0.6-3,3v4c0,2.5,0.5,3,3,3h4C-60.5,160-60,159.5-60,157z
		 M-44,157v-4c0-2.5-0.5-3-3-3l-4,0c-2.4,0-3,0.6-3,3v4c0,2.5,0.5,3,3,3h4C-44.5,160-44,159.5-44,157z M-28,157v-4c0-2.5-0.5-3-3-3
		l-4,0c-2.4,0-3,0.6-3,3v4c0,2.5,0.5,3,3,3h4C-28.5,160-28,159.5-28,157z M-82,176h66c4.8,0,5.9-1,6-6v-58c0-4.7-0.8-6-6-6h-4v11
		c0,2.5-2.5,3-5,3h-10c-2.5,0-3-0.5-3-3v-11h-22v11c0,2.5-0.5,3-3,3h-12c-2.5,0-3-0.5-3-3v-11h-4c-5.2,0-6,1.1-6,6v58
		C-88,174.9-86.8,176-82,176z M-78,126h58v40h-58V126z"/>
</g>
</svg>
