<?xml version="1.0" encoding="utf-8"?>
<!-- Generator: Adobe Illustrator 16.2.0, SVG Export Plug-In . SVG Version: 6.00 Build 0)  -->
<!DOCTYPE svg PUBLIC "-//W3C//DTD SVG 1.1//EN" "http://www.w3.org/Graphics/SVG/1.1/DTD/svg11.dtd">
<svg version="1.1" id="Слой_1" xmlns="http://www.w3.org/2000/svg" xmlns:xlink="http://www.w3.org/1999/xlink" x="0px" y="0px"
	viewBox="0 0 80 80" enable-background="new 0 0 80 80" xml:space="preserve">
<g>
	<g>
		<g>
			<defs>
				<rect id="SVGID_1_" x="0.021" width="79.904" height="80"/>
			</defs>
			<clipPath id="SVGID_2_">
				<use xlink:href="#SVGID_1_"  overflow="visible"/>
			</clipPath>
			<path clip-path="url(#SVGID_2_)" fill="#FF0000" d="M46.865,79.904c-1.784,0-3.421-0.915-4.434-2.457
				c-0.53-0.867-1.447-1.396-2.458-1.396c-1.012,0-1.927,0.529-2.458,1.396c-1.157,1.879-3.278,2.794-5.446,2.361
				c-2.169-0.434-3.759-2.121-4.145-4.29c-0.145-1.011-0.819-1.829-1.735-2.217c-0.916-0.386-1.976-0.289-2.796,0.337
				c-1.782,1.303-4.096,1.303-5.927,0.096c-1.831-1.203-2.699-3.372-2.169-5.541c0.241-0.965-0.048-2.023-0.771-2.698
				c-0.724-0.724-1.736-1.013-2.699-0.772c-2.121,0.484-4.289-0.337-5.542-2.166c-1.206-1.832-1.157-4.147,0.096-5.929
				c0.578-0.821,0.723-1.88,0.337-2.797c-0.386-0.915-1.205-1.589-2.217-1.733c-2.169-0.338-3.855-1.977-4.29-4.145
				c-0.433-2.169,0.481-4.289,2.361-5.447c0.868-0.529,1.397-1.444,1.397-2.457s-0.53-1.929-1.397-2.459
				c-1.88-1.155-2.794-3.275-2.361-5.444c0.434-2.17,2.121-3.76,4.29-4.146c1.012-0.145,1.831-0.819,2.217-1.735
				c0.385-0.915,0.289-1.976-0.337-2.795c-1.302-1.783-1.302-4.097-0.096-5.928c1.205-1.832,3.374-2.699,5.542-2.168
				c0.963,0.241,2.024-0.048,2.699-0.771c0.723-0.722,1.011-1.734,0.771-2.699c-0.482-2.121,0.338-4.289,2.169-5.542
				c1.831-1.206,4.145-1.206,5.927,0.096c0.82,0.578,1.88,0.722,2.796,0.337s1.59-1.205,1.735-2.217
				c0.337-2.168,1.976-3.855,4.145-4.289c2.168-0.434,4.289,0.482,5.446,2.362c0.531,0.867,1.446,1.396,2.458,1.396
				c1.011,0,1.928-0.529,2.458-1.396c1.154-1.88,3.277-2.796,5.446-2.362c2.169,0.434,3.758,2.121,4.146,4.289
				c0.145,1.012,0.818,1.832,1.732,2.217c0.917,0.385,1.977,0.289,2.797-0.337c1.781-1.302,4.098-1.302,5.927-0.096
				c1.831,1.205,2.698,3.374,2.169,5.542c-0.241,0.964,0.048,2.024,0.77,2.699c0.725,0.723,1.738,1.012,2.701,0.771
				c2.121-0.483,4.289,0.337,5.541,2.168c1.205,1.831,1.205,4.145-0.094,5.928c-0.58,0.819-0.725,1.88-0.34,2.795
				c0.386,0.916,1.206,1.59,2.217,1.735c2.169,0.338,3.856,1.975,4.289,4.146c0.434,2.169-0.48,4.289-2.361,5.444
				c-0.866,0.531-1.397,1.447-1.397,2.459s0.531,1.927,1.397,2.457c1.881,1.158,2.795,3.278,2.361,5.447
				c-0.433,2.168-2.12,3.76-4.289,4.145c-1.011,0.145-1.831,0.818-2.217,1.733c-0.385,0.917-0.289,1.976,0.34,2.797
				c1.299,1.781,1.299,4.097,0.094,5.929c-1.203,1.829-3.373,2.695-5.541,2.166c-0.963-0.24-2.024,0.049-2.701,0.772
				c-0.722,0.723-1.011,1.733-0.77,2.698c0.483,2.121-0.338,4.289-2.169,5.541c-1.829,1.207-4.146,1.207-5.927-0.096
				c-0.82-0.578-1.88-0.723-2.797-0.337c-0.914,0.388-1.588,1.206-1.732,2.217c-0.34,2.169-1.977,3.856-4.146,4.29
				C47.541,79.855,47.201,79.904,46.865,79.904L46.865,79.904z M39.974,73.734c1.831,0,3.471,0.918,4.434,2.461
				c0.772,1.252,2.072,1.492,3.035,1.299c0.966-0.191,2.075-0.914,2.315-2.361c0.289-1.783,1.492-3.275,3.132-3.951
				c1.685-0.675,3.567-0.482,5.06,0.577c1.203,0.868,2.506,0.58,3.326,0.048c0.818-0.529,1.541-1.637,1.204-3.083
				c-0.434-1.784,0.099-3.613,1.398-4.867c1.3-1.3,3.132-1.832,4.867-1.398c1.446,0.337,2.554-0.386,3.083-1.204
				c0.532-0.82,0.82-2.12-0.048-3.326c-1.06-1.492-1.3-3.375-0.577-5.06c0.676-1.688,2.168-2.843,3.951-3.132
				c1.447-0.24,2.17-1.35,2.361-2.315c0.193-0.963-0.047-2.263-1.299-3.035c-1.543-0.963-2.461-2.603-2.461-4.433
				c0-1.832,0.918-3.471,2.461-4.434c1.252-0.772,1.492-2.072,1.299-3.037c-0.191-0.964-0.914-2.072-2.361-2.313
				c-1.783-0.289-3.275-1.494-3.951-3.133c-0.675-1.686-0.482-3.566,0.577-5.06c0.868-1.205,0.58-2.506,0.048-3.326
				c-0.529-0.819-1.637-1.542-3.083-1.205c-1.784,0.433-3.613-0.096-4.867-1.398c-1.3-1.301-1.832-3.132-1.398-4.867
				c0.337-1.445-0.386-2.554-1.204-3.084c-0.82-0.53-2.123-0.818-3.326,0.049c-1.492,1.059-3.375,1.253-5.06,0.578
				c-1.688-0.675-2.843-2.169-3.132-4c-0.24-1.445-1.35-2.169-2.315-2.361c-0.963-0.192-2.263,0.048-3.035,1.301
				c-0.963,1.542-2.603,2.458-4.434,2.458c-1.832,0-3.47-0.916-4.433-2.458c-0.772-1.253-2.072-1.494-3.037-1.301
				s-2.072,0.916-2.313,2.361c-0.29,1.784-1.494,3.277-3.133,4c-1.687,0.675-3.566,0.481-5.06-0.578
				c-1.205-0.868-2.506-0.579-3.326-0.049c-0.819,0.531-1.542,1.639-1.205,3.084c0.433,1.784-0.096,3.614-1.398,4.867
				c-1.301,1.302-3.132,1.832-4.867,1.398c-1.446-0.337-2.554,0.385-3.084,1.205c-0.53,0.82-0.819,2.121,0.049,3.326
				c1.06,1.494,1.253,3.374,0.578,5.06c-0.675,1.687-2.169,2.844-4,3.133c-1.445,0.241-2.169,1.349-2.361,2.313
				s0.048,2.265,1.301,3.037c1.542,0.963,2.458,2.602,2.458,4.434c0,1.831-0.916,3.47-2.458,4.433
				c-1.253,0.772-1.494,2.072-1.301,3.035c0.192,0.966,0.916,2.075,2.361,2.315c1.784,0.289,3.277,1.492,3.952,3.132
				c0.675,1.685,0.482,3.567-0.578,5.06c-0.867,1.206-0.578,2.506-0.048,3.326c0.53,0.818,1.639,1.541,3.085,1.204
				c1.783-0.434,3.614,0.099,4.868,1.398c1.301,1.3,1.831,3.132,1.397,4.867c-0.337,1.446,0.385,2.554,1.205,3.083
				c0.819,0.532,2.121,0.82,3.325-0.048c1.494-1.06,3.374-1.3,5.06-0.577c1.687,0.676,2.844,2.168,3.133,3.951
				c0.24,1.447,1.349,2.17,2.313,2.361c0.963,0.193,2.265-0.047,3.035-1.299C36.503,74.652,38.142,73.734,39.974,73.734
				L39.974,73.734z M49.662,55.519c-3.279,0-5.881-2.65-5.881-5.878c0-3.23,2.65-5.881,5.881-5.881c3.228,0,5.877,2.65,5.877,5.881
				C55.539,52.868,52.89,55.519,49.662,55.519L49.662,55.519z M49.662,46.025c-1.977,0-3.568,1.588-3.568,3.564
				c0,1.978,1.592,3.566,3.568,3.566c1.974,0,3.564-1.589,3.564-3.566C53.227,47.664,51.636,46.025,49.662,46.025L49.662,46.025z
				 M25.515,55.519c-0.289,0-0.578-0.097-0.819-0.337c-0.434-0.434-0.434-1.206,0-1.64l28.867-28.867
				c0.434-0.434,1.206-0.434,1.64,0s0.434,1.205,0,1.639L26.335,55.182C26.142,55.422,25.853,55.519,25.515,55.519L25.515,55.519z
				 M30.287,36.145c-3.229,0-5.88-2.65-5.88-5.879c0-3.278,2.651-5.88,5.88-5.88c3.277,0,5.879,2.65,5.879,5.88
				C36.167,33.495,33.516,36.145,30.287,36.145L30.287,36.145z M30.287,26.651c-1.976,0-3.566,1.59-3.566,3.567
				c0,1.976,1.59,3.566,3.566,3.566c1.975,0,3.566-1.59,3.566-3.566C33.853,28.29,32.262,26.651,30.287,26.651L30.287,26.651z"/>
		</g>
	</g>
</g>
</svg>
