<?xml version="1.0" encoding="utf-8"?>
<!-- Generator: Adobe Illustrator 16.2.0, SVG Export Plug-In . SVG Version: 6.00 Build 0)  -->
<!DOCTYPE svg PUBLIC "-//W3C//DTD SVG 1.1//EN" "http://www.w3.org/Graphics/SVG/1.1/DTD/svg11.dtd">
<svg version="1.1" id="Слой_1" xmlns="http://www.w3.org/2000/svg" xmlns:xlink="http://www.w3.org/1999/xlink" x="0px" y="0px"
	viewBox="0 0 315 186" enable-background="new 0 0 315 186" xml:space="preserve">
<path id="XMLID_53_" fill="#E30613" stroke="#E30613" stroke-miterlimit="10" d="M309.871,174.426c0-2.65,2.131-4.762,4.787-4.762
	v-4.348c-2.656,0-4.787-2.121-4.787-4.768c0-2.65,2.131-4.768,4.787-4.768v-4.342c-2.656,0-4.787-2.123-4.787-4.77
	c0-2.648,2.131-4.768,4.787-4.768v-4.344c-2.656,0-4.787-2.117-4.787-4.766c0-2.65,2.131-4.77,4.787-4.77v-5.723
	c-16.365,0-29.545-13.246-29.545-29.454c0-16.32,13.285-29.458,29.545-29.458v-5.828c-2.656,0-4.787-2.118-4.787-4.766
	s2.131-4.768,4.787-4.768v-4.238c-2.656,0-4.787-2.119-4.787-4.767c0-2.653,2.131-4.771,4.787-4.771v-4.239
	c-2.656,0-4.787-2.119-4.787-4.768c0-2.648,2.131-4.766,4.787-4.766v-4.348c-2.656,0-4.787-2.118-4.787-4.767
	c0-2.647,2.131-4.768,4.787-4.768V1.722H0.342v4.766c2.658,0,4.786,2.122,4.786,4.77c0,2.65-2.127,4.766-4.786,4.766v4.347
	c2.658,0,4.786,2.118,4.786,4.766c0,2.648-2.127,4.77-4.786,4.77v4.342c2.658,0,4.786,2.118,4.786,4.77
	c0,2.65-2.127,4.767-4.786,4.767v4.347c2.658,0,4.786,2.118,4.786,4.766c0,2.647-2.127,4.766-4.786,4.766v5.828
	c16.367,0,29.543,13.247,29.543,29.459c0,16.314-13.284,29.455-29.543,29.455v5.721c2.658,0,4.786,2.119,4.786,4.768
	s-2.127,4.77-4.786,4.77v4.346c2.658,0,4.786,2.113,4.786,4.766c0,2.646-2.127,4.766-4.786,4.766v4.346
	c2.658,0,4.786,2.121,4.786,4.766c0,2.65-2.127,4.766-4.786,4.766v4.348c2.658,0,4.786,2.123,4.786,4.768
	c0,2.648-2.127,4.768-4.786,4.768v4.979h314.312v-4.979C312.002,179.195,309.871,177.08,309.871,174.426z"/>
</svg>
