<?xml version="1.0" encoding="utf-8"?>
<!-- Generator: Adobe Illustrator 16.2.0, SVG Export Plug-In . SVG Version: 6.00 Build 0)  -->
<!DOCTYPE svg PUBLIC "-//W3C//DTD SVG 1.1//EN" "http://www.w3.org/Graphics/SVG/1.1/DTD/svg11.dtd">
<svg version="1.1" id="Слой_1" xmlns="http://www.w3.org/2000/svg" xmlns:xlink="http://www.w3.org/1999/xlink" x="0px" y="0px"
	viewBox="0 0 315 186" enable-background="new 0 0 315 186" xml:space="preserve">
<path id="XMLID_53_" fill="#F6F6F6" stroke="#DADADA" stroke-miterlimit="10" d="M309.571,174.493c0-2.649,2.124-4.767,4.777-4.767
	v-4.348c-2.651,0-4.777-2.123-4.777-4.774s2.124-4.772,4.777-4.772v-4.344c-2.651,0-4.777-2.124-4.777-4.776
	c0-2.651,2.124-4.776,4.777-4.776v-4.345c-2.651,0-4.777-2.12-4.777-4.771c0-2.649,2.124-4.775,4.777-4.775v-5.726
	c-16.335,0-29.484-13.257-29.484-29.48c0-16.333,13.255-29.485,29.484-29.485v-5.831c-2.651,0-4.777-2.12-4.777-4.771
	c0-2.65,2.124-4.771,4.777-4.771v-4.244c-2.651,0-4.777-2.119-4.777-4.771c0-2.654,2.124-4.775,4.777-4.775v-4.239
	c-2.651,0-4.777-2.119-4.777-4.77s2.124-4.771,4.777-4.771v-4.349c-2.651,0-4.777-2.119-4.777-4.771
	c0-2.651,2.124-4.775,4.777-4.775V1.639H0.651V6.41c2.65,0,4.775,2.125,4.775,4.776c0,2.648-2.124,4.769-4.775,4.769v4.35
	c2.65,0,4.775,2.121,4.775,4.771c0,2.651-2.124,4.776-4.775,4.776v4.345c2.65,0,4.775,2.119,4.775,4.775
	c0,2.65-2.124,4.771-4.775,4.771v4.349c2.65,0,4.775,2.12,4.775,4.771c0,2.653-2.124,4.771-4.775,4.771v5.832
	c16.333,0,29.484,13.256,29.484,29.484c0,16.33-13.258,29.481-29.484,29.481v5.728c2.65,0,4.775,2.117,4.775,4.769
	c0,2.649-2.124,4.774-4.775,4.774v4.351c2.65,0,4.775,2.116,4.775,4.771c0,2.648-2.124,4.77-4.775,4.77v4.349
	c2.65,0,4.775,2.119,4.775,4.77c0,2.658-2.124,4.773-4.775,4.773v4.348c2.65,0,4.775,2.125,4.775,4.776
	c0,2.652-2.124,4.77-4.775,4.77v4.984h313.697v-4.984C311.695,179.27,309.571,177.146,309.571,174.493z"/>
</svg>
