<?xml version="1.0" encoding="utf-8"?>
<!-- Generator: Adobe Illustrator 16.2.0, SVG Export Plug-In . SVG Version: 6.00 Build 0)  -->
<!DOCTYPE svg PUBLIC "-//W3C//DTD SVG 1.1//EN" "http://www.w3.org/Graphics/SVG/1.1/DTD/svg11.dtd">
<svg version="1.1" id="Слой_1" xmlns="http://www.w3.org/2000/svg" xmlns:xlink="http://www.w3.org/1999/xlink" x="0px" y="0px"
	viewBox="0 0 315 186" enable-background="new 0 0 315 186" xml:space="preserve">
<path id="XMLID_53_" fill="#FCE7E8" stroke="#7F8080" stroke-miterlimit="10" d="M307.996,173.65c0-2.623,2.104-4.715,4.727-4.715
	v-4.305c-2.625,0-4.727-2.104-4.727-4.727s2.104-4.721,4.727-4.721v-4.303c-2.625,0-4.727-2.1-4.727-4.723
	c0-2.625,2.104-4.727,4.727-4.727v-4.299c-2.625,0-4.727-2.1-4.727-4.721c0-2.623,2.104-4.725,4.727-4.725v-5.668
	c-16.162,0-29.18-13.121-29.18-29.176c0-16.162,13.119-29.178,29.18-29.178v-5.771c-2.625,0-4.727-2.099-4.727-4.722
	s2.104-4.72,4.727-4.72v-4.2c-2.625,0-4.727-2.098-4.727-4.721c0-2.626,2.104-4.724,4.727-4.724v-4.199
	c-2.625,0-4.727-2.098-4.727-4.722c0-2.623,2.104-4.721,4.727-4.721V16.86c-2.625,0-4.727-2.098-4.727-4.72s2.104-4.725,4.727-4.725
	V2.588H2.277v4.721c2.624,0,4.725,2.102,4.725,4.725c0,2.624-2.102,4.719-4.725,4.719v4.306c2.624,0,4.725,2.098,4.725,4.721
	s-2.102,4.724-4.725,4.724v4.301c2.624,0,4.725,2.098,4.725,4.724c0,2.624-2.102,4.721-4.725,4.721v4.305
	c2.624,0,4.725,2.099,4.725,4.722s-2.102,4.72-4.725,4.72v5.772c16.164,0,29.18,13.12,29.18,29.179
	c0,16.16-13.122,29.176-29.18,29.176v5.666c2.624,0,4.725,2.098,4.725,4.721s-2.102,4.725-4.725,4.725v4.305
	c2.624,0,4.725,2.096,4.725,4.721c0,2.623-2.102,4.721-4.725,4.721v4.307c2.624,0,4.725,2.098,4.725,4.721
	c0,2.627-2.102,4.719-4.725,4.719v4.305c2.624,0,4.725,2.104,4.725,4.727s-2.102,4.721-4.725,4.721v4.932h310.446v-4.932
	C310.1,178.377,307.996,176.277,307.996,173.65z"/>
</svg>
