<?xml version="1.0" encoding="utf-8"?>
<!-- Generator: Adobe Illustrator 19.0.0, SVG Export Plug-In . SVG Version: 6.00 Build 0)  -->
<svg version="1.1" id="Слой_1" xmlns="http://www.w3.org/2000/svg" xmlns:xlink="http://www.w3.org/1999/xlink" x="0px" y="0px"
	 viewBox="0 0 336 300" style="enable-background:new 0 0 336 300;" xml:space="preserve">
<style type="text/css">
	.st0{clip-path:url(#SVGID_2_);fill:#ff0000;}
	.st1{fill:#ff0000;}
</style>
<g>
	<g>
		<defs>
			<rect id="SVGID_1_" y="16" width="336" height="270"/>
		</defs>
		<clipPath id="SVGID_2_">
			<use xlink:href="#SVGID_1_"  style="overflow:visible;"/>
		</clipPath>
		<path class="st0" d="M330.3,148.7l-35.2-28.1l-3.2-8.3l7.1-4.5h24.8c2,0,3.6-1.6,3.6-3.6V88.7c0-2-1.6-3.6-3.6-3.6h-25.8
			c-2,0-3.6,1.6-3.6,3.6v13.7l-5.1,3.2l-16.8-43.1c-2.9-7.5-10-12.3-18-12.3h-34.9l-8.4-26.8c-1.4-4.4-5.1-7.4-9.2-7.4H134
			c-4.1,0-7.8,3-9.2,7.4l-8.4,26.8H81.5c-8,0-15.1,4.8-18,12.3l-16.8,43.1l-5.1-3.2V88.7c0-2-1.6-3.6-3.6-3.6H12.2
			c-2,0-3.6,1.6-3.6,3.6v15.7c0,2,1.6,3.6,3.6,3.6h24.7l7.1,4.5l-3.2,8.3L5.6,148.7c-4.3,3.4-6.3,8.9-5.3,14.3L10.5,217
			c-5.4,1.8-9.2,7-9.2,12.9v11.5c0,7.5,6.1,13.6,13.6,13.6l14.6,0.1v18c0,6.6,5.4,12,12,12H76c6.6,0,12-5.4,12-12v-17.9h160v17.9
			c0,6.6,5.4,12,12,12h34.5c6.6,0,12-5.4,12-12v-18l14.6-0.1c7.5,0,13.6-6.2,13.6-13.6v-11.5c0-5.9-3.9-11-9.2-12.9l10.3-53.9
			C336.7,157.7,334.6,152.2,330.3,148.7L330.3,148.7z M301.5,92.3h18.6v8.5h-18.6V92.3z M34.4,100.7H15.8v-8.5h18.6V100.7z
			 M287,119.8H161.4l44-48.5h62.8L287,119.8z M195.6,71.3l-44,48.5h-17l44-48.5H195.6z M131.7,25.6c0.4-1.4,1.4-2.4,2.3-2.4h67.9
			c0.9,0,1.9,1,2.3,2.4l7.7,24.7h-88L131.7,25.6z M81.5,57.4h172.9c4.6,0,8.8,2.6,10.8,6.7H70.7C72.7,60,76.8,57.4,81.5,57.4
			L81.5,57.4z M67.8,71.3h101.1l-44,48.5H48.9L67.8,71.3z M80.7,273.1c0,2.6-2.1,4.8-4.8,4.8H41.4c-2.6,0-4.8-2.1-4.8-4.8v-18l5.2,0
			h38.8V273.1z M299.2,273.1c0,2.6-2.1,4.8-4.8,4.8h-34.5c-2.6,0-4.8-2.1-4.8-4.8v-17.9H294l5.2,0V273.1z M327.4,229.9v11.5
			c0,3.5-2.9,6.4-6.4,6.4l-27,0.1H41.9l-27-0.1c-3.5,0-6.4-2.9-6.4-6.4v-11.5c0-2.9,1.9-5.4,4.6-6.2c2.7,3.9,7.2,6.4,12.2,6.4h285.3
			c5,0,9.5-2.5,12.2-6.4C325.4,224.5,327.4,227,327.4,229.9L327.4,229.9z M328.5,161.7l-10.5,55.1c-0.7,3.6-3.8,6.2-7.4,6.2H25.3
			c-3.6,0-6.8-2.6-7.4-6.2L7.3,161.7c-0.5-2.8,0.5-5.6,2.7-7.4L44.4,127h247.1l34.3,27.4C328,156.1,329.1,158.9,328.5,161.7
			L328.5,161.7z M328.5,161.7"/>
	</g>
	<path class="st1" d="M302.1,163.1H33.7c-4.2,0-8.1,1.9-10.8,5.1c-2.7,3.2-3.7,7.5-2.9,11.6l4.5,22.1c1.3,6.5,7.1,11.2,13.7,11.2
		h259.4c6.6,0,12.3-4.7,13.7-11.2l4.5-22.1c0.8-4.1-0.2-8.3-2.9-11.6C310.3,165,306.3,163.1,302.1,163.1L302.1,163.1z M237.3,170.3
		v35.5H98.6v-35.5H237.3z M31.6,200.5l-4.5-22.1c-0.4-2,0.1-4,1.4-5.6c1.3-1.6,3.2-2.5,5.2-2.5h57.7v35.5H38.2
		C35,205.9,32.3,203.6,31.6,200.5L31.6,200.5z M308.7,178.4l-4.5,22.1c-0.6,3.1-3.4,5.4-6.6,5.4h-53.2v-35.5h57.7
		c2,0,3.9,0.9,5.2,2.5C308.6,174.4,309.1,176.4,308.7,178.4L308.7,178.4z M308.7,178.4"/>
	<rect x="146.3" y="30" class="st1" width="8.4" height="8.4"/>
	<rect x="154.7" y="38.4" class="st1" width="8.4" height="8.4"/>
	<rect x="163.1" y="30" class="st1" width="8.4" height="8.4"/>
	<rect x="171.4" y="38.4" class="st1" width="8.4" height="8.4"/>
	<rect x="179.8" y="30" class="st1" width="8.4" height="8.4"/>
</g>
</svg>
