<?xml version="1.0" encoding="utf-8"?>
<!-- Generator: Adobe Illustrator 19.0.0, SVG Export Plug-In . SVG Version: 6.00 Build 0)  -->
<svg version="1.1" id="Слой_1" xmlns="http://www.w3.org/2000/svg" xmlns:xlink="http://www.w3.org/1999/xlink" x="0px" y="0px"
	 viewBox="0 0 300 300" style="enable-background:new 0 0 300 300;" xml:space="preserve">
<g>
	<path d="M219.3,197.8c-1.1,0-2-0.9-2-2v-9.9H81.7v9.9c0,1.1-0.9,2-2,2c-1.1,0-2-0.9-2-2v-9.9H72c-1.1,0-2-0.9-2-2v-69.6
		c0-6.8,5.5-12.3,12.3-12.3h134.5c6.8,0,12.3,5.5,12.3,12.3v69.6c0,1.1-0.9,2-2,2h-5.7v9.9C221.3,196.9,220.4,197.8,219.3,197.8
		L219.3,197.8z M219.3,181.9h5.7v-27.3H74v27.3H219.3z M74,150.6h151v-8.2c0-3.3-2.7-6-6-6H80c-3.3,0-6,2.7-6,6V150.6z M82.3,106
		c-4.6,0-8.3,3.7-8.3,8.3v20.2c1.7-1.3,3.8-2,6-2h5.4v-2.1c0-5,4.1-9.1,9.1-9.1h38.2c5,0,9.1,4.1,9.1,9.1v2.1h15.4v-2.1
		c0-5,4.1-9.1,9.1-9.1h38.2c5,0,9.1,4.1,9.1,9.1v2.1h5.4c2.2,0,4.3,0.7,6,2v-20.2c0-4.6-3.7-8.3-8.3-8.3H82.3z M161.2,132.2h48.4
		v-1.8c0-2.8-2.3-5.1-5.1-5.1h-38.2c-2.8,0-5.1,2.3-5.1,5.1V132.2z M89.4,132.2h48.4v-1.8c0-2.8-2.3-5.1-5.1-5.1H94.5
		c-2.8,0-5.1,2.3-5.1,5.1V132.2z M89.4,132.2"/>
</g>
</svg>
