<?xml version="1.0" encoding="utf-8"?>
<!-- Generator: Adobe Illustrator 19.0.0, SVG Export Plug-In . SVG Version: 6.00 Build 0)  -->
<svg version="1.1" id="Слой_1" xmlns="http://www.w3.org/2000/svg" xmlns:xlink="http://www.w3.org/1999/xlink" x="0px" y="0px"
	 viewBox="-104 115.2 90 48.6" style="enable-background:new -104 115.2 90 48.6;" xml:space="preserve">
<g>
	<path d="M-43,153.2c-1.9-2.9-4.1-4.8-7.4-5.9c0,0-2.5-1.3-8.9-1.3c-6.4,0-8.9,1.3-8.9,1.3c-3.2,1.1-5.5,3-7.4,5.9
		c-0.7,1.1-1.1,3.4-1.2,4.7c0,0.3,0,0.7,0,1.1v2.1v-1.5c0,2.3,1.6,4.2,3.6,4.2h27.7c2,0,3.6-1.9,3.6-4.2v1.5v-2.1c0-0.4,0-0.7,0-1.1
		C-41.8,156.6-42.2,154.3-43,153.2 M-69,130c0,5.4,3.4,13.4,9.8,13.4c6.3,0,9.8-8,9.8-13.4s-4.4-9.8-9.8-9.8
		C-64.6,120.1-69,124.5-69,130"/>
	<g>
		<path d="M-70,144.8c-1.6-2-3.5-3.4-6-4.2c0,0-2.3-1.2-8.3-1.2c-6,0-8.3,1.2-8.3,1.2c-3,1-5.2,2.8-6.9,5.5
			c-0.7,1.1-1.1,3.2-1.1,4.4c0,0.3,0,0.6,0,1v0.6c0,2.2,1.5,4,3.3,4h16.7c0.2-1.4,0.7-2.9,1.3-3.8C-76.9,148.6-74,146.2-70,144.8z"
			/>
		<path d="M-84.3,136.9c5.9,0,9.1-7.5,9.1-12.5c0-5.1-4.1-9.2-9.1-9.2c-5,0-9.1,4.1-9.1,9.2C-93.4,129.5-90.2,136.9-84.3,136.9z"/>
	</g>
	<g>
		<path d="M-48.4,144.8c1.6-2,3.5-3.4,6-4.2c0,0,2.3-1.2,8.3-1.2c6,0,8.3,1.2,8.3,1.2c3,1,5.2,2.8,6.9,5.5c0.7,1.1,1.1,3.2,1.1,4.4
			c0,0.3,0,0.6,0,1v0.6c0,2.2-1.5,4-3.3,4h-16.7c-0.2-1.4-0.7-2.9-1.3-3.8C-41.5,148.6-44.4,146.2-48.4,144.8z"/>
		<path d="M-34.1,136.9c-5.9,0-9.1-7.5-9.1-12.5c0-5.1,4.1-9.2,9.1-9.2c5,0,9.1,4.1,9.1,9.2C-25,129.5-28.2,136.9-34.1,136.9z"/>
	</g>
</g>
</svg>
