<?xml version="1.0" encoding="utf-8"?>
<!-- Generator: Adobe Illustrator 19.0.0, SVG Export Plug-In . SVG Version: 6.00 Build 0)  -->
<svg version="1.1" id="Слой_1" xmlns="http://www.w3.org/2000/svg" xmlns:xlink="http://www.w3.org/1999/xlink" x="0px" y="0px"
	 viewBox="-79.7 104.9 63.8 87" style="enable-background:new -79.7 104.9 63.8 87;" xml:space="preserve">
<g>
	<path d="M-47.6,124c-7.1,0-12.6,5.9-12.6,12.6c0,7.1,5.9,12.6,12.6,12.6s12.6-5.9,12.6-12.6C-35.4,129.3-40.9,124-47.6,124z"/>
	<path d="M-47.7,191.9c0,0,31.8-31.2,31.8-54.9c-0.2-17.9-14.2-32.1-31.7-32.1c-17.9,0-32.1,14.2-32.1,32.1
		C-79.7,160.9-47.7,191.9-47.7,191.9 M-47.6,153.5c-9.3,0-17.1-7.9-17.1-17.1c0-9.2,7.9-17.1,17.1-17.1c9.3,0,17.1,7.9,17.1,17.1
		C-30.5,145.6-38.7,153.5-47.6,153.5z"/>
</g>
</svg>
