<?xml version="1.0" encoding="utf-8"?>
<!-- Generator: Adobe Illustrator 19.0.0, SVG Export Plug-In . SVG Version: 6.00 Build 0)  -->
<svg version="1.1" id="Слой_1" xmlns="http://www.w3.org/2000/svg" xmlns:xlink="http://www.w3.org/1999/xlink" x="0px" y="0px"
	 viewBox="0 0 300 300" style="enable-background:new 0 0 300 300;" xml:space="preserve">
<style type="text/css">
	.st0{clip-path:url(#SVGID_2_);}
</style>
<g>
	<g>
		<defs>
			<rect id="SVGID_1_" x="67" y="67" width="165.8" height="166"/>
		</defs>
		<clipPath id="SVGID_2_">
			<use xlink:href="#SVGID_1_"  style="overflow:visible;"/>
		</clipPath>
		<path class="st0" d="M164.2,232.8c-3.7,0-7.1-1.9-9.2-5.1c-1.1-1.8-3-2.9-5.1-2.9c-2.1,0-4,1.1-5.1,2.9c-2.4,3.9-6.8,5.8-11.3,4.9
			c-4.5-0.9-7.8-4.4-8.6-8.9c-0.3-2.1-1.7-3.8-3.6-4.6c-1.9-0.8-4.1-0.6-5.8,0.7c-3.7,2.7-8.5,2.7-12.3,0.2c-3.8-2.5-5.6-7-4.5-11.5
			c0.5-2-0.1-4.2-1.6-5.6c-1.5-1.5-3.6-2.1-5.6-1.6c-4.4,1-8.9-0.7-11.5-4.5c-2.5-3.8-2.4-8.6,0.2-12.3c1.2-1.7,1.5-3.9,0.7-5.8
			c-0.8-1.9-2.5-3.3-4.6-3.6c-4.5-0.7-8-4.1-8.9-8.6c-0.9-4.5,1-8.9,4.9-11.3c1.8-1.1,2.9-3,2.9-5.1c0-2.1-1.1-4-2.9-5.1
			c-3.9-2.4-5.8-6.8-4.9-11.3c0.9-4.5,4.4-7.8,8.9-8.6c2.1-0.3,3.8-1.7,4.6-3.6c0.8-1.9,0.6-4.1-0.7-5.8c-2.7-3.7-2.7-8.5-0.2-12.3
			c2.5-3.8,7-5.6,11.5-4.5c2,0.5,4.2-0.1,5.6-1.6c1.5-1.5,2.1-3.6,1.6-5.6c-1-4.4,0.7-8.9,4.5-11.5c3.8-2.5,8.6-2.5,12.3,0.2
			c1.7,1.2,3.9,1.5,5.8,0.7c1.9-0.8,3.3-2.5,3.6-4.6c0.7-4.5,4.1-8,8.6-8.9c4.5-0.9,8.9,1,11.3,4.9c1.1,1.8,3,2.9,5.1,2.9
			c2.1,0,4-1.1,5.1-2.9c2.4-3.9,6.8-5.8,11.3-4.9c4.5,0.9,7.8,4.4,8.6,8.9c0.3,2.1,1.7,3.8,3.6,4.6c1.9,0.8,4.1,0.6,5.8-0.7
			c3.7-2.7,8.5-2.7,12.3-0.2c3.8,2.5,5.6,7,4.5,11.5c-0.5,2,0.1,4.2,1.6,5.6c1.5,1.5,3.6,2.1,5.6,1.6c4.4-1,8.9,0.7,11.5,4.5
			c2.5,3.8,2.5,8.6-0.2,12.3c-1.2,1.7-1.5,3.9-0.7,5.8c0.8,1.9,2.5,3.3,4.6,3.6c4.5,0.7,8,4.1,8.9,8.6c0.9,4.5-1,8.9-4.9,11.3
			c-1.8,1.1-2.9,3-2.9,5.1c0,2.1,1.1,4,2.9,5.1c3.9,2.4,5.8,6.8,4.9,11.3c-0.9,4.5-4.4,7.8-8.9,8.6c-2.1,0.3-3.8,1.7-4.6,3.6
			c-0.8,1.9-0.6,4.1,0.7,5.8c2.7,3.7,2.7,8.5,0.2,12.3s-7,5.6-11.5,4.5c-2-0.5-4.2,0.1-5.6,1.6c-1.5,1.5-2.1,3.6-1.6,5.6
			c1,4.4-0.7,8.9-4.5,11.5c-3.8,2.5-8.6,2.5-12.3-0.2c-1.7-1.2-3.9-1.5-5.8-0.7c-1.9,0.8-3.3,2.5-3.6,4.6c-0.7,4.5-4.1,8-8.6,8.9
			C165.6,232.7,164.9,232.8,164.2,232.8L164.2,232.8z M149.9,220c3.8,0,7.2,1.9,9.2,5.1c1.6,2.6,4.3,3.1,6.3,2.7
			c2-0.4,4.3-1.9,4.8-4.9c0.6-3.7,3.1-6.8,6.5-8.2c3.5-1.4,7.4-1,10.5,1.2c2.5,1.8,5.2,1.2,6.9,0.1c1.7-1.1,3.2-3.4,2.5-6.4
			c-0.9-3.7,0.2-7.5,2.9-10.1c2.7-2.7,6.5-3.8,10.1-2.9c3,0.7,5.3-0.8,6.4-2.5c1.1-1.7,1.7-4.4-0.1-6.9c-2.2-3.1-2.7-7-1.2-10.5
			c1.4-3.5,4.5-5.9,8.2-6.5c3-0.5,4.5-2.8,4.9-4.8c0.4-2-0.1-4.7-2.7-6.3c-3.2-2-5.1-5.4-5.1-9.2c0-3.8,1.9-7.2,5.1-9.2
			c2.6-1.6,3.1-4.3,2.7-6.3c-0.4-2-1.9-4.3-4.9-4.8c-3.7-0.6-6.8-3.1-8.2-6.5c-1.4-3.5-1-7.4,1.2-10.5c1.8-2.5,1.2-5.2,0.1-6.9
			c-1.1-1.7-3.4-3.2-6.4-2.5c-3.7,0.9-7.5-0.2-10.1-2.9c-2.7-2.7-3.8-6.5-2.9-10.1c0.7-3-0.8-5.3-2.5-6.4c-1.7-1.1-4.4-1.7-6.9,0.1
			c-3.1,2.2-7,2.6-10.5,1.2c-3.5-1.4-5.9-4.5-6.5-8.3c-0.5-3-2.8-4.5-4.8-4.9c-2-0.4-4.7,0.1-6.3,2.7c-2,3.2-5.4,5.1-9.2,5.1
			c-3.8,0-7.2-1.9-9.2-5.1c-1.6-2.6-4.3-3.1-6.3-2.7c-2,0.4-4.3,1.9-4.8,4.9c-0.6,3.7-3.1,6.8-6.5,8.3c-3.5,1.4-7.4,1-10.5-1.2
			c-2.5-1.8-5.2-1.2-6.9-0.1c-1.7,1.1-3.2,3.4-2.5,6.4c0.9,3.7-0.2,7.5-2.9,10.1c-2.7,2.7-6.5,3.8-10.1,2.9c-3-0.7-5.3,0.8-6.4,2.5
			c-1.1,1.7-1.7,4.4,0.1,6.9c2.2,3.1,2.6,7,1.2,10.5c-1.4,3.5-4.5,5.9-8.3,6.5c-3,0.5-4.5,2.8-4.9,4.8c-0.4,2,0.1,4.7,2.7,6.3
			c3.2,2,5.1,5.4,5.1,9.2c0,3.8-1.9,7.2-5.1,9.2c-2.6,1.6-3.1,4.3-2.7,6.3c0.4,2,1.9,4.3,4.9,4.8c3.7,0.6,6.8,3.1,8.2,6.5
			c1.4,3.5,1,7.4-1.2,10.5c-1.8,2.5-1.2,5.2-0.1,6.9c1.1,1.7,3.4,3.2,6.4,2.5c3.7-0.9,7.5,0.2,10.1,2.9c2.7,2.7,3.8,6.5,2.9,10.1
			c-0.7,3,0.8,5.3,2.5,6.4c1.7,1.1,4.4,1.7,6.9-0.1c3.1-2.2,7-2.7,10.5-1.2c3.5,1.4,5.9,4.5,6.5,8.2c0.5,3,2.8,4.5,4.8,4.9
			c2,0.4,4.7-0.1,6.3-2.7C142.7,221.9,146.1,220,149.9,220L149.9,220z M170,182.2c-6.8,0-12.2-5.5-12.2-12.2s5.5-12.2,12.2-12.2
			s12.2,5.5,12.2,12.2S176.7,182.2,170,182.2L170,182.2z M170,162.5c-4.1,0-7.4,3.3-7.4,7.4c0,4.1,3.3,7.4,7.4,7.4
			c4.1,0,7.4-3.3,7.4-7.4C177.4,165.9,174.1,162.5,170,162.5L170,162.5z M119.9,182.2c-0.6,0-1.2-0.2-1.7-0.7
			c-0.9-0.9-0.9-2.5,0-3.4l59.9-59.9c0.9-0.9,2.5-0.9,3.4,0c0.9,0.9,0.9,2.5,0,3.4l-59.9,59.9C121.2,182,120.6,182.2,119.9,182.2
			L119.9,182.2z M129.8,142c-6.7,0-12.2-5.5-12.2-12.2c0-6.8,5.5-12.2,12.2-12.2c6.8,0,12.2,5.5,12.2,12.2
			C142,136.5,136.5,142,129.8,142L129.8,142z M129.8,122.3c-4.1,0-7.4,3.3-7.4,7.4c0,4.1,3.3,7.4,7.4,7.4c4.1,0,7.4-3.3,7.4-7.4
			C137.2,125.7,133.9,122.3,129.8,122.3L129.8,122.3z M129.8,122.3"/>
	</g>
</g>
</svg>
